<?xml version="1.0" encoding="UTF-8" standalone="no"?>
<svg
   xmlns:dc="http://purl.org/dc/elements/1.1/"
   xmlns:cc="http://creativecommons.org/ns#"
   xmlns:rdf="http://www.w3.org/1999/02/22-rdf-syntax-ns#"
   xmlns:svg="http://www.w3.org/2000/svg"
   xmlns="http://www.w3.org/2000/svg"
   xmlns:sodipodi="http://sodipodi.sourceforge.net/DTD/sodipodi-0.dtd"
   xmlns:inkscape="http://www.inkscape.org/namespaces/inkscape"
   sodipodi:docname="drawing.svg"
   inkscape:version="1.0 (4035a4fb49, 2020-05-01)"
   id="svg8"
   version="1.1"
   viewBox="0 0 1000 300"
   height="300mm"
   width="1000mm">
  <defs
     id="defs2" />
  <sodipodi:namedview
     height="1188mm"
     inkscape:window-maximized="1"
     inkscape:window-y="27"
     inkscape:window-x="0"
     inkscape:window-height="1016"
     inkscape:window-width="1920"
     showgrid="false"
     inkscape:document-rotation="0"
     inkscape:current-layer="layer1"
     inkscape:document-units="mm"
     inkscape:cy="315.7164"
     inkscape:cx="1889.7638"
     inkscape:zoom="0.35"
     inkscape:pageshadow="2"
     inkscape:pageopacity="0.0"
     borderopacity="1.0"
     bordercolor="#666666"
     pagecolor="#ffffff"
     id="base" />
  <metadata
     id="metadata5">
    <rdf:RDF>
      <cc:Work
         rdf:about="">
        <dc:format>image/svg+xml</dc:format>
        <dc:type
           rdf:resource="http://purl.org/dc/dcmitype/StillImage" />
        <dc:title></dc:title>
      </cc:Work>
    </rdf:RDF>
  </metadata>
  <g
     id="layer1"
     inkscape:groupmode="layer"
     inkscape:label="Layer 1">
    <path
       d="m 11.070089,101.68776 c 31.890869,-8.900399 64.10994,-17.006613 96.364251,-25.039866 38.21317,-8.240288 76.59628,-16.120804 115.37839,-22.534742 25.01542,-4.137143 36.03303,-5.40687 61.31701,-8.783949 10.32859,-1.289217 20.6678,-2.526351 30.98577,-3.867655 32.36748,-4.207696 64.59456,-8.784031 97.19419,-11.797284 29.24032,-2.702751 38.91868,-3.036699 68.22329,-4.776221 70.53926,-3.416108 141.24334,-3.721604 211.89091,-3.644418 23.4305,0.0017 46.89621,0.277485 70.26855,1.693198 6.93483,0.42006 8.376,1.578504 5.46237,-0.229615 10.55147,-6.318023 23.62187,-10.639086 31.65422,-18.9540653 3.29945,-3.41547324 -10.61843,1.8636437 -15.95253,2.7000191 -9.65623,1.5140701 -19.31583,3.022125 -29.01563,4.3508662 -13.27343,1.818254 -26.61375,3.320133 -39.89788,5.08925 -10.49115,1.397182 -88.8432,12.28759 -98.02873,13.562531 -42.60184,5.961429 -85.26956,11.618883 -127.65085,18.515472 -20.80021,3.384782 -37.81732,6.180316 -58.03516,10.951162 -8.33897,1.967775 -16.50453,4.368228 -24.75683,6.552329 -30.38888,8.988878 -60.36061,19.091493 -89.23494,30.820426 -13.28181,5.395152 -25.84938,11.160082 -38.83081,16.975632 -35.252,15.35039 -69.76245,31.83912 -101.69566,51.24268 -11.13972,6.76883 -16.40242,10.58845 -26.94373,17.81603 -22.14069,14.95053 -42.79986,31.25931 -62.466415,48.21918 C 73.149,243.12013 57.996346,254.95902 43.062293,266.94377 30.3462,277.12478 16.969399,286.75926 3.7123038,296.49262 c -0.3543955,0.28466 -1.5266537,1.0107 -1.0631843,0.85241 16.1947025,-5.53064 32.5931245,-10.74166 48.3557295,-17.00323 4.716215,-1.87349 8.468848,-4.98637 12.851584,-7.31104 6.919616,-3.67013 13.82565,-7.37583 21.043993,-10.66731 1.922536,-0.8767 -7.163066,4.01973 -5.090121,3.39249 14.054431,-4.2528 27.553775,-9.57241 41.330665,-14.35864 17.38727,-4.79715 34.55287,-10.12875 52.16179,-14.39141 71.23575,-17.24431 144.66458,-27.06389 218.20226,-35.75152 87.10036,-10.28993 94.90908,-10.28293 183.89505,-18.08298 130.67786,-10.29429 261.91266,-14.78305 393.15069,-17.23679 0,0 31.37501,-18.13602 31.37501,-18.13602 v 0 c -132.66143,4.447 -265.34549,9.51899 -397.55651,19.53673 -91.44083,7.67589 -93.33453,7.17063 -182.70175,17.2185 -90.23788,10.14571 -180.98378,21.58445 -266.72509,46.97753 -58.08901,19.38275 -38.69039,11.56908 -108.256499,43.19638 -7.593195,3.45215 -14.8406,7.36126 -22.144606,11.1832 -4.759503,2.49039 -19.6853026,8.41247 -14.0385995,7.74987 29.1731455,-3.42354 28.4296435,-2.92483 37.6324975,-10.9234 13.029409,-9.72187 26.102966,-19.41468 38.699684,-29.48861 14.936948,-11.91643 29.871873,-23.85156 43.927403,-36.42754 19.60452,-16.73471 40.06758,-32.87605 62.07488,-47.65142 18.40688,-12.44072 37.37966,-24.08889 57.52653,-34.74291 5.38773,-2.84911 22.7482,-9.19705 16.36406,-8.30525 -7.60613,1.06249 -13.5221,5.9018 -20.28313,8.8527 11.34943,-5.13776 27.2953,-12.46531 38.82881,-17.23813 28.83377,-11.93206 58.86629,-22.092959 89.20291,-31.359822 8.26942,-2.285392 16.44822,-4.786803 24.80833,-6.856176 20.49049,-5.071982 37.82912,-8.134507 58.95088,-11.777453 42.77941,-7.37835 85.89267,-13.392199 128.99881,-19.43524 24.17624,-3.285012 71.94439,-9.868415 96.74041,-12.885423 77.88918,-9.477017 4.46371,0.255949 66.38152,-7.753209 5.01495,-0.648685 10.45308,-0.309295 15.01722,-2.074484 15.72666,-6.082421 30.1064,-14.13299 45.15964,-21.1994715 -0.67991,-0.6704591 -1.00405,-1.749401 -2.0396,-2.0113431 -2.25192,-0.569627 -4.72141,-0.2161263 -7.08379,-0.2964855 C 795.77107,1.9632082 792.13152,1.8543642 788.49104,1.7708301 767.90481,1.2987655 747.30527,1.2125771 726.71377,1.5444965 655.90157,2.0459341 585.03564,2.0709335 514.30946,5.1967093 487.67779,6.7297578 472.62463,7.3893463 446.07339,9.7467764 403.11467,13.560975 360.69263,20.107685 317.97628,25.216103 c -25.49913,3.322467 -36.18994,4.50573 -61.43107,8.623772 -38.58669,6.295369 -76.76325,14.07785 -114.89146,21.886288 -31.48771,7.695261 -62.904253,15.529982 -94.280608,23.486868 0,0 -36.303053,22.474779 -36.303053,22.474779 z"
       id="path20"
       style="fill:#000000;fill-opacity:1;fill-rule:nonzero;stroke:none;stroke-width:0.968289" />
  </g>
</svg>
