<svg width="36" height="65" viewBox="0 0 36 65" fill="none" xmlns="http://www.w3.org/2000/svg">
<path d="M35.8288 62.3122C34.5824 59.6609 35.0509 55.164 35.0686 52.3307C35.1039 47.6519 34.8652 43.1117 34.4851 38.4502C34.3614 36.9339 31.8331 36.336 31.5679 38.0776C30.79 43.1896 31.7094 48.657 31.6033 53.8557C31.5945 54.0723 31.5944 54.2975 31.5944 54.5142C30.569 51.7935 29.5259 49.0815 28.2883 46.4475C25.7866 41.1102 23.2849 35.7728 20.7125 30.4702C18.3522 25.6094 15.3908 21.0692 12.2615 16.6676C10.5996 14.3195 9.19406 11.7981 7.59403 9.40674C5.71996 6.60811 2.82047 3.67084 1.63592 0.551617C1.27348 -0.410143 -0.308873 -0.0115757 0.0535642 0.958849C1.01712 3.52354 3.05032 5.64635 4.5973 7.90778C6.36529 10.4811 7.75314 13.1758 9.35317 15.8358C12.2792 20.7226 14.9665 25.7393 17.3975 30.912C19.8815 36.1887 22.2153 41.5174 24.6816 46.8114C25.4154 48.3797 26.0783 49.9653 26.7325 51.5682C23.9921 48.8129 20.9158 46.3522 17.7511 44.1341C16.6284 43.3456 15.329 44.8706 15.9301 45.919C16.5312 46.976 17.8572 47.7818 18.7765 48.579C20.5003 50.0606 22.2948 51.4383 23.9125 53.0412C26.2463 55.3546 28.3944 57.876 30.4453 60.4493C31.0022 61.6537 31.5856 62.8494 32.2309 64.0105C32.4166 64.9722 33.7779 65.2408 34.5823 64.7816C35.5459 64.5303 36.368 63.4733 35.8288 62.3122Z" fill="#99AA80"/>
</svg>
