<svg width="45" height="14" viewBox="0 0 90 25" fill="none" xmlns="http://www.w3.org/2000/svg">
<path d="M89.2859 4.85417C85.4021 4.52068 81.642 5.44704 77.7583 5.4841C73.7261 5.52115 69.7062 5.08885 65.6864 5.16296C58.5002 5.28647 50.9553 6.87982 43.9547 8.39907C39.7493 9.31308 35.9521 10.6594 31.6354 11.0793C28.9638 11.3387 26.5025 11.9069 24.004 12.5986C28.197 9.95536 32.3652 7.12685 36.8303 5.21236C39.9101 3.89075 37.3003 -0.666973 34.2576 0.679346C24.3874 5.03944 15.9644 12.3022 6.7497 17.9221C5.59942 18.4038 4.44912 18.9226 3.33594 19.5402C2.9154 19.7748 2.60617 20.0713 2.39591 20.4048C2.1609 20.5283 1.91355 20.6642 1.67854 20.7877C0.256143 21.5164 0.689039 23.3815 1.86406 23.9497C2.07433 24.2832 2.38355 24.5549 2.82882 24.6908C6.21783 25.6912 12.7609 23.3691 16.657 22.9739C24.1524 22.2205 31.5242 21.257 39.0196 22.5169C40.5162 23.2333 42.6065 22.5292 42.557 20.4048C42.557 20.3183 42.557 20.2195 42.557 20.133C42.5323 19.0585 41.7777 17.9221 40.6769 17.6998C35.2347 16.5758 29.5204 16.5634 23.9545 17.1563C24.004 17.144 24.0535 17.1316 24.0906 17.1069C27.5043 15.9459 30.9552 15.5506 34.4679 14.8466C38.3517 14.0684 42.0252 12.4133 45.9089 11.5981C53.5033 9.99242 61.2584 8.46082 69.0012 7.99146C75.9771 7.57151 82.582 7.60856 89.4837 6.28695C90.3248 6.11403 90.0527 4.92828 89.2859 4.85417Z" fill="#99AA80"/>
</svg>
