<svg width="168" height="52" viewBox="0 0 168 52" fill="none" xmlns="http://www.w3.org/2000/svg">
<path d="M167.592 49.0521C162.36 44.8526 155.52 42.1599 149.323 39.6649C143.015 37.1205 136.621 34.7119 130.535 31.6735C118.142 25.4853 103.844 23.3856 90.7451 19.4454C87.5787 18.4943 84.1403 18.4449 80.8749 17.605C77.2385 16.6787 73.5774 15.9623 69.9039 15.1718C62.8414 13.6525 55.8778 12.1333 48.6792 11.5157C41.9878 10.9352 35.3705 9.67533 28.7533 8.41547C28.778 8.41547 28.8151 8.40312 28.8399 8.40312C36.3848 7.69909 44.511 5.62401 52.0559 5.71048C55.5315 5.74753 55.5315 0.362251 52.0559 0.325196C48.2093 0.288142 44.2389 1.31334 40.4293 1.90621C36.3724 2.53614 32.1671 2.5979 28.073 3.04255C23.4966 3.52426 18.9202 4.33947 14.3561 4.72237C11.9813 4.91999 9.68077 4.94469 7.40493 5.24113C6.24227 5.16702 5.0796 5.09291 3.90457 5.06821C-0.164724 4.95704 -0.164724 11.3057 3.90457 11.3799C4.62196 11.3922 5.32701 11.4416 6.03202 11.4787C10.8805 13.5414 16.4094 14.3442 21.196 16.654C25.2777 18.6179 28.9883 21.3228 32.4639 24.2008C34.4553 25.8435 36.1498 27.6468 37.7948 29.6231C38.1782 30.0924 40.454 33.6003 40.0088 31.5129C40.7261 34.9713 46.02 33.5632 45.315 30.1295C45.0058 28.6473 43.6452 27.9927 42.6557 26.9675C40.5035 24.7319 38.7596 22.3604 36.3477 20.3224C34.1213 18.4449 31.7713 16.6663 29.3223 15.0606C34.9624 15.987 40.8004 16.444 46.4529 17.0986C60.6769 18.7661 75.5564 20.8906 89.3598 24.7566C102.805 28.5238 116.917 30.4754 129.62 36.6141C134.555 38.9979 139.787 41.2335 145.007 42.9381C152.267 45.2972 158.884 49.4844 166.392 51.1024C167.505 51.3124 168.606 49.8549 167.592 49.0521Z" fill="#99AA80"/>
</svg>
