<svg width="35" height="59" viewBox="0 0 79 130" fill="none" xmlns="http://www.w3.org/2000/svg">
<path d="M62.1404 117.464C62.7462 115.278 63.009 112.932 63.277 110.737C63.3792 109.948 63.4838 109.051 63.5259 108.117C63.7165 107.096 63.7988 106.072 63.5789 105.168C65.1635 97.9756 66.1514 89.6737 64.8312 82.6815C64.7607 82.3305 64.3358 82.2682 64.1674 82.584C60.0971 90.4472 59.5843 100.317 57.3466 108.817C57.25 109.198 57.1687 109.568 57.1006 109.939C56.2718 104.681 55.1888 99.3999 53.9476 94.2722C53.273 91.4756 52.1531 88.9406 51.5831 86.0776C51.0986 83.6496 51.2639 81.0444 50.6766 78.6694C49.9424 75.6324 48.2021 72.6113 47.2932 69.5624C46.373 66.4981 45.6751 63.3984 44.6846 60.3511C41.4156 50.28 36.774 40.6886 33.0297 30.8065C29.0789 20.3901 25.0141 8.71713 17.7853 0.0266701C17.7627 -0.00390097 17.717 0.0302632 17.7396 0.0608342C20.5483 4.39681 23.305 10.1965 25.5411 14.8299C28.3902 20.7386 29.8771 26.965 31.4697 33.3024C33.7468 42.3696 36.8692 50.8525 39.6251 59.7992C41.3949 65.5767 42.6553 71.4975 44.3681 77.2938C45.9088 82.5064 46.3837 87.9576 47.9697 93.2313C49.2058 97.3773 50.0939 101.677 50.9136 105.98C50.2786 104.946 49.6303 103.911 48.9535 102.885C46.7232 99.5061 44.0561 96.6078 41.6961 93.3732C39.6511 90.5798 38.28 88.1851 34.748 87.2988C34.0939 87.1347 33.623 88.0329 34.0118 88.5259C38.8249 94.5458 42.4671 101.797 46.1193 108.518C47.968 111.91 49.6516 115.317 51.3882 118.733C51.4842 118.911 51.5669 119.086 51.661 119.277C51.6832 119.403 51.7207 119.518 51.7429 119.644C52.0957 121.398 52.773 123.16 53.5422 124.758C54.2473 126.237 55.0453 128.194 56.7052 128.805C57.7208 129.186 58.4903 129.026 59.0825 128.595C59.5215 128.469 59.9328 128.162 60.1911 127.696C61.7371 124.925 62.0118 121.205 62.1404 117.464Z" fill="#FFCD1E"/>
</svg>
