<svg width="65" height="45" viewBox="0 0 130 86" fill="none" xmlns="http://www.w3.org/2000/svg">
<path d="M128.427 81.3247C126.189 79.1755 123.913 77.051 121.612 74.9389C120.784 73.7038 119.893 72.4933 119.225 71.2952C117.716 68.5779 116.046 66.0581 114.735 63.2173C110.765 54.6453 108.675 45.641 105.521 36.8344C104.964 35.2904 102.8 35.1669 102.292 36.8344C100.981 41.1451 102.874 45.3446 104.222 49.47C105.681 53.9536 107.265 58.4743 109.33 62.6985C109.689 63.4273 110.048 64.2054 110.419 64.9959C96.2812 52.7679 81.4759 41.2562 66.4108 30.3127C61.216 26.5332 55.7119 23.7541 50.0965 20.6044C44.1967 17.2818 37.765 15.0462 31.8651 11.7978C22.9596 6.88183 11.6547 1.21247 1.38866 0.100828C0.757856 0.0267188 0.609429 1.10131 1.24023 1.21247C11.8278 3.08991 22.6381 9.80915 31.8898 14.9227C43.0959 21.1232 54.5864 26.9531 64.9266 34.5617C75.44 42.2937 85.2483 50.5075 94.9949 59.203C97.5552 61.4881 100.165 63.7113 102.8 65.9223C97.8644 64.5512 92.8551 63.1802 87.8087 62.3156C84.197 61.698 78.8537 60.1541 75.4029 61.8092C74.0052 62.4885 74.5865 64.3413 75.7863 64.7859C85.6318 68.4173 96.5286 68.0714 106.263 72.6168C110.715 74.6919 115.304 77.6933 118.916 80.9788C120.413 82.3498 121.761 83.6962 123.826 83.9555C124.16 84.2643 124.494 84.5731 124.828 84.8819C127.215 87.1052 130.777 83.5726 128.427 81.3247Z" fill="#99AA80"/>
</svg>
