<svg width="75" height="105" viewBox="0 0 136 193" fill="none" xmlns="http://www.w3.org/2000/svg">
<path d="M117.65 133.233C116.972 132.571 115.937 133.061 116.032 134.018C116.402 137.649 118.567 140.791 120.046 144.087C121.31 146.914 122.318 149.973 123.245 152.94C121.544 150.707 119.814 148.512 118.107 146.389C112.641 139.58 107.162 132.645 101.639 125.815C90.8999 112.545 79.0205 99.7911 67.1507 87.4987C55.897 75.8393 45.1053 63.9558 33.4316 52.6075C28.8702 48.1782 24.0616 44.024 19.4123 39.7568C16.7366 37.3037 13.7058 35.3691 10.9572 33.0111C8.18489 30.6287 4.06598 28.7797 1.80102 25.9722C1.40859 25.4817 0.6512 26.0041 0.908837 26.56C2.24341 29.4843 5.82773 30.6966 8.08119 32.7692C10.9559 35.4363 14.1258 37.8051 16.9477 40.4859C21.2112 44.5461 25.3044 48.868 29.8469 52.8167C42.3303 63.6769 53.5854 76.5898 64.0037 89.371C74.5589 102.337 86.2913 114.493 96.6249 127.59C102.151 134.597 107.634 142.031 113.465 148.735C114.189 149.567 114.894 150.455 115.578 151.377C111.008 148.302 105.611 144.995 100.478 144.342C99.6271 144.229 98.9871 145.435 99.6224 146.059C101.58 147.988 103.592 148.876 106.036 150.115C109.743 151.997 113.588 154.385 116.939 156.881C119.282 158.623 121.396 160.752 123.671 162.599C124.589 163.707 125.56 164.753 126.584 165.713C127.028 166.8 127.544 167.816 128.201 168.68C129.462 170.349 131.696 168.801 131.522 167.069C131.514 166.978 131.495 166.891 131.487 166.8C131.692 166.462 131.806 166.084 131.752 165.68C131.846 165.383 131.802 165.047 131.551 164.75C131.409 164.58 131.253 164.429 131.101 164.264C130.253 159.742 128.582 155.046 126.973 150.917C124.789 145.359 121.903 137.37 117.65 133.233Z" fill="#8DC63F"/>
</svg>
