<svg width="243" height="38" viewBox="0 0 243 38" fill="none" xmlns="http://www.w3.org/2000/svg">
<path d="M241.029 18.031C235.252 14.3379 228.017 11.2871 221.449 9.31081C213.211 6.82815 203.527 5.14833 195.846 1.22054C193.31 -0.0763768 191.195 3.59203 193.657 5.07421C198.579 8.05094 204.9 9.89132 210.837 11.5341C204.962 11.25 199.111 11.2871 193.657 11.3118C177.676 11.3488 161.82 12.127 145.913 13.4609C129.451 14.832 113.235 16.9317 96.9087 19.2909C89.6606 20.3284 82.3631 20.3901 75.115 21.65C65.8138 23.2557 56.4631 24.3056 47.1989 26.2324C38.009 28.1469 28.8685 30.2714 19.6786 32.0006C16.2772 32.6305 12.7892 32.8652 9.4002 33.5075C6.46882 34.0633 2.95612 33.9768 0.408168 35.7184C-0.568958 36.3854 0.309218 37.9788 1.32345 37.3241C4.53931 35.2861 9.82074 35.7308 13.4942 35.5084C17.6501 35.2614 21.5586 34.3597 25.6898 33.8286C36.6608 32.4329 47.5576 30.0243 58.5163 28.2087C68.9678 26.4671 79.4441 25.3555 89.9575 24.3303C99.5308 23.4039 109.018 21.6253 118.628 20.6742C137.738 18.7844 156.823 17.1293 175.994 16.7094C189.34 16.4129 203.96 15.3878 217.763 17.2034C217.503 17.2652 217.256 17.3023 216.996 17.3764C212.482 18.5374 208.004 19.8467 203.49 21.0077C200.707 21.7241 196.922 22.4652 194.819 24.565C193.595 25.7878 194.609 27.5293 196.118 27.7023C199.037 28.0358 201.931 26.4548 204.751 25.8372C209.068 24.8861 213.385 23.8362 217.689 22.774C224.603 21.0695 230.367 21.4153 237.392 22.0576C237.466 22.07 237.528 22.0576 237.602 22.0576C237.875 22.2305 238.159 22.3911 238.419 22.564C241.276 24.3426 243.849 19.822 241.029 18.031Z" fill="#99AA80"/>
</svg>
