<svg width="45" height="32" viewBox="0 0 103 67" fill="none" xmlns="http://www.w3.org/2000/svg">
<path d="M58.2171 20.5844C56.5011 19.9054 55.1093 21.8556 56.6547 23.032C64.0977 28.6781 68.8678 36.5204 75.4239 42.9158C74.6334 42.5446 73.8634 42.1671 73.1171 41.8158C65.6485 38.3155 58.0172 35.1767 50.624 31.5086C43.697 28.0658 36.4415 25.3133 29.5556 21.858C22.6401 18.3893 15.313 13.4318 7.89048 11.287C7.2805 11.1057 7.13224 11.9081 7.63096 12.179C22.2962 19.9418 36.6751 28.0258 51.1599 36.1109C57.3251 39.5523 63.8159 42.3488 70.1701 45.4097C70.6657 45.6482 71.1702 45.9062 71.6542 46.1706C68.7009 45.6798 65.7628 45.2735 62.9801 44.7974C55.9514 43.5904 49.9862 42.1479 43.3855 43.6942C42.7099 43.8558 42.7801 44.8031 43.4053 45.0689C48.8965 47.4466 55.1105 47.6663 60.8715 48.8927C69.5835 50.733 78.1929 53.1169 86.8964 55.0155C87.2352 55.0904 87.5292 55.0674 87.8112 54.9926C88.5981 55.2535 89.4051 55.4304 90.2122 55.6073C90.7435 55.924 91.1886 56.0777 91.3816 55.8852C91.6202 55.946 91.8531 56.0197 92.0859 56.0934C92.8666 56.8017 94.0915 56.9959 94.8836 56.1417C94.9538 56.0646 95.0297 55.9747 95.1146 55.9042C95.6584 55.3263 95.5886 54.4568 95.1756 53.7588C95.134 53.6936 95.113 53.622 95.0567 53.5501C95.033 53.5239 95.0241 53.5044 95.0004 53.4782C94.9981 53.0892 94.7957 52.6722 94.2701 52.3426C94.1432 52.2699 94.0163 52.1973 93.8746 52.1181C89.3282 46.8131 82.5547 42.4771 77.3971 37.7818C71.6951 32.5622 65.7062 23.5662 58.2171 20.5844Z" fill="#A4DCE9"/>
</svg>
