<svg width="99" height="30" viewBox="0 0 99 30" fill="none" xmlns="http://www.w3.org/2000/svg">
<path d="M48.7242 0.939313C46.9051 1.25006 46.7283 3.63935 48.6599 3.84236C57.9526 4.80278 66.1014 9.02806 75.0252 11.0895C74.1568 11.1827 73.3028 11.2599 72.4826 11.3472C64.2822 12.2339 56.1305 13.5139 47.9075 14.218C40.1998 14.8726 32.5699 16.2877 24.8908 16.9102C17.1796 17.5367 8.34343 17.1045 0.88636 19.1257C0.2709 19.2875 0.560849 20.0502 1.12776 20.0229C17.6918 19.0421 34.178 18.4846 50.7552 17.873C57.811 17.6129 64.8103 16.6324 71.8301 15.9488C72.3775 15.8953 72.9426 15.8539 73.4935 15.8285C70.7147 16.9426 67.9928 18.121 65.3675 19.159C58.7339 21.7771 52.8869 23.6418 48.0487 28.3907C47.5552 28.8797 48.1071 29.6528 48.7794 29.5553C54.7069 28.736 60.1316 25.6971 65.6918 23.7538C74.093 20.8029 82.6885 18.3698 91.1127 15.473C91.441 15.3611 91.6804 15.1888 91.8825 14.9784C92.6905 14.7928 93.4721 14.5249 94.2536 14.257C94.8722 14.2518 95.3323 14.152 95.3973 13.8873C95.6328 13.8154 95.8701 13.7575 96.1074 13.6996C97.1424 13.8995 98.29 13.4294 98.5234 12.2881C98.5434 12.1858 98.5616 12.0695 98.5975 11.9652C98.7622 11.1889 98.251 10.4821 97.5356 10.1C97.4662 10.0658 97.4111 10.0156 97.3257 9.98339C97.2918 9.97332 97.274 9.96126 97.2402 9.95118C97.0363 9.61989 96.6467 9.36863 96.0264 9.35984C95.8802 9.36367 95.7341 9.3675 95.5718 9.37332C88.9317 7.20034 80.8916 7.01188 74.0456 5.67728C66.4623 4.17726 56.6729 -0.401142 48.7242 0.939313Z" fill="#FDD8BB"/>
</svg>
