<svg width="60" height="35" viewBox="0 0 149 69" fill="none" xmlns="http://www.w3.org/2000/svg">
<path d="M146.097 4.11952C141.025 1.01928 131.266 2.3903 125.985 2.37795C122.324 2.36559 118.688 2.19269 115.026 2.08152C112.268 1.99506 106.245 2.16796 103.684 0.784585C100.543 -0.91993 97.7721 3.90953 100.938 5.61405C106.405 8.55372 115.224 7.60266 121.174 7.82499C123.289 7.8991 125.441 7.98556 127.605 8.05967C127.296 8.14613 126.987 8.23258 126.678 8.31904C119.677 10.2829 112.231 11.3081 105.354 13.5561C93.5915 17.3975 81.9402 21.807 70.4373 26.587C63.7953 29.3414 56.9925 32.3058 50.5732 35.5295C44.6362 38.5063 39.3053 42.6687 33.6281 46.1025C27.5798 49.7709 21.2347 52.8711 15.1987 56.5642C10.0534 59.7015 4.53692 62.0978 0.381045 66.5937C-0.385813 67.4213 0.863427 68.6811 1.63029 67.8412C5.87275 63.2588 11.6984 60.7885 16.9427 57.5771C22.6694 54.0692 28.693 51.0431 34.4568 47.5847C46.3678 40.4331 58.8231 34.8626 71.7607 29.8478C77.8832 27.4763 83.9315 25.216 90.2148 23.3385C92.6391 22.6098 94.816 21.5229 97.1784 20.6335C99.7634 19.6578 102.46 19.4108 105.082 18.5214C111.378 16.3846 118.119 15.4953 124.612 13.902C125.156 13.7661 125.701 13.6302 126.245 13.482C124.86 14.4454 123.561 15.3965 122.349 16.2611C116.263 20.6459 109.832 25.5248 105.676 31.8735C104.068 34.3191 107.618 36.7029 109.621 34.8749C114.841 30.1319 119.294 25.253 125.057 21.0288C131.6 16.2241 138.453 13.0003 145.713 9.46777C145.824 9.46777 145.948 9.44304 146.059 9.44304C149.473 9.29482 149.473 3.9466 146.097 4.11952Z" fill="#99AA80"/>
</svg>
