<svg width="24" height="33" viewBox="0 0 38 66" fill="none" xmlns="http://www.w3.org/2000/svg">
<path d="M35.2345 0.260761C34.3537 0.788993 33.5745 1.60231 32.8546 2.49108C32.6852 2.62523 32.5073 2.75937 32.3379 2.89352C29.5853 4.93937 26.8157 6.96846 24.0038 8.92208C19.3539 12.1585 14.3822 15.437 10.0796 19.0759C8.66521 20.2665 10.2321 22.0692 11.6974 21.868C13.459 21.6248 15.0683 20.0233 16.4573 18.992C19.4979 16.7198 22.4453 14.3302 25.5368 12.125C26.028 11.7729 26.5531 11.4123 27.0867 11.0434C26.6209 11.6052 26.1381 12.1669 25.6808 12.7539C21.7254 17.8349 18.8034 23.897 15.7543 29.4812C14.2721 32.1894 13.4675 35.4762 11.9091 38.2012C11.3586 39.1571 10.4693 39.8278 9.97801 40.7921C9.16492 42.3684 8.78379 44.2298 7.99611 45.848C6.57321 48.7994 5.36205 51.5663 4.30334 54.6603C3.58342 56.7816 2.44848 58.5591 1.56763 60.5798C1.16956 61.5021 0.873121 63.2461 0.297185 64.0007C-0.744583 65.3507 1.21191 66.8515 2.17745 65.4177C2.93972 64.2774 2.50777 64.3361 2.9736 63.1707C3.66811 61.4099 4.50661 59.7917 5.30276 58.0644C6.81882 54.7776 7.70815 51.3483 9.42749 48.1202C10.5878 45.9402 11.4094 43.4332 12.7222 41.3706C14.2213 39.0062 15.7204 36.5746 17.0841 34.0508C19.8452 28.9362 22.0303 23.394 25.3166 18.5225C27.2138 15.7136 29.509 13.1982 31.2877 10.3391C31.0929 11.0266 30.8981 11.7142 30.6948 12.3765C29.8478 15.2357 29.1703 18.0697 28.7214 21.0127C28.4419 22.8573 28.5181 26.3118 27.7219 27.6617C26.5362 29.6824 29.7547 31.5019 30.915 29.4561C31.889 27.7456 31.7535 25.356 31.9822 23.4527C32.2786 20.9792 32.6343 18.5309 33.2696 16.1161C34.0657 13.0557 35.0651 10.0708 35.929 7.02717C36.217 6.00424 36.7845 4.72139 36.92 3.53916C36.9708 3.514 37.0216 3.47207 37.064 3.44691C39.1983 2.46591 37.2927 -0.963396 35.2345 0.260761Z" fill="#99AA80"/>
</svg>
