<svg width="60" height="40" viewBox="0 0 129 84" fill="none" xmlns="http://www.w3.org/2000/svg">
<path d="M83.0794 11.5024C82.0388 12.6129 82.9717 14.3359 84.4921 13.9949C91.5247 12.3876 98.4081 10.4144 105.537 8.97752C106.491 8.78906 107.473 8.62634 108.489 8.47246C107.74 8.84099 106.99 9.20952 106.229 9.55675C99.8254 12.454 93.7657 15.8038 87.9047 19.6321C77.0049 26.7665 65.2224 32.5997 54.3346 39.7554C35.1494 52.3595 17.6303 67.9034 0.760599 83.3889C0.495092 83.6379 0.813504 84.0204 1.11631 83.8628C6.46689 81.0556 10.9349 75.948 15.6389 72.1281C19.652 68.8827 23.7338 65.5279 28.0252 62.6455C37.511 56.2703 46.9567 49.8756 56.5792 43.6903C66.958 37.0201 77.7711 30.6808 88.5873 24.7056C93.124 22.2048 97.5141 19.5478 102.064 17.0959C100.351 18.5313 98.6956 20.0182 97.1289 21.6098C94.665 24.1038 93.3443 26.6677 91.3555 29.3851C90.2998 30.8278 92.2287 32.5914 93.6895 31.7354C96.0456 30.3579 97.1906 27.6121 99.1707 25.6737C102.427 22.477 105.665 19.657 109.408 16.9866C113.261 14.2263 118.075 12.0609 121.596 8.74232C123.723 7.39615 125.763 5.9728 127.834 4.50323C128.091 4.31554 128.28 4.11017 128.428 3.88529C129.598 2.64498 128.888 0.00780914 126.91 0.284429C119.042 1.36599 111.242 2.74681 103.516 4.71907C97.553 6.24087 87.5374 6.71015 83.0794 11.5024Z" fill="#E8C2FF"/>
</svg>
