<svg width="124" height="36" viewBox="0 0 124 36" fill="none" xmlns="http://www.w3.org/2000/svg">
<path d="M121.309 19.8585C121.198 19.8214 121.087 19.7844 120.975 19.735C120.654 19.1791 120.072 18.7468 119.182 18.6357C118.539 18.5492 117.883 18.4751 117.24 18.401C112.478 16.6471 107.729 14.7326 103.115 12.6946C96.1885 9.6314 90.7463 4.69079 84.4135 0.750642C82.9788 -0.13867 80.8885 1.73876 81.9645 3.19624C86.0709 8.76679 92.4285 13.3986 99.392 17.0547C98.0933 16.9682 96.7946 16.8941 95.4959 16.7953C84.9701 16.0048 74.8773 15.239 64.3392 16.3753C53.7392 17.5117 43.164 17.6846 32.7619 20.1796C21.7785 22.8229 10.8941 25.3796 0.33122 29.5174C0.0220026 29.6409 0.133322 30.1103 0.467276 30.0238C5.32817 28.7763 10.3993 28.591 15.3097 27.5905C20.4303 26.553 25.5633 25.4043 30.6963 24.5027C41.9024 22.5141 52.9971 21.9829 64.3392 21.1554C73.9496 20.4513 83.2633 21.0813 92.7995 22.1682C93.5787 22.2547 94.3703 22.3288 95.1496 22.4029C88.9157 24.3297 82.7438 26.9853 77.92 31.2837C75.5823 33.3711 78.9837 36.6813 81.3461 34.705C87.0728 29.9126 94.9888 27.6276 102.101 26.0343C104.636 25.4661 107.16 24.7867 109.782 24.5521C112.503 24.305 115.657 24.9967 118.403 24.5521C118.91 24.7003 119.442 24.8609 119.936 24.9967C123.313 25.8984 124.525 20.9701 121.309 19.8585Z" fill="#99AA80"/>
</svg>
