<svg width="80" height="15" viewBox="0 0 186 27" fill="none" xmlns="http://www.w3.org/2000/svg">
<path d="M128.132 0.578699C126.372 0.845134 125.981 3.10408 127.624 3.89223C135.251 7.51012 143.005 10.6838 150.596 14.5283C151.609 15.0458 152.629 15.6079 153.675 16.2029C152.719 15.9985 151.763 15.7941 150.812 15.5613C142.829 13.5845 134.835 12.2725 126.676 11.5441C111.493 10.2029 96.4409 7.02688 81.2531 5.71406C54.4943 3.39627 27.1366 4.98675 0.417967 6.99399C-0.00636321 7.03041 0.00912717 7.6125 0.401486 7.68712C7.35139 8.98398 15.1569 7.52786 22.2464 7.42581C28.2848 7.35111 34.4656 7.22576 40.4968 7.68618C53.831 8.70048 67.1426 9.66781 80.4648 10.9556C94.8332 12.3458 109.361 14.3546 123.628 16.7002C129.608 17.689 135.567 18.4282 141.524 19.4714C138.909 19.5491 136.311 19.7162 133.719 20.0436C129.648 20.5503 126.577 21.9493 122.781 23.0053C120.766 23.5661 121.261 26.5839 123.223 26.8556C126.386 27.2968 129.427 25.6034 132.651 25.2568C137.959 24.6788 142.977 24.4332 148.351 24.6916C153.89 24.9462 159.882 26.444 165.522 25.9459C168.451 26.2499 171.356 26.4197 174.324 26.5702C174.696 26.5837 175.018 26.5316 175.318 26.4325C177.292 26.1408 178.549 23.2031 176.532 22.0243C168.519 17.3182 160.352 12.9362 151.824 9.15118C145.243 6.22963 135.7 -0.594997 128.132 0.578699Z" fill="#FF6C2E"/>
</svg>
