<svg width="142" height="160" viewBox="0 0 142 160" fill="none" xmlns="http://www.w3.org/2000/svg">
<path d="M138.673 84.0296C143.159 73.9039 143.582 61.2741 137.037 52.3526C132.36 45.9761 124.383 41.529 122.869 33.7705C122.065 29.6929 123.278 25.5194 123.347 21.3734C123.483 11.4392 114.729 1.39559 104.939 2.75025C101.762 3.18811 98.8164 4.69329 95.6666 5.29536C88.6034 6.63633 81.6084 3.366 74.7497 1.19034C64.3595 -2.10736 45.8016 2.02503 35.875 6.55423C30.2162 9.12671 25.2529 14.0938 24.3939 20.265C24.053 22.7417 24.3666 25.3005 23.9166 27.7635C22.3077 36.3977 12.4765 40.3386 6.47685 46.7287C-1.66354 55.3766 -2.16805 70.182 5.35874 79.3636C7.45861 81.9224 10.0493 84.0433 12.1083 86.6432C18.067 94.1554 20.385 106.169 29.6981 108.359C24.1757 121.344 27.9527 136.204 31.7843 149.778C32.4797 152.241 33.4069 154.992 35.725 156.059C38.043 157.126 41.4792 154.54 40.0883 152.406C43.5927 155.416 47.7788 157.619 52.2376 158.796C52.0467 156.825 51.8694 154.841 51.6785 152.871C53.9693 152.775 56.26 152.693 58.5508 152.597C50.8058 145.345 46.4425 134.576 46.947 123.958C47.0424 121.81 47.3833 119.565 48.6787 117.855C50.8195 115.023 54.8147 114.544 58.3599 114.311C65.1367 113.846 71.9272 113.381 78.704 112.929C83.4628 112.601 88.467 112.327 92.7486 114.434C99.2391 117.622 102.225 125.613 101.693 132.852C101.162 140.091 97.8346 146.768 94.5621 153.24C96.512 154.978 100.112 154.034 100.971 151.557C102.375 154.157 103.78 156.743 105.184 159.343C106.78 157.701 108.361 156.059 109.957 154.417C111.456 157.4 114.47 159.562 117.77 160.014C116.652 151.42 117.552 142.567 120.374 134.371C121.874 130.033 123.906 125.791 124.219 121.207C124.519 116.624 122.515 111.465 118.22 109.878C126.224 102.27 134.173 94.1554 138.673 84.0296ZM87.4171 40.4617C89.5443 38.3134 92.6804 37.2187 95.6802 37.5882C97.6028 37.8208 99.7027 38.9702 99.9345 40.8996C100.221 43.2942 97.4665 44.9635 95.0803 45.1004C91.5487 45.3193 87.9489 43.5952 85.9036 40.6943L87.4171 40.4617ZM48.4196 41.0638C46.5106 40.1743 43.9063 40.3112 42.6518 41.9258C42.5564 42.5005 42.4882 43.0889 42.5291 43.691L42.3655 42.2953C42.4473 42.1584 42.5564 42.049 42.6518 41.9258C43.129 39.066 45.1198 36.4935 47.7515 35.221C50.9149 33.6884 54.7738 33.9484 57.9236 35.4946C60.0916 36.5619 62.0551 38.3408 62.696 40.6806C63.3368 43.0205 62.3278 45.8803 60.078 46.7834C57.9781 47.6181 55.5919 46.5782 53.792 45.1962C52.0194 43.7868 50.4786 42.0216 48.4196 41.0638ZM113.706 78.3784C112.22 81.0193 110.011 83.5234 107.039 84.0707C101.789 85.0285 97.7937 79.7741 93.9894 76.0249C89.2443 71.3588 83.081 68.4306 76.8087 66.1865C68.1774 63.094 59.3826 61.4931 50.3286 60.33C48.3105 49.0549 97.1119 59.1669 103.752 61.4794C109.234 63.3951 115.465 67.0349 115.424 72.864C115.424 74.8207 114.661 76.6817 113.706 78.3784Z" fill="#9AAA80"/>
</svg>
