<svg width="158" height="181" viewBox="0 0 158 181" fill="none" xmlns="http://www.w3.org/2000/svg">
<path d="M18.0266 37.0706C20.7308 36.1262 23.8579 35.4454 25.4284 33.0441C27.0836 30.5066 26.2927 27.1712 26.5649 24.1543C27.4608 14.3262 39.5483 9.52167 49.3715 10.4893C58.9374 11.4424 69.8508 17.4849 79.4948 15.4195C88.6945 13.4458 94.8374 4.35042 103.95 1.48365C112.672 -1.26468 123.166 0.200714 129.341 6.93372C132.204 10.0559 133.94 13.9975 136.15 17.6119C140.434 24.6108 146.492 30.3473 151.219 37.0488C155.956 43.7364 159.397 52.122 157.35 60.0601C155.456 67.4258 149.086 73.5574 149.244 81.1492C149.307 84.2758 150.508 87.2592 151.093 90.3285C152.966 100.182 148.04 110.659 139.947 116.578C134.748 120.38 128.44 122.393 121.997 122.831C121.635 124.944 120.824 127.391 120.913 128.768C121.14 132.471 122.394 136.026 123.629 139.537C126.434 147.491 129.272 155.487 133.533 162.769C135.592 166.277 138.064 169.93 137.796 173.988C137.734 174.992 137.4 176.106 136.517 176.591C135.201 177.299 133.574 176.137 132.989 174.763C132.404 173.39 132.426 171.823 131.909 170.426C131.723 169.926 131.454 169.441 131.025 169.142C129.767 168.277 128.012 169.512 127.545 170.964C127.075 172.405 127.335 173.994 127.031 175.478C126.715 176.964 125.378 178.5 123.921 178.082C122.72 177.74 122.209 176.305 122.192 175.06C122.175 173.815 122.44 172.52 122.036 171.345C121.632 170.169 120.12 169.24 119.128 169.999C118.755 170.284 118.546 170.746 118.397 171.196C117.597 173.569 117.418 176.702 115.073 177.619C112.399 178.667 109.817 175.276 110.158 172.441C110.497 169.594 112.466 167.255 113.729 164.69C116.566 158.937 115.833 152.065 114.155 145.872C113.127 142.095 111.771 138.376 111.246 134.496C110.721 130.616 111.111 126.427 113.333 123.195C113.456 123.003 113.636 122.789 113.837 122.559C112.967 122.437 112.106 122.3 111.239 122.128C102.609 120.377 94.2309 116.038 85.495 117.08C84.7583 117.164 84.03 117.294 83.3059 117.448C84.5535 121.574 83.2907 128.742 83.1804 131.851C82.784 143.928 85.7546 156.189 91.6237 166.696C92.3394 167.986 93.1361 169.321 93.197 170.812C93.2578 172.304 92.2627 173.924 90.871 173.87C89.2713 173.805 88.4261 171.86 87.6823 170.346C86.9267 168.833 85.0685 167.324 83.9029 168.466C83.5828 168.778 83.4193 169.219 83.3167 169.661C82.8113 171.714 83.3611 173.906 83.3433 176.041C83.3254 178.176 82.3716 180.637 80.3801 180.957C78.8019 181.215 77.276 179.938 76.5749 178.391C75.8759 176.857 75.8159 175.099 75.7193 173.408C75.6126 171.525 74.5248 168.969 72.8665 169.593C72.0951 169.889 71.7349 170.789 71.5095 171.629C71.0208 173.437 70.7805 175.346 69.9763 177.016C69.1721 178.687 67.5862 180.121 65.8085 179.943C63.122 176.583 64.923 171.609 66.5417 167.648C71.2529 156.107 73.4443 143.358 72.8721 130.679C72.7244 127.483 72.4339 124.167 73.1727 121.115C66.241 124.246 59.4826 127.6 52.5418 125.329C36.4028 120.028 40.7754 92.5074 26.1873 83.8153C19.1846 79.6412 9.15863 80.9269 3.8139 74.772C1.98197 72.6648 1.00785 69.9316 0.492698 67.1889C-1.80707 54.7466 6.06483 41.2227 18.0266 37.0706ZM71.923 39.6962C61.5096 33.1281 54.6369 38.756 48.8844 47.1878C47.6733 48.9553 46.6633 51.6439 48.3352 52.9923C48.9017 53.4481 49.6452 53.6058 50.3698 53.6579C54.5742 53.9836 57.3275 48.9113 61.4678 48.1339C64.1066 47.6373 67.9274 50.3578 70.5145 49.6403C73.0878 48.9132 75.5982 46.683 75.292 44.024C75.0657 42.1503 73.5222 40.7063 71.923 39.6962ZM123.011 38.754C118.659 32.4577 109.867 28.4464 103.43 34.2023C101.601 35.8381 100.547 38.6193 101.63 40.812C102.748 43.0592 106.174 45.9471 108.012 44.225C112.582 39.9543 116.604 44.9526 120.89 44.5127C121.83 44.417 122.831 44.25 123.488 43.5872C124.733 42.3468 124.011 40.2105 123.011 38.754ZM52.4114 90.667C57.3815 93.848 63.4365 94.2181 71.1143 89.9726C72.0967 89.4333 75.4608 86.8928 88.6168 76.0697C92.1666 73.1446 99.3498 72.0285 103.939 71.8613C108.565 71.6996 115.571 77.1089 118.918 80.3017C121.038 82.3211 122.147 85.4056 124.709 86.8492C128.981 89.2465 134.588 85.0809 135.321 80.237C137.03 69.1247 126.023 61.1363 116.033 61.4706C110.994 61.6334 106.053 63.0146 101.017 63.1891C94.8372 63.4108 88.6832 61.8106 82.5122 62.0792C73.2977 62.4807 64.7771 66.9618 56.93 71.8191C53.1866 74.1367 49.0466 77.4219 49.3714 81.8099C49.582 84.6798 49.9877 89.114 52.4114 90.667Z" fill="#9AAA80"/>
</svg>
