<svg width="139" height="142" viewBox="0 0 139 142" fill="none" xmlns="http://www.w3.org/2000/svg">
<g clip-path="url(#clip0)">
<path d="M133.241 86.4443C132.953 82.6808 132.656 78.9074 132.368 75.1438C127.025 79.5478 120.7 83.932 113.759 84.0108C105.795 84.0995 93.4718 85.1635 86.6897 89.3015C83.3135 81.0946 100.969 67.6168 97.5332 59.4394C96.6097 57.2424 94.5443 55.7448 93.1839 53.7842C90.1949 49.4591 91.0291 43.7251 90.6914 38.4936C89.9268 26.8975 82.956 16.7399 76.2135 7.23252C74.1084 4.267 71.7053 1.09459 68.1603 0.227596C60.822 -1.55566 50.2863 7.3803 42.8587 8.94681C35.8481 10.4246 28.4304 10.1882 21.5092 11.8926C15.8392 13.2916 11.9566 15.4099 8.14344 19.9025C0.308682 29.1537 3.91327 35.7645 3.34726 46.3557C3.16852 49.8138 1.6393 53.0453 0.765462 56.4049C-2.21353 67.9616 3.67495 81.1635 14.3 86.7399C18.8083 89.1044 23.952 90.1783 28.2914 92.8384C32.3031 95.2818 35.4112 98.9369 39.2144 101.696C44.9142 105.833 52.1631 107.824 59.1935 107.183C56.1549 114.454 46.9201 116.858 38.9761 116.73C31.042 116.592 22.7604 114.947 15.3923 117.883C17.7755 121.311 21.6582 123.686 25.8089 124.257C24.5875 127.242 23.3661 130.228 22.1348 133.213C25.0641 134.681 28.9468 133.932 31.1115 131.489C31.3002 134.996 31.4988 138.503 31.6874 142.021C43.4644 134.119 55.3903 126.08 64.7047 115.41C67.356 112.375 68.7958 101.361 71.9833 98.8778C76.6107 95.2621 91.4064 95.6069 97.1459 94.2768C111.793 90.8877 120.372 95.4591 132.844 103.804C135.069 100.326 133.619 95.0847 129.905 93.2325C133.232 94.001 137.501 93.2916 138.782 90.1488C140.083 86.9763 134.761 83.4098 133.241 86.4443ZM42.809 40.937C42.9083 41.1143 43.0474 41.2621 43.1864 41.3901C46.1157 36.2473 52.3815 33.0946 58.2899 34.001C60.9313 34.4049 63.6322 35.7054 64.8139 38.0798C65.9956 40.464 64.9033 43.932 62.3115 44.5429C57.992 45.5576 54.8442 38.8089 50.4849 39.6168C49.0749 39.8729 47.9528 40.8975 46.6619 41.5182C45.5596 42.0503 44.0503 42.1488 43.1963 41.3901C42.9481 41.8335 42.7097 42.2867 42.5111 42.7498L42.809 40.937ZM23.1973 50.4443C20.407 51.5379 17.9245 48.2966 15.0646 47.3901C13.6049 46.9271 11.5991 46.7301 10.7749 45.7153C10.5962 46.3557 10.4869 47.0256 10.4571 47.6956L10.3876 44.7301C10.4075 45.134 10.5465 45.4493 10.765 45.7153C11.2118 44.0897 12.1353 42.5823 13.4063 41.4591C14.3596 40.6217 15.5711 39.9813 16.8421 40.0503C17.6564 40.0897 18.4309 40.4246 19.1757 40.7498C21.2411 41.666 23.4058 42.7498 24.5577 44.6808C25.7295 46.6118 25.3124 49.6168 23.1973 50.4443ZM71.9238 74.6611C71.4074 77.4788 68.4284 79.0453 65.797 80.198C65.0919 80.5034 64.367 80.8187 63.5925 80.8384C62.6492 80.8581 61.7555 80.4246 60.9412 79.9616C57.6345 78.0699 54.7647 75.3803 51.18 74.0699C48.8465 73.2227 46.3441 72.996 43.8715 72.7892C40.9223 72.5428 37.7348 72.336 35.2225 73.8926C31.5385 76.1685 25.4018 79.9714 26.9906 72.5724C28.063 67.597 35.4112 65.1438 39.5917 64.0995C44.6858 62.8187 49.9686 61.9714 55.2017 62.4739C60.4348 62.9764 65.648 64.9468 69.3519 68.6512C70.9705 70.2473 72.3408 72.4345 71.9238 74.6611Z" fill="#9AAA80"/>
</g>
<defs>
<clipPath id="clip0">
<rect width="139" height="142" fill="white"/>
</clipPath>
</defs>
</svg>
