<svg width="117" height="122" viewBox="0 0 117 122" fill="none" xmlns="http://www.w3.org/2000/svg">
<g clip-path="url(#clip0)">
<path d="M104.375 47.0883C99.625 45.8303 94.877 44.5645 90.1274 43.3065C88.7988 41.3601 86.8438 39.8459 84.6152 39.0536C90.984 35.7068 98.8276 35.2756 105.543 37.8872C107.388 38.6032 109.342 39.5632 111.257 39.0725C113.171 38.5817 114.346 35.6631 112.651 34.638C111.468 33.9213 109.984 34.686 108.614 34.8567C106.873 35.0763 105.17 34.3101 103.578 33.5602C95.7371 29.8615 87.896 26.1629 80.0549 22.4642C85.9405 20.0864 92.6435 19.7868 98.7191 21.6302C92.1064 19.6277 86.0683 14.8679 79.2268 12.7907C72.485 10.7435 65.5825 9.83415 58.5999 9.10265C47.0177 7.87939 36.3374 12.7287 29.8572 22.9268C27.268 27.0002 25.4952 31.783 21.7374 34.8169C19.5786 36.5654 17.3592 50.5372 21.8562 50.8272C23.1541 50.9094 24.2937 50.0769 25.4688 49.5291C28.7509 47.9873 32.9712 48.7539 35.5056 51.3489C38.0322 53.9421 38.6853 58.1757 37.0436 61.3987C33.9689 59.7357 30.2636 63.718 30.9839 67.1273C31.7042 70.5365 35.0158 72.7568 38.2714 74.0442C41.5192 75.3299 45.0739 76.1129 47.796 78.3011C48.4161 81.4602 35.9327 81.9529 32.9946 83.2691C22.6392 87.9048 16.9727 82.5344 10.8063 72.2716C6.69682 72.5233 4.17284 77.3768 4.84196 81.4266C5.50938 85.4841 8.33387 88.8028 11.0452 91.893C13.0516 94.1761 15.5035 96.6633 18.5424 96.4854C20.1895 96.392 21.6779 95.4978 23.2643 95.0488C28.5792 93.5555 30.3172 93.4577 35.5805 91.79C39.1666 90.6491 43.5816 85.6337 50.2483 84.0145C58.0803 82.1143 65.7377 85.7562 71.7617 91.0995C84.6764 102.564 84.1735 117.5 90.4746 120.509C93.8801 119.149 96.0478 112.091 95.8818 108.429C95.7157 104.767 94.0701 101.366 92.4584 98.0698C91.9668 97.0735 91.4691 96.0677 90.7268 95.2443C89.6547 94.0632 88.1553 93.3744 86.6632 92.8014C81.9364 90.9944 76.7262 90.083 72.7009 87.0211C68.6772 83.9515 66.5054 77.5585 69.9577 73.8708C71.1655 72.5808 72.8482 71.8434 74.4721 71.1502C83.4885 67.2868 94.0883 63.4707 102.693 68.193C102.634 67.235 102.566 66.2831 102.507 65.3251C95.0572 62.8939 88.0367 59.1804 81.8445 54.3785C90.7116 51.3784 100.361 50.7258 109.56 52.4913C110.609 49.8792 107.124 47.8162 104.375 47.0883ZM38.8926 41.724C36.7777 43.3845 33.4532 43.2632 31.455 41.4625C29.4585 39.6541 29.0129 36.3705 30.4675 34.1084C30.915 36.7895 34.7628 38.134 36.7882 36.3235C38.8135 34.5129 37.8797 30.5515 35.2618 29.8201C34.3912 29.5795 33.3099 29.5531 32.8613 28.7699C33.9167 27.5034 35.3218 26.542 36.8699 25.9705C36.8621 25.9688 36.856 25.9593 36.856 25.9593L37.272 25.8147C37.1319 25.8572 37.01 25.9281 36.8777 25.9723C37.3521 26.3049 37.8186 26.6357 38.293 26.9683C39.5872 29.3308 40.9083 31.7563 41.3107 34.4194C41.7088 37.0652 41.017 40.0575 38.8926 41.724Z" fill="#9AAA80"/>
</g>
<defs>
<clipPath id="clip0">
<rect width="97" height="103" fill="white" transform="translate(22.1565) rotate(12.4221)"/>
</clipPath>
</defs>
</svg>
