<svg width="107" height="85" viewBox="0 0 107 85" fill="none" xmlns="http://www.w3.org/2000/svg">
<g clip-path="url(#clip0)">
<path d="M96.13 56.6801C91.87 61.8901 85.13 64.9701 78.4 64.7901C71.67 64.6101 65.11 61.1801 61.12 55.7501C66.18 56.2001 68.46 49.0601 73.21 47.2501C75.46 46.3901 77.97 46.8601 80.38 46.6801C82.78 46.5001 85.52 45.1901 85.77 42.7901C84.67 41.4501 83.89 39.8501 83.5 38.1701C85.31 36.4101 87.96 35.5701 90.45 35.9601C91.09 32.4301 88.6 28.6201 85.11 27.8001C87.24 23.3401 92.44 21.4201 97.14 19.9201C100.24 18.9301 103.34 17.9401 106.43 16.9501C104.21 15.5701 101.99 14.2001 99.77 12.8201C98.46 12.0101 97.02 11.1601 95.49 11.3201C94.14 11.4601 93 12.3501 91.74 12.8601C84.93 15.6101 75.78 7.2501 70.66 12.5101C70.36 7.9301 76.17 4.2301 80.2 6.4501C80.18 3.9801 77.68 2.1501 75.23 1.8601C72.78 1.5701 70.35 2.3701 67.95 2.9201C58.13 5.1901 51.7 5.3701 41.36 1.2401C31.99 -2.5099 21.02 2.4001 12.56 13.7801C11.78 14.8301 10.25 15.2801 9.89001 16.5301C9.57001 17.6501 10 18.8201 10.41 19.9101C12.29 24.7601 7.92001 26.0301 9.80001 30.8801C10.17 31.8401 16.83 36.4201 17.65 37.0601C19.23 38.2901 21.49 37.5901 23.49 37.7401C38.15 38.7801 44.93 49.7301 28.45 48.2501C27.34 48.1501 26.89 50.0101 26.88 51.1201C26.86 52.3601 27.98 53.2901 29.04 53.9401C34.61 57.3401 41.63 58.2801 47.9 56.4601C49.1 58.2501 47.9 60.8501 46.02 61.9001C44.14 62.9501 41.86 62.8901 39.7 62.8001C33.97 62.5701 28.24 62.3301 22.51 62.1001C20.31 62.0101 18.02 61.9001 16.07 60.8901C13.72 59.6801 12.19 57.3601 10.33 55.4601C8.48001 53.5701 5.78001 51.9801 3.28001 52.8501C0.770006 53.7301 -0.379994 56.8401 0.120006 59.4501C0.620006 62.0601 2.36001 64.2501 4.13001 66.2301C6.30001 68.6501 8.61001 70.9401 11.05 73.0801C14.43 76.0401 19.27 78.8401 23.14 76.5401C24.62 75.6601 25.64 74.1601 27.08 73.2001C31.05 70.5601 36.54 72.8601 41.06 71.3501C46.73 69.4601 50.16 61.8701 56.11 62.4301C61.53 62.9401 63.95 69.9001 69 71.9201C72.96 73.5101 77.35 71.6801 81.44 70.5101C85.54 69.3401 90.84 69.2501 93.09 72.8701C95.37 76.5301 93.59 82.6601 97.46 84.5501C101.99 81.3701 104.73 75.7801 104.46 70.2501C104.19 64.7201 100.95 59.4201 96.13 56.6801ZM38.44 24.6801C34.95 27.8201 28.99 28.5601 25.71 25.2001C22.76 22.1801 21.21 16.7001 24.6 14.3101C29.45 11.7801 29.31 11.8501 34.44 9.6001C37.59 8.2201 41.34 12.0601 41.95 15.4401C42.56 18.8301 41 22.3801 38.44 24.6801Z" fill="#9AAA80"/>
<path d="M36.72 15.6901C33.9 15.4001 32.11 18.7801 32.69 21.3501C34.76 22.4501 37.67 22.6401 39.34 21.0501C41.01 19.4701 39.99 16.0601 37.6 16.1201L36.72 15.6901Z" fill="#9AAA80"/>
</g>
<defs>
<clipPath id="clip0">
<rect width="106.44" height="84.55" fill="white"/>
</clipPath>
</defs>
</svg>
