<svg width="190" height="173" viewBox="0 0 190 173" fill="none" xmlns="http://www.w3.org/2000/svg">
<path d="M29.1631 82.0212C32.0457 91.3775 39.438 99.2239 48.6047 102.672C57.7714 106.121 68.4915 105.097 76.8457 99.9688C69.781 97.8001 70.6248 86.9292 65.2173 81.8853C62.6573 79.4926 59.0175 78.7493 55.869 77.185C52.734 75.6262 49.7605 72.3584 50.7399 68.9876C52.957 67.7853 54.8855 66.0572 56.3323 64.0075C54.8588 60.6434 51.7488 58.0582 48.1799 57.2181C49.2536 52.1108 54.6981 48.3428 59.8503 49.152C59.4263 41.9744 53.4728 36.5355 47.9627 31.9368C44.3287 28.9027 40.6947 25.8686 37.0742 22.84C40.8223 22.1981 44.5649 21.5697 48.3129 20.9278C50.5223 20.5549 52.9287 20.1993 54.9025 21.254C56.6447 22.183 57.6926 24.0074 59.1106 25.3856C66.7782 32.8259 83.6919 26.5798 87.7058 36.4751C90.6219 30.4685 84.8227 22.2967 78.1751 23.0778C79.5567 19.7606 83.9289 18.666 87.389 19.6189C90.8492 20.5718 93.6847 22.9824 96.6168 25.0398C108.603 33.484 117.168 37.253 133.366 37.359C148.047 37.4451 160.136 50.0772 165.293 70.0504C165.768 71.893 167.583 73.3384 167.383 75.2201C167.2 76.9047 165.979 78.2453 164.828 79.4891C159.635 84.993 164.827 89.1008 159.634 94.6047C158.609 95.6952 147.123 98.2138 145.667 98.6264C142.864 99.4172 140.203 97.2345 137.426 96.3398C117.102 89.701 101.962 100.737 124.979 107.781C126.529 108.255 126.115 111.008 125.52 112.509C124.867 114.191 122.848 114.829 121.063 115.124C111.693 116.65 101.719 114.067 94.2689 108.176C91.6703 109.93 91.8613 114.091 93.8186 116.537C95.7758 118.983 98.8808 120.152 101.841 121.216C109.687 124.048 117.54 126.867 125.386 129.7C128.4 130.785 131.546 131.893 134.727 131.602C138.557 131.26 141.891 128.973 145.439 127.433C148.968 125.901 153.478 125.24 156.37 127.783C159.269 130.345 159.113 135.166 157.008 138.409C154.903 141.651 151.357 143.648 147.886 145.345C143.635 147.416 139.267 149.234 134.806 150.779C128.628 152.914 120.571 154.032 116.618 148.811C115.106 146.814 114.555 144.233 113.141 142.15C109.24 136.415 100.581 136.503 95.319 131.99C88.7157 126.334 88.2568 114.226 79.9326 111.717C72.35 109.432 65.2722 117.482 57.3599 117.435C51.1522 117.405 46.2407 112.532 41.3715 108.712C36.4889 104.887 29.397 101.859 24.38 105.503C19.3007 109.184 18.3371 118.42 12.0861 118.844C7.72643 112.075 7.1003 103.04 10.497 95.7369C13.8936 88.4339 21.1659 83.0696 29.1631 82.0212ZM124.445 70.5436C127.425 76.6885 135.05 80.9542 141.312 78.2258C146.943 75.7745 152.037 69.2409 148.78 64.1614C143.633 58.0925 143.783 58.2636 138.105 52.4185C134.617 48.8315 127.458 51.9489 124.783 56.1686C122.102 60.4017 122.257 66.0406 124.445 70.5436Z" fill="#9AAA80"/>
<path d="M131.692 59.3737C135.651 60.5295 136.209 66.0654 134.018 69.2102C130.626 69.557 126.601 68.2171 125.222 65.1588C123.839 62.114 127.083 58.0788 130.271 59.4704L131.692 59.3737Z" fill="#9AAA80"/>
</svg>
