<svg width="267" height="651" viewBox="0 0 267 651" fill="none" xmlns="http://www.w3.org/2000/svg">
<g clip-path="url(#clip0)">
<path d="M98.4932 145.937C97.7263 146.234 96.942 146.548 96.2448 147.089C93.4038 149.235 93.735 153.196 94.345 156.407C94.4322 156.896 94.8679 157.245 95.3559 157.245C95.4256 157.245 95.4779 157.245 95.5476 157.227C96.1054 157.123 96.4714 156.582 96.3668 156.023C95.8788 153.388 95.5476 150.177 97.4823 148.712C97.9703 148.345 98.5978 148.101 99.2601 147.839C100.323 147.42 101.508 146.949 102.31 145.867C103.6 144.122 103.095 141.941 102.659 140.021C102.188 138.015 101.979 136.723 102.781 135.921C103.025 135.676 103.408 135.467 103.949 135.275C105.151 134.856 106.441 134.734 107.818 134.612C109.352 134.472 110.92 134.333 112.437 133.739C116.533 132.169 119.356 127.614 119.984 121.576C120.088 120.599 120.14 119.622 120.193 118.645C120.315 116.411 120.437 114.317 121.082 112.328C121.936 109.745 124.219 107.215 126.868 107.302C127.443 107.337 127.914 106.883 127.931 106.325C127.949 105.766 127.513 105.278 126.955 105.26C123.103 105.086 120.175 108.471 119.13 111.682C118.397 113.933 118.258 116.272 118.136 118.54C118.084 119.482 118.031 120.442 117.944 121.367C117.735 123.339 116.689 129.918 111.705 131.837C110.45 132.308 109.073 132.448 107.626 132.57C106.197 132.71 104.715 132.832 103.286 133.338C102.432 133.635 101.822 133.984 101.352 134.472C99.6784 136.147 100.201 138.451 100.672 140.492C101.055 142.133 101.404 143.668 100.672 144.663C100.201 145.256 99.4169 145.57 98.4932 145.937Z" fill="url(#paint0_linear)"/>
<path d="M9.86501 147.821C11.4859 148.24 13.1592 148.118 14.7278 147.577C16.279 147.07 17.7431 145.954 18.7191 144.715C19.73 143.458 20.4446 142.027 20.9675 140.579C21.9958 137.682 22.2747 134.698 22.6233 131.993C22.9719 129.289 23.4773 126.723 24.6974 124.769C25.9349 122.832 27.8172 121.314 30.1353 120.127C32.4186 118.906 35.033 117.946 37.6822 116.724C40.3141 115.503 43.1028 113.95 45.3686 111.524C47.5995 109.099 49.0113 106.184 50.0222 103.392C52.0091 97.8607 52.8632 92.2592 55.7565 88.5423C58.4057 84.773 63.5997 83.5166 69.0899 81.283C71.8612 80.1487 74.6324 78.4735 76.9331 76.4318C79.2512 74.3726 81.2033 71.9122 82.7196 69.2074C84.236 66.52 85.1946 63.3964 85.7698 60.6218C86.3798 57.7774 86.9027 55.4042 87.9833 53.0659C89.0291 50.7101 90.4583 48.3543 91.87 45.9287C93.2818 43.5206 94.711 41.1648 96.2099 38.8788C99.2078 34.3068 102.554 30.0141 106.598 26.6985C110.624 23.2957 115.312 21.254 120.681 20.2593C125.979 19.1425 131.801 18.6539 137.395 16.2458C140.202 15.0592 142.746 13.2269 144.908 11.3946C147.104 9.57978 149.125 7.8173 151.356 6.59578C155.888 4.11784 161.256 3.01848 166.537 3.50708C171.801 4.01314 176.995 5.96757 181.056 9.38783C182.032 10.2778 183.06 11.1678 183.81 12.1624C184.577 13.1745 185.239 14.3088 185.675 15.4954C186.11 16.682 186.337 17.9385 186.232 19.1076C186.145 19.9103 185.814 20.5909 185.361 21.2017C184.298 20.7131 183.304 20.3815 182.363 19.9452C181.997 19.7882 181.544 19.8405 181.23 20.1546C180.829 20.556 180.829 21.1842 181.23 21.5856C182.137 22.493 183.2 23.2433 184.002 23.9588C184.821 24.6743 185.535 25.477 186.285 26.332C187.749 28.0596 189.073 29.8744 190.346 31.8114C190.991 32.7712 191.618 33.7484 192.228 34.7431C192.838 35.7028 193.605 36.8022 194.058 37.6049C194.511 38.4774 194.581 38.7217 194.599 39.6641C194.616 40.554 194.389 41.8802 194.511 43.4682C194.773 46.5744 196.167 49.2617 197.84 51.4081C199.548 53.6068 201.605 55.2646 203.557 56.7653L206.433 58.9117C207.392 59.6272 208.263 60.3077 208.507 60.7091C208.542 60.7614 208.542 60.7614 208.542 60.7789C208.507 60.8312 208.507 60.8487 208.437 60.9534L207.932 61.5292L207.583 61.9132L207.113 62.5239C206.538 63.379 206.224 64.3387 206.102 65.1938C205.858 66.9214 206.102 68.2651 206.224 69.4342C206.363 70.6557 206.451 71.441 206.311 72.4008C206.189 73.378 205.875 74.5297 205.684 75.9257C205.596 76.6237 205.527 77.3915 205.596 78.1943C205.631 78.5956 205.684 78.997 205.771 79.3983L205.945 80.2359C206.154 81.3179 206.328 82.4347 206.311 83.3072C206.311 83.4991 206.294 83.7085 206.276 83.7783C206.259 83.8481 206.276 83.7783 206.276 83.8132C206.259 83.8656 206.224 83.9179 206.206 83.9703C206.084 84.1972 205.84 84.4589 205.509 84.7381C205.178 85.0173 204.725 85.314 204.272 85.5757C203.993 85.7677 203.488 85.9596 203.017 86.1341C202.006 86.4831 200.873 86.7798 199.688 87.1113C198.503 87.4429 197.3 87.7919 196.01 88.3678C195.383 88.647 194.633 89.0658 194.023 89.6416C193.553 90.1651 193.012 90.6363 192.612 91.2296C190.869 93.533 190.259 96.517 190.485 99.152C191.078 104.457 193.605 108.924 196.725 112.746C197.039 113.13 197.631 113.234 198.05 112.938C198.503 112.624 198.625 112.013 198.311 111.559L198.294 111.524C197.213 109.919 196.272 108.174 195.47 106.394C200.943 103.619 205.858 99.7279 209.762 94.964C211.871 92.3813 213.701 89.5369 215.183 86.5704C216.682 83.6038 217.936 80.5849 219.244 77.6184L234.738 41.8628L234.756 41.8279C234.791 41.7581 234.808 41.6883 234.825 41.6185C235.104 40.6762 234.547 39.6815 233.605 39.4023C222.015 35.9646 210.163 33.5565 198.206 32.1953C197.753 32.143 197.387 32.4396 197.23 32.841C197.004 32.5094 196.76 32.1779 196.516 31.8114C195.784 30.8342 195.052 29.857 194.267 28.8798C192.699 26.9603 190.956 25.0931 188.934 23.5225C188.394 23.0863 187.731 22.7198 187.121 22.3359C187.766 21.4634 188.219 20.4513 188.359 19.4217C188.585 17.7989 188.341 16.2109 187.888 14.7625C187.418 13.2967 186.72 11.9356 185.832 10.6966C184.925 9.42273 183.845 8.42806 182.781 7.39849C178.372 3.43728 172.69 1.0815 166.851 0.313684C160.995 -0.419228 154.86 0.505637 149.509 3.33258C146.807 4.7635 144.524 6.68303 142.38 8.37571C140.219 10.1207 138.128 11.5342 135.74 12.494C130.947 14.4659 125.422 14.8672 119.774 15.9142C116.951 16.4377 114.023 17.1357 111.234 18.3398C108.445 19.5264 105.848 21.1319 103.513 22.9816C98.8418 26.7508 95.2165 31.4101 92.0443 36.174C90.4583 38.5647 88.9593 40.9903 87.5127 43.4159C86.0835 45.824 84.5671 48.267 83.3122 51.0242C81.9876 53.7639 81.2904 56.9049 80.7153 59.5399C80.1227 62.2447 79.3906 64.5132 78.1357 66.7294C75.6608 71.1269 71.7566 74.582 66.9984 76.4318C64.5757 77.4439 61.8567 78.2466 59.0855 79.503C56.3316 80.7071 53.4209 82.679 51.4863 85.3838C49.5168 88.0188 48.3664 90.9679 47.5124 93.7425C46.6409 96.5345 45.9612 99.2218 45.142 101.735C44.3054 104.23 43.2073 106.464 41.6736 108.209C40.1572 109.954 37.9785 111.245 35.5907 112.467C33.1855 113.688 30.5711 114.753 27.9567 116.253C25.3597 117.702 22.693 119.831 21.0895 122.745C19.486 125.676 19.12 128.818 18.876 131.644C18.6494 134.506 18.5971 137.176 17.8825 139.637C17.2028 142.045 15.8956 144.278 13.7692 145.133C11.6602 146.041 8.81925 145.814 7.70378 143.877C7.44234 143.441 6.8846 143.249 6.414 143.476C5.92598 143.703 5.6994 144.296 5.94341 144.802C6.69287 146.303 8.26151 147.437 9.86501 147.821ZM230.642 42.2292L216.664 76.4667C214.224 82.5045 211.888 88.455 207.915 93.3934C204.359 97.9305 199.827 101.682 194.738 104.439C194.093 102.607 193.64 100.757 193.57 98.9252C193.553 96.7962 194.163 94.8418 195.4 93.376C195.697 92.9921 196.115 92.7129 196.446 92.3639C196.725 92.1196 197.039 91.9625 197.509 91.7706C198.416 91.4041 199.531 91.1249 200.664 90.8457C201.814 90.5665 203 90.3222 204.254 89.9383C204.899 89.7289 205.544 89.5369 206.294 89.1181C206.886 88.7866 207.444 88.4725 208.054 88.0013C208.664 87.5476 209.291 86.9717 209.797 86.169C209.919 85.9771 210.041 85.7677 210.146 85.5408C210.25 85.314 210.39 84.9475 210.424 84.7381C210.564 84.2321 210.581 83.8307 210.616 83.4293C210.686 81.9112 210.512 80.6373 210.32 79.3634L210.163 78.4211C210.128 78.2292 210.111 78.0372 210.111 77.8453C210.093 77.4439 210.146 77.0251 210.233 76.5365C210.407 75.5767 210.773 74.4075 211.017 73.029C211.557 69.9752 210.651 67.2704 210.982 65.9093C211.174 65.1764 211.034 65.4905 212.272 64.1119C212.777 63.5186 213.509 62.5065 213.631 61.1279C213.771 59.7842 213.248 58.5627 212.725 57.7949C212.185 56.9922 211.61 56.4338 211.052 55.9452C210.494 55.474 210.058 55.125 209.553 54.7236L206.712 52.5424C204.882 51.1289 203.209 49.7154 201.989 48.11C200.751 46.5046 199.914 44.7072 199.81 43.0145C199.723 42.2292 199.897 41.1473 199.932 39.6466C199.932 38.9137 199.88 38.0412 199.636 37.1512C199.392 36.2612 199.008 35.5109 198.625 34.8827C198.45 34.6035 198.311 34.3941 198.137 34.1498C209.222 35.9471 220.08 38.6868 230.642 42.2292Z" fill="url(#paint1_linear)"/>
<path d="M169.099 54.6189C169.291 55.1249 169.849 55.3867 170.372 55.1947C170.895 55.0028 171.156 54.4444 170.964 53.9209C170.041 51.3731 167.775 49.6979 165.404 48.9475C162.964 48.1797 160.472 48.3542 158.171 48.7556C153.657 49.6979 149.125 50.9194 145.064 53.5893C143.06 54.933 141.23 56.7303 140.01 58.9291C138.772 61.1278 138.162 63.4662 137.605 65.6474C137.029 67.8462 136.541 69.9577 135.618 71.7201C134.711 73.4826 133.404 74.8088 131.609 75.6639C128.036 77.4438 123.347 77.374 118.694 79.1889C114.127 81.0386 110.241 84.389 107.713 88.5946C106.424 90.6886 105.517 93.0095 104.994 95.4525C104.471 97.8955 104.419 100.304 104.437 102.59C104.506 107.179 104.698 111.454 102.885 114.979C102.031 116.724 100.776 118.12 99.2426 118.818C97.7786 119.569 95.5476 119.464 92.9158 120.214C87.4604 121.942 84.114 127.788 85.3689 133.372C86.0138 135.99 87.2164 137.979 87.4604 139.654C87.7219 141.259 87.199 142.324 85.7175 143.284C85.0029 143.755 84.114 144.121 83.1554 144.401C82.2316 144.68 81.1858 144.854 80.0355 145.099C77.822 145.587 75.103 146.128 72.8546 148.222C71.774 149.269 70.9548 150.595 70.5365 151.887C70.0659 153.178 69.8568 154.469 69.7174 155.656C69.4211 158.047 69.4385 160.298 68.9679 162.095C68.5322 163.945 67.6955 164.957 66.1095 165.48C64.4711 166.056 62.0659 165.864 59.4166 166.842C58.0746 167.33 56.8196 168.238 55.9307 169.285C55.0244 170.332 54.397 171.501 53.8915 172.653C52.9155 174.991 52.5669 177.347 52.0266 179.406C51.5211 181.482 50.8239 183.437 49.4645 184.676C48.105 185.95 46.1006 186.648 44.5494 185.88L44.5145 185.862C44.0614 185.636 43.5211 185.775 43.2422 186.211C42.9459 186.665 43.0679 187.293 43.5385 187.59C44.7237 188.358 46.24 188.585 47.5647 188.34C48.9067 188.096 50.1093 187.485 51.1551 186.683C53.3163 184.972 54.3098 182.494 55.0418 180.278C55.739 178.01 56.1748 175.863 57.0462 174.066C57.9003 172.251 59.1203 170.873 60.6715 170.419C62.2925 169.86 64.5583 170.07 67.2598 169.337C68.6193 168.988 70.0311 168.115 71.042 166.981C72.0877 165.829 72.6803 164.416 72.9941 163.16C73.6564 160.577 73.6215 158.256 73.9004 156.179C74.1444 154.085 74.6847 152.34 75.7653 151.328C76.846 150.264 78.7457 149.688 80.8896 149.252C82.9811 148.833 85.6478 148.327 87.9659 146.826C89.1336 146.076 90.3014 144.994 90.9811 143.511C91.6957 142.062 91.8003 140.335 91.5389 138.956C90.9986 136.164 89.7437 134.21 89.3602 132.412C88.4887 129.132 90.8068 125.031 94.0836 124.088C95.7568 123.513 98.2317 123.67 100.898 122.466C103.495 121.279 105.343 119.028 106.441 116.724C107.574 114.404 108.114 111.908 108.288 109.465C108.463 107.057 108.358 104.736 108.323 102.52C108.288 100.304 108.306 98.1748 108.724 96.1854C109.108 94.1961 109.84 92.2417 110.885 90.4792C112.942 86.9193 116.201 84.0226 119.984 82.4172C123.731 80.7943 128.454 80.8466 133.056 78.5955C134.188 78.0197 135.287 77.2693 136.21 76.327C137.134 75.3672 137.866 74.2853 138.441 73.1511C139.557 70.8651 140.062 68.5442 140.568 66.3629C141.073 64.1816 141.578 62.0876 142.52 60.3077C143.443 58.5277 144.873 57.027 146.581 55.8055C150.014 53.3799 154.354 52.0362 158.59 51.0416C160.681 50.6053 162.825 50.4308 164.742 50.9892C166.677 51.5825 168.42 52.8564 169.099 54.6189Z" fill="url(#paint2_linear)"/>
<path d="M85.4386 105.888C91.9921 104.387 97.4126 98.9777 98.9464 92.4339C99.3473 90.6889 99.4867 88.9089 99.6261 87.1813C99.783 85.1397 99.9224 83.2201 100.48 81.3704C102.432 74.8266 109.108 70.9526 114.702 69.5217C115.365 69.3472 116.027 69.2076 116.707 69.0505C118.485 68.6492 120.315 68.2478 122.04 67.4451C126.798 65.2464 129.622 60.7267 132.358 56.3467C133.108 55.1426 133.857 53.9386 134.642 52.8043C137.517 48.6162 142.467 43.1194 149.753 40.6066C156.254 38.3729 163.33 39.2803 168.263 42.9449C168.699 43.2765 169.326 43.1892 169.657 42.7355C169.988 42.2992 169.901 41.671 169.448 41.3395C164.01 37.2736 156.219 36.2614 149.108 38.7045C141.3 41.3744 136.053 47.2202 133.003 51.6526C132.202 52.8218 131.435 54.0433 130.668 55.2648C128.088 59.3831 125.439 63.6584 121.204 65.5954C119.67 66.3108 118.014 66.6773 116.271 67.0612C115.591 67.2182 114.894 67.3753 114.214 67.5498C108.097 69.1203 100.776 73.4131 98.5804 80.7422C97.9703 82.8013 97.796 84.9128 97.6392 86.9719C97.4997 88.6995 97.3777 90.3224 97.0117 91.9278C95.6522 97.7562 90.8417 102.572 85.0029 103.899C84.4626 104.021 84.1314 104.562 84.2535 105.085C84.358 105.539 84.7589 105.853 85.2121 105.853C85.2818 105.923 85.3515 105.905 85.4386 105.888Z" fill="url(#paint3_linear)"/>
<path d="M33.7955 159.565C34.8935 156.616 35.1027 153.632 35.1724 150.875C35.2421 148.083 35.0504 145.43 35.1899 143.04C35.3293 140.614 35.7476 138.258 36.6539 136.391C37.5951 134.506 38.8674 133.285 40.8195 132.552C42.8065 131.784 45.4209 131.54 48.3141 130.755C49.7608 130.353 51.2946 129.725 52.6366 128.905C53.9787 128.085 55.1987 127.073 56.2793 125.973C58.4232 123.74 59.9744 121.105 61.0201 118.313C62.1007 115.573 62.6062 112.502 62.7282 109.727C62.8676 106.935 62.8153 104.317 63.0768 101.927C63.3382 99.5186 63.9308 97.4246 65.1683 95.697C66.3535 93.9345 68.1836 92.5734 70.2925 91.4391C74.5627 89.1357 79.809 87.8444 84.8809 85.1919C87.4081 83.8832 89.9354 82.0509 91.8526 79.7823C93.8047 77.5313 95.2339 75.0184 96.4365 72.5056C98.8069 67.4624 100.288 62.3844 102.607 57.9171C103.757 55.6835 105.081 53.6418 106.755 51.8794C108.41 50.1169 110.363 48.5987 112.506 47.4121C114.65 46.208 116.916 45.4053 119.408 44.8818C121.901 44.3234 124.55 43.9395 127.252 43.2415C129.936 42.5435 132.777 41.3394 135.025 39.4199C137.273 37.5527 138.929 35.3888 140.672 33.5217C147.243 26.0355 159.583 24.5173 168.106 30.0316C168.542 30.3108 169.152 30.2061 169.465 29.7873C169.779 29.3336 169.692 28.7228 169.239 28.3913C160.141 21.83 146.319 22.9293 138.372 31.2531C136.419 33.1901 134.746 35.1969 132.829 36.6627C130.964 38.1285 128.768 38.9836 126.328 39.542C123.888 40.1179 121.273 40.4494 118.572 40.9904C115.87 41.5139 113.047 42.4213 110.537 43.765C108.01 45.1086 105.674 46.8362 103.67 48.8954C101.63 50.937 100.01 53.3626 98.6675 55.8231C96.0008 60.7615 94.3799 65.8919 92.1141 70.4115C90.9811 72.6626 89.7088 74.7567 88.1227 76.5017C86.5541 78.2467 84.7066 79.5904 82.5279 80.7072C78.188 82.9757 72.9766 84.2147 67.835 86.8672C65.2903 88.2108 62.6933 90.0431 60.8633 92.6955C58.9635 95.2956 58.1094 98.489 57.7957 101.351C57.4645 104.23 57.5168 106.935 57.36 109.448C57.2205 111.961 56.8197 114.194 55.9482 116.41C54.275 120.79 51.0505 124.42 46.8152 125.45C44.5843 126.078 41.8653 126.27 38.85 127.352C37.3511 127.875 35.7999 128.765 34.545 129.934C33.2726 131.104 32.314 132.535 31.6168 133.983C28.9153 139.881 29.7519 145.936 29.8216 150.875C29.8565 153.388 29.6996 155.813 28.985 157.872C28.2878 159.931 27.0852 161.624 25.2377 162.863C23.4076 164.12 21.0721 164.957 18.6146 165.673C16.1396 166.423 13.5775 166.894 10.8411 167.906C8.19181 168.936 5.64713 170.279 3.50332 172.304C2.44013 173.316 1.48151 174.485 0.836628 175.864C0.191743 177.242 -0.104556 178.778 -0.0348384 180.278C2.02432e-05 180.767 0.383466 181.186 0.888916 181.221C1.44666 181.256 1.91725 180.854 1.95211 180.296V180.278C2.1264 177.923 3.52075 175.951 5.38568 174.502C7.26805 173.037 9.58616 172.059 11.9565 171.396C16.6973 170.105 22.4141 170.018 27.7475 166.824C30.4665 165.236 32.7497 162.532 33.7955 159.565Z" fill="url(#paint4_linear)"/>
<path d="M173.265 25.3891C173.3 25.3891 173.317 25.3891 173.352 25.3891C173.84 25.3891 174.259 25.1274 174.468 24.7086C174.799 24.0629 174.537 23.1904 174.119 22.7018C170.197 18.0949 164.498 15.1807 158.485 14.6921C152.472 14.221 146.372 16.1754 141.77 20.1017C141.352 20.4507 141.3 21.0789 141.666 21.4977C142.032 21.9165 142.642 21.9689 143.06 21.6024C147.26 18.0251 152.82 16.2277 158.311 16.664C163.731 17.1002 168.873 19.7003 172.446 23.8535C172.359 23.9931 172.306 24.1502 172.306 24.3072C172.306 24.8831 172.707 25.3542 173.265 25.3891Z" fill="url(#paint5_linear)"/>
<path d="M161.152 98.209C162.25 97.0224 163.383 95.7834 164.394 94.4572C166.224 92.0839 169.047 87.3549 167.496 82.5386C167.322 82.0151 166.764 81.7359 166.241 81.893C165.718 82.0675 165.439 82.6259 165.596 83.1494C166.921 87.2677 164.08 91.5953 162.807 93.2531C161.849 94.5095 160.751 95.7136 159.67 96.8653C158.084 98.5929 156.446 100.373 155.173 102.432C154.11 104.125 153.552 105.66 153.43 107.126C153.256 109.325 154.075 111.332 154.842 113.269C155.034 113.74 155.226 114.228 155.4 114.7C155.905 116.061 156.219 117.439 156.428 118.818C154.511 120.423 152.35 121.802 150.032 122.953C147.348 124.297 144.542 125.484 141.701 126.601C140.568 127.054 139.435 127.491 138.302 127.944C138.389 127.84 138.476 127.735 138.563 127.648C139.348 126.88 140.219 126.199 141.143 125.501C142.136 124.733 143.165 123.948 144.071 123.006C146.703 120.318 148.219 116.619 148.219 112.85C148.219 111.035 147.871 109.255 147.557 107.545C147.348 106.446 147.121 105.329 147.016 104.229C146.825 102.397 146.807 99.0292 148.986 97.1096C149.979 96.2371 151.304 95.7834 152.716 95.2948C153.657 94.9807 154.633 94.6317 155.557 94.1605C158.764 92.4679 161.099 88.9254 161.657 84.877C161.779 83.9521 161.762 83.0098 161.727 82.0849C161.64 79.258 161.57 77.0244 165.352 75.3491C165.858 75.1223 166.084 74.5464 165.858 74.0404C165.631 73.5343 165.056 73.3074 164.55 73.5343C159.548 75.7679 159.653 79.3103 159.74 82.1547C159.757 83.0273 159.792 83.8474 159.688 84.6152C159.217 88.0355 157.282 91.0195 154.633 92.4155C153.849 92.8343 152.977 93.131 152.071 93.4276C150.555 93.9511 148.969 94.4921 147.679 95.6264C144.838 98.1392 144.82 102.223 145.064 104.439C145.186 105.625 145.413 106.795 145.64 107.929C145.971 109.621 146.284 111.227 146.267 112.85C146.267 116.096 144.96 119.289 142.677 121.61C141.857 122.447 140.934 123.163 139.94 123.913C139.016 124.629 138.058 125.362 137.186 126.217C136.245 127.142 135.461 128.223 134.799 129.375C134.241 129.602 133.683 129.829 133.108 130.073C131.679 130.719 130.232 131.347 128.82 132.167C128.106 132.534 127.408 132.97 126.711 133.459C125.979 133.912 125.369 134.401 124.759 134.889C119.809 138.781 115.278 143.213 111.321 148.117C103.356 157.871 97.3603 169.162 93.4213 181.063C89.4474 192.824 86.2752 204.743 82.0922 216.19C81.0464 219.052 79.931 221.879 78.7458 224.671C77.5431 227.463 76.2708 230.29 75.0856 233.222C73.9178 236.153 72.8547 239.207 72.1923 242.418C71.53 245.629 71.2686 248.857 71.2163 252.033C71.1466 258.403 71.6346 264.475 71.7043 270.6C71.8263 276.708 71.7392 282.798 71.1292 288.801C70.5366 294.804 69.5082 300.754 67.6607 306.461C65.7958 312.149 63.2162 317.629 60.0267 322.724C56.7674 327.785 53.0026 332.531 48.6627 336.754C44.3054 340.925 39.4426 344.607 34.1964 347.678H34.179C33.7258 347.94 33.5515 348.516 33.7955 348.987C34.0395 349.475 34.6496 349.667 35.1376 349.423C46.2924 343.769 55.9308 335.096 62.9722 324.644C66.4581 319.391 69.2991 313.702 71.4255 307.734C73.4995 301.749 74.8242 295.519 75.4865 289.255C76.1662 283.007 76.3057 276.743 76.236 270.53C76.2185 264.318 75.7654 258.088 75.8874 252.138C75.9745 249.154 76.2359 246.222 76.846 243.395C77.456 240.568 78.3972 237.776 79.4952 234.967C80.5933 232.175 81.8482 229.365 83.0508 226.503C84.2534 223.624 85.4038 220.71 86.4321 217.778C90.65 206.034 93.735 194.081 97.5869 182.476C101.386 170.994 106.877 160.053 114.354 150.577C118.066 145.813 122.319 141.521 126.973 137.716C127.548 137.228 128.141 136.757 128.716 136.39C129.273 135.989 129.866 135.587 130.528 135.238C131.295 134.767 132.167 134.383 133.003 133.982C132.376 136.826 132.515 139.845 133.509 142.568C133.648 142.969 134.032 143.213 134.45 143.213C134.572 143.213 134.677 143.196 134.799 143.161C135.321 142.969 135.583 142.393 135.391 141.887C134.345 139.008 134.415 135.762 135.409 132.83C137.884 131.714 140.411 130.649 142.955 129.55C145.796 128.346 148.655 127.037 151.426 125.554C153.256 124.576 155.017 123.407 156.707 122.116C156.69 123.268 156.603 124.419 156.359 125.519C155.574 129.166 153.552 132.446 150.799 134.523C150.363 134.855 150.276 135.483 150.607 135.919C150.799 136.181 151.095 136.32 151.409 136.32C151.618 136.32 151.827 136.251 152.001 136.111C155.139 133.738 157.439 130.038 158.311 125.937C158.694 124.175 158.781 122.343 158.677 120.51C158.868 120.336 159.078 120.214 159.269 120.022C159.897 119.481 160.402 118.818 160.908 118.155C161.152 117.823 161.431 117.509 161.657 117.16L162.25 116.026L162.825 114.891L163.173 113.652L163.505 112.414C163.574 112.012 163.627 111.628 163.679 111.227C164.028 108.068 163.975 104.7 162.668 101.577C162.459 101.088 161.901 100.844 161.396 101.036C160.89 101.228 160.629 101.804 160.82 102.31V102.327C161.814 104.962 161.797 107.999 161.343 110.895C161.291 111.262 161.221 111.628 161.152 111.977L160.838 112.954L160.542 113.932L160.036 114.839L159.531 115.747C159.339 116.026 159.078 116.287 158.868 116.567C158.677 116.811 158.433 117.003 158.241 117.247C158.014 116.183 157.718 115.101 157.317 114.054C157.125 113.565 156.934 113.059 156.725 112.553C155.993 110.756 155.313 109.046 155.452 107.301C155.539 106.149 156.01 104.91 156.899 103.514C158.049 101.577 159.566 99.9366 161.152 98.209Z" fill="url(#paint6_linear)"/>
<path d="M136.019 99.3785C136.489 99.3785 136.89 99.0469 136.995 98.5758C137.761 94.7193 138.755 90.8104 141.77 89.0479C142.921 88.3673 144.28 88.0881 145.709 87.7915C146.982 87.5297 148.289 87.2505 149.526 86.6747C152.123 85.4881 154.058 83.1148 154.72 80.3402C154.964 79.3281 155.034 78.3334 155.086 77.3562C155.139 76.5884 155.191 75.8555 155.313 75.14C155.766 72.6796 157.282 70.3936 159.374 69.0324C161.483 67.6713 164.184 67.2176 166.607 67.8284C167.13 67.9505 167.67 67.6364 167.81 67.0955C167.949 66.5545 167.618 66.0135 167.078 65.8914C164.132 65.1585 160.838 65.6994 158.293 67.3572C155.749 69.015 153.901 71.7896 153.343 74.7736C153.186 75.5937 153.134 76.4139 153.082 77.2166C153.03 78.1415 152.96 79.0315 152.768 79.8691C152.245 82.0154 150.677 83.935 148.672 84.8598C147.644 85.331 146.494 85.5753 145.274 85.8371C143.757 86.1512 142.171 86.4827 140.742 87.3203C137.012 89.5016 135.827 94.0736 135.008 98.1919C134.903 98.7328 135.252 99.2563 135.792 99.361C135.897 99.3785 135.966 99.3785 136.019 99.3785Z" fill="url(#paint7_linear)"/>
<path d="M265.518 634.614C265.414 634.23 265.222 633.881 265.013 633.549C264.804 633.253 264.473 632.869 264.316 632.729L263.166 631.612C262.381 630.879 261.579 630.181 260.778 629.501C257.501 626.796 253.963 624.51 250.425 622.346C243.383 618.019 236.045 614.145 230.764 608.264C229.457 606.816 228.272 605.21 227.331 603.587C226.442 601.877 225.605 600.01 224.873 598.143C223.374 594.408 222.259 590.534 221.562 586.591C220.847 582.647 220.621 578.633 220.83 574.655C220.934 572.665 221.178 570.659 221.475 568.739L222.729 562.701C229.457 530.279 233.71 497.49 240.333 465.189L241.588 459.081C241.937 457.057 242.215 454.998 242.634 453.009C243.436 449.013 244.342 445.051 245.457 441.108C247.601 433.22 251.976 425.42 254.59 417.585C257.205 409.75 259.209 402.577 261.318 394.498C263.444 386.453 266.251 376.175 266.651 367.834C269.004 334.539 259.331 301.732 243.47 272.538C243.209 272.067 242.634 271.892 242.163 272.119C241.675 272.363 241.466 272.957 241.71 273.445C248.908 288.208 254.172 303.861 257.292 319.915C260.359 335.97 261.353 352.425 260.185 368.724C259.871 372.79 259.575 376.856 258.808 380.817C258.111 384.796 257.17 388.774 256.176 392.736C254.12 400.64 251.575 408.458 248.978 416.293C246.381 424.129 243.749 431.999 241.571 440.043C240.455 444.057 239.514 448.14 238.712 452.241C238.294 454.3 238.015 456.324 237.666 458.383L236.446 464.421C229.928 496.879 225.588 529.65 219.174 561.986L217.954 568.076C217.623 570.24 217.379 572.334 217.292 574.463C217.1 578.721 217.379 583.013 218.163 587.184C218.93 591.372 220.15 595.455 221.736 599.382C222.538 601.336 223.392 603.256 224.42 605.193C225.57 607.13 226.86 608.84 228.324 610.463C234.233 616.884 241.849 620.776 248.821 625.016C252.324 627.128 255.758 629.326 258.878 631.839C259.662 632.467 260.412 633.113 261.161 633.794L262.242 634.823C262.573 635.155 262.608 635.207 262.712 635.486C262.887 635.958 262.782 636.725 262.468 637.371C262.189 638.017 261.51 638.505 261.475 638.435H261.457L261.318 638.453C257.85 638.784 254.346 638.872 250.86 638.662C247.375 638.401 243.906 637.877 240.473 637.144C233.605 635.626 226.895 633.253 220.185 630.862C216.821 629.658 213.457 628.454 210.041 627.337C208.385 626.779 206.538 626.15 204.69 625.924C202.843 625.644 200.995 625.609 199.182 625.609C195.557 625.644 192.002 626.011 188.516 625.924C185.065 625.836 181.596 625.208 179.104 623.079C178.686 622.713 178.058 622.765 177.71 623.184C177.344 623.603 177.396 624.231 177.814 624.58C180.829 627.18 184.856 627.861 188.446 627.983C192.106 628.105 195.679 627.756 199.182 627.756C200.925 627.756 202.668 627.808 204.359 628.07C206.067 628.297 207.601 628.82 209.326 629.431C212.69 630.583 216.019 631.822 219.366 633.061C226.058 635.539 232.821 638.034 239.88 639.692C243.418 640.495 247.009 641.088 250.651 641.402C254.242 641.664 257.85 641.629 261.457 641.332C262.503 641.315 263.27 640.826 263.81 640.355C264.368 639.849 264.752 639.291 265.065 638.697C265.641 637.546 265.972 636.132 265.518 634.614Z" fill="url(#paint8_linear)"/>
<path d="M235.557 201.411C233.675 201.027 233.065 202.789 232.926 203.33C230.433 213.015 223.496 246.45 238.747 269.763C238.939 270.06 239.27 270.235 239.601 270.235C239.793 270.235 239.985 270.182 240.159 270.06C240.629 269.746 240.769 269.118 240.455 268.647C225.658 246.048 234.355 213.382 236.795 203.906C236.934 203.348 237.318 201.777 235.557 201.411Z" fill="url(#paint9_linear)"/>
<path d="M86.6587 614.599C94.4147 600.551 105.413 588.72 110.572 573.241C114.371 561.829 113.099 551.149 111.931 539.545C110.258 522.81 110.92 505.534 116.184 489.463C118.52 482.308 121.866 475.398 126.38 469.342C131.051 463.078 136.663 457.878 139.958 450.653C143.165 443.586 142.764 436.623 142.764 428.98C142.764 419.644 142.467 410.291 142.328 400.955C142.119 387.256 142.171 373.506 143.844 359.894C146.581 337.785 154.372 316.914 166.938 298.574C176.123 285.137 181.893 271.91 181.283 255.21C180.725 239.802 175.601 224.62 167.391 211.637C176.489 213.626 187.156 211.881 195.069 206.96C196.568 206.035 206.032 198.968 201.413 198.706C200.42 198.654 192.838 204.779 191.235 205.442C183.2 208.775 171.923 209.874 163.94 205.878C154.807 201.306 153.762 191.499 149.247 183.437C150.398 181.064 145.117 175.794 143.321 174.764C138.738 172.112 135.478 175.026 132.951 178.83C131.33 181.273 130.04 184.048 128.646 186.613C123.26 196.542 117.875 206.454 112.489 216.383C106.18 228.005 99.4344 239.418 97.6915 252.767C96.4714 262.068 95.966 271.404 94.0836 280.618C91.9223 291.158 87.8265 300.738 83.5911 310.58C76.1662 327.838 71.3209 349.616 52.8283 358.498C49.4471 360.121 47.5298 362.041 52.41 360.924C56.5931 359.964 60.8807 356.16 63.8437 353.246C70.4146 346.807 74.5627 338.518 78.0137 330.107C86.3624 309.812 95.4431 290.163 98.1272 268.176C99.2427 259.014 99.417 249.713 102.572 240.936C104.837 234.654 108.097 228.808 111.269 222.945C116.846 212.684 122.406 202.406 127.984 192.145C129.761 188.882 131.47 185.566 133.317 182.32C138.72 172.827 142.677 175.742 147.522 183.489C146.128 186.299 150.084 195.966 151.234 198.497C153.831 204.238 156.829 207.588 162.563 210.084C178.372 236.416 180.045 267.896 162.145 293.444C145.552 317.124 139.452 343.927 137.918 372.912C136.96 391.095 138.058 409.296 138.162 427.497C138.215 435.716 138.755 443.429 134.833 450.88C131.156 457.878 125.073 463.095 120.785 469.657C111.199 484.332 107.556 502.009 107.156 519.355C106.737 537.713 112.925 556.088 106.65 573.905C100.515 591.355 85.6129 604.652 80.4887 622.312C77.9963 630.897 78.7806 641.402 85.4212 648.016C86.4495 649.045 88.8374 651.558 90.772 650.913C94.9028 649.534 90.3886 646.934 90.5629 648.888C86.9027 649.674 83.3123 641.193 82.5802 638.767C80.053 630.443 82.6151 621.91 86.6587 614.599Z" fill="url(#paint10_linear)"/>
<path d="M48.2096 349.983C48.6976 349.703 48.8719 349.075 48.593 348.586C48.3141 348.098 47.7041 347.923 47.1987 348.203C43.3468 350.366 33.4469 355.235 24.802 353.804C24.2442 353.699 23.7213 354.083 23.6168 354.642C23.5296 355.2 23.8956 355.724 24.4534 355.828C25.6386 356.02 26.8412 356.125 28.0612 356.125C36.3227 356.09 44.6888 351.954 48.2096 349.983Z" fill="url(#paint11_linear)"/>
<path d="M54.2924 352.373C54.0309 351.867 53.4209 351.675 52.9155 351.937C46.6409 355.148 39.0591 358.516 28.2355 357.643C27.6778 357.609 27.1723 358.027 27.1375 358.586C27.0852 359.144 27.5209 359.65 28.0787 359.685C29.3162 359.79 30.5188 359.825 31.6691 359.825C41.1332 359.825 48.0353 356.736 53.8392 353.752C54.3621 353.508 54.5538 352.879 54.2924 352.373Z" fill="url(#paint12_linear)"/>
<path d="M177.483 609.677C177.221 610.166 177.413 610.759 177.884 611.021C178.041 611.108 178.198 611.143 178.354 611.143C178.703 611.143 179.052 610.951 179.226 610.619C185.779 598.404 190.224 586.329 192.42 574.759C195.087 560.764 193.535 546.315 192.036 532.337C191.81 530.156 191.566 527.975 191.357 525.811C189.753 509.757 189.143 492.882 195.47 478.154C196.864 474.909 198.625 471.698 200.333 468.609C203.278 463.252 206.346 457.72 207.671 451.612C208.943 445.801 208.594 439.746 208.124 434.04C206.694 416.572 204.586 403.013 201.954 386.226C207.636 368.008 212.324 349.511 215.915 330.822C216.002 330.316 215.705 329.809 215.2 329.67C214.677 329.53 214.119 329.844 213.98 330.368C206.59 357.241 198.276 383.818 187.993 409.575C185.396 416.014 182.729 422.401 179.94 428.735C177.117 435.07 174.154 441.317 171.104 447.547C164.986 459.989 158.485 472.71 154.563 486.443C152.559 493.231 150.955 500.072 149.247 506.79C147.539 513.526 145.727 520.227 143.827 526.91C140.08 540.295 135.984 553.592 131.522 566.749C127.025 579.889 122.162 592.995 117.003 605.821C111.6 618.489 104.053 630.286 97.6391 642.728C97.3951 643.199 97.5694 643.775 98.0226 644.037C98.4932 644.316 99.1032 644.159 99.3821 643.67C106.371 631.664 114.249 620.095 120.28 607.269C126.066 594.425 131.051 581.425 135.897 568.268C140.655 555.11 145.117 541.83 149.073 528.394C151.043 521.675 152.925 514.922 154.685 508.151C156.463 501.381 158.102 494.627 160.088 488.049C163.923 474.909 170.267 462.676 176.542 450.182C182.781 437.617 188.411 424.722 193.361 411.599C195.975 404.636 198.398 397.621 200.664 390.571C202.999 405.491 204.864 418.195 206.172 434.162C206.625 439.711 206.973 445.592 205.753 451.141C204.481 456.97 201.501 462.379 198.607 467.597C196.882 470.738 195.087 473.966 193.657 477.317C187.156 492.464 187.766 509.635 189.405 525.951C189.631 528.132 189.858 530.313 190.084 532.494C191.566 546.332 193.1 560.624 190.485 574.34C188.307 585.753 183.949 597.636 177.483 609.677Z" fill="url(#paint13_linear)"/>
<path d="M249.728 185.705C252.081 179.336 251.279 172.286 248.56 166.405C245.858 160.455 241.518 155.621 236.952 151.363C236.568 151.014 235.976 151.014 235.592 151.363C235.192 151.747 235.174 152.375 235.558 152.777C239.758 157.244 243.61 162.078 245.928 167.557C248.176 172.967 248.856 179.231 246.765 184.571C244.76 189.911 239.828 193.837 234.32 195.739C228.76 197.729 222.573 197.833 216.472 197.397C215.967 197.362 215.496 197.729 215.409 198.235C215.322 198.776 215.688 199.282 216.246 199.369C222.433 200.346 228.987 200.538 235.261 198.549C238.381 197.537 241.327 195.949 243.871 193.802C246.433 191.691 248.542 188.881 249.728 185.705Z" fill="url(#paint14_linear)"/>
<path d="M191.705 17.7988C207.601 15.6001 223.601 16.8739 239.636 18.1478C243.575 18.4794 247.444 18.9156 250.738 20.2593C254.05 21.5855 256.455 23.9064 257.571 27.1522C258.739 30.3979 258.773 34.2544 258.407 38.0935C258.059 41.9849 257.396 45.8589 256.455 49.6805C254.59 57.3586 251.784 64.8448 248.839 72.3309L240.107 94.9465L235.749 106.254C234.285 110.024 232.873 113.88 231.81 117.876C230.747 121.872 230.015 126.025 230.067 130.213C230.067 134.402 230.904 138.642 232.717 142.446C232.943 142.917 233.518 143.144 234.006 142.935C234.512 142.725 234.756 142.132 234.529 141.626C233.048 138.049 232.542 134.122 232.682 130.231C232.804 126.34 233.64 122.483 234.825 118.731C236.011 114.962 237.544 111.28 239.078 107.563L243.732 96.3774L253.039 73.9887C256.072 66.4851 259.017 58.8244 261.039 50.7973C262.068 46.7837 262.817 42.6829 263.218 38.5297C263.619 34.394 263.741 29.9268 262.224 25.4944C261.458 23.3131 260.203 21.1493 258.477 19.4566C256.752 17.7814 254.677 16.5424 252.586 15.7048C248.351 14.0645 244.063 13.6456 239.985 13.4188C231.897 12.9302 223.775 12.651 215.636 12.8604C207.496 13.0349 199.305 13.9248 191.357 15.8444C190.869 15.9665 190.538 16.4377 190.607 16.9437C190.66 17.4847 191.165 17.8686 191.705 17.7988Z" fill="url(#paint15_linear)"/>
<path d="M240.612 188.061C242.477 186.072 243.767 183.629 244.324 180.959C244.429 180.418 244.098 179.894 243.558 179.772C243.017 179.667 242.494 179.999 242.39 180.54C241.919 182.809 240.769 184.99 239.183 186.683C238.799 187.084 238.817 187.712 239.218 188.096C239.409 188.27 239.653 188.375 239.897 188.375C240.159 188.375 240.42 188.27 240.612 188.061Z" fill="url(#paint16_linear)"/>
<path d="M174.171 200.224C175.304 200.538 176.472 200.696 177.657 200.696C178.511 200.696 179.365 200.608 180.202 200.451C180.742 200.347 181.091 199.823 180.986 199.282C180.882 198.741 180.359 198.392 179.818 198.497C178.128 198.828 176.367 198.776 174.712 198.305C174.189 198.165 173.631 198.462 173.492 199.003C173.335 199.544 173.649 200.085 174.171 200.224Z" fill="url(#paint17_linear)"/>
<path d="M220.83 281.229L219.174 289.901C219.069 290.442 219.418 290.966 219.958 291.071C220.028 291.088 220.08 291.088 220.15 291.088C220.621 291.088 221.039 290.756 221.126 290.285L222.782 281.613C222.886 281.072 222.538 280.548 221.997 280.443C221.457 280.339 220.934 280.688 220.83 281.229Z" fill="url(#paint18_linear)"/>
</g>
<defs>
<linearGradient id="paint0_linear" x1="186.664" y1="-10.7208" x2="104.512" y2="140.431" gradientUnits="userSpaceOnUse">
<stop stop-color="white"/>
<stop offset="1" stop-color="#F89939"/>
</linearGradient>
<linearGradient id="paint1_linear" x1="180.643" y1="-13.9941" x2="98.4904" y2="137.158" gradientUnits="userSpaceOnUse">
<stop stop-color="white"/>
<stop offset="1" stop-color="#F89939"/>
</linearGradient>
<linearGradient id="paint2_linear" x1="180.154" y1="-14.2596" x2="98.0018" y2="136.892" gradientUnits="userSpaceOnUse">
<stop stop-color="white"/>
<stop offset="1" stop-color="#F89939"/>
</linearGradient>
<linearGradient id="paint3_linear" x1="175.896" y1="-16.5738" x2="93.7435" y2="134.578" gradientUnits="userSpaceOnUse">
<stop stop-color="white"/>
<stop offset="1" stop-color="#F89939"/>
</linearGradient>
<linearGradient id="paint4_linear" x1="155.815" y1="-27.4882" x2="73.6627" y2="123.664" gradientUnits="userSpaceOnUse">
<stop stop-color="white"/>
<stop offset="1" stop-color="#F89939"/>
</linearGradient>
<linearGradient id="paint5_linear" x1="178.469" y1="-15.176" x2="96.317" y2="135.976" gradientUnits="userSpaceOnUse">
<stop stop-color="white"/>
<stop offset="1" stop-color="#F89939"/>
</linearGradient>
<linearGradient id="paint6_linear" x1="212.631" y1="3.39099" x2="130.479" y2="154.543" gradientUnits="userSpaceOnUse">
<stop stop-color="white"/>
<stop offset="1" stop-color="#F89939"/>
</linearGradient>
<linearGradient id="paint7_linear" x1="197.944" y1="-4.59118" x2="115.792" y2="146.561" gradientUnits="userSpaceOnUse">
<stop stop-color="white"/>
<stop offset="1" stop-color="#F89939"/>
</linearGradient>
<linearGradient id="paint8_linear" x1="433.519" y1="123.447" x2="351.367" y2="274.599" gradientUnits="userSpaceOnUse">
<stop stop-color="white"/>
<stop offset="1" stop-color="#F89939"/>
</linearGradient>
<linearGradient id="paint9_linear" x1="332.102" y1="60.4709" x2="247.392" y2="216.328" gradientUnits="userSpaceOnUse">
<stop stop-color="white"/>
<stop offset="1" stop-color="#F89939"/>
</linearGradient>
<linearGradient id="paint10_linear" x1="307.14" y1="55.4872" x2="225.066" y2="206.496" gradientUnits="userSpaceOnUse">
<stop stop-color="white"/>
<stop offset="1" stop-color="#F89939"/>
</linearGradient>
<linearGradient id="paint11_linear" x1="222.307" y1="8.65012" x2="140.154" y2="159.802" gradientUnits="userSpaceOnUse">
<stop stop-color="white"/>
<stop offset="1" stop-color="#F89939"/>
</linearGradient>
<linearGradient id="paint12_linear" x1="227.457" y1="11.4482" x2="145.304" y2="162.601" gradientUnits="userSpaceOnUse">
<stop stop-color="white"/>
<stop offset="1" stop-color="#F89939"/>
</linearGradient>
<linearGradient id="paint13_linear" x1="395.869" y1="102.983" x2="313.716" y2="254.135" gradientUnits="userSpaceOnUse">
<stop stop-color="white"/>
<stop offset="1" stop-color="#F89939"/>
</linearGradient>
<linearGradient id="paint14_linear" x1="305.046" y1="53.6199" x2="222.893" y2="204.772" gradientUnits="userSpaceOnUse">
<stop stop-color="white"/>
<stop offset="1" stop-color="#F89939"/>
</linearGradient>
<linearGradient id="paint15_linear" x1="244.434" y1="20.6771" x2="162.282" y2="171.829" gradientUnits="userSpaceOnUse">
<stop stop-color="white"/>
<stop offset="1" stop-color="#F89939"/>
</linearGradient>
<linearGradient id="paint16_linear" x1="310.894" y1="56.7988" x2="228.742" y2="207.95" gradientUnits="userSpaceOnUse">
<stop stop-color="white"/>
<stop offset="1" stop-color="#F89939"/>
</linearGradient>
<linearGradient id="paint17_linear" x1="267.356" y1="33.1354" x2="185.203" y2="184.287" gradientUnits="userSpaceOnUse">
<stop stop-color="white"/>
<stop offset="1" stop-color="#F89939"/>
</linearGradient>
<linearGradient id="paint18_linear" x1="337.324" y1="71.1651" x2="255.172" y2="222.316" gradientUnits="userSpaceOnUse">
<stop stop-color="white"/>
<stop offset="1" stop-color="#F89939"/>
</linearGradient>
<clipPath id="clip0">
<rect width="267" height="651" fill="white"/>
</clipPath>
</defs>
</svg>
