<svg width="455" height="463" viewBox="0 0 455 463" fill="none" xmlns="http://www.w3.org/2000/svg">
<g clip-path="url(#clip0)">
<path d="M177.222 132.131C171.6 132.428 166.312 136.289 164.319 141.561C163.043 144.952 161.211 149.927 157.805 148.702C156.728 148.318 155.998 147.316 155.329 146.388C152.642 142.588 149.076 138.368 144.445 138.789C142.018 139.012 139.702 140.534 137.312 140.064C135.455 139.705 134.056 138.22 132.57 137.044C124.187 130.472 109.724 135.076 106.702 145.286C98.6287 143.12 89.4531 143.393 82.5931 148.157C75.7331 152.922 72.3155 162.971 76.6742 170.112C69.4923 175.62 69.3065 187.995 76.3027 193.713C71.7954 202.624 75.9312 214.839 84.9087 219.195C76.3523 226.076 78.0363 241.818 87.8434 246.744C83.3732 255.828 83.6828 267.09 88.6359 275.914C80.0918 281.718 77.2686 294.502 82.5807 303.351C77.3553 306.915 76.0303 314.415 77.9992 320.417C79.968 326.42 84.5496 331.197 89.2922 335.38C85.8869 344.625 85.6393 354.983 88.574 364.377C89.5398 367.446 90.8771 370.503 93.1555 372.78C98.6782 378.324 107.767 377.78 115.333 375.812C121.784 374.129 128.595 371.208 131.554 365.243C134.402 359.538 132.817 352.384 129.102 347.199C125.388 342.013 119.877 338.424 114.355 335.244C114.491 332.088 114.627 328.92 114.763 325.764C120.633 329.786 129.14 332.36 133.647 326.853C133.523 332.323 137.572 333.845 142.748 335.665C147.924 337.484 154.153 335.64 157.484 331.296C154.561 337.496 160.109 345.008 166.733 346.766C173.371 348.523 180.33 346.308 186.83 344.117C180.107 350.577 177.234 360.788 179.599 369.797C182.311 380.143 191.263 388.844 190.818 399.524C190.607 404.524 188.316 409.19 187.313 414.091C183.871 430.984 195.882 446.751 207.126 459.832C205.726 453.372 210.023 447.097 214.679 442.419C219.335 437.741 224.845 433.36 226.913 427.098C227.805 424.4 230.69 413.435 228.919 407.767C226.294 399.4 218.357 395.737 218.357 391.542C218.357 380.057 220.177 369.327 202.532 361.332C210.419 361.901 222.233 360.627 229.86 358.523C229.86 362.236 235.693 367.483 239.407 367.334C251.121 366.852 250.626 378.139 257.387 374.958C267.739 370.082 276.419 377.136 284.294 373.324C292.653 369.277 294.498 361.716 292.851 359.847C297.593 361.097 308.329 353.845 310.075 346.122C312.279 344.018 316.737 344.489 318.31 341.877C321.814 336.085 323.151 326.036 319.053 320.653C336.537 309.935 330.395 296.173 321.851 287.188C326.235 280.716 324.885 271.025 318.904 265.988C326.024 264.676 331.411 257.189 330.395 250.023C330.024 247.424 328.946 244.974 328.612 242.375C328.29 239.875 328.662 237.338 329.095 234.851C331.361 221.633 335.063 208.651 340.116 196.225C341.094 193.824 342.122 191.424 342.666 188.899C343.818 183.528 342.567 177.575 338.902 173.479C345.75 167.315 344.388 154.494 336.413 149.902C338.815 145.967 338.345 140.497 335.324 137.019C333.714 135.175 331.522 133.888 330.073 131.92C327.399 128.269 327.919 123.232 326.495 118.938C324.253 112.193 316.564 107.775 309.617 109.223C302.67 110.671 297.395 117.812 298.039 124.878C294.783 121.846 288.876 123.245 286.61 127.081C284.344 130.905 285.397 136.103 288.344 139.432C280.728 136.784 271.503 143.504 271.677 151.561C261.349 149.284 253.078 137.7 242.837 140.311C234.838 142.353 231.631 151.759 229.712 159.791C227.26 156.907 223.52 155.15 219.731 155.1C221.291 147.551 217.304 139.197 210.457 135.645C203.857 132.23 199.461 135.002 193.071 136.215C187.14 137.39 183.623 131.784 177.222 132.131Z" fill="#F8D5A5"/>
<path d="M107.618 176.3C112.113 182.402 112.856 191.04 109.476 197.81C114.181 198.107 117.302 202.933 118.367 207.512C119.432 212.104 119.271 217.017 121.215 221.299C123.184 225.618 127.134 228.923 128.558 233.452C131.715 243.477 121.339 252.87 120.781 263.365C120.558 267.597 121.958 272.028 120.447 275.988C119.444 278.636 117.252 280.691 116.175 283.315C113.426 290.059 118.59 298.797 114.231 304.626C112.609 306.804 109.761 308.326 109.377 311.024C109.166 312.46 109.748 313.883 110.318 315.22C113.116 321.717 118.032 329.254 125.029 328.251C128.533 327.744 132.149 325.058 135.269 326.754C136.767 327.558 137.597 329.167 138.724 330.442C141.844 333.994 147.689 334.749 151.614 332.1C152.382 331.581 153.15 330.925 154.066 330.9C155.738 330.85 156.703 332.744 157.298 334.303C159.849 340.961 165.272 348.127 172.33 347.112C175.835 346.605 178.745 344.117 182.175 343.276C183.821 342.867 185.58 342.855 187.152 342.224C189.542 341.283 191.189 339.142 193.084 337.397C198.21 332.67 205.813 330.776 212.549 332.571C214.444 333.078 216.338 333.858 218.295 333.66C220.115 333.486 221.725 332.496 223.409 331.766C230.356 328.784 239.147 330.863 244.026 336.642C251.629 335.615 259.678 339.736 263.269 346.518C269.51 345.788 275.738 345.07 281.979 344.34C280.01 335.504 284.926 325.615 293.148 321.841C288.938 314.205 291.377 303.574 298.497 298.537C290.585 294.082 290.077 280.852 297.618 275.802C293.965 272.832 290.411 269.54 288.294 265.332C286.177 261.125 285.731 255.815 288.22 251.818C289.681 249.467 292.071 247.623 292.764 244.949C293.52 241.991 291.959 238.997 291.328 236.014C290.04 229.987 292.962 223.304 298.237 220.136C299.228 219.542 300.355 219.009 300.924 217.995C302.361 215.47 299.389 212.574 299.451 209.678C299.562 204.295 308.738 203.948 310.546 198.886C311.4 196.485 310.273 193.886 309.753 191.399C308.218 184.035 313.679 175.471 321.195 175.224C315.375 169.716 312.403 161.363 313.419 153.417C308.986 153.751 303.834 154.519 301.63 158.38C300.9 159.655 300.602 161.127 300.12 162.514C298.584 166.944 295.03 170.62 290.659 172.328C288.195 173.293 285.483 173.652 283.192 174.988C279.131 177.365 277.212 182.29 273.398 185.038C270.686 186.993 267.281 187.661 264.272 189.085C259.566 191.312 255.951 195.272 251.926 198.564C247.902 201.856 242.85 204.653 237.711 203.787C233.686 203.106 230.157 200.26 226.071 200.248C220.685 200.223 215.868 205.161 210.605 204.035C206.172 203.094 203.126 198.057 198.606 198.094C194.582 198.131 191.251 202.277 187.264 201.683C182.757 201.015 181.035 194.901 176.726 193.404C173.692 192.352 170.436 193.911 167.241 194.245C160.864 194.914 154.45 189.753 153.732 183.379C148.655 185.446 142.34 187.352 138.142 183.837C136.681 182.612 135.715 180.867 134.204 179.704C131.666 177.761 128.186 177.822 125.016 177.402C121.821 176.969 119.791 173.924 117.128 173.479C114.59 173.045 110.553 176.139 107.618 176.3Z" fill="#F6C17E"/>
<path d="M259.554 169.036C259.059 164.692 257.028 161.115 253.598 157.835C250.737 155.1 245.995 153.999 242.862 156.511H242.85C241.983 156.882 241.265 157.439 240.683 158.12C240.101 158.343 239.568 158.739 239.16 159.395C236.448 163.702 236.138 168.528 237.092 173.231C237.03 173.479 236.993 173.738 237.005 174.011C237.079 175.248 237.414 176.399 237.884 177.501C238.342 179.023 239.085 180.545 240.113 181.708C241.252 183.788 242.813 185.421 245.376 185.83C247.134 186.114 248.62 185.78 249.994 185.161C250.056 185.161 250.118 185.161 250.193 185.161C254.873 184.592 258.043 179.939 259.195 175.372C259.975 174.84 260.532 173.936 260.656 172.81C260.805 171.325 260.421 170.125 259.554 169.036Z" fill="white"/>
<path d="M199.052 165.607C199.56 162.427 199.065 159.122 197.158 156.041C193.851 150.682 182.757 145.002 177.717 150.125C177.333 150.175 176.974 150.286 176.677 150.509C171.748 154.259 170.783 158.9 171.303 164.852C171.786 170.273 172.219 176.436 175.116 181.176C177.804 185.57 182.175 187.315 187.053 185.186C189.183 184.258 190.855 182.835 192.217 181.139C192.452 181.015 192.687 180.879 192.923 180.681C194.842 179.097 196.192 176.907 196.699 174.518C197.269 173.206 197.715 171.87 198.024 170.508C198.718 168.998 199.275 167.142 199.052 165.607Z" fill="white"/>
<path d="M129.548 367.483C125.375 373.262 115.618 375.391 109.216 375.082C104.337 374.847 95.6197 372.594 93.0565 367.384C92.1525 366.357 91.3601 365.206 90.5799 363.993C88.2644 360.416 86.5803 355.8 85.986 351.11C85.5278 344.699 87.5586 338.474 93.1432 334.922C93.8861 334.452 93.8737 333.066 92.8831 332.892C92.7717 332.868 92.685 332.88 92.5736 332.868C92.5488 332.583 92.4373 332.311 92.1278 332.125C92.0287 332.063 91.9297 331.989 91.843 331.927C91.6201 331.432 91.2362 331.011 90.6295 330.751C89.837 330.417 89.0693 329.996 88.3263 329.551C86.506 328.202 84.8096 326.692 83.2742 325.021C81.652 322.917 80.4633 320.504 79.9432 317.918C79.2498 314.378 79.5098 310.455 81.4044 307.311C82.9894 304.688 85.5402 303.871 87.9424 302.188C90.1342 300.653 88.8216 297.287 86.1098 297.844C85.9364 297.881 85.8002 297.968 85.6393 298.005C83.9305 294.663 82.0731 291.743 81.2682 287.894C80.9834 286.495 80.971 285.319 81.1443 284.28C82.2216 280.74 84.7353 278.141 88.1653 276.891C88.7968 277.448 89.4407 277.956 90.1094 278.302C92.6974 279.664 94.691 276.087 92.3754 274.441C89.255 272.213 86.6794 265.605 86.407 261.397C86.2212 258.588 86.2708 255.258 87.3852 252.635C88.0167 251.162 89.094 249.999 89.9484 248.699C91.3477 247.424 93.0441 246.335 95.112 245.58C95.5825 245.407 95.5206 244.702 94.9882 244.689C94.1833 244.665 93.4156 244.751 92.685 244.912C93.1555 244.541 93.0812 243.687 92.5736 243.353C92.4745 243.291 92.3754 243.254 92.264 243.192C92.0659 242.486 91.5582 241.905 90.5799 241.769C86.0231 241.113 80.8348 238.204 79.8937 233.403C78.804 227.871 80.7976 225.445 83.2618 221.472C84.0295 220.829 84.8468 220.235 85.7507 219.74C86.0603 219.702 86.3698 219.678 86.6918 219.591C87.1128 219.48 87.3728 219.22 87.5586 218.91C88.7102 218.477 89.8989 218.155 91.1248 218.019C91.422 217.982 91.6944 217.599 91.3972 217.351C89.7008 215.965 87.9177 215.816 86.1965 216.435C82.1721 214.925 79.0764 211.472 76.6123 207.995C72.9099 202.772 76.3399 196.473 81.5777 194.035C82.4445 193.626 82.2588 192.426 81.5777 191.968C80.4757 191.238 79.4603 191.028 78.5192 191.139C72.8356 188.416 70.6438 182.278 72.4393 176.09C73.1328 173.726 74.8416 171.535 77.0085 170.286C78.7297 169.295 80.7976 169.592 82.3579 168.318C82.5312 168.182 82.556 167.934 82.5188 167.736C82.4693 167.501 82.4198 167.253 82.3702 167.018C82.2588 166.486 81.7263 165.929 81.1815 165.83C80.3147 165.682 79.4727 165.669 78.6802 165.768C76.8228 163.924 76.3027 160.224 76.216 158.157C75.9684 152.254 79.6584 147.774 84.9706 145.484C89.7627 143.417 94.5795 142.663 99.805 143.603C103.346 144.247 106.281 146.425 109.761 146.945C110.566 147.068 111.086 146.252 110.541 145.596C103.223 136.796 85.1316 138.715 77.541 146.289C74.2472 149.568 72.5879 161.808 76.6742 166.325C72.0802 168.206 69.1827 174.097 68.836 178.899C68.5636 182.736 69.6161 187.117 72.1174 190.099C72.9594 191.102 74.111 192.203 75.3988 193.032C72.6003 196.324 71.2134 202.921 71.6964 205.78C72.4022 210 74.9778 212.005 77.6401 215.148C78.965 216.707 80.4633 218.205 82.1969 219.059C77.3429 223.44 74.0615 227.697 75.3245 234.702C76.4885 241.137 82.7046 245.073 88.1777 246.311C86.2212 248.142 84.1038 249.689 82.7293 252.103C81.0577 255.073 81.1939 259.677 81.4663 262.907C81.7511 266.31 83.2123 270.122 85.2059 273.216C79.807 273.513 75.9684 281.062 76.1294 285.728C76.2656 289.639 78.0734 296.47 81.3301 300.022C75.9932 303.809 73.7395 311.309 75.1016 317.719C76.5132 324.328 80.5252 329.848 86.2212 333.288C77.7143 338.585 81.0824 355.751 84.2153 363.25C86.5803 368.906 92.0659 375.243 98.5172 376.307C103.161 378.188 108.262 378.72 113.401 378.287C118.738 377.842 128.421 374.389 130.539 369.067C130.824 368.337 130.229 367.669 129.548 367.483Z" fill="#F7941D"/>
<path d="M132.706 133.801C130.328 131.141 126.477 129.977 123.047 130.336C117.785 130.893 115.556 132.935 111.915 136.475C110.244 138.096 107.767 139.692 107.792 142.217C107.792 142.613 108.349 142.65 108.51 142.341C111.222 136.858 117.587 134.408 123.456 134.532C127.678 134.618 128.483 136.908 131.121 139.321C132.136 140.262 134.093 140.781 134.885 141.821C135.133 142.155 135.702 142.044 135.777 141.611C136.173 139.098 134.353 135.658 132.706 133.801Z" fill="#F7941D"/>
<path d="M162.486 148.343C163.056 146.635 163.848 145.039 164.876 143.628C163.142 144.605 161.458 145.756 159.811 147.006C159.774 141.883 155.428 139.061 150.227 137.366C145.287 135.757 139.132 137.155 136.681 142.031C136.396 142.588 137.164 143.294 137.659 142.836C141.176 139.667 145.15 138.207 149.769 140.101C151.763 140.917 153.447 141.908 154.97 143.417C156.642 145.076 157.199 147.501 158.177 149.692C158.276 149.927 158.474 150.026 158.672 150.076C158.883 150.298 159.155 150.472 159.514 150.521C159.725 150.558 159.948 150.595 160.158 150.62C160.641 150.694 161.025 150.373 161.149 149.927C161.31 149.432 161.83 148.888 162.486 148.343Z" fill="#F7941D"/>
<path d="M234.083 156.845C233.55 156.598 233.092 156.14 232.696 155.558C232.634 155.744 232.547 155.917 232.485 156.115C229.984 154.135 226.814 152.613 223.681 152.687C221.923 152.724 219.744 152.934 218.134 153.739C217.317 154.147 216.611 154.717 215.942 155.36C216.128 155.83 216.301 156.288 216.462 156.721C219.347 155.038 222.195 154.259 225.984 155.917C227.904 156.759 229.823 158.702 231.829 159.568C231.817 159.692 231.792 159.815 231.78 159.939C231.631 161.301 233.699 162.154 234.219 160.707C234.529 159.84 234.826 158.986 235.123 158.145C234.776 157.699 234.442 157.266 234.083 156.845Z" fill="#F7941D"/>
<path d="M325.083 112.787C315.214 105.547 298.151 109.644 297.296 122.131C297.259 122.118 297.234 122.094 297.197 122.081C295.897 121.735 294.386 121.5 293.024 121.413C290.473 121.252 287.724 121.871 285.842 123.69C281.075 128.294 284.753 133.95 287.502 138.516C283.304 135.225 275.131 136.97 271.788 141.016C268.878 144.544 269.547 152.588 273.522 155.038C274.611 155.719 276.209 154.308 275.379 153.182C273.262 150.323 271.998 144.667 275.057 142.068C276.778 140.608 279.143 139.903 281.335 139.544C283.49 139.197 285.273 140.014 287.378 139.37C287.638 139.296 287.737 138.987 287.638 138.739C287.687 138.814 287.724 138.888 287.774 138.962C288.282 139.804 289.904 139.531 289.78 138.417C289.582 136.784 289.508 135.633 288.74 134.135C287.378 131.475 285.087 128.504 287.39 125.621C289.966 122.403 293.99 123.467 297.358 124.73C297.395 125.076 297.383 125.41 297.445 125.769C297.73 127.465 299.909 126.883 300.243 125.534C300.986 125.2 301.246 123.95 300.479 123.455C300.702 120.782 300.862 118.517 303.215 116.178C304.887 114.507 307.202 113.69 309.444 113.146C314.149 111.995 318.755 112.317 322.916 114.891C327.547 117.762 330.098 122.329 328.699 127.886C327.2 133.801 323.709 135.249 318.446 136.932C318.359 136.747 318.273 136.573 318.186 136.363C317.951 135.769 316.985 136.004 317.208 136.635C317.307 136.92 317.468 137.18 317.604 137.44C316.762 138.405 317.505 140.274 319.003 139.865C319.313 140.46 319.56 141.078 319.585 141.833C319.721 145.162 316.836 147.378 314.545 149.296C312.255 151.227 309.506 152.625 306.583 153.355C304.392 153.9 302.373 153.516 300.318 154.543C299.736 154.84 299.736 155.806 300.318 156.09C300.466 156.165 300.627 156.177 300.788 156.239C300.231 162.439 297.185 168.021 290.783 170.063C288.418 170.818 285.867 170.211 283.589 171.04C279.738 172.439 279.044 175.149 276.803 178.478C275.292 180.718 273.905 182.302 271.664 183.763C269.262 185.607 266.562 186.498 263.566 186.448C262.34 186.25 261.114 186.114 259.876 186.077C257.82 186.671 257.375 188.54 256.446 190.31C252.409 197.921 247.493 202.5 238.454 200.916C234.714 200.26 231.396 196.238 227.743 196.188C224.387 196.139 221.366 200.346 218.221 201.485C209.961 204.468 207.311 200.111 203.25 194.641C203.423 194.319 203.51 193.936 203.398 193.478C203.374 193.366 203.337 193.243 203.312 193.131C203.027 191.943 201.306 191.411 200.464 192.376C191.424 202.822 184.874 198.651 177.742 190.594C177.605 190.446 177.333 190.371 177.147 190.433C173.804 191.646 172.207 193.639 168.071 193.478C159.366 193.156 156.035 187.995 156.493 179.691C156.567 178.392 154.834 178.404 154.413 179.406C150.685 188.268 137.263 181.572 135.083 175.669C134.712 174.666 133.758 174.283 132.792 174.741C127.22 177.352 120.794 173.565 119.072 168.008C118.936 167.55 118.54 167.043 118.02 166.956C117.884 166.932 117.76 166.919 117.624 166.894C115.779 166.61 114.924 169.357 116.831 169.766C116.522 169.704 116.571 170.149 116.782 170.78C116.076 172.525 113.116 172.81 111.457 173.02C110.355 173.157 109.278 173.305 108.163 173.342C106.739 173.392 106.38 173.107 105.365 172.204C104.498 171.436 103.408 171.857 102.938 172.612C101.947 172.6 101.019 173.714 101.935 174.555C102.083 174.691 102.232 174.827 102.381 174.964C102.839 175.372 103.371 175.347 103.78 175.1C112.993 177.043 109.191 192.636 105.575 197.525C104.832 198.527 106.058 199.752 107.098 199.505C114.194 197.797 119.122 205.371 117.822 211.411C117.537 212.735 116.373 214.009 115.964 215.222C114.652 219.071 114.999 221.942 118.23 224.702C122.069 227.969 125.833 228.848 126.923 234.43C127.802 238.885 126.131 242.882 124.248 246.818C122.119 251.298 117.574 256.533 117.723 261.731C117.797 264.367 119.432 266.397 120.1 268.859C121.574 274.33 118.552 275.852 115.011 279.243C112.25 281.891 111.185 283.352 112.411 287.25C114.466 293.723 117.97 296.074 112.683 303.24C110.838 305.74 107.123 307.93 106.157 310.962C104.733 315.442 109.203 317.435 111.977 320.331C112.138 320.492 112.312 320.578 112.51 320.628C113.513 322.546 114.59 324.563 114.887 326.568C115.345 329.675 112.844 332.298 113.24 334.872C113.624 337.409 114.095 336.444 115.89 337.62C117.71 337.781 119.444 338.325 121.066 339.241C122.961 340.491 124.719 341.89 126.366 343.449C128.26 345.243 130.39 347.397 131.678 349.649C136.123 357.458 133.139 363.906 127.146 369.921C126.353 370.713 127.381 372.124 128.359 371.505C141.312 363.374 135.888 349.884 126.911 341.246C124.1 338.548 122.143 338.177 118.936 336.333C116.46 334.91 116.348 336.382 116.658 333.202C116.732 332.397 117.834 330.937 117.983 330.145C118.59 326.853 117.054 321.395 114.07 319.093C114.033 319.007 114.02 318.92 113.958 318.833C113.934 318.796 112.312 316.865 112.336 316.927C110.206 315.9 109.624 314.415 110.615 312.497C110.615 310.591 111.445 309.118 113.104 308.054C115.122 305.17 117.339 303.475 118.49 300.034C120.546 293.933 113.81 286.347 116.918 281.941C119.394 278.426 123.295 276.693 123.877 271.891C124.211 269.156 123.32 267.548 122.515 264.899C121.041 260.097 123.617 257.263 125.685 253.253C129.102 246.632 131.492 241.397 130.143 233.848C129.548 230.544 128.57 228.266 125.97 225.965C121.499 222.004 119.815 222.499 119.952 214.492C120.088 206.559 118.528 196.968 109.104 196.782C111.928 190.916 113.005 181.102 108.931 175.929C110.491 175.817 112.076 175.471 113.624 175.186C115.704 174.803 116.831 173.961 117.525 172.686C118.02 173.726 118.528 174.679 118.639 174.803C119.976 176.35 122.28 177.562 124.149 178.206C126.428 178.986 128.062 178.825 130.39 178.936C134.08 179.122 131.455 177.884 134.328 181.684C138.513 187.216 149.039 187.76 154.202 183.057C154.177 188.787 155.787 192.599 162.362 195.05C165.111 196.077 168.715 196.547 171.612 195.743C172.578 195.47 176.454 192.352 176.8 192.401C177.209 192.463 181.952 198.119 182.583 198.589C184.057 199.703 185.592 200.792 187.4 201.398C193.356 203.416 197.913 200.124 201.739 196.04C203.275 204.938 213.515 207.475 221.217 203.96C223.694 202.834 225.266 200.681 227.904 200.247C230.9 199.765 233.736 202.822 236.584 203.886C241.686 205.779 247.629 205.037 252.149 201.98C254.489 200.396 256.012 198.49 257.387 196.064C260.012 191.411 260.866 190.953 265.82 189.938C270.376 189.01 274.339 187.018 277.323 183.292C278.648 181.646 279.317 178.652 280.716 177.241C283.019 174.914 286.276 174.506 289.062 173.577C291.625 172.723 293.569 172.204 295.848 170.545C300.763 166.956 302.485 162.476 302.596 156.808C307.747 157.662 314.124 154.048 317.208 150.422C318.694 148.677 320.39 146.425 320.774 144.11C321.145 141.883 320.675 140.732 319.969 139.568C326.173 137.65 330.048 136.103 331.683 128.69C333.156 121.871 330.531 116.797 325.083 112.787Z" fill="#F7941D"/>
<path d="M323.238 173.689C317.53 172.266 315.561 166.164 315.189 161.016C315.152 160.422 314.719 152.068 316.403 151.647C317.257 151.437 316.886 150.212 316.044 150.36C315.907 150.385 315.784 150.41 315.647 150.435C315.412 150.472 315.239 150.707 315.165 150.917C313.493 155.632 312.378 159.519 313.468 164.555C314.508 169.37 317.084 171.536 320.118 174.555C314.013 176.931 310.608 179.753 308.465 186.745C307.636 189.456 307.178 192.5 307.933 195.285C308.28 196.572 309.159 197.451 309.506 198.688C309.642 199.171 309.828 199.406 310.026 199.555C309.803 199.641 309.543 199.74 309.196 199.926C304.478 202.413 299.129 203.725 297.99 210.025C297.445 213.032 298.101 216.906 299.847 219.715C293.111 222.116 289.334 229.814 290.436 237.041C290.783 239.306 291.699 241.323 292.219 243.514C293.198 247.61 293.433 244.504 291.068 247.325C287.378 251.719 285.917 254.182 286.697 260.345C287.353 265.444 289.495 270.592 293.656 273.81C294.349 274.342 297.371 275.728 297.284 276.359C297.247 276.619 293.123 279.255 292.801 279.627C286.92 286.458 292.108 294.985 298.857 298.698C294.448 300.777 291.625 304.7 290.573 309.65C289.532 314.502 290.795 317.88 293.16 321.309C288.876 322.472 285.198 324.922 282.573 328.845C279.527 333.387 280.468 337.038 280.332 341.593C277.88 341.011 275.911 340.281 272.902 340.702C268.668 341.296 266.525 343.239 263.442 345.367C260.817 340.021 256.607 334.724 249.957 335.541C248.818 335.689 246.986 336.939 246.007 336.717C245.599 336.63 245.339 336.568 245.14 336.531C245.425 336.556 245.673 336.506 245.029 336.11C244.571 335.825 243.593 334.043 243.172 333.524C240.732 330.553 237.327 328.697 233.575 328.177C228.647 327.497 226.529 328.264 222.926 331.085C220.301 333.14 220.09 333.672 217.465 333.548C215.769 333.462 213.726 332.583 211.98 332.335C204.005 331.209 195.622 335.689 189.567 340.652C182.385 346.543 175.265 355.664 175.934 365.478C176.664 376.171 186.583 382.891 188.354 392.854C190.409 404.425 182.521 415.242 183.797 426.962C185.159 439.486 196.328 443.941 200.29 455.03C201.207 457.617 207.126 467.938 209.466 460.092C209.615 459.584 209.553 458.99 209.429 458.396C210.159 457.097 210.184 455.414 210.432 453.941C211.063 450.191 212.388 446.689 215.162 444.04C219.025 440.352 224.325 438.384 225.093 432.518C225.155 432.444 225.192 432.37 225.254 432.296C225.65 431.825 225.031 431.182 224.573 431.615C223.347 432.766 222.257 433.954 221.155 435.117C217.75 437.357 214.097 439.139 211.794 442.926C211.497 443.421 211.2 443.917 210.915 444.412C210.543 444.808 210.159 445.191 209.813 445.6C208.376 447.345 207.435 447.889 207.027 450.278C206.928 450.884 207.15 452.283 207.336 453.731C207.212 454.894 207.212 456.082 207.435 457.283C207.188 458.372 206.407 458.631 204.501 456.936C203.163 455.748 202.433 450.451 201.566 448.718C199.857 445.303 197.43 443.075 194.78 440.464C186.224 432.023 186.434 421.801 189.654 410.823C191.759 403.608 193.629 396.393 191.387 388.955C189.295 382.012 182.979 377.087 180.565 370.181C176.144 357.533 187.177 343.041 200.204 337.781C202.346 335.887 205.442 334.972 208.265 334.563C212.772 333.92 216.797 335.182 220.462 337.459C223.966 335.021 225.923 331.692 230.591 331.209C236.361 330.615 242.181 332.608 242.949 338.684C243.048 339.427 243.58 340.318 244.484 340.219C247.914 339.811 250.255 337.731 254.006 339.031C258.093 340.442 259.938 344.538 261.015 348.35C261.312 349.414 262.612 349.984 263.578 349.389C270.203 345.305 273.175 343.226 281.397 345.132C282.202 345.318 283.267 344.885 283.428 343.981C283.985 340.875 282.846 338.028 283.663 334.91C285.124 329.34 291.031 325.058 296.293 323.821C297.581 323.524 297.742 321.989 297.012 321.111C292.17 315.257 292.467 304.403 300.664 301.136C301.37 300.851 301.667 300.232 301.68 299.626C302.299 299.292 302.373 298.104 301.494 297.745C298.708 296.582 295.575 294.453 294.634 291.507C291.922 282.968 297.408 279.688 300.367 276.718C300.739 276.335 300.776 275.654 300.367 275.283C296.269 271.471 292.43 269.602 290.672 263.426C289.681 259.924 289.817 257.523 291.043 254.107C292.405 250.296 293.73 250.036 296.64 247.907C297.358 247.387 297.73 246.484 297.234 245.655C292.727 238.031 290.907 224.702 302.584 222.363C302.757 222.388 302.906 222.363 303.067 222.277C303.426 222.215 303.76 222.128 304.144 222.091C306.125 221.881 306.224 218.91 304.144 218.923C303.537 218.923 302.943 218.972 302.361 219.059C300.689 215.841 300.305 212.574 302.002 208.948C304.33 203.997 308.02 202.859 313.097 202.178C313.877 202.079 314.038 201.102 313.765 200.532C308.924 190.433 312.515 180.681 323.238 176.597C324.538 176.115 324.798 174.085 323.238 173.689Z" fill="#F7941D"/>
<path d="M247.481 363.993C247.493 364.005 247.53 364.005 247.543 364.018C247.01 363.349 247.146 363.547 247.481 363.993Z" fill="#F7941D"/>
<path d="M318.669 322.608C318.013 321.605 317.232 320.875 316.279 320.702C316.106 320.665 315.932 320.813 315.982 320.999C316.304 322.125 316.811 323.251 317.307 324.365C317.975 328.103 318.731 331.778 318.322 336.246C318.273 336.766 318.211 337.273 318.149 337.781C316.774 342.1 314.001 345.936 309.357 344.476C307.859 344.006 307.264 346.011 308.366 346.828C308.775 347.137 308.936 347.57 308.948 348.09C308.763 348.028 308.552 347.991 308.317 347.991C306.212 348.016 305.927 351.369 305.345 352.718C303.017 358.127 296.764 359.476 291.464 358.609C290.634 358.473 289.557 359.166 289.929 360.144C290.412 361.394 291.278 362.186 292.343 362.681C291.91 364.191 291.328 365.602 290.548 366.815C290.56 366.542 290.585 366.258 290.634 365.948C290.634 365.911 290.585 365.874 290.56 365.911C288.591 369.265 284.121 372.074 280.196 373.188C279.465 373.399 278.772 373.51 278.103 373.584C273.435 373.72 268.655 371.926 265.337 367.891C265.337 367.879 265.324 367.854 265.324 367.842C265.324 366.802 263.9 366.419 263.368 367.31C263.69 367.198 263.714 367.186 263.454 367.297C263.269 367.359 263.108 367.458 262.972 367.607C262.724 367.854 262.662 368.188 262.501 368.485C262.439 368.597 262.365 368.696 262.29 368.807C262.018 368.906 261.746 369.055 261.523 369.327C260.619 370.404 259.665 371.678 258.489 372.483C257.325 373.287 255.963 373.262 254.7 372.842C251.852 371.27 249.846 368.906 248.806 365.664C248.719 365.602 247.902 364.562 247.456 363.98C247.171 363.721 246.713 363.77 246.453 364.005C246.181 364.401 245.747 364.847 245.227 365.305C244.744 365.181 244.199 365.206 243.655 365.453C241.289 366.48 238.85 367.186 236.72 366.01C235.668 364.896 234.776 363.089 234.231 360.268C234.046 360.119 234.083 359.723 233.835 359.587C233.402 359.364 233.129 359.179 232.919 359.018C232.807 358.919 232.708 358.832 232.584 358.746C232.102 358.3 232.262 358.201 230.541 358.151C229.662 358.127 228.808 358.869 228.09 359.166C223.384 361.047 220.586 361.097 215.063 360.552C211.261 360.181 207.485 359.637 203.646 359.76C202.693 359.785 202.321 360.676 202.519 361.369C201.95 362.136 202.036 363.523 203.238 363.943C210.382 366.431 216.71 369.871 217.379 378.361C217.614 381.381 216.97 383.374 216.97 385.589C216.586 387.458 216.363 389.277 216.586 390.972C217.094 394.821 219.979 397.296 222.381 400.118C226.195 404.586 227.631 409.4 228.238 415.192C228.572 418.41 228.684 420.588 227.644 423.385C226.789 425.674 225.749 426.281 225.861 428.657C225.885 429.09 226.393 429.498 226.814 429.201C229.216 427.494 229.229 424.882 229.798 422.209C231.012 416.392 231.693 410.823 229.873 405.031C228.634 401.071 226.195 398.868 223.818 396.096C222.369 393.967 220.994 391.789 220.053 389.351C219.001 385.242 219.36 380.589 219.038 376.517C219.025 376.431 218.914 376.431 218.902 376.517C218.902 376.554 218.889 376.604 218.889 376.641C218.728 374.611 218.295 372.606 217.081 370.626C214.939 367.112 211.522 364.513 207.831 362.607C212.574 363.312 217.341 364.698 222.01 364.414C224.152 364.278 226.963 362.607 229.315 362.248C229.452 364.884 231.297 367.879 232.931 369.29C236.374 372.285 242.28 372.483 245.76 369.376C246.416 372.26 249.202 375.292 251.134 376.431C256.409 379.549 260.718 377.507 264.123 373.522C266.984 377.718 275.082 379.005 279.218 378.497C283.143 378.015 287.279 375.775 289.458 372.371C289.644 372.074 289.792 371.802 289.929 371.53C291.774 369.166 292.826 366.196 293.086 362.929C295.959 363.832 299.872 362.916 302.225 361.914C306.658 360.02 309.803 356.815 310.36 351.803C310.471 350.837 310.36 349.303 309.592 348.498C309.691 348.325 309.753 348.115 309.902 347.991C310.1 347.83 310.348 347.793 310.583 347.706C316.638 349.303 321.083 344.773 322.223 339.055C323.349 333.288 322.557 327.175 318.669 322.608Z" fill="#F7941D"/>
<path d="M342.914 174.605C342.79 174.432 342.666 174.258 342.53 174.085C347.842 171.597 351.446 163.12 349.006 157.588C348.102 155.546 343.211 148.058 339.62 147.997C341.18 144.692 341.886 141.833 340.289 137.687C338.531 133.121 335.584 129.891 330.705 128.467C328.426 127.812 327.436 131.425 329.727 132.007C335.002 133.344 345.564 143.814 335.645 148.64C334.519 149.185 334.457 151.165 335.645 151.697C340.425 153.838 346.629 156.326 344.895 163.429C344.35 165.645 343.05 167.86 341.527 169.84C341.094 170.31 340.66 170.743 340.239 171.127C340.041 171.313 339.905 171.498 339.806 171.696C339.62 171.573 339.435 171.449 339.236 171.35C337.367 170.397 335.744 173.305 337.614 174.134C340.908 175.595 342.889 179.147 343.558 182.859C343.731 184.357 343.818 185.731 343.781 186.622C343.744 187.401 343.595 188.193 343.397 188.986C343.298 189.382 343.186 189.765 343.038 190.137C342.988 190.285 342.926 190.421 342.865 190.57C341.552 193.367 338.11 194.839 336.723 197.005C336.562 197.253 335.707 197.438 335.584 197.859C335.212 199.109 335.299 199.666 335.373 200.767C335.621 204.356 336.265 207.389 336.141 210.185C335.051 213.106 333.776 216.472 331.25 218.428C330.544 217.066 328.352 218.316 329.12 219.727C329.801 220.965 331.076 224.727 331.336 226.423C332.017 230.705 331.064 232.474 328.897 235.061C328.538 235.346 328.203 235.643 327.795 235.915C327.238 236.274 326.99 236.756 326.916 237.252C326.197 237.895 325.653 238.266 325.219 239.603C325.071 240.061 325.232 240.618 325.578 240.94C330.123 245.308 331.472 248.798 329.405 254.9C328.6 257.263 326.792 260.407 324.464 262.548C324.08 262.795 323.721 262.981 323.424 263.055C322.891 263.167 322.346 263.649 322.148 264.194C321.542 264.503 320.922 264.751 320.279 264.862C320.266 264.85 320.241 264.825 320.229 264.813C318.619 263.229 316.353 265.964 318.297 267.325C322.346 270.159 331.398 283.29 320.873 285.06C319.746 285.245 319.325 286.953 320.179 287.671C322.854 289.936 325.516 291.755 327.238 294.354C327.671 295.096 328.067 295.864 328.402 296.656C328.835 297.819 329.12 299.106 329.169 300.628C329.392 307.769 324.241 316.952 316.886 318.982C315.536 319.353 316.118 321.284 317.455 321.049C317.48 321.049 317.492 321.036 317.517 321.036C317.839 322.163 318.929 323.128 320.439 322.893C327.621 321.804 333.33 313.178 334.481 306.346C335.806 298.487 332.686 291.149 325.64 288.067C325.17 287.671 324.674 287.287 324.154 286.866C330.829 282.56 326.718 272.869 322.285 267.164C322.582 267.053 322.866 266.904 323.164 266.768C323.3 266.805 323.436 266.867 323.597 266.879C327.547 267.053 332.636 260.333 333.825 257.053C334.915 254.058 335.187 249.999 334.457 246.892C334.048 245.16 333.218 243.068 332.24 241.583C331.782 240.89 330.036 238.44 330.036 239.417C330.036 239.306 329.987 239.244 329.974 239.145C333.107 238.031 335.943 233.514 336.438 230.494C336.946 227.425 336.252 223.923 334.271 221.497C336.834 219.851 338.345 215.94 339.224 213.378C340.797 208.861 340.314 205.334 339.756 201.102C348.684 196.287 349.068 186.448 345.205 178.478C344.635 177.08 343.843 175.78 342.914 174.605Z" fill="#F7941D"/>
<path d="M183.809 220.977C185.704 220.334 187.536 220.47 189.183 221.113C188.168 219.603 187.586 217.846 187.611 216.051C182.843 218.799 176.441 218.143 171.104 216.324C164.393 214.047 159.229 209.344 154.648 204.084C152.63 202.289 150.797 200.297 149.2 198.106C147.924 197.463 147.305 196.3 147.218 195.062C147.045 194.753 146.81 194.493 146.649 194.183C146.129 193.243 146.067 192.253 146.277 191.349C145.584 189.617 145.101 187.872 144.952 186.102C144.866 185.124 143.442 185.099 143.404 186.102C143.404 186.188 143.404 186.275 143.392 186.362C143.367 187.364 144.977 187.364 144.952 186.362C145.014 188.428 144.073 187.872 144.469 190.619C144.667 191.956 145.126 193.404 145.621 194.79C139.207 191.312 132.693 188.144 125.734 185.978C120.175 184.245 117.029 182.476 111.63 185.533C110.541 186.151 111.507 187.785 112.609 187.203C118.094 184.295 126.131 188.07 131.356 190.582C136.222 192.921 141.064 196.027 145.782 198.676C146.537 199.097 147.206 199.592 147.924 200.037C148.816 201.596 149.843 203.094 150.995 204.505C155.081 209.517 160.431 213.527 166.151 216.485C167.229 217.042 168.838 217.772 170.696 218.477C173.296 220.779 175.599 223.279 176.59 225.866C176.862 226.583 177.543 227.041 178.249 227.091C178.992 224.319 180.949 221.942 183.809 220.977ZM181.035 220.754C180.292 221.249 179.549 221.856 178.769 222.561C178.311 221.806 177.779 221.076 177.209 220.371C178.509 220.606 179.809 220.754 181.035 220.754Z" fill="#F7941D"/>
<path d="M193.047 201.349C193.901 201.448 194.706 201.621 195.486 201.832C195.709 201.832 195.919 201.881 196.142 201.906C196.303 200.78 197.108 199.765 198.21 199.468C197.777 199.344 197.368 199.183 196.922 199.097C189.394 197.475 174.98 202.438 170.944 193.07C170.634 192.364 169.433 192.872 169.693 193.602C172.813 202.45 185.865 200.495 193.047 201.349Z" fill="#F7941D"/>
<path d="M208.29 211.794C210.556 216.98 210.543 223.551 207.856 228.365C205.788 232.066 202.693 233.563 198.606 234.182C196.489 234.504 194.149 234.256 192.081 234.789C188.985 235.581 187.251 237.982 184.602 239.417C176.318 243.922 170.547 239.232 164.839 233.836C164.232 233.44 163.613 233.044 162.981 232.672C153.41 226.967 136 225.89 133.015 213.279C133.015 213.255 132.978 213.267 132.966 213.242C133.498 212.821 133.981 212.351 134.254 211.844C134.662 211.076 134.477 210.643 134.464 209.864C134.452 208.96 134.749 208.02 134.761 207.067C134.774 206.596 133.981 206.609 134.043 207.067C134.155 208.119 133.758 209.727 133.003 210.544C132.508 211.089 131.715 211.299 131.096 211.683C130.514 212.042 130.044 212.512 129.313 212.561C127.852 212.685 127.852 214.975 129.313 214.839C130.353 214.752 131.604 214.195 132.644 213.465C131.567 219.888 135.232 221.633 140.457 224.281C142.996 225.569 145.113 227.054 147.404 228.724C150.364 230.878 153.385 231.274 156.617 232.425C158.969 235.915 161.78 238.761 162.684 243.254C162.783 243.761 163.303 244.071 163.786 244.095C167.377 244.269 170.882 246.806 173.011 249.912C181.89 257.944 174.98 271.223 174.052 281.582C173.99 282.287 173.779 282.881 173.482 283.401C173.519 284.144 173.531 284.874 173.445 285.629C173.531 286.755 173.21 288.079 172.132 289.837C172.095 289.898 172.046 289.948 172.008 290.01C170.522 292.671 168.108 294.775 165.347 296.272C161.124 298.562 156.654 298.76 152.617 296.074C150.017 294.341 147.974 291.557 148.234 288.475C147.243 280.431 156.27 270.023 162.3 266.595C162.672 266.384 162.808 266.013 162.783 265.642C162.833 265.642 162.895 265.642 162.944 265.629C163.687 265.543 163.997 264.404 163.142 264.206C158.14 263.043 152.394 261.818 148.717 257.981C144.89 253.996 145.287 250.803 145.51 246.113C145.522 245.828 145.336 245.469 145.064 245.345C139.504 242.722 134.018 242.746 130.081 236.942C129.833 236.583 129.14 236.793 129.325 237.264C130.526 240.469 133.56 242.61 136.557 244.083C138.204 244.887 141.485 245.221 142.674 246.57C143.664 247.697 142.996 249.083 143.12 250.89C143.652 258.464 152.072 264.738 159.651 265.617C151.589 270.233 141.894 283.661 145.72 292.646C150.97 305.022 169.024 301.519 175.03 292.361C179.475 285.592 174.46 281.124 176.144 274.144C177.618 268.03 181.073 262.201 178.72 255.667C176.231 248.761 171.872 246.199 166.783 242.004C164.851 240.407 163.452 237.548 161.718 235.11C166.09 238.192 169.606 242.4 175.29 242.957C178.274 243.254 180.491 242.981 183.24 241.744C187.648 239.751 190.694 238.402 195.585 238.019C208.265 237.004 213.986 224.083 210.618 212.5C209.751 212.376 208.958 212.153 208.29 211.794Z" fill="#F7941D"/>
<path d="M172.714 302.423C172.157 302.881 171.637 303.339 171.104 303.809C171.03 304.65 170.609 305.504 169.693 306.222C166.028 309.131 162.944 312.695 158.561 314.564C155.75 315.764 152.803 316.284 149.831 316.309C135.145 317.93 128.471 301.272 131.22 287.436C132.792 279.503 137.659 271.186 134.353 263.105C132.706 259.058 128.409 254.095 123.988 253.031C123.283 252.857 122.998 253.897 123.691 254.12C126.056 254.899 129.164 258.068 130.39 259.998C134.179 265.939 133.783 269.082 131.579 275.74C129.858 280.938 127.963 286.21 127.443 291.73C126.638 300.269 128.558 308.685 135.269 314.477C141.473 319.848 149.039 321.024 156.518 317.992C160.567 316.346 164.505 314.168 168.083 311.692C170.981 309.675 172.479 306.94 175.079 304.787C176.714 303.413 174.349 301.061 172.714 302.423Z" fill="#F7941D"/>
<path d="M187.573 275.258C185.233 275.208 183.264 274.255 181.432 272.82C180.639 272.189 179.995 271.186 179.252 270.468C178.423 269.664 177.432 268.525 176.788 267.535C176.652 268.29 176.491 269.058 176.33 269.825C176.516 270.246 176.751 270.666 177.085 271.075C177.977 272.152 179.017 273.55 180.169 274.379C182.67 276.211 184.391 277.189 187.561 277.238C188.836 277.238 188.836 275.295 187.573 275.258Z" fill="#F7941D"/>
<path d="M205.058 273.265C203.485 269.651 200.65 266.298 197.182 264.392C196.786 264.169 192.44 262.808 192.266 262.647C188.651 259.503 190.818 258.031 192.155 255.073C194.904 248.959 194.867 240.234 187.561 237.326C187.091 237.697 186.595 238.056 186.1 238.427C186.162 238.539 186.199 238.662 186.323 238.737C191.263 241.855 192.378 246.83 190.743 252.028C189.852 254.85 187.227 257.214 186.682 260.06C186.137 262.907 186.632 263.179 189.01 264.466C190.966 265.518 194.037 265.11 196.105 266.223C199.114 267.857 201.492 271.112 202.68 274.268C203.077 275.32 203.299 276.359 203.411 277.374C207.039 290.146 189.926 302.41 178.67 295.728C178.286 295.492 177.977 295.232 177.704 294.935C175.884 294.403 174.052 293.747 172.244 293.017C170.82 292.448 170.25 294.527 171.278 295.294C177.246 299.774 190.298 302.943 196.724 297.893C201.306 294.292 205.182 287.894 206.024 281.607C205.231 280.159 205.404 278.785 206.123 277.708C205.999 276.174 205.665 274.676 205.058 273.265Z" fill="#F7941D"/>
<path d="M126.812 302.015C126.403 301.742 126.106 301.383 125.66 301.161C124.917 300.802 124.087 300.703 123.345 300.307C121.821 299.49 120.298 298.475 119.394 296.965C118.912 296.148 117.611 296.903 118.119 297.708C119.147 299.354 120.732 300.455 122.416 301.346C123.159 301.742 123.926 302.015 124.707 302.287C125.4 302.534 125.833 302.98 126.576 302.881C127.022 302.831 127.233 302.299 126.812 302.015Z" fill="#F7941D"/>
<path d="M189.257 339.749C187.363 340.38 185.258 340.664 183.438 341.456C180.676 342.657 178.559 345.021 175.822 346.357C166.3 351.035 156.642 342.125 157.867 332.175C159.366 330.083 160.344 326.68 162.201 325.12C163.204 324.279 161.855 322.497 160.79 323.289C159.18 324.477 158.771 326.086 157.805 327.818C155.589 331.791 150.958 337.199 145.881 337.348C140.916 337.496 137.411 332.397 136.445 328.053C135.529 323.92 138.216 319.217 140.532 315.913C141.398 314.687 139.603 313.648 138.612 314.44C134.811 317.46 133.251 322.224 133.647 326.865C133.523 326.766 133.387 326.692 133.226 326.692C131.034 326.68 129.226 328.264 126.849 328.202C123.902 328.128 119.778 326.432 117.624 324.638C116.472 323.672 114.813 325.343 115.977 326.284C120.707 330.157 128.607 332.15 133.734 327.93C133.771 327.905 133.771 327.855 133.795 327.818C134.365 331.729 136.284 335.454 139.603 337.806C143.788 340.763 148.419 339.761 152.407 337.162C153.311 336.568 154.128 335.962 154.896 335.318C155.069 340.949 161.372 348.226 165.371 349.587C169.829 351.11 174.002 350.169 178.088 348.016C180.788 346.592 182.769 344.427 185.667 343.276C187.375 342.595 188.874 342.781 190.248 341.407C190.929 340.751 190.236 339.427 189.257 339.749Z" fill="#F7941D"/>
<path d="M223.075 291C222.257 290.79 221.465 290.666 220.66 290.542C220.264 290.554 219.867 290.579 219.446 290.468C219.335 290.443 219.236 290.381 219.124 290.344C211.806 289.626 205.008 292.139 198.421 295.381C197.331 295.913 198.284 297.522 199.374 297.002C205.751 293.958 211.076 291.891 218.146 292.757C218.369 292.708 218.592 292.658 218.84 292.646C223.335 292.337 229.018 295.232 231.099 299.391C233.253 303.71 230.455 307.98 227.83 311.334C220.945 320.158 209.899 323.685 199.052 321.593C198.594 321.507 198.223 321.358 197.876 321.172C194.867 320.863 192.91 320.294 190.013 321.321C189.035 321.667 181.568 327.187 181.853 327.274C182.125 327.348 183.995 320.541 183.809 318.66C183.623 316.816 182.955 315.195 181.828 313.858C186.422 315.306 191.474 315.442 194.842 313.673C197.232 312.423 198.421 309.762 200.749 308.388C203.163 306.952 206.247 307.46 208.537 306.185C211.522 304.514 211.583 301.779 210.766 298.685C210.494 297.683 208.884 297.856 208.921 298.933C209.07 303.104 208.24 303.561 204.129 305.022C201.628 305.913 199.585 306.495 197.541 308.277C192.774 312.447 192.18 314.366 184.428 312.621C180.664 311.779 174.894 309.254 172.974 305.579C172.516 304.7 171.228 305.467 171.649 306.346C173.011 309.193 176.045 311.507 179.599 313.029C179.599 313.19 179.661 313.351 179.847 313.475C184.886 316.853 181.741 324.6 180.391 329.464C180.169 330.281 181.32 331.073 181.902 330.343C187.128 323.796 191.808 322.62 199.708 324.068C203.411 324.749 206.94 325.207 210.556 324.081C210.791 324.006 211.039 323.92 211.286 323.833C211.212 324.081 211.125 324.328 211.051 324.576C210.419 326.68 209.454 329.749 209.875 331.927C209.998 332.608 210.296 333.536 210.704 334.464C212.029 334.464 213.329 334.637 214.568 334.947C214.481 334.761 214.407 334.6 214.357 334.514C213.949 333.722 213.082 332.335 213.02 331.42C212.921 330.17 213.54 328.239 213.825 327.039C214.122 325.826 214.605 323.771 215.608 322.954C216.016 322.62 216.177 322.237 216.177 321.841C223.52 318.388 231.953 312.385 233.847 305.678C236.027 297.992 230.096 292.819 223.075 291Z" fill="#F7941D"/>
<path d="M250.069 237.536C249.871 237.412 249.673 237.301 249.474 237.153C248.509 236.385 247.728 235.395 247.159 234.294C240.757 229.814 228.362 231.621 223.025 239.281C222.976 239.355 222.963 239.442 222.938 239.529C222.282 239.182 221.613 238.86 220.908 238.601C218.431 237.697 216.215 238.18 213.726 237.685C211.695 235.37 208.835 233.861 205.157 233.848C204.402 233.848 204.439 234.925 205.157 234.999C208.277 235.346 210.667 236.769 212.351 238.786C212.364 239.207 212.599 239.603 212.995 239.739C215.298 243.142 215.893 247.821 214.63 252.103C214.221 253.501 216.437 254.108 216.809 252.697C217.948 248.34 217.341 243.316 215.063 239.541C218.183 239.294 221.638 240.655 223.818 242.734C224.783 243.662 225.762 244.751 226.43 245.902C227.062 246.979 227.223 248.241 227.854 249.306C228.176 249.85 229.055 249.9 229.365 249.306C230.851 246.472 227.285 242.883 225.378 241.162C225.242 241.039 225.068 240.952 224.92 240.841C225.638 240.333 225.588 238.873 224.313 238.749C228.003 239.083 231.792 234.529 235.643 233.526C238.293 232.833 241.116 233.477 243.432 234.974C244.137 235.123 244.856 235.469 245.5 236.113C253.387 243.959 245.277 257.536 235.073 255.877C235.011 255.927 234.95 255.976 234.888 256.013C235.049 263.055 231.866 270.902 224.561 272.411C223.842 273.179 223.174 273.983 222.666 274.874C222.951 275.134 223.223 275.431 223.458 275.815C225.551 279.218 225.848 283.735 224.61 287.485C224.387 288.166 223.966 288.735 223.496 289.23C223.545 290.48 223.409 291.718 222.852 292.931C222.827 292.98 222.839 293.017 222.815 293.067C223.867 293.364 224.92 293.76 225.898 294.292C227.025 291.396 226.69 288.946 226.269 285.716C225.514 280.035 224.152 278.08 228.04 273.315C229.018 272.114 230.145 271.211 231.049 269.961C232.981 267.275 233.476 263.674 235.408 261.075C237.129 258.761 238.293 258.724 240.435 257.226C244.199 254.59 248.149 252.499 249.933 247.932C251.641 243.576 251.431 240.123 250.069 237.536Z" fill="#F7941D"/>
<path d="M206.63 282.547C206.222 282.151 205.9 281.743 205.776 281.322C205.516 280.468 204.649 280.183 203.931 280.381C203.98 281.483 203.894 282.572 203.659 283.636C204.81 285.196 207.051 286.347 208.426 287.25C210.407 288.562 213.899 291.891 216.276 289.824C212.128 289.156 209.008 286.124 206.63 282.547Z" fill="#F7941D"/>
<path d="M216.264 263.365C215.595 264.367 215.273 265.147 213.899 265.419C213.193 265.555 212.252 265.506 211.522 265.518C209.528 265.555 207.732 264.837 206.185 263.649C206.16 262.226 206.011 260.803 205.875 259.54C205.429 255.394 202.779 253.018 200.006 250.147C199.114 249.219 197.752 250.605 198.606 251.546C201.343 254.59 203.609 257.127 203.609 261.446C203.609 262.832 203.708 264.305 203.559 265.666C203.262 268.34 202.606 268.228 202.854 270.382C202.928 270.976 203.659 271.434 204.141 270.914C205.64 269.268 206.11 266.978 206.172 264.627C208.215 266.087 210.494 266.582 213.119 266.83C215.051 267.003 217.725 266.174 217.639 263.736C217.601 262.981 216.66 262.758 216.264 263.365Z" fill="#F7941D"/>
<path d="M203.349 244.937C201.764 245.692 201.578 248.031 201.108 249.528C200.922 250.135 201.851 250.543 202.135 249.962C202.804 248.625 203.894 247.004 204.092 245.519C204.154 245.061 203.77 244.727 203.349 244.937Z" fill="#F7941D"/>
<path d="M241.302 203.106C237.401 204.393 233.451 206.658 230.195 209.121C229.836 209.393 229.427 209.628 229.055 209.888C228.634 210.173 228.226 210.482 227.792 210.73C227.582 210.866 227.396 211.002 227.173 211.138C227.161 211.101 227.136 211.076 227.124 211.039C226.727 211.237 226.319 211.448 225.91 211.609C225.997 211.658 226.084 211.708 226.183 211.745C223.223 213.576 220.326 215.507 219.075 218.886C216.797 225.049 220.09 237.61 228.498 236.138C229.439 235.977 229.402 234.467 228.498 234.281C224.486 233.44 221.886 229.776 221.118 225.915C219.954 220.061 223.471 216.806 228.151 214.146C232.956 211.411 237.042 207.203 241.971 204.703C242.837 204.257 242.243 202.797 241.302 203.106Z" fill="#F7941D"/>
<path d="M302.955 191.448C299.736 179.629 289.582 178.095 279.069 178.738C277.645 178.825 277.893 180.892 279.329 180.694C288.48 179.394 298.386 181.56 300.751 192.067C301.866 197.03 297.816 207.537 293.445 210.705C293.037 210.718 292.628 210.866 292.232 211.25C290.015 213.428 286.647 213.317 283.861 214.257C281.979 214.901 280.221 215.779 278.425 216.609C274.203 218.564 268.234 220.024 265.287 223.799C264.755 224.48 265.584 225.371 266.253 224.764C270.054 221.336 276.568 220.631 281.285 218.675C285.718 216.844 291.476 217.933 294.783 213.923C301.717 210.557 304.813 198.255 302.955 191.448Z" fill="#F7941D"/>
<path d="M280.221 238.613C277.769 236.868 274.289 231.299 277.534 228.601C278.066 228.155 277.385 227.301 276.803 227.648C272.246 230.395 274.648 234.541 277.113 237.722C270.785 236.063 261.993 234.479 255.542 236.769C254.811 237.573 253.784 238.118 252.657 238.192C250.985 239.281 249.611 240.779 248.62 242.784C248.67 243.402 248.67 244.021 248.608 244.628C249.115 244.986 249.945 244.999 250.316 244.355C253.078 239.677 258.452 237.759 263.615 237.709C266.476 237.685 269.274 237.598 272.11 238.093C274.735 238.551 276.927 239.801 279.478 240.358C280.58 240.618 281.112 239.244 280.221 238.613Z" fill="#F7941D"/>
<path d="M286.053 289.329C289.26 282.894 290.288 280.27 286.858 274.255C288.133 267.931 285.508 262.288 280.951 257.734C284.802 255.791 288.257 252.684 289.545 248.687C289.78 247.969 288.814 247.474 288.306 247.969C286.548 249.689 284.951 251.496 283.23 253.13C281.806 255.345 279.478 256.855 276.914 257.387C276.89 257.4 276.877 257.412 276.853 257.412C273.831 258.526 270.636 258.489 267.504 259.033C261.82 260.023 256.768 262.078 253.264 266.892C246.143 276.694 248.112 297.856 232.362 300.257C231.606 300.369 231.916 301.606 232.684 301.421C246.329 298.203 247.84 283.228 252.161 272.609C257.053 260.58 266.055 262.016 276.32 259.466C277.298 259.219 278.289 258.872 279.267 258.476C282.561 262.078 285.558 267.523 285.124 272.585C284.555 272.721 284.084 273.327 284.48 273.983C284.592 274.156 284.678 274.33 284.79 274.503C284.468 275.679 283.935 276.817 283.131 277.882C279.862 282.201 274.636 283.834 269.708 285.233C269.411 284.923 268.878 284.973 268.705 285.456C268.692 285.48 268.705 285.505 268.692 285.53C264.148 286.817 259.579 288.191 256.31 291.767C252.818 295.579 251.852 299.836 251.753 304.849C251.654 310.393 250.614 318.945 246.49 324.056C244.868 326.865 242.008 328.92 238.776 329.254C238.714 329.44 238.664 329.638 238.64 329.836C238.627 329.947 238.615 330.058 238.602 330.157C238.392 332.137 241.587 332.521 242.057 330.628C241.488 332.942 244.175 330.182 245.561 328.957C246.961 327.732 248.125 326.445 249.177 325.096C251.877 329.266 260.495 329.922 264.358 329.192C270.401 328.053 276.37 323.066 277.546 316.915C284.394 316.952 290.56 313.264 289.458 304.75C288.567 297.856 282.474 296.52 286.053 289.329ZM254.762 304.861C255.022 296.792 259.133 292.002 266.352 289.354C267.033 289.107 267.714 288.896 268.395 288.673C268.147 290.876 267.504 293.116 266.971 295.245C266.142 298.525 265.064 301.099 261.981 302.869C260.235 303.871 257.015 305.208 254.762 304.972C254.762 304.923 254.762 304.898 254.762 304.861ZM278.264 315.108C278.078 315.269 277.893 315.43 277.719 315.591C277.732 315.455 277.695 315.306 277.707 315.17C276.63 315.282 275.552 315.257 274.5 315.071C274.463 315.22 274.426 315.381 274.376 315.529C272.741 315.356 271.119 314.985 269.534 314.353C268.147 313.735 266.847 312.707 265.547 311.903C265.225 311.705 264.854 312.175 265.139 312.435C267.516 314.576 270.711 315.975 274.004 316.593C272.345 321.457 269.485 325.653 263.875 326.754C260.049 327.509 253.202 326.816 250.527 323.14C251.381 321.779 252.161 320.343 252.805 318.722C254.477 314.477 254.588 310.529 254.712 306.136C259.381 305.059 264.507 304.242 267.07 299.614C268.581 296.891 269.113 293.574 269.757 290.555C269.918 289.787 270.079 288.946 270.141 288.092C276.828 286.037 283.341 284.391 286.09 276.929C287.378 279.788 287.526 282.535 285.483 286.904C285.285 287.324 283.031 289.911 282.685 290.715C282.053 292.163 281.62 292.894 281.917 294.552C282.264 296.532 283.626 298.166 284.938 299.836C286.102 300.195 287.105 301.062 287.564 302.547C289.52 309.019 284.183 314.192 278.264 315.108Z" fill="#F7941D"/>
<path d="M208.971 130.98C205.256 129.445 201.789 129.148 198.049 131.128C195.399 132.527 194.211 135.027 192.539 137.093C188.193 131.004 180.503 126.549 173.445 130.596C169.396 132.923 166.535 136.858 163.96 140.633C163.229 141.71 158.066 147.167 158.846 149.432C159.316 150.793 161.471 150.224 161.013 148.838C160.369 146.846 172.083 136.734 173.792 135.546C179.636 131.487 186.917 135.695 190.521 141.165C191.202 142.205 192.638 142.464 193.567 141.561C194.929 140.237 195.251 138.492 196.699 137.081C201.145 132.774 207.671 133.665 212.091 137.576C215.794 140.856 218.097 146.598 218.716 151.437C218.939 153.157 221.762 154.024 222.121 151.895C223.508 143.739 216.128 133.937 208.971 130.98Z" fill="#F7941D"/>
<path d="M274.203 152.724C269.262 144.445 254.39 135.249 244.608 138.442C234.85 141.623 230.405 152.675 231.718 162.353C231.866 163.429 233.34 163.008 233.451 162.117C234.541 153.491 238.342 143.12 248.224 141.969C256.867 140.967 265.572 149.469 271.875 154.519C273.113 155.496 275.119 154.259 274.203 152.724Z" fill="#F7941D"/>
<path d="M222.827 202.611C224.511 201.894 226.765 200.743 228.981 200.235C228.449 199.493 227.47 199.072 226.381 199.604C225.341 200.111 224.189 200.854 223.013 201.733C222.542 201.547 221.985 201.535 221.403 201.832C219.001 203.044 217.762 203.379 214.989 203.416C214.481 203.416 213.936 203.676 213.54 204.072C216.512 204.53 219.422 204.059 222.827 202.611Z" fill="#F7941D"/>
<path d="M206.494 201.386C205.64 200.681 204.612 200.062 203.535 199.716C203.572 199.381 203.584 199.047 203.547 198.701C203.51 198.354 203.374 197.971 203.163 197.661C203.126 196.82 202.445 196.003 201.38 196.275C199.808 196.671 198.805 197.921 198.359 199.381C201.615 198.701 203.671 199.815 206.494 201.386Z" fill="#F7941D"/>
<path d="M171.018 157.835C171.154 156.449 171.649 155.496 172.727 154.048C174.2 152.081 176.008 149.618 178.373 148.615C182.15 147.044 188.18 147.365 191.697 149.457C200.996 155.001 202.47 167.922 197.269 176.696C192.985 183.936 182.558 191.919 175.599 183.416C172.343 179.431 170.609 174.865 170.584 169.778C170.597 166.87 168.578 160.67 171.018 157.835ZM171.922 169.791C171.786 173.949 172.925 177.526 175.178 181.016C176.503 183.058 178.311 185.421 180.8 186.053C182.719 186.535 186.05 185.508 187.673 184.666C190.842 183.02 193.79 180.199 195.721 177.229C200.253 170.261 200.699 159.729 194.557 153.43C191.424 150.212 187.957 148.851 183.5 148.9C179.574 148.937 177.828 149.754 175.216 152.588C173.915 153.999 172.813 155.336 172.132 156.957C172.182 156.932 172.207 156.907 172.256 156.883C173.123 156.474 173.866 157.687 173.011 158.182C169.619 160.175 172.021 166.659 171.922 169.791Z" fill="#F7941D"/>
<path d="M172.999 167.625C173.333 164.382 174.572 161.004 177.952 160.162C182.856 158.937 185.666 163.281 186.224 167.588C186.756 171.659 184.366 177.909 179.611 178.479C178.584 178.602 177.803 178.367 177.209 177.909C176.85 177.897 176.466 177.835 176.058 177.686C174.906 177.253 174.175 176.239 173.705 175.026C173.222 174.494 172.801 173.887 172.541 173.132C171.922 171.313 172.169 169.333 172.999 167.625ZM175.785 164.184C175.661 164.37 175.55 164.556 175.426 164.778C175.364 164.877 175.315 164.976 175.253 165.088C175.253 165.088 175.253 165.088 175.253 165.1C175.24 165.113 175.24 165.125 175.24 165.137C175.24 165.15 175.228 165.162 175.228 165.162C175.203 165.199 175.191 165.224 175.191 165.249C174.671 166.09 174.708 167.105 175.401 167.848C176.169 168.677 177.234 168.627 178.15 168.108C179.376 167.414 179.661 166.226 179.909 164.952C180.119 163.838 179.215 162.724 178.125 162.563C176.999 162.39 176.058 163.145 175.785 164.184Z" fill="#F7941D"/>
<path d="M235.21 168.751C235.631 164.357 236.733 160.447 239.853 157.34C243.308 153.9 247.567 153.058 252.062 154.506C252.756 154.729 252.83 155.496 252.521 155.967C253.4 156.4 254.254 157.018 254.811 157.452C257.981 159.902 260.842 164.753 261.461 168.738C262.08 172.686 260.185 177.983 257.944 181.151C255.43 184.691 250.948 186.931 246.527 187.104C242.181 187.278 240.41 183.899 238.305 180.681C235.866 176.968 234.789 173.219 235.21 168.751ZM249.264 185.396C253.028 184.208 255.591 182.971 257.734 179.382C259.641 176.189 260.842 171.09 259.69 167.464C258.712 164.37 256.52 160.471 254.019 158.491C253.883 158.392 251.121 156.115 250.601 156.103C250.477 156.103 250.403 156.028 250.354 155.929C230.616 150.917 233.996 190.223 249.264 185.396Z" fill="#F7941D"/>
<path d="M241.153 162.402C243.271 161.684 244.831 162.093 245.921 163.107C247.06 163.144 248.249 163.8 248.855 164.852C249.177 165.409 248.93 166.09 248.484 166.474C249.326 167.031 249.957 167.872 250.205 169.06C250.391 169.53 250.539 170.013 250.601 170.533C250.898 173.095 249.957 175.619 248.211 177.451C246.973 179.147 245.19 180.099 243.196 179.394C241.723 179.802 240.187 179.493 238.949 177.971C237.822 176.572 237.624 174.369 238.008 172.34C237.847 171.634 237.723 170.929 237.637 170.223C237.352 167.761 238.441 163.318 241.153 162.402ZM240.707 165.669C240.621 165.83 240.571 166.003 240.509 166.189C240.485 166.238 240.435 166.263 240.41 166.313C240.286 166.535 240.225 166.795 240.138 167.031C240.039 167.303 239.989 167.575 239.965 167.86C239.878 168.144 239.791 168.417 239.729 168.701C239.172 171.201 242.775 172.34 243.89 170.112C244.286 169.32 244.36 168.268 244.695 167.612C245.958 165.063 241.983 163.107 240.707 165.669Z" fill="#F7941D"/>
</g>
<g clip-path="url(#clip1)">
<path d="M451.084 163.755C445.317 159.663 436.264 161.728 429.665 162.37C421.241 163.189 412.603 164.171 404.456 166.551C397.417 168.603 390.869 171.865 383.969 174.207C377.622 176.36 371.163 178.236 365.081 180.843C363.708 181.435 364.867 183.462 366.227 182.858C378.365 177.493 391.738 174.396 404.595 171.071C412.754 168.956 421.279 168.075 429.665 167.357C436.591 166.765 443.932 167.697 450.707 166.614C452.192 166.375 452.067 164.448 451.084 163.755Z" fill="white"/>
<path d="M432.662 80.7991C420.146 88.241 407.554 94.9651 395.73 103.553C389.887 107.796 384.284 112.695 378.756 117.291C375.708 119.822 370.772 123.776 369.287 127.49C368.934 128.372 370.357 128.913 370.81 128.107C374.072 122.277 381.803 118.877 386.878 115.075C392.393 110.919 397.908 106.978 403.65 103.137C409.505 99.2212 415.625 95.4814 422.009 92.5349C426.845 90.3061 432.499 88.1025 435.206 83.3427C436.1 81.7561 434.249 79.8547 432.662 80.7991Z" fill="white"/>
<path d="M454.258 259.115C454.195 259.052 454.132 258.989 454.069 258.913C454.232 256.987 452.709 255.69 451.021 255.425C449.46 254.783 447.911 254.166 446.337 253.562C443.063 252.063 439.512 250.943 436.352 249.998C433.43 249.029 430.496 248.122 427.537 247.278C422.06 245.578 416.57 243.954 410.903 242.859C409.745 242.632 408.574 242.418 407.39 242.191C401.975 240.957 396.586 239.962 391.046 239.748C383.969 238.993 376.842 238.703 370.067 239.295C368.644 239.421 368.594 241.511 370.067 241.536C376.011 241.65 381.992 243.06 387.91 243.967C408.221 249.709 429.048 253.6 448.642 262.087C449.611 262.502 450.619 262.565 451.5 262.301C451.576 262.338 451.651 262.376 451.714 262.414C453.905 263.635 455.731 260.878 454.258 259.115Z" fill="white"/>
<path d="M400.276 311.762C398.059 310.138 395.528 308.816 392.934 307.607C391.373 306.587 389.749 305.68 387.847 305.29C387.797 305.277 387.747 305.277 387.696 305.265C386.45 304.723 385.241 304.169 384.044 303.602C383.843 303.477 383.616 303.351 383.415 303.237C377.9 299.926 372.485 298.125 366.139 297.143C363.759 296.778 362.714 300.253 365.169 300.857C367.272 301.374 369.274 301.966 371.213 302.633C372.384 303.489 373.492 304.471 374.613 305.29C376.54 306.7 378.554 307.582 380.645 308.727C383.302 310.188 386.273 311.46 389.157 312.845C392.003 314.583 394.571 316.774 397.77 317.92C401.636 319.317 403.084 313.815 400.276 311.762Z" fill="white"/>
<path d="M413.409 374.999C409.065 370.642 405.287 365.82 401.006 361.4C395.868 356.111 390.34 351.465 384.51 346.957C381.79 344.854 378.756 343.242 375.759 341.555C368.871 336.631 361.882 331.859 355.725 326.155C354.516 325.047 352.741 326.797 353.912 327.968C358.709 332.753 363.998 337.047 369.337 341.29C377.131 348.216 385.417 354.802 392.771 362.244C396.41 366.449 399.734 370.907 403.298 375.213C407.969 380.842 412.301 388.636 418.798 392.301C420.385 393.195 422.16 391.57 421.657 389.971C421.795 389.757 421.909 389.53 421.984 389.279C423.533 384.355 416.507 378.097 413.409 374.999Z" fill="white"/>
<path d="M352.728 376.548C350.751 374.017 348.711 371.524 346.596 369.094C345.626 367.973 344.48 367.029 343.448 365.958C342.239 364.233 340.917 362.546 339.746 360.846C338.789 359.448 336.547 360.644 337.416 362.168C337.542 362.395 337.681 362.609 337.806 362.835C337.819 362.911 337.806 362.974 337.819 363.037C338.109 364.12 338.789 365.14 339.38 366.072C340.526 367.834 341.509 369.572 342.516 371.436C344.14 374.483 346.067 377.316 347.767 380.313C349.97 384.179 355.737 380.137 352.728 376.548Z" fill="white"/>
<path d="M54.5235 124.708C53.2391 123.02 51.4133 121.66 49.323 120.527C49.0963 120.162 48.7438 119.872 48.2401 119.746C47.5979 119.583 47.0312 119.016 46.4142 118.714C45.9357 118.474 45.3439 118.273 44.8528 118.097C44.7521 117.971 44.6262 117.845 44.4877 117.744C40.1182 114.571 33.6963 112.984 28.3699 112.644C24.7308 112.418 19.2532 110.982 16.3571 113.891C14.9719 115.289 15.3875 117.48 16.9741 118.487C19.4547 120.061 24.2397 119.444 27.2366 119.293C30.3594 119.683 33.3563 120.451 36.5169 121.194C39.5768 121.925 42.7625 122.504 45.7217 123.549C48.4164 124.506 50.6703 126.521 53.5665 126.332C54.2968 126.269 55.065 125.413 54.5235 124.708Z" fill="white"/>
<path d="M85.374 104.333C83.0445 100.329 80.0727 97.1435 77.0632 93.6051C73.6634 89.5882 70.6791 85.1307 67.0022 81.3656C63.5646 77.8525 59.7618 74.8304 55.5686 72.2994C53.1762 70.8513 50.7585 69.4158 48.1393 68.421C46.0491 67.6277 43.4929 67.5396 41.5411 66.4315C38.6701 64.8197 36.328 69.0506 39.0353 70.8387C42.624 73.206 47.2705 73.7726 51.1362 75.8755C55.6694 78.3435 59.8248 81.2523 63.7283 84.6396C70.6917 90.6837 78.1461 97.7982 82.8178 105.782C83.7748 107.406 86.331 105.97 85.374 104.333Z" fill="white"/>
<path d="M57.1055 343.829C54.2904 343.947 51.382 344.873 48.5758 345.271C46.643 345.547 44.0489 345.462 43.004 347.439C42.2786 348.813 43.42 350.881 45.1258 350.018C47.1149 349.017 49.6549 349.009 51.8422 348.652C53.0341 348.451 54.2864 348.379 55.4594 348.066C56.5455 347.767 57.0094 346.961 57.9524 346.572C59.5759 345.901 58.6144 343.765 57.1055 343.829Z" fill="white"/>
<path d="M319.284 414.828C317.395 410.194 316.715 404.905 314.902 400.171C313.542 396.658 311.829 393.006 309.928 389.631C308.908 386.773 307.762 383.889 306.503 380.93C306.263 380.351 305.583 380.112 305.017 380.061C304.878 380.049 304.752 380.036 304.614 380.023C303.027 379.898 302.272 382.492 303.795 383.109C303.77 383.096 305.143 386.345 305.747 387.768C305.76 387.931 305.798 388.108 305.873 388.284C306.087 388.75 306.289 389.228 306.477 389.694C307.233 391.923 307.85 394.24 308.593 396.456C310.268 403.356 310.973 410.685 313.378 417.195C315.002 421.552 321.046 419.147 319.284 414.828Z" fill="white"/>
<path d="M50.0635 302.033C46.0551 301.74 42.4439 300.474 38.3973 300.711C34.6281 300.927 30.8133 301.1 27.0443 301.392C18.3473 302.071 10.4101 303.694 2.72303 307.778C-1.4141 309.972 1.64477 316.657 5.70723 314.399C13.0383 310.325 20.3802 309.109 28.65 308.093C35.0303 307.308 43.4356 304.904 49.6926 306.259C52.2899 306.816 52.8566 302.238 50.0635 302.033Z" fill="white"/>
<path d="M66.3474 370.277C63.5016 370.718 60.2403 372.116 57.4574 373.085C54.4354 374.143 51.1866 375.83 48.5045 377.518C43.6943 380.527 39.2242 384.67 36.2273 389.505C34.6029 392.125 37.9272 395.537 40.5589 393.837C42.8633 392.351 44.0091 389.871 46.0113 388.02C48.2149 385.98 50.6703 383.927 53.2013 382.341C58.1374 379.256 63.2372 376.422 67.7955 372.808C69.1177 371.776 67.6444 370.076 66.3474 370.277Z" fill="white"/>
<path d="M90.8389 384.292C90.776 383.02 89.4412 382.617 88.522 383.335C86.6458 384.783 85.2103 389.53 84.7444 391.873C83.7118 397.123 83.3844 402.954 81.9489 408.053C80.8282 412.02 86.8724 413.556 88.119 409.665C89.6049 405.044 89.7434 399.189 90.2849 394.366C90.6374 391.167 91.0026 387.503 90.8389 384.292Z" fill="white"/>
<path d="M115.369 94.7728C116.163 95.7677 117.482 95.3142 117.808 94.1945C118.483 91.9227 116.872 87.2322 115.881 85.0597C113.649 80.1962 110.505 75.275 108.688 70.2984C107.278 66.4252 101.477 68.7128 102.74 72.5983C104.237 77.2161 107.548 82.0473 109.928 86.2764C111.512 89.0773 113.359 92.2635 115.369 94.7728Z" fill="white"/>
</g>
<path d="M158.26 9.0047C158.23 9.08837 158.199 9.17203 158.157 9.26103C156.342 9.92702 155.811 11.8561 156.284 13.497C156.362 15.1836 156.458 16.848 156.575 18.53C156.601 22.1304 157.086 25.8223 157.566 29.0858C157.923 32.1432 158.341 35.1854 158.827 38.2238C159.602 43.9065 160.45 49.5686 161.853 55.167C162.137 56.3127 162.438 57.4645 162.733 58.633C163.903 64.0617 165.28 69.3665 167.428 74.4782C169.734 81.211 172.484 87.7925 175.884 93.6819C176.6 94.9182 178.515 94.0803 177.916 92.7345C175.506 87.3002 174.256 81.2835 172.576 75.5367C169.195 54.7023 163.917 34.1825 163.327 12.8382C163.294 11.7839 162.925 10.8443 162.313 10.1573C162.315 10.0729 162.317 9.9884 162.325 9.91538C162.506 7.41343 159.235 6.92436 158.26 9.0047Z" fill="white"/>
<path d="M228.791 35.6739C228.255 38.369 228.127 41.2216 228.128 44.0834C227.863 45.9296 227.728 47.785 228.178 49.6732C228.188 49.7241 228.209 49.7698 228.219 49.8207C228.255 51.1794 228.264 52.5091 228.256 53.8328C228.227 54.0686 228.209 54.3272 228.192 54.5577C227.522 60.9559 228.178 66.6241 229.971 72.7909C230.646 75.1021 234.237 74.5802 233.747 72.0994C233.326 69.9754 233.016 67.9108 232.801 65.8713C233.082 64.448 233.504 63.0286 233.772 61.667C234.236 59.3249 234.183 57.1264 234.338 54.7477C234.539 51.7224 234.435 48.4916 234.472 45.2928C234.844 41.9792 235.744 38.7251 235.43 35.3421C235.063 31.2479 229.464 32.2615 228.791 35.6739Z" fill="white"/>
<path d="M306.411 13.5325C303.51 18.9584 299.998 23.9782 297.019 29.3622C293.458 35.8187 290.626 42.4613 288.014 49.3525C286.795 52.5674 286.139 55.9402 285.398 59.2989C282.697 67.3231 280.17 75.3996 276.51 82.9528C275.802 84.4323 277.994 85.6202 278.773 84.1585C281.951 78.1742 284.516 71.8632 287.018 65.5188C291.37 56.0436 295.253 46.1977 300.227 36.9935C303.189 32.2861 306.484 27.8065 309.564 23.142C313.586 17.0321 319.778 10.6158 321.388 3.33219C321.781 1.55384 319.71 0.329204 318.327 1.27732C318.082 1.20725 317.832 1.16493 317.569 1.16611C312.408 1.1203 308.47 9.66621 306.411 13.5325Z" fill="white"/>
<defs>
<clipPath id="clip0">
<rect width="281" height="354" fill="white" transform="translate(68.7864 109)"/>
</clipPath>
<clipPath id="clip1">
<rect width="454.786" height="353.446" fill="white" transform="translate(0 66.0664)"/>
</clipPath>
</defs>
</svg>
