<svg width="303" height="249" viewBox="0 0 303 249" fill="none" xmlns="http://www.w3.org/2000/svg">
<path d="M246.483 16.6862C241.592 21.2341 235.297 24.9705 231.96 30.7888C230.303 33.6712 228.853 36.7992 227.333 39.7671C226.252 41.8915 224.652 44.1975 224.295 46.5568C224.157 47.507 225.584 48.2756 226.125 47.2507C228.818 42.1691 231.983 36.874 235.965 32.5503C240.257 27.9064 245.493 24.3727 250.2 20.1558C252.663 17.9673 248.888 14.455 246.483 16.6862Z" fill="white"/>
<path d="M275.104 47.6349C266.036 48.0406 256.668 54.2859 249.797 59.3568C248.796 60.1041 250.212 61.3959 251.213 60.6699C255.068 57.8515 260.328 56.5918 264.896 55.0011C268.487 53.7414 271.916 52.5137 275.703 51.9052C278.303 51.4675 277.739 47.5175 275.104 47.6349Z" fill="white"/>
<path d="M170.31 21.9492C169.367 17.8711 167.905 13.9211 166.915 9.86431C166.19 6.89647 166.651 3.73646 164.786 1.13159C162.864 -1.53734 158.146 1.03551 160.137 3.57632C161.725 5.60471 161.84 10.3127 162.692 12.8322C163.831 16.2164 165.477 19.4618 166.616 22.846C167.583 25.7284 168.791 29.0592 168.78 32.0911C168.768 35.7636 168.055 37.8453 168.929 41.5498C169.067 42.1369 170.126 42.1796 170.23 41.5498C171.461 34.4931 171.933 28.9845 170.31 21.9492Z" fill="white"/>
<path d="M121.297 37.7065C120.307 36.1798 119.34 34.5464 118.143 33.1479C116.993 31.8028 116.175 30.0306 114.461 29.2513C111.687 27.9916 109.558 31.5039 112.102 33.1052C112.93 33.6283 114.127 35.4646 114.783 36.2652C115.807 37.5143 116.739 39.0196 117.66 40.3434C119.455 42.9055 119.985 45.8093 122.125 48.19C122.816 48.9693 124.231 48.3181 124.22 47.3893C124.151 43.9197 123.265 40.7384 121.297 37.7065Z" fill="white"/>
<path d="M81.6968 58.3853C79.2571 54.3712 77.1626 50.3145 73.8597 46.8342C70.4073 43.1938 67.1505 39.6921 63.3182 36.404C61.4194 34.7813 58.6114 36.799 59.7507 38.9235C60.6598 40.6316 62.1099 41.443 63.5944 42.692C65.804 44.5496 67.7489 46.7274 69.7628 48.7665C73.2728 52.3322 76.6562 55.9085 80.2813 59.3888C80.9833 60.0827 82.1917 59.2073 81.6968 58.3853Z" fill="white"/>
<path d="M52.3049 76.801C50.4635 74.463 47.3678 72.6588 44.5253 71.5379C42.684 70.8119 40.7276 69.9899 38.8632 69.3921C37.5053 68.965 36.389 68.9971 35.3763 70.0113C34.9159 70.481 34.9159 71.1536 35.3763 71.6233C39.1625 75.4345 46.1595 74.8687 50.1758 78.3063C51.2346 79.203 53.237 77.9967 52.3049 76.801Z" fill="white"/>
<path d="M276.266 67.9615C276.071 67.2675 275.334 66.7124 274.552 66.7338C269.707 66.8512 264.413 69.7123 261.006 72.7442C260.431 73.2459 261.191 74.2174 261.87 73.7904C264.885 71.9115 268.775 71.3777 272.25 70.609C273.666 70.2994 276.853 70.0219 276.266 67.9615Z" fill="white"/>
<path d="M19.7135 112.981C18.0103 112.661 16.6408 111.721 15.0067 111.23C13.4876 110.782 11.8534 110.376 10.3228 110.034C7.38823 109.373 4.51117 107.963 1.43847 108.668C-0.425857 109.095 -0.517923 111.828 1.43847 112.202C7.20409 113.312 13.3955 115.073 19.4143 115.137C20.7263 115.169 21.0485 113.237 19.7135 112.981Z" fill="white"/>
<path d="M34.2945 182.48C28.8166 182.074 24.6161 183.409 19.3568 184.957C17.4004 185.533 15.2369 185.362 13.3956 185.96C11.4967 186.569 9.78198 187.711 7.86011 188.362C5.73109 189.077 5.76561 192.579 8.4125 192.323C10.2998 192.141 11.5888 191.49 13.3035 190.807C14.9837 190.134 16.146 190.017 17.9758 189.547C23.5113 188.095 28.8511 184.69 34.4786 183.718C35.2612 183.579 35.0195 182.533 34.2945 182.48Z" fill="white"/>
<path d="M35.3302 194.81C34.2945 195.066 33.2127 195.045 32.177 195.355C30.9916 195.707 30.0825 196.369 29.2078 197.191C27.8269 198.504 25.8014 200.34 26.0316 202.315C26.1006 202.924 26.4919 203.308 27.1594 203.361C29.2769 203.543 30.3472 201.792 31.567 200.479C32.8559 199.091 34.4671 197.586 36.0782 196.518C36.9759 195.952 36.5156 194.522 35.3302 194.81Z" fill="white"/>
<path d="M292.332 164.278C289.593 163.093 286.693 162.239 283.919 161.096C283.045 160.733 282.136 160.167 281.215 159.954C280.547 159.804 279.028 160.167 278.533 159.965C278.384 159.901 278.165 159.89 278.05 160.029C277.993 160.093 277.935 160.167 277.866 160.231C277.59 160.552 277.509 161.021 277.866 161.331C281.042 164.107 284 166.124 288.12 167.683C292.447 169.327 295.968 171.548 299.582 174.217C300.848 175.145 303.034 174.654 302.988 172.904C302.862 168.025 296.394 166.039 292.332 164.278Z" fill="white"/>
<path d="M95.15 223.528C92.7908 223.271 90.7999 226.069 89.7181 227.681C87.6927 230.68 85.0918 234.022 85.5061 237.758C85.7132 239.584 88.7054 240.278 89.1887 238.196C89.511 236.83 89.6606 235.442 90.1784 234.107C90.7423 232.655 91.6975 231.342 92.388 229.933C92.9634 228.759 94.402 226.036 95.6794 225.417C96.7496 224.905 96.1397 223.634 95.15 223.528Z" fill="white"/>
<path d="M117.867 225.439C116.106 228.673 114.794 231.438 113.931 234.961C113.126 238.26 111.952 241.367 113.045 244.74C113.494 246.117 115.692 246.192 116.095 244.74C116.463 243.427 116.348 242.328 116.452 240.993C116.59 239.007 117.28 237.129 117.533 235.164C117.936 231.961 117.994 229.036 119.11 225.919C119.34 225.236 118.212 224.798 117.867 225.439Z" fill="white"/>
<path d="M178.435 246.182C176.674 236.114 174.545 223.731 167.951 215.297C166.8 213.824 164.015 214.571 164.579 216.567C166.087 221.884 168.641 226.944 170.195 232.282C171.645 237.246 172.267 242.37 173.682 247.345C174.522 250.228 178.941 249.021 178.435 246.182Z" fill="white"/>
<path d="M202.28 228.535C201.624 227.328 200.818 226.197 200.07 225.033C199.046 223.442 196.411 224.83 197.377 226.453C198.643 228.577 199.714 230.776 200.956 232.88C201.566 233.904 203.005 233.339 203.12 232.346C203.304 230.873 203.005 229.869 202.28 228.535Z" fill="white"/>
<path d="M276.807 211.838C276.289 211.091 275.553 210.514 274.977 209.81C273.965 208.603 273.378 207.279 272.423 206.062C270.892 204.109 268.786 202.838 266.669 201.547C264.137 199.999 261.985 198.483 259.246 197.138C257.681 196.369 255.379 198.077 256.576 199.614C259.2 202.988 263.607 204.621 266.841 207.408C268.625 208.934 269.5 211.048 270.996 212.799C272.595 214.678 273.7 216.621 275.127 218.606C275.795 219.535 277.498 219.503 277.808 218.286C278.384 215.98 278.234 213.866 276.807 211.838Z" fill="white"/>
<g clip-path="url(#clip0)">
<path d="M82.5599 77.0288C71.3419 84.7383 64.2229 97.5704 62.1267 110.959C60.0304 124.348 62.687 138.2 68.156 150.61C71.2485 157.639 75.4202 164.473 81.6779 168.977C89.5959 174.666 100.555 175.882 109.541 172.079C111.835 171.11 114.014 169.822 115.758 168.059C118.601 165.184 120.116 161.051 119.805 157.021C119.483 153.001 117.345 149.146 114.087 146.745C112.323 145.436 110.06 144.292 109.593 142.158C109.407 141.282 109.562 140.375 109.541 139.478C109.469 135.613 105.556 132.264 101.696 132.769C104.882 129.202 105.567 123.657 103.346 119.431C102.941 118.658 102.433 117.834 102.62 116.989C102.838 116.02 103.844 115.484 104.726 115.01C112.084 111.124 117.293 103.487 118.186 95.2617C119.078 87.0368 115.643 78.482 109.303 73.1327C107.995 72.0299 106.553 71.0404 104.923 70.4942C97.8045 68.103 88.2053 73.1533 82.5599 77.0288Z" fill="#F8D5A5"/>
<path d="M78.0872 135.572C80.7646 135.603 83.4109 133.624 83.8467 131.006C79.8307 132.006 76.1155 131.398 72.1409 131.624C72.8985 133.923 75.6797 135.541 78.0872 135.572Z" fill="white"/>
<path d="M187.331 86.9852C187.393 89.6031 187.933 92.1799 188.566 94.7154C189.573 98.8072 190.839 102.899 193.132 106.434C195.426 109.97 198.892 112.928 203.032 113.824C199.203 118.772 200.054 126.656 204.859 130.686C200.49 132.202 197.511 136.953 198.072 141.519C198.165 142.302 198.321 143.189 197.802 143.787C197.262 144.395 196.318 144.333 195.509 144.415C191.378 144.828 189.448 149.754 189.241 153.877C189.075 157.072 189.396 160.288 190.185 163.38C190.517 164.689 190.963 166.019 191.876 167.018C192.665 167.874 193.734 168.399 194.803 168.853C204.319 172.862 215.89 171.605 224.317 165.648C230.647 161.164 235.047 154.382 237.859 147.188C240.671 139.983 242.021 132.315 243.266 124.688C243.982 120.297 244.677 115.845 244.324 111.413C243.982 107.022 242.643 102.775 241.305 98.5701C240.568 96.2305 239.81 93.8805 238.606 91.747C237.205 89.2733 235.223 87.181 233.272 85.1093C230.553 82.2337 227.835 79.358 225.126 76.4927C223.517 74.7921 221.867 73.0605 219.802 71.9474C217.53 70.7209 214.904 70.3189 212.331 70.0612C199.577 68.7522 186.999 71.9474 187.331 86.9852Z" fill="#F8D5A5"/>
<path d="M71.0201 134.49C72.6598 138.417 74.2994 142.354 75.9494 146.281C76.8938 148.538 78.1391 151.074 80.5259 151.682C82.4769 152.187 84.5835 151.125 85.8288 149.548C87.0741 147.971 87.6449 145.982 88.0807 144.024C89.2326 138.942 89.7826 133.727 89.71 128.522C88.0392 128.007 86.3269 129.233 85.3099 130.645C84.2929 132.057 83.6495 133.748 82.3627 134.912C81.5429 135.654 80.4948 136.149 79.3948 136.304C77.3504 136.582 75.2853 135.706 73.7079 134.387C72.2031 133.129 71.238 131.15 69.7644 130.068C69.7333 131.583 70.4286 133.078 71.0201 134.49Z" fill="#F6C17E"/>
<path d="M230.408 130.501C229.588 130.821 228.768 131.15 227.897 131.243C226.973 131.346 226.049 131.181 225.126 131.027C220.871 130.274 216.544 129.512 212.673 127.594C214.001 130.388 215.34 133.181 216.367 136.098C217.592 139.581 218.37 143.261 220.207 146.466C221.483 148.703 223.735 150.847 226.288 150.466C227.793 150.249 229.059 149.167 229.868 147.878C230.678 146.6 231.093 145.116 231.498 143.653C232.504 140.035 233.542 136.428 234.507 132.799C235.7 128.295 234.185 129.017 230.408 130.501Z" fill="#F6C17E"/>
<path d="M243.94 103.744C243.089 98.9721 241.356 93.6022 239.146 89.263C236.811 84.6867 233.293 81.069 229.889 77.3173C227.17 74.318 223.704 71.1847 220.062 69.3913C214.946 66.8661 209.311 66.7424 203.727 67.2371C194.689 68.0308 187.31 75.1013 186.708 84.2951C186.086 93.8187 189.22 105.991 197.21 112.01C206.166 118.751 218.515 113.742 218.578 102.167C218.578 101.559 217.602 101.569 217.633 102.167C217.965 108.702 213.296 113.124 206.872 113.35C202.69 113.495 198.497 111.072 195.82 108.001C190.704 102.157 188.39 93.5404 188.711 85.9442C189.064 77.4822 195.197 70.4838 203.727 69.6283C208.377 69.1645 213.202 69.0408 217.613 70.8033C220.871 72.102 223.559 74.4107 226.184 76.7195C238.72 87.6964 245.902 105.61 244.044 122.173C243.193 129.821 241.626 137.582 238.866 144.817C235.784 152.877 229.661 160.257 223.133 165.812C218.92 169.389 212.87 170.152 207.515 170.348C202.067 170.543 196.308 169.626 192.624 165.112C189.697 161.525 188.711 156.763 189.5 152.269C190.185 148.363 192.561 143.879 197.293 144.137C200.604 144.323 203.094 147.384 204.475 150.064C205.045 151.166 206.654 150.198 206.135 149.105C204.236 145.127 200.676 141.498 195.924 141.993C190.693 142.529 188.161 146.971 187.269 151.661C185.473 161.143 191.513 170.657 201.32 172.254C205.99 173.017 211.376 172.368 215.89 171.11C222.168 169.358 225.728 165.72 230.2 161.143C236.832 154.372 240.817 144.879 242.799 135.737C243.971 130.336 244.086 124.842 244.77 119.37C245.445 113.948 244.905 109.166 243.94 103.744Z" fill="#F7941D"/>
<path d="M205.928 131.14C201.009 127.945 200.853 118.092 205.544 114.659C206.353 114.062 205.658 112.773 204.734 113.288C198.798 116.566 199.919 126.646 203.987 131.295C198.456 132.655 195.322 139.118 198.165 144.395C198.383 144.797 199.068 144.518 198.912 144.086C197.231 139.447 199.161 131.789 205.554 132.532C206.343 132.624 206.488 131.501 205.928 131.14Z" fill="#F7941D"/>
<path d="M218.775 115.03C217.322 114.876 215.745 115.123 214.51 115.906C213.482 116.556 211.77 117.7 211.085 118.813C210.763 119.349 211.697 119.751 211.874 119.143C212.569 116.721 217.914 116.618 219.667 117.607C220.736 118.205 221.815 120.05 223.092 120.05C223.289 120.05 223.497 119.905 223.538 119.71C223.984 117.555 220.695 115.236 218.775 115.03Z" fill="#F7941D"/>
<path d="M240.983 118.019C240.028 115.34 236.5 114.381 233.926 114.732C231.02 115.123 230.242 117.875 228.499 119.751C228.426 119.833 228.519 119.957 228.623 119.906C229.194 119.596 229.464 119.04 229.941 118.628C230.709 117.968 232.068 117.277 233.034 116.865C235.95 115.618 237.454 117.7 239.613 119.071C240.277 119.483 241.253 118.782 240.983 118.019Z" fill="#F7941D"/>
<path d="M236.385 126.502C234.134 127.646 232.276 129.202 229.692 129.79C227.108 130.377 223.154 130.429 220.415 130.078C217.737 129.738 215.444 128.398 213.067 127.275C212.901 126.997 212.735 126.708 212.559 126.44C212.206 125.894 211.511 126.079 211.241 126.492C211.064 126.42 210.888 126.347 210.701 126.286C210.577 126.244 210.535 126.43 210.649 126.471C210.815 126.533 210.981 126.615 211.147 126.688C211.106 126.842 211.127 127.028 211.251 127.203C213.617 130.563 215.662 134.572 216.782 138.623C218.1 143.385 218.007 149.363 223.725 151.197C227.7 152.475 230.481 148.755 231.996 145.549C234.621 139.953 236.635 133.583 237.672 127.522C237.818 126.739 237.112 126.131 236.385 126.502ZM229.235 147.27C226.994 150.723 223.31 149.693 220.923 147.167C218.007 144.075 218.152 138.303 216.575 134.356C215.672 132.088 214.551 129.79 213.285 127.656C215.921 128.986 218.474 130.584 221.338 131.357C224.078 132.099 227.409 132.026 230.128 131.387C232.151 130.913 233.739 129.914 235.42 128.976C234.424 132.655 233.293 136.283 232.027 139.88C231.217 142.23 230.584 145.188 229.235 147.27Z" fill="#F7941D"/>
<path d="M212.185 122.121C209.331 121.091 206.893 124.533 205.907 126.718C205.367 127.904 207.245 128.553 207.494 127.378C207.671 126.522 208.532 125.574 209.062 124.925C209.425 124.482 209.767 123.966 210.307 123.719C210.909 123.441 211.573 123.513 212.185 123.286C212.766 123.08 212.766 122.328 212.185 122.121Z" fill="#F7941D"/>
<path d="M241.253 124.873C240.879 124.275 240.402 123.935 239.758 123.657C239.073 123.358 238.409 122.905 237.631 122.956C236.956 123.008 236.956 123.946 237.631 123.997C238.067 124.038 238.419 124.379 238.752 124.616C239.125 124.873 239.551 125.018 239.841 125.378C240.215 125.832 240.557 126.234 241.138 125.76C241.377 125.564 241.408 125.131 241.253 124.873Z" fill="#F7941D"/>
<path d="M263.823 110.619C263.201 106.939 259.662 102.209 255.563 105.362C253.021 107.321 254.712 111.949 258.054 111.072C259.423 110.712 258.853 108.64 257.462 108.96C258.085 108.815 256.404 106.651 258.593 106.785C259.776 106.857 260.731 108.733 261.105 109.65C261.717 111.145 261.665 112.67 261.457 114.247C260.959 118.04 259.621 121.4 257.483 124.585C255.397 127.687 252.502 129.924 249.264 131.779C246.867 133.15 244.013 133.944 241.761 135.459C241.19 135.85 241.719 136.778 242.311 136.397C244.874 134.696 248.34 134.005 251.121 132.573C253.934 131.119 256.455 129.099 258.469 126.698C261.945 122.565 264.757 116.133 263.823 110.619Z" fill="#F7941D"/>
<path d="M202.275 137.953C196.484 136.891 190.496 131.697 186.252 127.955C183.72 125.719 181.862 122.998 180.513 119.926C180.295 119.421 180.212 119.132 180.046 118.617C179.652 117.37 179.309 116.164 179.558 114.834C179.548 114.01 179.838 113.268 180.409 112.639C180.887 110.825 181.904 110.794 183.46 112.546C183.014 113.268 183.439 114.237 184.249 114.463L184.353 114.494C185.224 114.742 185.816 114.113 185.94 113.422C187.165 110.506 184.737 106.61 181.281 108.083C176.819 109.98 176.352 116.35 177.898 120.153C179.87 125.007 183.886 128.295 187.923 131.47C190.206 133.263 192.354 134.923 195.021 136.036C197.304 136.994 199.4 139.21 201.787 139.684C202.928 139.911 203.416 138.159 202.275 137.953Z" fill="#F7941D"/>
<path d="M202.015 166.359C201.87 165.73 200.967 166.008 201.071 166.616C201.922 172.028 201.175 178.212 199.234 183.314C198.29 185.798 196.775 188.075 195.125 190.157C193.412 192.312 190.206 193.425 189.209 196.074C187.943 199.475 190.652 201.897 193.858 200.083C196.411 198.64 197.024 195.795 197.937 193.291C198.559 191.58 199.421 189.776 199.587 187.952C199.597 187.88 199.576 187.807 199.566 187.735C199.763 187.375 199.992 187.024 200.178 186.643C202.97 180.706 203.478 172.718 202.015 166.359Z" fill="#F7941D"/>
<path d="M234.414 197.084C233.231 192.713 226.807 192.641 223.414 192.775C223.32 192.775 223.237 192.806 223.154 192.827C222.708 191.642 222.417 190.374 222.158 189.116C221.203 184.499 220.996 180.098 220.871 175.398C220.767 171.615 221.11 167.709 220.549 163.967C220.498 163.596 219.854 163.596 219.802 163.967C218.837 170.44 218.515 178.098 219.46 184.571C220.238 189.879 220.549 196.537 226.018 199.3C228.115 200.372 235.628 201.577 234.414 197.084Z" fill="#F7941D"/>
<path d="M114.17 144.158C110.413 142.519 105.152 142.89 103.491 147.044C103.159 147.868 103.471 148.528 103.917 147.889C107.59 142.643 115.861 147.476 118.269 151.424C120.759 155.506 119.992 161.216 117.511 165.122C112.914 172.347 100.741 174.573 92.9789 172.615C77.9626 168.812 69.8475 151.29 65.738 137.891C62.386 126.955 62.7077 118.782 63.1436 114.876C64.1191 106.043 66.6719 96.9829 72.0994 89.7268C80.0589 79.0798 96.445 65.722 110.382 73.8232C115.156 76.5958 117.376 82.0997 118.175 87.4078C118.528 89.7784 118.871 92.7158 118.767 95.1173C118.632 97.9827 117.138 100.539 115.695 102.951C112.883 107.64 109.51 111.629 103.948 113.02C100.222 113.948 95.6355 113.876 92.6987 111.237C91.277 109.959 89.0769 107.733 89.5543 105.579C89.6892 104.971 88.8071 104.734 88.6203 105.321C87.5826 108.485 90.6024 111.825 92.7713 113.763C96.5176 117.112 103.377 116.133 107.611 114.206C112.208 112.113 114.855 108.908 117.449 104.723C120.759 99.3741 121.361 95.3956 120.801 89.1806C119.95 79.7085 115.073 70.5044 104.757 69.0821C95.9676 67.8761 85.6627 72.5967 79.1976 78.3995C75.5966 81.6359 72.2862 85.1918 69.6088 89.2115C66.2465 94.2516 64.6276 99.0133 63.2162 104.909C61.8153 110.743 60.8294 116.762 61.1407 122.699C62.2511 143.879 70.3041 156.547 77.4542 164.875C83.6703 172.131 92.7402 176.243 102.329 175.336C112.717 174.357 122.939 167.833 122.285 156.371C121.984 151.476 118.84 146.188 114.17 144.158Z" fill="#F7941D"/>
<path d="M110.693 138.509C110.423 137.18 109.51 136.242 108.504 135.397C107.155 134.273 105.266 133.407 103.388 133.15C105.349 131.181 106.615 127.945 106.864 125.719C107.321 121.606 105.048 114.938 100.16 114.175C99.8592 114.123 99.579 114.35 99.662 114.67C99.8799 115.556 100.087 115.175 100.637 115.741C102.298 117.463 103.74 117.834 104.643 120.338C105.121 121.668 105.318 123.028 105.307 124.44C105.287 128.11 102.298 131.449 99.5686 133.665C99.112 134.036 99.4856 134.871 100.056 134.83C100.835 134.778 101.561 134.5 102.225 134.077C102.661 134.057 103.107 134.067 103.554 134.16C104.488 134.366 105.307 134.768 106.158 135.16C107.777 135.922 109.624 137.355 109.521 139.344C109.5 139.767 109.925 140.004 110.299 139.932C110.901 139.839 110.787 138.932 110.693 138.509Z" fill="#F7941D"/>
<path d="M70.9267 116.36C70.7399 116.123 70.4908 115.917 70.1173 115.814C69.4427 115.638 68.7889 115.958 68.3842 116.484C68.0106 116.7 67.7512 117.092 67.6682 117.617C67.6474 117.762 67.6786 117.885 67.6889 118.019C67.6474 118.308 67.6889 118.586 67.855 118.906C68.0418 119.266 68.405 119.689 68.7786 119.875C69.2871 120.122 69.8059 119.916 70.0758 119.545C71.7361 119.514 72.4937 117.184 70.9267 116.36Z" fill="#F7941D"/>
<path d="M73.0022 112.01C72.7013 111.948 72.5249 111.701 72.255 111.557C71.8503 111.34 71.373 111.186 70.9475 110.99C70.2729 110.67 69.7333 110.598 69.038 110.938C68.2597 111.309 67.5852 112.01 67.0663 112.691C66.8172 113.02 66.5474 113.391 66.3606 113.762C66.1842 114.113 66.1427 114.505 65.9559 114.865C65.7691 115.216 66.2569 115.494 66.4852 115.174C67.0871 114.34 67.4191 113.402 68.1248 112.608C68.2908 112.423 68.4673 112.227 68.6644 112.052C69.1314 111.639 70.0031 111.33 70.6154 111.546C70.8022 111.619 71.6116 112.866 71.6324 112.794C71.3937 113.721 72.4211 114.525 73.2617 114.041C74.04 113.577 73.9673 112.196 73.0022 112.01Z" fill="#F7941D"/>
<path d="M85.5175 115.391C85.4967 115.37 85.4656 115.36 85.4448 115.339C85.3307 114.917 84.9363 114.711 84.5316 114.67C83.9712 114.608 83.5665 114.876 83.3071 115.288C82.5495 115.814 82.2382 116.999 82.6222 117.823C83.1514 118.947 84.625 119.39 85.6316 118.596C86.6383 117.813 86.4099 116.164 85.5175 115.391Z" fill="#F7941D"/>
<path d="M86.2543 110.598C85.6212 110.021 84.9467 109.856 84.1061 109.732C83.4523 109.64 82.8504 109.64 82.3004 110.031C81.5532 110.567 81.4287 111.516 81.024 112.278C80.8372 112.629 81.3249 112.897 81.5429 112.577C82.0617 111.845 82.9438 109.794 84.0542 111.01C84.6561 111.68 85.175 112.453 85.6731 113.206C86.192 113.999 87.3024 113.639 87.3854 112.742C87.4788 111.876 86.8769 111.165 86.2543 110.598Z" fill="#F7941D"/>
<path d="M91.6402 126.43C91.5987 125.595 90.592 125.141 89.9694 125.739C86.5344 129.048 79.5193 131.789 74.839 131.027C71.7673 130.522 69.6399 128.337 66.9106 127.059C66.5266 126.873 66.1012 127.337 66.4332 127.677C67.2012 128.44 68.0625 129.182 68.9861 129.862C70.5842 135.119 72.1824 140.602 74.2371 145.652C75.8456 149.62 77.9004 153.743 83.0268 152.908C87.7382 152.135 88.2571 146.879 89.0769 143.117C90.1977 137.932 91.8892 131.738 91.6402 126.43ZM77.1532 132.964C79.1664 132.975 81.4287 132.501 83.6287 131.697C82.5495 133.861 81.2523 135.922 78.2947 135.85C76.1362 135.809 74.0814 133.696 72.4522 131.892C73.9362 132.542 75.5239 132.954 77.1532 132.964ZM87.4788 140.385C86.7005 144.384 85.2995 154.351 79.0004 149.899C76.3645 148.043 75.14 142.931 74.0088 140.128C72.639 136.747 71.3625 133.603 69.7644 130.408C70.0342 130.594 70.304 130.759 70.5842 130.934C70.5842 130.944 70.5842 130.955 70.5842 130.965C72.2135 133.603 75.4201 136.85 78.7513 136.953C82.6636 137.077 84.1684 133.923 85.6627 130.996C85.6939 130.934 85.7042 130.872 85.7146 130.81C87.1156 130.151 88.4543 129.378 89.6166 128.532C89.3779 132.428 88.1948 136.706 87.4788 140.385Z" fill="#F7941D"/>
<path d="M94.0374 121.709C93.1034 121.153 91.9826 120.936 90.9345 120.689C89.7411 120.4 89.2326 122.245 90.426 122.513C91.3081 122.709 92.3147 122.822 93.0723 123.348C93.7157 123.791 94.0166 124.544 94.8883 124.554C95.3968 124.564 95.6978 124.152 95.76 123.688C95.8742 122.791 94.7223 122.121 94.0374 121.709Z" fill="#F7941D"/>
<path d="M66.8691 123.41C65.2191 123.41 63.6106 124.801 63.4965 126.43C63.4446 127.151 64.5135 127.234 64.721 126.595C65.1257 125.368 67.0871 125.409 67.305 123.977C67.3569 123.688 67.1908 123.399 66.8691 123.41Z" fill="#F7941D"/>
<path d="M119.483 118.04C114.699 118.699 115.052 124.348 119.68 124.811C120.936 124.935 121.247 122.781 119.981 122.606C121.849 122.863 123.074 122.719 123.79 124.327C124.174 125.182 124.059 126.893 124.101 127.883C124.184 129.821 123.8 131.573 123.063 133.387C122.067 135.84 120.241 137.953 117.958 139.262C113.35 141.911 106.625 140.158 101.374 140.241C100.503 140.251 100.544 141.653 101.374 141.56C106.833 140.962 112.54 143.601 117.781 141.354C122.368 139.385 125.927 135.077 126.27 129.996C126.56 125.698 125.844 117.174 119.483 118.04Z" fill="#F7941D"/>
<path d="M66.0597 142.643C64.6276 142.478 63.2993 142.828 61.8672 142.787C59.7813 142.735 57.7369 141.859 55.8586 141.014C51.9359 139.241 49.1236 136.788 48.2623 132.346C47.5774 128.8 48.5943 124.935 50.0991 121.709C50.4 121.06 50.7321 120.472 51.0953 119.864C51.8114 118.679 54.4369 116.813 55.8275 117.896C55.8586 117.916 55.952 118.895 56.0143 119.514C55.7652 118.998 55.2463 118.607 54.5303 118.731C54.4888 118.741 54.4369 118.751 54.3954 118.751C53.7831 118.854 53.4925 119.473 53.4303 120.009C53.3369 120.854 53.4303 121.142 53.835 121.874C54.0529 122.276 54.5407 122.554 54.9869 122.534C58.1935 122.42 59.5218 118.205 57.2596 116.082C52.4963 111.629 48.366 120.009 47.1415 123.41C45.0971 129.161 45.4915 136.16 50.7321 140.076C54.8831 143.179 61.0992 145.302 66.1946 143.653C66.7861 143.467 66.6304 142.715 66.0597 142.643Z" fill="#F7941D"/>
<path d="M88.6203 168.74C88.5788 168.368 87.9769 168.204 87.8939 168.647C87.0533 173.501 88.008 178.325 86.4099 183.21C85.2788 186.653 83.3589 190.291 81.3146 193.249C80.9825 193.734 80.6608 194.187 80.3391 194.62C78.0872 192.693 70.7814 195.445 69.754 197.599C68.9342 199.32 69.9927 200.578 71.6116 201.289C72.3899 201.629 73.1267 201.722 73.8531 201.65C74.2994 201.66 74.7145 201.557 75.1088 201.361C75.8456 201.114 76.572 200.743 77.2985 200.33C88.0703 194.28 89.7826 179.696 88.6203 168.74Z" fill="#F7941D"/>
<path d="M109.666 194.084C109.541 194.064 109.417 194.064 109.303 194.074C108.327 191.806 107.85 189.23 107.466 186.973C106.376 180.489 106.169 173.914 104.965 167.431C104.799 166.555 103.481 166.926 103.626 167.802C104.643 173.852 104.394 179.881 105.089 185.962C105.66 191.033 106.719 197.166 111.202 200.268C113.153 201.619 118.632 203.752 118.632 199.475C118.622 195.208 112.54 194.672 109.666 194.084Z" fill="#F7941D"/>
</g>
<defs>
<clipPath id="clip0">
<rect width="218" height="135" fill="white" transform="translate(46 67)"/>
</clipPath>
</defs>
</svg>
