<svg width="103" height="103" viewBox="0 0 103 103" fill="none" xmlns="http://www.w3.org/2000/svg">
<g clip-path="url(#clip0)">
<path d="M47.9087 103C46.1936 103 44.3655 102.416 43.0085 101.323C42.5373 100.946 42.1603 100.532 41.8588 100.061C41.3311 100.4 40.728 100.664 40.0495 100.833C37.4297 101.474 34.3388 100.626 32.831 98.8545C32.6048 98.5719 32.3975 98.2892 32.2656 97.9877C31.8886 98.1008 31.5117 98.1761 31.0782 98.195C28.7034 98.3081 25.8952 96.6498 24.6136 94.3132C24.312 93.7667 24.1047 93.2202 24.0105 92.6549C23.4074 92.768 22.7477 92.7868 22.0692 92.6926C19.4118 92.3157 16.8674 90.356 16.1512 88.1324C16.0381 87.7744 15.9627 87.4164 15.9439 87.0583C15.5669 87.0395 15.19 86.9453 14.7942 86.8134C12.5514 86.0408 10.6101 83.4592 10.2897 80.821C10.2143 80.1804 10.2332 79.5585 10.3463 78.9932C9.76199 78.8801 9.15888 78.654 8.59347 78.3148C6.29411 76.9769 4.67325 74.188 4.82402 71.8514C4.84287 71.4557 4.91826 71.0788 5.05019 70.7396C4.72979 70.57 4.40939 70.3628 4.10783 70.0989C2.33619 68.5538 1.50692 65.4445 2.20426 62.8629C2.37389 62.2222 2.63775 61.6381 2.977 61.1293C2.48697 60.809 2.03464 60.3944 1.63885 59.8856C-0.000861393 57.794 -0.453194 54.5905 0.583402 52.4423C0.753027 52.0655 0.979193 51.7451 1.22421 51.4625C0.998041 51.1986 0.790721 50.8971 0.621096 50.558C-0.434347 48.4851 -0.0197087 45.3005 1.5823 43.1524C1.99694 42.6059 2.46812 42.1536 2.977 41.7956C2.6566 41.3245 2.41158 40.7969 2.24196 40.1939C1.50692 37.6311 2.2985 34.4842 4.07014 32.8825C4.37169 32.5999 4.71094 32.3737 5.05019 32.2041C4.93711 31.8838 4.86172 31.5446 4.84287 31.1866C4.63555 28.8688 6.23757 26.0799 8.53692 24.6855C9.14004 24.3274 9.76199 24.0825 10.3651 23.9506C10.252 23.4229 10.2332 22.8576 10.2897 22.2546C10.5724 19.6165 12.5137 16.9784 14.7754 16.1492C15.1523 16.0173 15.5481 15.9231 15.9439 15.8854C15.9627 15.5651 16.0193 15.2259 16.1323 14.9056C16.8297 12.7008 19.3552 10.7034 22.0315 10.2888C22.7289 10.1758 23.3885 10.1758 24.0105 10.3077C24.1047 9.78005 24.2932 9.27127 24.5759 8.74365C25.8387 6.42586 28.6657 4.6734 31.097 4.78646C31.5117 4.8053 31.9075 4.88068 32.2844 4.99374C32.4163 4.71108 32.6048 4.42843 32.831 4.16461C34.3199 2.37446 37.4297 1.50764 40.0872 2.14833C40.7657 2.31792 41.3688 2.56289 41.8965 2.90208C42.1792 2.46867 42.5561 2.05411 43.0085 1.69608C45.0628 0.0378293 48.3799 -0.489796 50.5662 0.527767C50.9431 0.697361 51.2635 0.904642 51.5651 1.14961C51.8101 0.94233 52.074 0.753892 52.3755 0.603142C54.4487 -0.489796 57.6716 -0.0752333 59.8956 1.54533C60.4421 1.94105 60.8945 2.41214 61.2337 2.90208C61.6672 2.61942 62.1761 2.37446 62.7227 2.22371C65.2859 1.46996 68.5653 2.28024 70.1862 4.07039C70.45 4.35305 70.6762 4.6734 70.827 4.99374C71.1285 4.89952 71.4489 4.82415 71.7882 4.8053C74.1064 4.65455 77.0088 6.27511 78.4035 8.5929C78.7428 9.15821 78.969 9.72352 79.1009 10.3077C79.6286 10.2135 80.1752 10.1946 80.7594 10.2511C83.4169 10.5715 86.1309 12.5878 86.9413 14.849C87.0733 15.2071 87.1486 15.5651 87.1675 15.9043C87.4879 15.9231 87.8271 15.9985 88.1475 16.1116C90.3715 16.8465 92.4259 19.5223 92.784 22.1981C92.8782 22.8199 92.8593 23.4229 92.7651 23.9694C93.2928 24.0825 93.8394 24.2898 94.3671 24.5913C96.7042 25.9292 98.4193 28.8311 98.2685 31.2054C98.2496 31.5634 98.1743 31.9026 98.08 32.223C98.3816 32.3737 98.6643 32.581 98.9281 32.8071C100.719 34.3712 101.548 37.65 100.851 40.2504C100.7 40.8346 100.455 41.3622 100.153 41.8145C100.624 42.1348 101.039 42.5494 101.435 43.0581C103.075 45.2063 103.508 48.5417 102.453 50.6522C102.302 50.9725 102.113 51.2363 101.906 51.4813C102.132 51.7451 102.321 52.0466 102.49 52.4046C103.527 54.5717 103.037 57.907 101.359 60.0175C101.001 60.4698 100.587 60.8655 100.153 61.167C100.474 61.6569 100.719 62.2411 100.869 62.8629C101.529 65.4822 100.643 68.7233 98.8716 70.212C98.6077 70.4381 98.3439 70.6077 98.0612 70.7585C98.1743 71.1165 98.2308 71.4745 98.2496 71.8703C98.3627 74.2823 96.6099 77.1654 94.2729 78.4467C93.764 78.7294 93.2551 78.9178 92.7463 79.012C92.8593 79.615 92.8593 80.2557 92.7463 80.9341C92.3316 83.6476 90.315 86.2104 88.091 86.9076C87.7706 87.0018 87.4502 87.0772 87.1298 87.096C87.0921 87.4729 87.0167 87.8686 86.8659 88.2455C86.0367 90.5067 83.3227 92.4853 80.684 92.768C80.1186 92.8245 79.5721 92.8057 79.0443 92.6926C78.9124 93.2956 78.6674 93.9175 78.2904 94.5016C76.8581 96.8194 74.0498 98.4023 71.7316 98.195C71.3924 98.1573 71.072 98.1008 70.7704 97.9877C70.6008 98.3269 70.3558 98.6661 70.0731 98.9676C68.4334 100.72 65.1916 101.511 62.6661 100.777C62.1007 100.607 61.6107 100.381 61.1583 100.079C60.8002 100.588 60.3291 101.078 59.7636 101.493C57.5774 103.094 54.3733 103.471 52.319 102.397C52.0174 102.228 51.7347 102.039 51.4897 101.832C51.1882 102.077 50.8489 102.303 50.472 102.473C49.7369 102.812 48.8511 103 47.9087 103ZM43.8566 97.1963C43.8001 97.4789 43.6116 98.3457 44.7047 99.2126C45.9486 100.211 48.1349 100.588 49.3788 100.004C49.9631 99.7402 50.227 99.3256 50.2458 98.6661C50.2646 97.9312 50.9054 97.4036 51.6216 97.347C52.3567 97.3659 52.9409 97.9689 52.9409 98.6849C52.9409 98.7038 52.9409 98.7038 52.9409 98.7226C52.9221 99.3445 53.1294 99.7213 53.6194 99.9852C54.7503 100.569 56.8989 100.249 58.237 99.2879C59.0851 98.6661 59.4621 97.9312 59.3113 97.1209C59.2925 97.0455 59.2925 96.9701 59.2925 96.8948C59.2925 96.2541 59.7636 95.6888 60.4044 95.5757C61.1395 95.4438 61.8368 95.9337 61.9499 96.6686C62.0065 96.9513 62.1384 97.7804 63.4577 98.1761C65.0032 98.6284 67.1706 98.1385 68.1318 97.1209C68.5653 96.6498 68.6595 96.1787 68.4145 95.5757C68.358 95.425 68.3203 95.2554 68.3203 95.1046C68.3203 94.5582 68.6407 94.0494 69.1872 93.8421C69.8846 93.5783 70.6573 93.9175 70.9212 94.6147C71.1285 95.18 71.4678 95.4438 71.9955 95.4815C73.2582 95.6134 75.143 94.4639 76.0099 93.0506C76.5565 92.165 76.613 91.3547 76.1984 90.6763C76.0665 90.4502 75.9911 90.2052 75.9911 89.9603C75.9911 89.508 76.2173 89.0746 76.613 88.8296C77.235 88.4339 78.0643 88.6224 78.4601 89.2442C78.6109 89.4703 79.0443 90.1864 80.4013 90.0356C82.0222 89.866 83.8504 88.5658 84.3404 87.2656C84.5477 86.6815 84.4535 86.2292 84.02 85.777C83.775 85.5131 83.6431 85.174 83.6431 84.8536C83.6431 84.4956 83.775 84.1375 84.0577 83.8737C84.6043 83.3649 85.4524 83.3838 85.9613 83.9303C86.3571 84.3448 86.7528 84.4579 87.2617 84.3071C88.5056 83.9303 89.8061 82.1401 90.07 80.4818C90.2207 79.4643 89.9757 78.7294 89.3538 78.2771C88.9768 78.0133 88.7883 77.5988 88.7883 77.1842C88.7883 76.9204 88.8637 76.6566 89.0334 76.4116C89.4668 75.8086 90.2961 75.6579 90.8992 76.0913C91.1254 76.242 91.7851 76.7131 92.9724 76.0536C94.4048 75.2621 95.611 73.3589 95.5545 71.9645C95.5356 71.3615 95.2718 71.0034 94.7252 70.7585C94.2163 70.5323 93.9148 70.0424 93.9148 69.5336C93.9148 69.3452 93.9525 69.1756 94.0279 68.9872C94.3294 68.3088 95.121 67.9884 95.7995 68.2899C96.3272 68.5161 96.723 68.4784 97.1188 68.1392C98.1177 67.2912 98.6454 65.1242 98.2496 63.4848C98.0046 62.5237 97.5146 61.9584 96.7796 61.7888C96.1576 61.6569 95.7241 61.0916 95.7241 60.4698C95.7241 60.3756 95.743 60.2813 95.7618 60.1871C95.9126 59.4522 96.6288 59 97.3638 59.1507C97.6277 59.2072 98.4004 59.3768 99.2485 58.3027C100.266 57.0025 100.643 54.7601 100.059 53.5164C99.814 52.9888 99.4559 52.7627 98.8528 52.7627C98.1177 52.7627 97.5146 52.1597 97.5146 51.4248C97.5146 51.4248 97.5146 51.4248 97.5146 51.4059C97.5146 50.671 98.1554 49.955 98.8716 50.068C99.4936 50.068 99.7951 49.8796 100.021 49.3896C100.624 48.2025 100.266 45.9601 99.2485 44.641C98.6643 43.8684 98.0235 43.5669 97.2884 43.6988C96.5534 43.8496 95.856 43.3596 95.7053 42.6436C95.6864 42.5494 95.6864 42.474 95.6864 42.3798C95.6864 41.7579 96.1388 41.1926 96.7796 41.0607C97.4769 40.9288 97.9669 40.4012 98.2119 39.5155C98.6454 37.9138 98.1366 35.7091 97.1188 34.8046C96.7042 34.4277 96.2895 34.3712 95.7618 34.5973C95.0833 34.88 94.2917 34.5596 94.009 33.8624C93.9336 33.6928 93.9148 33.5232 93.9148 33.3536C93.9148 32.826 94.2352 32.3172 94.7441 32.1099C95.2718 31.8838 95.5168 31.5634 95.5545 30.9981C95.6487 29.6414 94.4425 27.7193 92.9913 26.8902C92.1808 26.4379 91.4835 26.4003 90.8804 26.796C90.2584 27.2105 89.4291 27.0598 89.0145 26.4379C88.8637 26.2118 88.7883 25.948 88.7883 25.6842C88.7883 25.2508 88.9957 24.8362 89.3726 24.5724C89.9757 24.1578 90.2207 23.4795 90.0888 22.5373C89.8626 20.879 88.5433 19.0512 87.2617 18.6366C86.7528 18.467 86.3571 18.5612 85.9613 18.9758C85.4335 19.5034 84.5854 19.5223 84.0577 18.9947C83.7938 18.7308 83.6619 18.3917 83.6619 18.0336C83.6619 17.6944 83.7938 17.3552 84.0388 17.0914C84.4535 16.6769 84.5477 16.2623 84.3592 15.7158C83.9069 14.4156 82.0599 13.0966 80.4013 12.9081C79.0443 12.7574 78.6109 13.4357 78.4601 13.643C78.0643 14.2649 77.235 14.4533 76.5942 14.0387C76.1984 13.7749 75.9722 13.3415 75.9722 12.9081C75.9722 12.6631 76.0476 12.3993 76.1796 12.1732C76.5942 11.5514 76.5377 10.7976 76.0288 9.94965C75.1618 8.51752 73.2582 7.34921 71.9389 7.46227C71.4112 7.49996 71.0908 7.74493 70.8835 8.2914C70.6196 8.98862 69.8281 9.3278 69.1495 9.04515C68.6218 8.83787 68.3014 8.32908 68.3014 7.80146C68.3014 7.63187 68.3391 7.48112 68.3957 7.31152C68.6218 6.74621 68.5276 6.3128 68.1318 5.86055C67.1894 4.82415 64.9843 4.33421 63.4012 4.78646C62.1007 5.16333 61.9688 5.95477 61.9122 6.21858C61.7803 6.95349 61.0829 7.44343 60.3479 7.31152C59.6883 7.19846 59.2359 6.63315 59.2359 5.99246C59.2359 5.91708 59.2359 5.84171 59.2548 5.76633C59.3867 4.99374 59.0474 4.31536 58.2182 3.71236C56.8612 2.73249 54.6749 2.3933 53.5252 2.9963C53.054 3.24127 52.8656 3.5993 52.8844 4.18346C52.8844 4.2023 52.8844 4.2023 52.8844 4.22115C52.8844 4.95605 52.3001 5.54021 51.5651 5.55905C50.8112 5.54021 50.2081 4.99374 50.1893 4.25883C50.1704 3.63699 49.9254 3.24127 49.36 2.97746C48.0972 2.3933 45.8732 2.77018 44.6105 3.78774C43.555 4.63571 43.7435 5.44599 43.8001 5.7098C43.8189 5.80402 43.8377 5.91708 43.8377 6.0113C43.8377 6.63315 43.4231 7.17962 42.7823 7.31152C42.0661 7.46227 41.3311 7.02887 41.1803 6.29396C41.0107 5.52136 40.3887 4.99374 39.3898 4.74877C37.7689 4.37189 35.6392 4.88068 34.8288 5.8794C34.4895 6.29396 34.433 6.70852 34.678 7.25499C34.7534 7.42458 34.7911 7.61302 34.7911 7.80146C34.7911 8.31024 34.4895 8.80018 33.9995 9.0263C33.321 9.3278 32.5294 9.0263 32.2279 8.34793C31.964 7.76377 31.5682 7.48112 30.9274 7.46227C29.5139 7.3869 27.648 8.61174 26.8753 10.0062C26.2156 11.2122 26.7056 11.9094 26.8753 12.1355C27.0449 12.3617 27.1203 12.6443 27.1203 12.9081C27.1203 13.3227 26.9318 13.7372 26.5549 14.0011C25.9517 14.4345 25.1036 14.2837 24.689 13.6807C24.2178 13.0023 23.4451 12.7385 22.3896 12.927C20.7688 13.1908 19.016 14.4722 18.6202 15.697C18.4506 16.2246 18.5825 16.6392 19.0348 17.0726C19.3175 17.3364 19.4495 17.6944 19.4495 18.0525C19.4495 18.3917 19.3175 18.712 19.0725 18.9758C18.5636 19.5034 17.7155 19.5411 17.1689 19.0323C16.7732 18.5612 16.2831 18.467 15.68 18.6743C14.3984 19.1454 13.1168 20.9544 12.9283 22.5373C12.7775 23.9317 13.5126 24.4028 13.7576 24.5536C14.1534 24.8174 14.3796 25.2508 14.3796 25.6842C14.3796 25.9292 14.3042 26.1741 14.1722 26.4003C13.7764 27.0221 12.9472 27.2105 12.3252 26.8148C11.6279 26.3626 10.7986 26.4191 9.89392 26.9656C8.48038 27.8324 7.3684 29.6414 7.48148 30.9416C7.53802 31.5069 7.82073 31.8649 8.40499 32.0911C8.93272 32.2984 9.25312 32.8071 9.25312 33.3348C9.25312 33.5044 9.21542 33.6551 9.15888 33.8247C8.89502 34.5219 8.10344 34.8611 7.42494 34.5784C6.80298 34.3335 6.31295 34.4089 5.84177 34.8423C4.82402 35.7656 4.334 37.8761 4.78633 39.4401C5.05019 40.3635 5.57791 40.91 6.3695 41.0607C7.0103 41.1738 7.48148 41.7391 7.46263 42.3798C7.46263 42.4551 7.46263 42.5494 7.44379 42.6247C7.31186 43.3596 6.61451 43.8496 5.87947 43.6988C5.05019 43.5481 4.31515 43.9061 3.69319 44.7352C2.71314 46.0543 2.37389 48.146 2.977 49.3331C3.24086 49.8607 3.63665 50.0492 4.31515 50.0869C5.05019 50.0492 5.67215 50.671 5.67215 51.4248C5.67215 51.4248 5.67215 51.4248 5.67215 51.4436C5.67215 52.1785 5.08788 52.7815 4.334 52.7815C3.6555 52.7815 3.24086 53.0453 2.95815 53.6106C2.37389 54.8355 2.71314 56.946 3.71204 58.2274C4.31515 59.0188 5.03134 59.3203 5.84177 59.1696C6.57681 59.0188 7.27416 59.4899 7.42494 60.2248C7.44379 60.319 7.44379 60.4132 7.44379 60.4886C7.44379 61.1105 7.0103 61.6758 6.3695 61.8077C5.55907 61.9773 5.0125 62.5614 4.74864 63.5602C4.334 65.143 4.82402 67.2159 5.82293 68.0827C6.27526 68.4784 6.76529 68.5538 7.38724 68.2899C8.06574 68.0073 8.85733 68.3276 9.14003 69.0248C9.21542 69.1944 9.23427 69.364 9.23427 69.5336C9.23427 70.0613 8.91387 70.5512 8.40499 70.7773C7.82073 71.0411 7.53802 71.418 7.48148 72.0398C7.38724 73.3778 8.51808 75.1868 9.91277 75.997C10.7986 76.5058 11.5902 76.5435 12.2875 76.0724C12.9095 75.6579 13.7388 75.8274 14.1534 76.4493C14.3042 76.6754 14.3796 76.9392 14.3796 77.1842C14.3796 77.6176 14.1722 78.051 13.7764 78.296C13.0979 78.7482 12.8152 79.4831 12.9283 80.463C13.1356 82.0836 14.3796 83.8172 15.6612 84.2695C16.2643 84.4767 16.7355 84.3637 17.2255 83.8926C17.7532 83.365 18.6013 83.3838 19.1291 83.9114C19.3929 84.1752 19.506 84.5144 19.506 84.8536C19.506 85.1928 19.3741 85.5508 19.1102 85.8146C18.639 86.2669 18.5071 86.738 18.6956 87.2845C19.1102 88.5281 20.8253 89.7907 22.4462 90.0168C23.4828 90.1675 24.2366 89.8849 24.7267 89.2065C25.1413 88.6035 25.9894 88.4528 26.5925 88.8673C26.9695 89.1311 27.1768 89.5457 27.1768 89.9791C27.1768 90.2429 27.1014 90.5067 26.9318 90.7329C26.4795 91.3924 26.4795 92.1461 26.9506 92.9941C27.7422 94.4074 29.5893 95.5946 30.9463 95.4815C31.5871 95.4438 31.9829 95.1611 32.2656 94.5393C32.5671 93.8609 33.3587 93.5406 34.0372 93.8421C34.5461 94.0682 34.8476 94.5581 34.8476 95.0669C34.8476 95.2554 34.8099 95.425 34.7345 95.6134C34.4895 96.1976 34.5272 96.6498 34.9042 97.0832C35.7334 98.0819 37.8066 98.5907 39.4275 98.195C40.4452 97.95 41.0672 97.4035 41.2557 96.5933C41.4253 95.8772 42.1226 95.4061 42.8577 95.5757C43.4796 95.7076 43.9131 96.2729 43.9131 96.8948C43.8943 97.0078 43.8754 97.1021 43.8566 97.1963Z" fill="#B479B4"/>
<path fill-rule="evenodd" clip-rule="evenodd" d="M51.5848 8.10263C51.4717 3.58013 42.2931 5.40797 43.292 9.76088C42.312 5.42681 33.1334 7.23582 34.9993 11.4191C33.1334 7.25466 25.3683 12.4367 27.9693 16.1112C25.3683 12.4367 17.5844 17.6376 20.9393 20.8033C17.6033 17.6187 12.4015 25.4012 16.2463 27.832C12.4015 25.4012 7.21848 33.1648 11.5533 34.8608C7.21848 33.1648 5.3903 42.3417 9.89479 43.152C5.3903 42.3229 3.56212 51.4998 8.23623 51.4433C3.56212 51.4998 5.3903 60.6579 9.89479 59.7345C5.3903 60.6579 7.21848 69.8348 11.5533 68.0258C7.21848 69.8159 12.4203 77.5984 16.2463 75.0545C12.4015 77.5984 17.6033 85.3621 20.9393 82.0832C17.6033 85.3621 25.3683 90.5629 27.9693 86.7753C25.3683 90.5441 33.1522 95.745 34.9993 91.4674C33.1334 95.7261 42.312 97.554 43.292 93.1257C42.312 97.5728 51.4717 99.3818 51.5848 94.7839C51.4717 99.4007 60.6503 97.5728 59.8776 93.1257C60.6315 97.5728 69.8101 95.745 68.1704 91.4674C69.8101 95.7261 77.5751 90.5441 75.2004 86.7753C77.5751 90.5441 85.359 85.3432 82.2304 82.0832C85.3402 85.3621 90.542 77.5796 86.9233 75.0545C90.542 77.5984 95.725 69.8159 91.6163 68.0258C95.725 69.8159 97.5532 60.6579 93.2748 59.7345C97.5532 60.6579 99.3813 51.481 94.9334 51.4433C99.3813 51.4998 97.5532 42.3229 93.2748 43.152C97.5532 42.3229 95.725 33.1648 91.6163 34.8608C95.725 33.1648 90.5232 25.3824 86.9233 27.832C90.542 25.4012 85.3402 17.6187 82.2304 20.8033C85.3402 17.6187 77.5751 12.4367 75.2004 16.1112C77.5751 12.4367 69.7912 7.23582 68.1704 11.4191C69.8101 7.25466 60.6315 5.42681 59.8776 9.76088C60.6503 5.40797 51.4717 3.58013 51.5848 8.10263Z" fill="white"/>
<path d="M48.2112 98.8543C46.6091 98.8543 44.8941 98.3078 43.6501 97.2903C43.2355 96.9699 42.8963 96.593 42.6324 96.1973C42.1612 96.4988 41.6335 96.7249 41.0304 96.8568C38.5991 97.441 35.6966 96.6496 34.3019 94.9913C34.0946 94.7463 33.9438 94.5014 33.8119 94.2376C33.4915 94.3318 33.1522 94.3883 32.7941 94.4072C30.5702 94.5014 27.9693 92.9562 26.763 90.7892C26.4992 90.3181 26.3107 89.8281 26.2165 89.357C25.6699 89.4512 25.1045 89.4512 24.5014 89.3759C22.0324 89.0178 19.6576 87.19 18.9791 85.1172C18.8849 84.8157 18.8095 84.4953 18.7907 84.1938C18.4703 84.1562 18.131 84.0996 17.7918 83.9866C15.6997 83.2517 13.8904 80.8585 13.57 78.39C13.4946 77.8246 13.5134 77.297 13.6077 76.7882C13.0988 76.6752 12.5711 76.4679 12.0622 76.1664C9.91363 74.9227 8.40586 72.3223 8.55663 70.1176C8.57548 69.7784 8.63202 69.458 8.74511 69.1565C8.4624 69.0058 8.19854 68.8173 7.93468 68.6101C6.27612 67.1591 5.50339 64.2571 6.14419 61.864C6.29497 61.2987 6.52114 60.7899 6.80384 60.3376C6.3892 60.0361 5.99341 59.6781 5.65416 59.2259C4.12754 57.2661 3.7129 54.2888 4.67411 52.2914C4.82489 51.971 5.01336 51.6884 5.22068 51.4434C5.03221 51.2173 4.84373 50.9534 4.7118 50.6708C3.73175 48.7299 4.10869 45.7526 5.59762 43.7551C5.95572 43.2652 6.37036 42.8695 6.82269 42.5491C6.55883 42.1346 6.35151 41.6635 6.20073 41.1359C5.52223 38.7427 6.25727 35.8219 7.91583 34.3144C8.142 34.1071 8.4247 33.9187 8.72626 33.7491C8.63202 33.4664 8.57548 33.1838 8.55663 32.8823C8.36816 30.7153 9.85709 28.1148 12.0057 26.8146C12.5334 26.4942 13.08 26.2681 13.6077 26.1551C13.5134 25.684 13.5134 25.194 13.57 24.6664C13.8339 22.1979 15.6432 19.7482 17.7729 18.9756C18.0745 18.8437 18.4326 18.7495 18.7718 18.7306C18.7907 18.448 18.8472 18.1653 18.9414 17.8827C19.5823 15.8098 21.957 13.9631 24.4448 13.5674C25.0479 13.4732 25.6322 13.4732 26.1976 13.5674C26.2919 13.1152 26.4615 12.6629 26.7065 12.2107C27.875 10.0625 30.5513 8.42308 32.7753 8.5173C33.1334 8.53615 33.4726 8.59268 33.8119 8.6869C33.9438 8.44193 34.0946 8.2158 34.2831 7.98968C35.6778 6.31258 38.5802 5.5023 41.0492 6.1053C41.6523 6.25605 42.1801 6.46333 42.6512 6.74599C42.9151 6.36911 43.2355 6.02993 43.6313 5.70958C45.5537 4.16439 48.6446 3.67446 50.699 4.61664C51.0194 4.76739 51.3021 4.93699 51.566 5.14427C51.7733 4.97468 51.9994 4.82393 52.2445 4.69202C54.1857 3.67446 57.2013 4.05133 59.2556 5.55883C59.7457 5.91686 60.1414 6.31258 60.4619 6.74599C60.8576 6.50102 61.2911 6.31258 61.7623 6.16183C64.1559 5.46461 67.2091 6.21836 68.7169 7.87661C68.9431 8.12158 69.1316 8.3854 69.2823 8.66805C69.5462 8.59268 69.8101 8.53615 70.0928 8.5173C72.2602 8.34771 74.9742 9.8929 76.2558 12.0411C76.5574 12.531 76.7647 13.0398 76.8778 13.5486C77.3301 13.4732 77.8201 13.4544 78.329 13.5297C80.8168 13.8312 83.3424 15.6968 84.0774 17.8073C84.1905 18.1088 84.247 18.4103 84.2847 18.7118C84.5674 18.7495 84.8313 18.806 85.114 18.9002C87.206 19.5974 89.1096 22.0848 89.4489 24.5722C89.5242 25.1187 89.5242 25.6463 89.4489 26.1362C89.92 26.2493 90.3912 26.4377 90.8435 26.7015C93.0298 27.9452 94.6318 30.6587 94.4811 32.8823C94.4622 33.1838 94.4057 33.4853 94.3303 33.7679C94.5941 33.8998 94.8203 34.0694 95.0653 34.2767C96.7239 35.7465 97.5155 38.7992 96.8558 41.2112C96.7239 41.72 96.5166 42.1911 96.2715 42.5868C96.6673 42.8883 97.0443 43.2464 97.3835 43.6798C98.9102 45.696 99.3248 48.8053 98.3259 50.765C98.194 51.0288 98.0432 51.2738 97.8547 51.4811C98.0432 51.726 98.2128 51.9899 98.3447 52.2725C99.3059 54.2888 98.8536 57.4169 97.3081 59.3766C96.9877 59.7723 96.6296 60.1115 96.2527 60.3753C96.5166 60.8276 96.7239 61.3175 96.8747 61.8828C97.4778 64.3325 96.6673 67.3475 95.0088 68.742C94.7826 68.9304 94.5564 69.0811 94.3303 69.2131C94.4245 69.5145 94.4811 69.8349 94.4811 70.1741C94.5753 72.4165 92.9544 75.1112 90.7682 76.2983C90.3347 76.5433 89.8823 76.7129 89.43 76.8071C89.5054 77.3347 89.5054 77.9 89.4112 78.503C89.0154 81.0281 87.1495 83.4212 85.0575 84.0619C84.7936 84.1373 84.5109 84.1938 84.247 84.2315C84.2093 84.5519 84.1339 84.8911 84.0209 85.2302C83.2481 87.3408 80.7226 89.1874 78.2536 89.4513C77.7636 89.5078 77.2736 89.4889 76.8212 89.4136C76.6893 89.9412 76.4631 90.4877 76.1427 90.9964C74.8046 93.1635 72.166 94.6521 70.0174 94.4448C69.7347 94.426 69.452 94.3695 69.207 94.2753C69.0373 94.5768 68.8489 94.8594 68.6038 95.1232C67.0772 96.7626 64.0428 97.4975 61.7058 96.8003C61.2157 96.6496 60.7823 96.4611 60.3865 96.1973C60.0661 96.6496 59.6514 97.0641 59.1425 97.4222C57.107 98.9108 54.1103 99.2689 52.1879 98.2701C51.9241 98.1382 51.6979 97.9686 51.4717 97.799C51.2079 98.0063 50.9063 98.1948 50.5859 98.3455C49.9263 98.7035 49.0781 98.8543 48.2112 98.8543ZM52.923 94.8594C52.9041 95.387 53.0737 95.6885 53.4884 95.9147C54.4873 96.4423 56.4097 96.1408 57.5971 95.274C58.351 94.7275 58.6714 94.1057 58.5394 93.3896C58.5206 93.3142 58.5206 93.2388 58.5206 93.1635C58.5206 92.5228 58.9918 91.9575 59.6326 91.8444C60.3676 91.7125 61.065 92.2024 61.178 92.9373C61.2157 93.1823 61.3477 93.8984 62.4785 94.2376C63.8543 94.6521 65.8145 94.1999 66.6437 93.2954C67.0207 92.8997 67.0772 92.5039 66.8888 91.9952C66.8322 91.8444 66.7945 91.6748 66.7945 91.5241C66.7945 90.9776 67.1149 90.4688 67.6615 90.2615C68.3588 89.9977 69.1316 90.3369 69.3954 91.0341C69.5839 91.5052 69.8478 91.7313 70.2812 91.769C71.4121 91.8821 73.0895 90.8645 73.8622 89.5832C74.3334 88.8106 74.3899 88.1133 74.0318 87.5292C73.8999 87.3031 73.8245 87.0581 73.8245 86.8131C73.8245 86.3609 74.0507 85.9275 74.4465 85.6825C75.0684 85.2868 75.8977 85.4752 76.2935 86.0971C76.4254 86.2855 76.7835 86.8885 77.9709 86.7754C79.4221 86.6247 81.0618 85.4752 81.4953 84.2881C81.6838 83.7981 81.6084 83.4212 81.2315 83.0255C80.9865 82.7617 80.8545 82.4225 80.8545 82.1022C80.8545 81.7441 80.9865 81.3861 81.2692 81.1223C81.8157 80.6135 82.6639 80.6324 83.1727 81.1788C83.512 81.5369 83.8324 81.6311 84.247 81.4992C85.3402 81.16 86.5087 79.5583 86.7349 78.0885C86.8668 77.2028 86.6595 76.5621 86.1129 76.1852C85.7359 75.9214 85.5475 75.5069 85.5475 75.0923C85.5475 74.8285 85.6229 74.5647 85.7925 74.3197C86.226 73.7167 87.0553 73.566 87.6584 73.9994C87.8468 74.1313 88.4123 74.527 89.43 73.9617C90.6928 73.2645 91.8048 71.5308 91.7482 70.306C91.7294 69.7972 91.5221 69.4957 91.0509 69.2884C90.542 69.0623 90.2404 68.5724 90.2404 68.0636C90.2404 67.8751 90.2781 67.7056 90.3535 67.5171C90.6551 66.8387 91.4467 66.5184 92.1252 66.8199C92.5586 67.0083 92.879 66.9706 93.2183 66.688C94.1041 65.9342 94.5753 63.9933 94.2172 62.5424C94.0099 61.7132 93.5764 61.2045 92.9544 61.0726C92.3325 60.9406 91.899 60.3753 91.899 59.7535C91.899 59.6593 91.9178 59.565 91.9367 59.4708C92.0875 58.7359 92.8037 58.2837 93.5387 58.4344C93.7649 58.4721 94.4245 58.6229 95.1596 57.6995C96.0642 56.55 96.4035 54.5149 95.8946 53.422C95.6873 52.9886 95.3857 52.8001 94.8957 52.8001C94.1607 52.8001 93.5575 52.1971 93.5575 51.4622C93.5575 51.4622 93.5575 51.4622 93.5575 51.4434C93.5575 50.7085 94.1607 50.1055 94.8957 50.1055C94.9145 50.1055 94.9145 50.1055 94.9334 50.1055C95.4046 50.1055 95.6684 49.9359 95.8758 49.5402C96.4035 48.4849 96.0831 46.4686 95.1784 45.2815C94.6695 44.6219 94.1041 44.3393 93.501 44.4524C92.766 44.5843 92.0686 44.1132 91.9178 43.3971C91.899 43.3029 91.899 43.2275 91.899 43.1333C91.899 42.5114 92.3513 41.9461 92.9921 41.8142C93.2183 41.7765 93.8968 41.6446 94.2172 40.4763C94.5941 39.063 94.1418 37.0468 93.2371 36.2553C92.879 35.9538 92.5586 35.8973 92.1063 36.0857C91.4278 36.3684 90.6362 36.048 90.3535 35.3508C90.2781 35.1812 90.2593 35.0116 90.2593 34.842C90.2593 34.3144 90.5797 33.8056 91.0886 33.5983C91.5409 33.4099 91.7294 33.1461 91.7671 32.675C91.8424 31.4878 90.7493 29.7354 89.4677 29.0005C88.4123 28.3975 87.8468 28.7932 87.6584 28.9063C87.0364 29.3208 86.2071 29.1512 85.7925 28.5482C85.6417 28.3221 85.5663 28.0583 85.5663 27.7945C85.5663 27.3611 85.7736 26.9465 86.1506 26.6827C86.6595 26.3247 86.8668 25.7405 86.7537 24.9114C86.5464 23.4416 85.359 21.7833 84.2282 21.4064C83.7947 21.2745 83.4931 21.3499 83.1539 21.6891C82.6262 22.2167 81.778 22.2356 81.2503 21.7079C80.9865 21.4441 80.8545 21.1049 80.8545 20.7469C80.8545 20.4077 80.9865 20.0685 81.2315 19.8047C81.5707 19.4467 81.6461 19.1075 81.4953 18.6552C81.0995 17.5058 79.4033 16.3186 77.9521 16.149C76.7647 15.9983 76.4066 16.5824 76.2747 16.7709C75.8789 17.3927 75.0496 17.5812 74.4088 17.1666C74.013 16.9028 73.7868 16.4694 73.7868 16.036C73.7868 15.791 73.8622 15.5272 73.9941 15.3011C74.3522 14.7546 74.2957 14.1139 73.8434 13.379C73.0895 12.1165 71.3367 11.0424 70.2059 11.1366C69.7724 11.1743 69.5085 11.3627 69.3389 11.815C69.075 12.5122 68.2834 12.8514 67.6049 12.5687C67.0772 12.3614 66.7568 11.8526 66.7568 11.325C66.7568 11.1554 66.7945 11.0047 66.8511 10.8351C67.0395 10.364 66.9641 10.006 66.6249 9.62908C65.7956 8.72458 63.7978 8.27233 62.4031 8.66805C61.2723 8.9884 61.1592 9.68562 61.1215 9.91174C60.9896 10.6466 60.2922 11.1366 59.5572 11.0047C58.8975 10.8916 58.4452 10.3263 58.4452 9.68562C58.4452 9.61024 58.4452 9.53487 58.464 9.45949C58.5771 8.79996 58.2756 8.19696 57.5594 7.66933C56.3532 6.78368 54.393 6.48218 53.3753 7.0098C52.9795 7.21708 52.8287 7.49974 52.8287 7.98968C52.8287 8.00852 52.8287 8.00852 52.8287 8.02737C52.8287 8.76227 52.2445 9.34643 51.5094 9.36527C50.7744 9.32758 50.1524 8.79996 50.1336 8.04621C50.1147 7.51858 49.9074 7.19824 49.4362 6.97211C48.3054 6.44449 46.3264 6.80252 45.1956 7.70702C44.2909 8.44193 44.4417 9.13915 44.4983 9.36527C44.5171 9.45949 44.536 9.57255 44.536 9.66677C44.536 10.2886 44.1213 10.8351 43.4805 10.967C42.7643 11.1366 42.0293 10.6843 41.8785 9.94943C41.7277 9.27105 41.2 8.8188 40.3142 8.61152C38.8818 8.27233 36.9594 8.72458 36.2432 9.61024C35.9605 9.94943 35.9228 10.2886 36.1301 10.7597C36.2055 10.9293 36.2432 11.1177 36.2432 11.3062C36.2432 11.815 35.9416 12.3049 35.4516 12.531C34.7731 12.8325 33.9815 12.531 33.68 11.8526C33.4538 11.3439 33.1334 11.1177 32.5868 11.0989C31.3241 11.1177 29.6655 12.1165 28.9682 13.379C28.4027 14.4342 28.8174 15.0184 28.9682 15.2068C29.1378 15.4518 29.2132 15.7156 29.2132 15.9794C29.2132 16.394 29.0247 16.8086 28.6478 17.0724C28.0446 17.5058 27.1965 17.355 26.7819 16.752C26.3672 16.1679 25.6887 15.9606 24.7841 16.0925C23.3328 16.3186 21.7497 17.4681 21.4293 18.561C21.2973 18.9944 21.3916 19.3525 21.7685 19.7105C22.0512 19.9743 22.1832 20.3323 22.1832 20.6904C22.1832 21.0296 22.0512 21.3499 21.8062 21.6137C21.2973 22.1413 20.4492 22.179 19.9027 21.6702C19.488 21.2745 19.0922 21.1992 18.5833 21.3876C17.4337 21.8022 16.284 23.4227 16.1332 24.8548C16.0013 26.0608 16.6421 26.4754 16.8494 26.6073C17.2452 26.8711 17.4714 27.3045 17.4714 27.7379C17.4714 27.9829 17.396 28.2279 17.264 28.454C16.8683 29.0758 16.039 29.2643 15.417 28.8686C14.8139 28.4728 14.0977 28.5294 13.3061 29.0005C12.0622 29.7542 11.0445 31.4125 11.1387 32.5431C11.1764 33.0142 11.4214 33.3157 11.9114 33.5041C12.4392 33.7114 12.7596 34.2202 12.7596 34.7478C12.7596 34.9174 12.7219 35.0682 12.6653 35.2378C12.4015 35.935 11.6099 36.2742 10.9314 35.9915C10.4037 35.7842 9.98902 35.8596 9.59323 36.2176C8.70741 37.0279 8.25508 38.95 8.65087 40.3256C8.99012 41.5316 9.76286 41.6823 10.0079 41.72C10.6487 41.8331 11.1199 42.3984 11.101 43.0391C11.101 43.1144 11.101 43.2087 11.0822 43.284C10.9502 44.0189 10.2529 44.5089 9.51784 44.3581C8.80165 44.2262 8.16084 44.5277 7.61427 45.2626C6.7473 46.4121 6.44575 48.3342 6.97347 49.3517C7.19964 49.804 7.61427 50.0113 8.1043 49.9736C8.87704 49.9359 9.4613 50.5577 9.4613 51.3115C9.4613 51.3115 9.4613 51.3115 9.4613 51.3303C9.4613 52.0652 8.87704 52.6682 8.12315 52.6682C7.55773 52.6682 7.19964 52.8944 6.95462 53.3655C6.44575 54.4395 6.76615 56.3616 7.63312 57.4922C8.16084 58.1706 8.7828 58.4533 9.48015 58.3025C10.1963 58.1518 10.9125 58.6229 11.0633 59.3578C11.0822 59.452 11.0822 59.5462 11.0822 59.6216C11.0822 60.2434 10.6487 60.8087 10.0079 60.9406C9.42361 61.2233 8.95243 61.7321 8.72626 62.5989C8.36816 63.9933 8.80165 65.8777 9.68747 66.6503C10.0833 66.9895 10.4791 67.046 11.0068 66.8199C11.6853 66.5372 12.4769 66.8576 12.7596 67.5548C12.8349 67.7244 12.8538 67.894 12.8538 68.0636C12.8538 68.5912 12.5334 69.0811 12.0245 69.3073C11.4968 69.5334 11.2518 69.8349 11.2141 70.3625C11.1387 71.5308 12.1565 73.1702 13.4004 73.9052C14.1731 74.3574 14.8704 74.3762 15.4736 73.9805C16.0955 73.566 16.9248 73.7355 17.3394 74.3574C17.4902 74.5835 17.5656 74.8473 17.5656 75.0923C17.5656 75.5257 17.3583 75.9591 16.9625 76.2041C16.3782 76.5998 16.1332 77.2216 16.2274 78.0885C16.3971 79.5017 17.5468 81.0846 18.6587 81.4803C19.1676 81.6499 19.5634 81.5557 19.978 81.16C20.5058 80.6324 21.3539 80.6512 21.8816 81.1788C22.1455 81.4427 22.2586 81.7818 22.2586 82.121C22.2586 82.4602 22.1266 82.8182 21.8628 83.0821C21.467 83.4778 21.3539 83.8547 21.5235 84.3257C21.8816 85.4187 23.4459 86.5493 24.8783 86.7566C25.783 86.8885 26.4426 86.6435 26.8573 86.0594C27.2719 85.4564 28.12 85.3056 28.7231 85.7202C29.1001 85.984 29.3074 86.3986 29.3074 86.832C29.3074 87.0958 29.232 87.3596 29.0624 87.5857C28.9116 87.793 28.4781 88.4337 29.0812 89.5455C29.7786 90.7892 31.4371 91.8256 32.6434 91.769C33.1899 91.7502 33.5292 91.5052 33.7554 90.9776C34.0569 90.2992 34.8485 89.9789 35.527 90.2804C36.0359 90.5065 36.3374 90.9964 36.3374 91.5052C36.3374 91.6937 36.2997 91.8633 36.2243 92.0517C35.9982 92.5416 36.0547 92.9185 36.3563 93.2954C37.0913 94.1622 38.976 94.6333 40.3896 94.2753C41.2942 94.0491 41.822 93.578 41.9727 92.8808C42.1235 92.1648 42.8397 91.6937 43.5747 91.8633C44.1967 91.9952 44.6302 92.5605 44.6302 93.1823C44.6302 93.2765 44.6113 93.3708 44.5925 93.465C44.536 93.7099 44.3663 94.4448 45.3275 95.2174C46.4395 96.1031 48.3996 96.4423 49.5116 95.9335C50.0016 95.7074 50.2278 95.3493 50.2467 94.8029C50.2655 94.068 50.9252 93.5215 51.6225 93.4838C52.3575 93.5027 52.9418 94.1057 52.9418 94.8217C52.923 94.8406 52.923 94.8406 52.923 94.8594Z" fill="#7F3F98"/>
<path d="M92.2948 89.4701H10.9691L3.80714 75.8838H99.4567L92.2948 89.4701Z" fill="#7F3F98"/>
<path d="M23.0501 86.5305H21.3916V82.253C21.3916 81.763 21.4104 81.3485 21.4481 80.9905H21.4104C21.335 81.1412 21.2031 81.3485 21.0146 81.6311L17.7918 86.5305H16.0578V78.748H17.7164V83.0444C17.7164 83.572 17.6975 83.9301 17.6787 84.1185H17.6975C17.7164 84.0808 17.8483 83.8547 18.0933 83.4778L21.1843 78.748H23.069V86.5305H23.0501Z" fill="white"/>
<path d="M33.7177 86.5305H31.9837V81.8761C31.9837 81.3673 32.0026 80.8209 32.0403 80.2179H32.0026C31.9083 80.689 31.8329 81.047 31.7575 81.2543L29.9294 86.5494H28.497L26.6311 81.3108C26.5746 81.1789 26.4992 80.802 26.3861 80.2179H26.3295C26.3861 80.9905 26.4049 81.65 26.4049 82.2341V86.5305H24.8218V78.748H27.385L28.9682 83.3648C29.1001 83.7416 29.1943 84.0997 29.2509 84.4766H29.2886C29.3828 84.0431 29.4959 83.6663 29.5901 83.3459L31.1733 78.748H33.68V86.5305H33.7177Z" fill="white"/>
<path d="M44.3475 86.5305H42.6135V81.8761C42.6135 81.3673 42.6324 80.8209 42.6701 80.2179H42.6324C42.5382 80.689 42.4628 81.047 42.3874 81.2543L40.5592 86.5494H39.1268L37.2609 81.3108C37.2044 81.1789 37.129 80.802 37.0159 80.2179H36.9594C37.0159 80.9905 37.0348 81.65 37.0348 82.2341V86.5305H35.4516V78.748H38.0148L39.598 83.3648C39.7299 83.7416 39.8242 84.0997 39.8807 84.4766H39.9184C40.0126 84.0431 40.1257 83.6663 40.2199 83.3459L41.8031 78.748H44.3098V86.5305H44.3475Z" fill="white"/>
<path d="M52.1125 78.748L49.6812 84.0808C49.2289 85.0795 48.7954 85.7579 48.3808 86.116C47.985 86.4928 47.4761 86.6813 46.8542 86.6813C46.4395 86.6813 46.1003 86.6247 45.8364 86.5117V84.91C46.138 85.0984 46.4395 85.1926 46.7599 85.1926C47.1934 85.1926 47.5892 84.8346 47.9096 84.1374L45.3464 78.7669H47.3442L48.6446 81.8761C48.72 82.0645 48.7766 82.2718 48.8331 82.5168H48.852C48.8897 82.3284 48.9462 82.1211 49.0404 81.895L50.2844 78.7669H52.1125V78.748Z" fill="white"/>
<path d="M59.6891 86.5305H57.9363V83.3648H54.7134V86.5305H52.9607V78.748H54.7134V81.8573H57.9363V78.748H59.6891V86.5305Z" fill="white"/>
<path d="M68.4908 86.5305H66.8322V82.253C66.8322 81.763 66.8511 81.3485 66.8888 80.9905H66.8511C66.7757 81.1412 66.6437 81.3485 66.4553 81.6311L63.2324 86.5305H61.4608V78.748H63.1193V83.0444C63.1193 83.572 63.1005 83.9301 63.0816 84.1185H63.1005C63.1193 84.0808 63.2512 83.8547 63.4962 83.4778L66.5872 78.748H68.4719V86.5305H68.4908Z" fill="white"/>
<path d="M75.7281 80.1802H73.5041V86.5305H71.7513V80.1802H69.5462V78.748H75.7281V80.1802Z" fill="white"/>
<path d="M81.4576 86.5305H76.7835V78.748H81.2692V80.1802H78.5363V81.9138H81.0807V83.3271H78.5363V85.0984H81.4576V86.5305Z" fill="white"/>
<path d="M88.1672 80.1802H85.9433V86.5305H84.1905V80.1802H81.9854V78.748H88.1672V80.1802Z" fill="white"/>
<path d="M30.3063 73.1134H27.7808L25.1987 69.2693C25.1422 69.1939 25.0668 69.0243 24.9726 68.7793H24.9349V73.1134H22.9371V64.2568H24.9349V68.4402H24.9726C25.0291 68.3271 25.1045 68.1575 25.2176 67.9502L27.6677 64.2568H30.0424L26.9515 68.4778L30.3063 73.1134Z" fill="#9E61A7"/>
<path d="M33.1522 70.0607V73.1134H31.1544V64.2568H34.2831C36.507 64.2568 37.6379 65.199 37.6379 67.0834C37.6379 67.9691 37.3175 68.6851 36.6767 69.2504C36.0359 69.7969 35.1877 70.0796 34.1134 70.0796H33.1522V70.0607ZM33.1522 65.7832V68.5344H33.9438C34.9993 68.5344 35.5458 68.0633 35.5458 67.1399C35.5458 66.2354 35.0181 65.7832 33.9438 65.7832H33.1522Z" fill="#9E61A7"/>
<path d="M44.2344 73.1134H38.9195V64.2568H44.0271V65.8774H40.9173V67.8372H43.8198V69.4577H40.9173V71.474H44.2344V73.1134Z" fill="#9E61A7"/>
<path d="M53.3188 73.1134H51.321V66.0093H47.6457V73.1134H45.6479V64.2568H53.2999V73.1134H53.3188Z" fill="#9E61A7"/>
<path d="M62.7047 73.1134H60.1791L57.5971 69.2693C57.5405 69.1939 57.4651 69.0243 57.3709 68.7793H57.3332V73.1134H55.3354V64.2568H57.3332V68.4402H57.3709C57.4274 68.3271 57.5028 68.1575 57.6159 67.9502L60.0661 64.2568H62.4408L59.3499 68.4778L62.7047 73.1134Z" fill="#9E61A7"/>
<path d="M71.5063 73.1134H69.6216V68.2517C69.6216 67.6864 69.6404 67.2153 69.6781 66.8196H69.6404C69.5462 66.9892 69.4143 67.2341 69.1881 67.5545L65.5317 73.1134H63.5339V64.2568H65.4187V69.1562C65.4187 69.7592 65.3998 70.1738 65.3621 70.3811H65.381C65.3998 70.3245 65.5506 70.0984 65.8333 69.665L69.3389 64.2757H71.4686V73.1134H71.5063Z" fill="#9E61A7"/>
<path d="M81.5142 73.1134H79.6295V68.2517C79.6295 67.6864 79.6483 67.2153 79.686 66.8196H79.6483C79.5541 66.9892 79.4221 67.2341 79.196 67.5545L75.5396 73.1134H73.5418V64.2568H75.4265V69.1562C75.4265 69.7592 75.4077 70.1737 75.37 70.381H75.3888C75.4077 70.3245 75.5585 70.0984 75.8412 69.665L79.3467 64.2757H81.4765V73.1134H81.5142ZM80.2514 61.2983C80.176 61.9579 79.8933 62.4667 79.4033 62.8624C78.9133 63.2581 78.3102 63.4465 77.5751 63.4465C76.8401 63.4465 76.2181 63.2581 75.7281 62.8624C75.2381 62.4667 74.9742 61.9579 74.9365 61.2983H76.35C76.3689 61.6187 76.5008 61.8825 76.7458 62.0709C76.9908 62.2782 77.2736 62.3724 77.594 62.3724C77.9144 62.3724 78.1971 62.2594 78.4232 62.0709C78.6494 61.8637 78.7813 61.5998 78.819 61.2983H80.2514Z" fill="#9E61A7"/>
<path d="M49.7378 25.8912C49.7378 25.7028 49.7566 25.5332 49.7378 25.3636C49.7378 25.307 49.6624 25.2317 49.587 25.194C48.8331 24.704 48.3242 24.0257 48.0604 23.1588C47.4761 21.1614 48.7954 18.9944 50.8309 18.6175C52.8853 18.2406 54.7511 19.4843 55.1281 21.5383C55.3543 22.8008 54.9773 23.8938 54.0349 24.7794C53.8653 24.949 53.658 25.0621 53.4884 25.2128C53.4318 25.2505 53.3941 25.3447 53.3753 25.4013C53.3564 25.552 53.3753 25.7216 53.3753 25.8912C56.4474 26.3058 59.1237 27.5494 61.4419 29.6411C61.7246 29.3584 61.9885 29.0758 62.2712 28.812C62.4597 28.6235 62.5727 28.4728 62.5162 28.1524C62.3277 26.9276 62.6858 25.8535 63.5905 24.9678C64.8532 23.7242 66.9453 23.6111 68.3211 24.7229C69.3389 25.5332 69.8101 26.5884 69.7158 27.8886C69.5839 29.6788 68.1892 30.9979 66.5683 31.1863C66.1349 31.2428 65.7202 31.224 65.2867 31.1298C65.2302 31.1109 65.1548 31.1298 65.136 31.1674C64.6836 31.6197 64.2313 32.0531 63.779 32.5242C63.9674 32.8257 64.1559 33.1272 64.3255 33.4475C64.5705 33.8809 64.7779 34.3332 65.0229 34.7854C65.0606 34.8608 65.1548 34.9362 65.2302 34.955C66.9264 35.445 68.0573 37.0279 67.9065 38.7803C67.7934 40.024 67.1715 40.9474 66.116 41.6069C66.0406 41.6634 65.9841 41.7011 65.9841 41.8142C65.871 42.5491 65.7579 43.2651 65.6448 44.0189C65.7956 44.0754 66.0029 44.1696 66.2102 44.245C66.606 44.3958 67.0018 44.5465 67.3976 44.6973C67.4919 44.735 67.5672 44.735 67.6615 44.6596C69.7724 43.0955 72.8068 44.2827 73.3156 46.8643C73.7114 48.8806 72.411 50.8026 70.3755 51.1607C68.4531 51.4999 66.6626 50.2939 66.2479 48.3906C66.1914 48.1645 66.0972 48.0515 65.8898 47.9761C65.3621 47.7876 64.8532 47.5804 64.3444 47.3731C63.9297 47.9761 63.5151 48.5791 63.0816 49.1821C67.5484 53.6481 68.8865 55.0613 73.3533 59.5273C72.4675 60.413 71.6194 61.2609 70.7713 62.1089C55.0527 46.3932 44.7433 36.0857 29.0059 20.3511C29.854 19.5032 30.721 18.6363 31.5879 17.7695C31.6256 17.8072 31.5502 17.6376 32.6057 18.6929C33.9627 20.0308 35.3008 21.3687 36.6578 22.7066C36.7521 22.8008 36.8086 22.8008 36.9217 22.7254C39.1268 21.3122 42.0104 22.5747 42.4628 25.1563C42.6135 26.0796 42.4251 26.9276 41.935 27.719C41.8597 27.8321 41.8597 27.9075 41.9539 28.0017C42.1801 28.2278 42.4062 28.4539 42.6324 28.6801C42.7078 28.7554 42.7455 28.7743 42.8397 28.6989C44.3286 27.5683 45.9683 26.7768 47.7588 26.2869C48.3431 26.1362 48.9462 26.0419 49.5493 25.91C49.587 25.91 49.6435 25.8912 49.7378 25.8912ZM60.4619 46.5063C63.3832 42.436 63.2512 36.2364 58.841 32.2415C54.7323 28.5105 48.9839 28.7178 45.3652 31.3747C46.4395 32.4488 47.495 33.5041 48.5693 34.5782C49.8697 32.7692 52.3199 32.5619 53.8842 33.8998C54.6381 34.5405 55.0904 35.3696 55.1658 36.3683C55.26 37.7439 54.7134 38.8557 53.6203 39.666C55.9008 41.9649 58.1813 44.2262 60.4619 46.5063Z" fill="#9E61A7"/>
<path d="M37.129 38.4976C37.2609 37.4989 37.4871 36.5567 37.8075 35.6145C37.9206 35.2753 38.0714 34.9362 38.2033 34.5781C38.2598 34.6347 38.3164 34.6723 38.3541 34.71C39.221 35.5768 40.0692 36.4248 40.9361 37.2916C41.0304 37.3858 41.0492 37.4612 41.0115 37.5931C40.7665 38.5165 40.6346 39.4587 40.6534 40.4197C40.6911 42.7752 41.4073 44.9234 42.8209 46.8266C43.9328 48.3152 45.3464 49.4459 47.0426 50.2184C48.1169 50.7084 49.2478 51.0099 50.4351 51.1418C51.7356 51.2737 53.0172 51.1795 54.28 50.8403C54.4119 50.8026 54.4873 50.8214 54.5815 50.9157C56.1835 52.5362 57.8044 54.1568 59.4252 55.7774C60.3676 56.7384 61.31 57.6806 62.2712 58.6228C62.3843 58.7358 62.422 58.8489 62.3843 58.9996C62.1581 60.526 60.9519 61.7508 59.4441 62.0146C57.4274 62.3538 55.505 60.9406 55.2412 58.9243C55.1092 57.9632 55.3542 57.1153 55.9008 56.3427C55.9385 56.2861 55.9762 56.1731 55.9574 56.1165C55.7312 55.5324 55.505 54.9294 55.2789 54.3452C55.2789 54.3264 55.26 54.3075 55.2412 54.2887C54.0349 54.5902 52.8287 54.7975 51.5848 54.7975C51.5283 56.0789 51.0194 57.0964 49.9451 57.8125C49.0781 58.3966 48.1169 58.5474 47.0992 58.3213C45.0071 57.869 43.4805 55.344 44.7433 53.0827C43.1978 52.2536 41.8408 51.1983 40.6723 49.8604C40.6346 49.8981 40.578 49.9358 40.5403 49.9735C39.9372 50.5765 39.3341 51.1983 38.7122 51.8013C38.6368 51.8767 38.6179 51.9332 38.6368 52.0275C38.9949 53.7611 38.1656 55.4193 36.639 56.1354C34.4904 57.153 31.946 55.8527 31.5125 53.4973C31.1356 51.481 32.5303 49.5401 34.5658 49.2574C35.037 49.2009 35.4893 49.2197 35.9605 49.2951C36.017 49.3139 36.0924 49.2951 36.1301 49.2574C36.9217 48.4471 37.6944 47.6557 38.486 46.8454C38.5048 46.8266 38.5237 46.8077 38.5425 46.7889C37.8075 45.3002 37.3363 43.7362 37.129 42.0779C36.9405 42.0779 36.7709 42.0591 36.6013 42.0779C36.5447 42.0779 36.4693 42.1533 36.4128 42.2287C35.9228 42.9636 35.2631 43.4912 34.415 43.755C32.3984 44.3769 30.2309 43.0578 29.8351 40.985C29.4393 38.9499 30.7398 37.0278 32.7753 36.6886C34.2831 36.4437 35.4893 36.9901 36.3751 38.2338C36.4882 38.4034 36.6013 38.4788 36.8086 38.4599C36.9028 38.4788 36.9971 38.4976 37.129 38.4976Z" fill="#9E61A7"/>
<path d="M46.0814 45.7522C45.1768 45.7522 44.3852 45.0362 44.2909 44.1317C44.1967 43.2649 44.7998 42.4169 45.6668 42.2096C45.7422 42.1908 45.8364 42.2284 45.893 42.2661C46.5149 42.888 47.1557 43.5098 47.7588 44.1317C47.8154 44.1882 47.8342 44.2824 47.8154 44.3578C47.6457 45.1681 46.8919 45.7522 46.0814 45.7522Z" fill="#9E61A7"/>
<path d="M60.6315 40.288C60.6315 41.2867 59.821 42.1159 58.8221 42.1159C57.8232 42.1159 56.994 41.3056 56.994 40.3068C56.994 39.3081 57.8044 38.4978 58.7844 38.479C59.8022 38.479 60.6315 39.2893 60.6315 40.288Z" fill="#9E61A7"/>
</g>
<defs>
<clipPath id="clip0">
<rect width="103" height="103" fill="white"/>
</clipPath>
</defs>
</svg>
