<svg width="104" height="102" viewBox="0 0 104 102" fill="none" xmlns="http://www.w3.org/2000/svg">
<g clip-path="url(#clip0)">
<path d="M48.3192 102C46.5728 102 44.7324 101.401 43.3803 100.317C42.9484 99.9619 42.5728 99.588 42.2911 99.1581C41.784 99.4759 41.2019 99.7002 40.5634 99.8685C37.9155 100.523 34.7793 99.6628 33.277 97.8681C33.0704 97.6251 32.8826 97.3633 32.7512 97.0829C32.4131 97.1951 32.0376 97.2512 31.662 97.2699C29.2582 97.4381 26.4225 95.7182 25.108 93.3813C24.8263 92.8765 24.6197 92.3531 24.507 91.8483C23.9249 91.9418 23.3239 91.9418 22.6667 91.8483C19.9812 91.4557 17.4085 89.4927 16.6761 87.2493C16.5634 86.9315 16.507 86.595 16.4695 86.2772C16.1127 86.2398 15.7559 86.165 15.4178 86.0528C13.1455 85.2303 11.1737 82.6317 10.8545 79.977C10.7793 79.3787 10.7981 78.7992 10.892 78.257C10.3286 78.1262 9.78404 77.9205 9.23944 77.6027C6.9108 76.2567 5.277 73.4524 5.42723 71.0781C5.44601 70.7229 5.52113 70.3677 5.61502 70.0499C5.31455 69.9004 5.03286 69.6947 4.75117 69.4704C2.94836 67.9187 2.12207 64.7779 2.8169 62.1793C2.98592 61.5811 3.21127 61.0202 3.51174 60.5528C3.06103 60.235 2.64789 59.8424 2.2723 59.3751C0.619719 57.2625 0.169015 54.047 1.20188 51.8784C1.37089 51.5419 1.55869 51.2427 1.78404 50.9623C1.57747 50.7193 1.38967 50.4388 1.23944 50.1397C0.169015 48.0459 0.58216 44.8303 2.19718 42.6804C2.59155 42.157 3.02347 41.727 3.49296 41.3905C3.21127 40.9418 2.98592 40.437 2.8169 39.8949C2.08451 37.3149 2.87324 34.1555 4.67606 32.529C4.95775 32.2673 5.25822 32.0616 5.57747 31.8934C5.48357 31.5943 5.42723 31.2952 5.38967 30.9586C5.1831 28.6218 6.79812 25.8175 9.12676 24.4154C9.69014 24.0789 10.2723 23.8358 10.8545 23.705C10.7606 23.2002 10.7418 22.6768 10.7981 22.1159C11.0798 19.4425 13.0329 16.8065 15.3427 15.9652C15.7371 15.8344 16.1127 15.7409 16.4695 15.7035C16.4883 15.4044 16.5634 15.1053 16.6385 14.8062C17.3333 12.5814 19.9061 10.5624 22.6103 10.1511C23.2676 10.0576 23.8873 10.0389 24.4883 10.1324C24.6009 9.64633 24.77 9.16026 25.0329 8.69288C26.2911 6.3747 29.2019 4.59867 31.6244 4.71084C32 4.72954 32.3756 4.78562 32.7324 4.8791C32.8639 4.61737 33.0329 4.37433 33.2207 4.14999C34.723 2.35527 37.8779 1.47661 40.5634 2.11224C41.2019 2.2618 41.784 2.50483 42.2723 2.80395C42.554 2.41136 42.9108 2.03746 43.3239 1.70095C45.4085 0.0183954 48.7512 -0.48637 50.9671 0.523161C51.3052 0.672721 51.6244 0.878366 51.8873 1.08401C52.1127 0.897061 52.3568 0.747501 52.6197 0.597941C54.723 -0.48637 57.9906 -0.0937748 60.2254 1.53269C60.7512 1.90659 61.1831 2.33658 61.5211 2.78526C61.9343 2.52353 62.4038 2.31788 62.9296 2.16832C65.5211 1.42052 68.8263 2.22441 70.4601 4.01913C70.7042 4.28086 70.9108 4.56128 71.0798 4.8604C71.3615 4.78562 71.6432 4.72954 71.9437 4.69215C74.2911 4.5052 77.2207 6.16905 78.6291 8.50593C78.9484 9.02939 79.1737 9.57155 79.3052 10.1137C79.7934 10.0389 80.3193 10.0202 80.8639 10.095C83.5493 10.4128 86.2911 12.4506 87.0986 14.7127C87.2113 15.0305 87.2864 15.367 87.3239 15.6848C87.6244 15.7222 87.9249 15.7783 88.2066 15.8718C90.4601 16.6196 92.5258 19.3117 92.9014 22.0037C92.9765 22.5833 92.9765 23.1441 92.9014 23.6676C93.4085 23.7798 93.8967 23.9854 94.4038 24.2658C96.77 25.6119 98.4977 28.547 98.3474 30.9213C98.3286 31.2391 98.2723 31.5569 98.1784 31.856C98.4413 32.0056 98.7042 32.1925 98.9484 32.3982C100.751 33.9872 101.615 37.2776 100.901 39.8949C100.751 40.437 100.545 40.9418 100.263 41.3718C100.695 41.6896 101.089 42.0822 101.446 42.5495C103.099 44.7182 103.549 48.0833 102.479 50.1958C102.329 50.4762 102.178 50.7193 101.991 50.9623C102.197 51.2053 102.366 51.5045 102.516 51.8036C103.568 53.9909 103.061 57.356 101.39 59.4685C101.052 59.8985 100.676 60.2537 100.263 60.5528C100.545 61.0202 100.77 61.5624 100.92 62.1606C101.577 64.7966 100.695 68.0495 98.892 69.5638C98.6667 69.7508 98.4225 69.9191 98.1596 70.0499C98.2535 70.3677 98.3099 70.7229 98.3286 71.0781C98.4413 73.5085 96.6761 76.4062 94.3099 77.6962C93.8404 77.9579 93.3521 78.1449 92.8826 78.2383C92.9765 78.7992 92.9577 79.4161 92.8639 80.0331C92.4319 82.7625 90.4038 85.3424 88.1502 86.0341C87.8685 86.1276 87.5681 86.1837 87.2864 86.2024C87.2488 86.5576 87.1549 86.9128 87.0423 87.2493C86.1972 89.5301 83.4554 91.5305 80.8075 91.8109C80.2817 91.867 79.7559 91.8483 79.2864 91.7735C79.1549 92.3344 78.9108 92.9139 78.554 93.4748C77.108 95.8116 74.2723 97.4194 71.9249 97.1951C71.6432 97.2138 71.3615 97.1577 71.0798 97.0642C70.9108 97.382 70.6854 97.6811 70.4225 97.9616C68.77 99.7376 65.4836 100.541 62.9296 99.775C62.4038 99.6254 61.9343 99.4011 61.5211 99.1394C61.1643 99.6254 60.7324 100.055 60.1878 100.448C57.9718 102.056 54.7418 102.448 52.6573 101.345C52.3756 101.196 52.1315 101.028 51.8873 100.841C51.6056 101.065 51.2864 101.271 50.9296 101.439C50.1784 101.813 49.2582 102 48.3192 102ZM53.4272 97.6625C53.4085 98.2233 53.5962 98.5411 54.0282 98.7841C55.0986 99.345 57.1831 99.0272 58.4601 98.1111C59.2676 97.5316 59.6056 96.8586 59.4742 96.1108C59.4554 96.0173 59.4554 95.9425 59.4554 95.8677C59.4554 95.176 59.9624 94.5404 60.6761 94.4282C61.4836 94.2973 62.2347 94.8208 62.385 95.6247C62.4225 95.8677 62.554 96.6342 63.7934 97.0081C65.277 97.4381 67.3803 96.9707 68.2817 95.9986C68.6761 95.5686 68.7512 95.1573 68.5446 94.6152C68.4695 94.4469 68.4507 94.26 68.4507 94.0917C68.4507 93.4935 68.8075 92.9513 69.3897 92.727C70.1408 92.4278 71.0047 92.8204 71.2864 93.5682C71.4742 94.073 71.7559 94.2973 72.2254 94.3347C73.446 94.4095 75.2488 93.3626 76.0751 91.9979C76.5822 91.1753 76.6573 90.4275 76.2629 89.8105C76.1127 89.5675 76.0376 89.3058 76.0376 89.0254C76.0376 88.5393 76.2817 88.0532 76.7324 87.7915C77.4272 87.3615 78.3286 87.5671 78.7606 88.2589C78.892 88.4645 79.3052 89.1188 80.5446 88.9693C82.1033 88.801 83.8685 87.5671 84.338 86.3146C84.5258 85.7911 84.4507 85.3985 84.0563 84.9872C83.7934 84.7068 83.6432 84.3329 83.6432 83.9777C83.6432 83.5851 83.7934 83.2112 84.0939 82.9121C84.6761 82.3512 85.615 82.3886 86.1784 82.9682C86.5352 83.3421 86.8732 83.4542 87.3239 83.3047C88.507 82.9308 89.7653 81.2295 90.0094 79.6405C90.1596 78.7057 89.9343 78.014 89.3521 77.6027C88.939 77.3223 88.7324 76.8549 88.7324 76.4062C88.7324 76.1071 88.8263 75.8267 88.9953 75.5649C89.4648 74.8919 90.385 74.7424 91.0423 75.2097C91.2488 75.3406 91.8498 75.7706 92.939 75.1723C94.2911 74.4245 95.493 72.555 95.4178 71.2464C95.3991 70.7042 95.1737 70.3864 94.6667 70.1808C94.1221 69.9377 93.784 69.3956 93.784 68.8347C93.784 68.6478 93.8216 68.4421 93.9155 68.2552C94.2347 67.5074 95.1174 67.1709 95.8498 67.5074C96.3193 67.713 96.6573 67.6757 97.0141 67.3765C97.953 66.5913 98.4601 64.4601 98.0845 62.9271C97.8592 62.0298 97.4084 61.5063 96.7324 61.3567C96.0376 61.2072 95.5681 60.5902 95.5681 59.9172C95.5681 59.8237 95.5869 59.7116 95.6056 59.5994C95.7747 58.8142 96.5634 58.2908 97.3521 58.4777C97.5962 58.5338 98.3099 58.6833 99.0986 57.6925C100.075 56.4586 100.451 54.29 99.8873 53.1122C99.662 52.6449 99.3615 52.4579 98.8169 52.4392C98.0094 52.4392 97.3521 51.7662 97.3521 50.981V50.9623C97.3521 50.1584 98.0845 49.6163 98.8357 49.5041C99.3427 49.5602 99.6432 49.3358 99.8498 48.9059C100.413 47.7842 100.056 45.6155 99.0986 44.363C98.554 43.6526 97.9531 43.3534 97.2958 43.4843C96.4883 43.6339 95.7183 43.1104 95.5681 42.3252C95.5493 42.2317 95.5493 42.1383 95.5493 42.0448C95.5493 41.3531 96.0376 40.7361 96.7512 40.6053C96.9953 40.5679 97.7089 40.4183 98.0657 39.1658C98.4789 37.6515 97.9906 35.5015 97.0141 34.6416C96.6385 34.3237 96.3005 34.2677 95.8122 34.4546C95.061 34.7537 94.1972 34.3985 93.8967 33.6694C93.8216 33.4825 93.784 33.2955 93.784 33.1086C93.784 32.529 94.1221 31.9869 94.6854 31.7438C95.1549 31.5569 95.3615 31.2578 95.3991 30.7717C95.4742 29.5004 94.3099 27.6122 92.939 26.8457C91.8122 26.1914 91.1925 26.6214 91.0047 26.7523C90.3286 27.2009 89.4084 27.0327 88.9577 26.3597C88.7887 26.1166 88.7136 25.8175 88.7136 25.5371C88.7136 25.0697 88.939 24.6023 89.3709 24.3219C89.9155 23.948 90.1408 23.3124 90.0094 22.4337C89.784 20.8633 88.5071 19.0873 87.3052 18.6947C86.8545 18.5452 86.5164 18.6386 86.1596 18.9938C85.5962 19.5734 84.6573 19.5921 84.0751 19.0125C83.7747 18.7321 83.6432 18.3395 83.6244 17.9656C83.6244 17.5917 83.7559 17.2178 84.0376 16.9374C84.4131 16.5635 84.4883 16.2083 84.3193 15.7222C83.8873 14.507 82.0657 13.2171 80.507 13.0301C79.2676 12.8806 78.8732 13.4975 78.7418 13.7031C78.2911 14.3762 77.3897 14.5818 76.7136 14.1331C76.2817 13.8527 76.0376 13.3853 76.0376 12.8993C76.0376 12.6188 76.1127 12.3571 76.2817 12.1141C76.6573 11.5345 76.6009 10.8428 76.1315 10.0576C75.3052 8.69288 73.446 7.57118 72.2066 7.66466C71.7371 7.70204 71.4742 7.90769 71.2864 8.39376C70.9859 9.14156 70.1408 9.51546 69.3709 9.21634C68.7887 8.992 68.4319 8.43115 68.4319 7.8516C68.4319 7.68335 68.4695 7.4964 68.5258 7.30945C68.7324 6.80469 68.6573 6.43078 68.2817 6.03819C67.3991 5.06605 65.2394 4.57998 63.7371 5.00996C62.5352 5.36517 62.4038 6.07558 62.3662 6.31861C62.2347 7.1225 61.4648 7.62727 60.6573 7.5151C59.9437 7.38423 59.4366 6.7673 59.4366 6.07558C59.4366 6.0008 59.4366 5.90732 59.4554 5.81385C59.5869 5.12213 59.2488 4.46781 58.4789 3.90696C57.1831 2.95351 55.0798 2.6357 53.9718 3.19655C53.5587 3.42089 53.3897 3.72001 53.4085 4.24347C53.4085 4.26216 53.4085 4.26216 53.4085 4.28086C53.4085 5.06605 52.77 5.72037 51.9812 5.73907C51.1925 5.77646 50.4977 5.12213 50.4789 4.31825C50.4601 3.7574 50.2347 3.42089 49.7277 3.17785C48.507 2.617 46.385 2.9909 45.1643 3.96304C44.1878 4.74823 44.3568 5.47734 44.4131 5.72037C44.4319 5.83254 44.4507 5.94471 44.4507 6.03819C44.4507 6.71121 43.9812 7.30945 43.3052 7.45901C42.5164 7.62727 41.7277 7.1412 41.5399 6.35601C41.3709 5.64559 40.8075 5.15952 39.8685 4.93518C38.3099 4.56128 36.2629 5.06605 35.4742 6.0008C35.1737 6.3747 35.1362 6.71121 35.3615 7.21598C35.4554 7.40293 35.493 7.60857 35.493 7.81422C35.493 8.37507 35.1737 8.91722 34.6103 9.16026C33.8592 9.49677 32.9953 9.16026 32.6573 8.41246C32.4131 7.889 32.0751 7.64596 31.493 7.62726C30.1408 7.57118 28.3568 8.73027 27.6056 10.0763C27.0047 11.198 27.4554 11.8336 27.5869 12.0393C27.7746 12.301 27.8498 12.5814 27.8498 12.8806C27.8498 13.3479 27.6244 13.7966 27.23 14.077C26.5728 14.5444 25.6526 14.3949 25.1831 13.7218C24.7512 13.1049 24.0188 12.8619 23.0423 13.0301C21.4836 13.2732 19.7934 14.507 19.4178 15.6661C19.2676 16.1335 19.3803 16.4887 19.7934 16.8813C20.1315 17.1804 20.2817 17.573 20.2817 17.9469C20.2817 18.3021 20.1502 18.676 19.8685 18.9564C19.3052 19.536 18.385 19.5734 17.784 19.0125C17.3521 18.6012 16.9202 18.5078 16.3756 18.7134C15.1362 19.1621 13.9155 20.9007 13.7465 22.415C13.5962 23.705 14.2911 24.135 14.5164 24.2845C14.9484 24.5649 15.1925 25.0323 15.1925 25.5184C15.1925 25.7801 15.1174 26.0605 14.9671 26.3036C14.5352 26.9953 13.615 27.1823 12.939 26.7523C12.2817 26.341 11.5305 26.3971 10.6854 26.9018C9.35211 27.7057 8.26291 29.4817 8.35681 30.6969C8.39437 31.2017 8.65728 31.5195 9.1831 31.7251C9.76526 31.9495 10.1221 32.5103 10.1221 33.0899C10.1221 33.2581 10.0845 33.4451 10.0282 33.6133C9.7277 34.3611 8.88263 34.735 8.11268 34.4359C7.5493 34.2116 7.11737 34.2864 6.68545 34.6789C5.7277 35.5389 5.25822 37.5954 5.67136 39.0723C6.04695 40.3622 6.85446 40.5118 7.13615 40.5679C7.84977 40.6987 8.33803 41.3157 8.33803 42.0074C8.33803 42.1009 8.33803 42.1757 8.31925 42.2691C8.16901 43.073 7.41784 43.5965 6.61033 43.4469C5.84038 43.316 5.16432 43.6339 4.58216 44.4191C3.64319 45.6529 3.32394 47.7094 3.88732 48.8124C4.13146 49.2798 4.46948 49.5041 5.0892 49.4854H5.10798C5.91549 49.4854 6.57277 50.1397 6.57277 50.9436C6.57277 50.9436 6.57277 50.9436 6.57277 50.9623C6.57277 51.7662 5.91549 52.4205 5.10798 52.4205C4.48826 52.4205 4.13146 52.6449 3.86855 53.1683C3.32394 54.3087 3.66197 56.3652 4.60094 57.5803C5.46479 58.6833 6.29108 58.5151 6.57277 58.459C7.38028 58.2908 8.15024 58.8142 8.31925 59.5994C8.33803 59.6929 8.35681 59.805 8.35681 59.8985C8.35681 60.5715 7.86855 61.1885 7.17371 61.338C6.42254 61.4876 5.91549 62.0298 5.67136 62.9645C5.277 64.4601 5.76526 66.4792 6.70423 67.3018C7.11737 67.657 7.53052 67.7317 8.11268 67.4887C8.86385 67.1709 9.7277 67.5261 10.0469 68.2739C10.1221 68.4608 10.1596 68.6478 10.1596 68.8347C10.1596 69.4143 9.8216 69.9564 9.25822 70.1808C8.69484 70.4051 8.43193 70.7416 8.39437 71.3025C8.31925 72.555 9.40845 74.3124 10.7418 75.0976C11.5681 75.5836 12.3193 75.6023 12.9577 75.191C13.6338 74.7424 14.554 74.9293 15.0047 75.6023C15.1737 75.8454 15.2488 76.1258 15.2488 76.4062C15.2488 76.8736 15.0235 77.341 14.5915 77.6214C14.3662 77.771 13.6338 78.2383 13.8216 79.6218C14.0094 81.1361 15.23 82.8373 16.4319 83.2673C16.9765 83.4542 17.3897 83.3608 17.8404 82.9308C18.4225 82.3699 19.3615 82.3699 19.9249 82.9495C20.2066 83.2299 20.338 83.6038 20.338 83.9777C20.338 84.3516 20.1878 84.7442 19.8873 85.0246C19.4554 85.4359 19.3427 85.8285 19.5117 86.3333C19.8873 87.4924 21.5775 88.7262 23.1174 88.9506C24.0939 89.0814 24.8075 88.8384 25.2394 88.2028C25.7089 87.5298 26.6103 87.3802 27.2864 87.8289C27.6995 88.1093 27.9249 88.5767 27.9249 89.0441C27.9249 89.3245 27.8498 89.6236 27.662 89.8666C27.5117 90.091 27.0235 90.7827 27.6995 91.9605C28.4507 93.3065 30.2535 94.4095 31.5305 94.3534C32.1127 94.3347 32.4695 94.073 32.7136 93.5122C33.0329 92.7644 33.8967 92.4278 34.6479 92.7457C35.1925 92.9887 35.5305 93.5309 35.5305 94.0917C35.5305 94.2787 35.493 94.4843 35.3991 94.6712C35.1737 95.1947 35.2113 95.5873 35.5493 95.9799C36.338 96.9146 38.3662 97.4007 39.8873 97.0268C40.8451 96.7838 41.4272 96.2977 41.5962 95.5499C41.7653 94.7647 42.554 94.26 43.3615 94.4282C44.0563 94.5778 44.507 95.1947 44.507 95.8677C44.507 95.9799 44.4883 96.0734 44.4695 96.1855C44.4131 96.4473 44.2441 97.2325 45.2582 98.055C46.4601 99.0085 48.5634 99.3824 49.7465 98.8215C50.2723 98.5785 50.5164 98.2233 50.5164 97.6064C50.5352 96.8025 51.2301 96.2416 52.0188 96.1668C52.8263 96.1855 53.446 96.8399 53.4648 97.6251C53.4272 97.6438 53.4272 97.6438 53.4272 97.6625Z" fill="#39B54A"/>
<path d="M48.6197 97.9056C47.0047 97.9056 45.277 97.3634 44 96.3352C43.6244 96.0361 43.3052 95.6995 43.0422 95.3443C42.5915 95.6061 42.0845 95.8117 41.5211 95.9426C39.061 96.5408 36.1315 95.7369 34.7042 94.0731C34.5352 93.8674 34.3662 93.6431 34.2535 93.4188C33.953 93.4935 33.6338 93.5496 33.3146 93.5683C31.0423 93.6618 28.4131 92.1101 27.1925 89.9228C26.9484 89.4928 26.7793 89.0441 26.6667 88.5954C26.1596 88.6702 25.615 88.6702 25.0704 88.5954C22.5728 88.2402 20.169 86.3894 19.4742 84.2956C19.3803 84.0152 19.3239 83.7534 19.2864 83.473C18.9859 83.4356 18.6854 83.3608 18.385 83.2674C16.2629 82.5383 14.4225 80.1079 14.1221 77.6215C14.0657 77.098 14.0657 76.5932 14.1408 76.1259C13.6338 75.995 13.1455 75.8081 12.6761 75.5276C10.4977 74.2751 8.97653 71.6578 9.12676 69.4331C9.14554 69.1339 9.20188 68.8348 9.27699 68.5544C9.01408 68.4235 8.76995 68.2553 8.5446 68.0496C6.87324 66.5914 6.08451 63.6563 6.723 61.2446C6.85446 60.7212 7.06103 60.2351 7.32394 59.8051C6.92958 59.5247 6.57277 59.1695 6.25352 58.7582C4.71361 56.7952 4.28169 53.7853 5.25822 51.7663C5.38967 51.4858 5.55868 51.2241 5.74648 50.9811C5.57746 50.7754 5.42723 50.5324 5.29577 50.2707C4.30047 48.3077 4.67606 45.2978 6.19718 43.2974C6.53521 42.8487 6.9108 42.4561 7.32394 42.157C7.07981 41.7644 6.89202 41.3344 6.76056 40.8484C6.06573 38.4367 6.8169 35.4829 8.50704 33.9686C8.75117 33.7443 9.01408 33.5573 9.27699 33.4078C9.20188 33.1647 9.16432 32.903 9.12676 32.6226C8.93897 30.4353 10.4413 27.7993 12.6009 26.4906C13.0892 26.1915 13.5962 25.9858 14.1033 25.855C14.0282 25.425 14.0282 24.9576 14.0845 24.4715C14.3474 21.9851 16.1878 19.5174 18.3286 18.7322C18.6479 18.62 18.9484 18.5452 19.2676 18.5078C19.2864 18.2648 19.3427 18.0218 19.4178 17.76C20.0751 15.6662 22.4601 13.7967 24.9953 13.4041C25.5775 13.3106 26.1221 13.3106 26.6479 13.3667C26.7418 12.9554 26.9108 12.5254 27.1361 12.1141C28.338 9.90812 30.9859 8.30035 33.2958 8.39382C33.615 8.41252 33.9343 8.44991 34.2347 8.52469C34.3474 8.31904 34.4977 8.1134 34.6479 7.92645C36.0563 6.2439 39.0047 5.42132 41.5023 6.01956C42.0657 6.15042 42.5728 6.35607 43.0235 6.6178C43.2676 6.28129 43.5869 5.96347 43.9437 5.66435C45.8779 4.09397 49.0329 3.6266 51.0986 4.58004C51.3803 4.71091 51.662 4.87916 51.9061 5.04742C52.0939 4.89786 52.3005 4.76699 52.5258 4.65482C54.4976 3.6266 57.5399 4.0005 59.6244 5.51479C60.0751 5.8513 60.4507 6.20651 60.77 6.6178C61.1268 6.39346 61.5399 6.2252 61.9906 6.09434C64.4131 5.40262 67.493 6.15042 69.0329 7.83297C69.2394 8.05731 69.4084 8.30035 69.5587 8.54339C69.784 8.4873 70.0282 8.43121 70.2911 8.41252C72.5258 8.22557 75.2113 9.75856 76.5446 11.9646C76.8263 12.4319 77.0329 12.8993 77.1455 13.3667C77.5775 13.3106 78.0282 13.3106 78.4977 13.3667C81.0141 13.6658 83.5681 15.554 84.3193 17.6852C84.4131 17.9657 84.4883 18.2274 84.5258 18.5078C84.77 18.5452 85.0141 18.6013 85.277 18.6761C87.3991 19.3678 89.3146 21.8916 89.6714 24.3968C89.7465 24.9015 89.7465 25.3876 89.6901 25.855C90.1221 25.9671 90.554 26.1541 90.9859 26.3971C93.1831 27.6497 94.7981 30.3979 94.6667 32.6226C94.6479 32.903 94.6103 33.1647 94.5352 33.4078C94.7606 33.5386 94.9859 33.6882 95.1925 33.8751C96.8826 35.352 97.6901 38.4367 97.0141 40.8671C96.8826 41.3344 96.7136 41.7644 96.4883 42.157C96.8638 42.4374 97.2019 42.7927 97.5211 43.2039C99.061 45.223 99.4742 48.3638 98.4789 50.3454C98.3662 50.5698 98.216 50.7941 98.0657 50.9998C98.2347 51.2241 98.385 51.4671 98.4977 51.7289C99.4742 53.7666 99.0047 56.9074 97.446 58.8891C97.1455 59.263 96.8263 59.5808 96.4883 59.8425C96.7324 60.2725 96.9202 60.7399 97.0516 61.2633C97.6714 63.7685 96.8638 66.741 95.1549 68.1805C94.9671 68.3487 94.7606 68.4796 94.554 68.6105C94.6291 68.8909 94.6667 69.19 94.6854 69.4891C94.7793 71.7512 93.1455 74.4807 90.9296 75.6772C90.5164 75.9015 90.1033 76.0698 89.6901 76.1633C89.7465 76.668 89.7465 77.1915 89.6526 77.7523C89.2582 80.2949 87.3615 82.7065 85.2394 83.3608C84.9953 83.4356 84.77 83.4917 84.5258 83.5104C84.4883 83.8095 84.4131 84.1086 84.3005 84.4078C83.5117 86.539 80.9577 88.4085 78.4601 88.6702C78.0094 88.7076 77.5587 88.7076 77.1455 88.6515C77.0141 89.1563 76.7887 89.6424 76.4883 90.1284C75.1361 92.3158 72.4695 93.774 70.2911 93.6057C70.0469 93.587 69.8028 93.5309 69.5587 93.4748C69.4084 93.7366 69.2207 93.9983 68.9953 94.2413C67.4366 95.9239 64.4131 96.653 62.0094 95.9426C61.5587 95.8117 61.1455 95.6248 60.77 95.4004C60.4507 95.8117 60.0563 96.2043 59.5869 96.5408C57.5211 98.0364 54.4976 98.4103 52.5446 97.3821C52.3192 97.2512 52.0939 97.1204 51.9061 96.9708C51.662 97.1578 51.3803 97.326 51.0798 97.4569C50.3474 97.756 49.5023 97.9056 48.6197 97.9056ZM53.4272 93.83C53.4084 94.3722 53.615 94.5779 53.9155 94.7461C54.8732 95.2509 56.7136 94.9517 57.8592 94.1292C58.554 93.6244 58.8545 93.0449 58.7418 92.4092C58.723 92.3158 58.723 92.241 58.723 92.1662C58.723 91.4745 59.23 90.8388 59.9437 90.7267C60.7512 90.5958 61.5023 91.1193 61.6526 91.9231C61.6901 92.1288 61.8028 92.7831 62.8545 93.1009C64.1878 93.4935 66.0469 93.0823 66.8545 92.2223C67.1737 91.8671 67.2488 91.5306 67.061 91.0819C66.9859 90.9136 66.9671 90.7267 66.9671 90.5584C66.9671 89.9602 67.3239 89.418 67.9061 89.1937C68.6573 88.9133 69.5211 89.2872 69.8028 90.035C69.9906 90.521 70.2535 90.6332 70.5728 90.6706C71.662 90.7641 73.2582 89.7919 73.9906 88.5768C74.4413 87.8476 74.4977 87.2307 74.1596 86.6886C74.0094 86.4455 73.9343 86.1838 73.9343 85.9034C73.9343 85.4173 74.1784 84.9312 74.6291 84.6695C75.3239 84.2395 76.2254 84.4452 76.6573 85.1369C76.7887 85.3238 77.108 85.8473 78.1784 85.7351C79.5493 85.5855 81.1455 84.4638 81.5587 83.3795C81.7277 82.9495 81.6526 82.6317 81.3333 82.2765C81.0704 81.9961 80.9202 81.6222 80.9202 81.267C80.9202 80.8744 81.0704 80.5005 81.3709 80.2014C81.9531 79.6405 82.892 79.6779 83.4554 80.2575C83.7934 80.6127 84.0751 80.6314 84.3756 80.5379C85.2958 80.2575 86.5164 78.7993 86.7606 77.2663C86.892 76.4437 86.7042 75.8641 86.1972 75.5089C85.784 75.2285 85.5775 74.7611 85.5775 74.3125C85.5775 74.0133 85.6714 73.7329 85.8404 73.4712C86.3099 72.8168 87.23 72.6486 87.8873 73.116C88.0563 73.2281 88.5634 73.5833 89.5023 73.0786C90.723 72.4243 91.7746 70.7604 91.7183 69.6013C91.6995 69.1526 91.5305 68.9096 91.0986 68.7226C90.554 68.4796 90.216 67.9375 90.216 67.3766C90.216 67.1897 90.2535 66.984 90.3474 66.7971C90.6667 66.0493 91.5493 65.7127 92.2817 66.0493C92.7324 66.2362 92.9765 66.1427 93.2207 65.9371C93.9718 65.3015 94.5352 63.4693 94.1596 61.9737C93.9718 61.2072 93.5775 60.7399 93.0141 60.6277C92.3192 60.4781 91.8498 59.8612 91.8498 59.1882C91.8498 59.0947 91.8685 58.9825 91.8873 58.8704C92.0563 58.0852 92.8451 57.5804 93.6338 57.7487C93.8216 57.7861 94.4413 57.9169 95.1174 57.0756C95.9812 55.9913 96.3192 54.0471 95.831 53.0001C95.6432 52.6075 95.3991 52.458 94.9671 52.458C94.1596 52.458 93.5024 51.785 93.5024 50.9998V50.9811C93.5024 50.1772 94.1596 49.5229 94.9671 49.5229C94.9859 49.5229 94.9859 49.5229 95.0047 49.5229C95.4178 49.5229 95.6432 49.392 95.8122 49.0368C96.3192 48.046 96 46.1204 95.1361 44.98C94.4413 44.0639 93.8028 44.1761 93.5962 44.2135C92.7887 44.363 92.0188 43.8396 91.8685 43.0544C91.8498 42.9609 91.8498 42.8674 91.8498 42.774C91.8498 42.0822 92.338 41.4653 93.0516 41.3344C93.2582 41.2971 93.8592 41.1849 94.1596 40.1006C94.5352 38.7358 94.0845 36.8289 93.2394 36.0811C92.939 35.8194 92.6573 35.7633 92.2629 35.9316C91.5117 36.2307 90.6479 35.8755 90.3474 35.1464C90.2723 34.9594 90.2347 34.7725 90.2347 34.5855C90.2347 34.006 90.5728 33.4638 91.1361 33.2208C91.5305 33.0526 91.6995 32.8282 91.7183 32.4356C91.7934 31.2952 90.7418 29.6314 89.5211 28.9396C88.5446 28.3788 88.0376 28.734 87.8685 28.8462C87.1925 29.2949 86.2723 29.1266 85.8216 28.4536C85.6526 28.2105 85.5775 27.9114 85.5775 27.631C85.5775 27.1636 85.8028 26.6962 86.2347 26.4158C86.4037 26.3036 86.9296 25.9484 86.7793 24.8081C86.5915 23.4059 85.446 21.8168 84.3756 21.4616C84 21.3495 83.7371 21.4056 83.4554 21.7047C82.892 22.2842 81.9531 22.3029 81.3709 21.7234C81.0704 21.4429 80.9202 21.0504 80.9202 20.6765C80.9202 20.3026 81.0516 19.9287 81.3333 19.6482C81.6338 19.3304 81.7089 19.0687 81.5587 18.6574C81.1831 17.5731 79.5493 16.4327 78.1596 16.2644C77.0704 16.1523 76.7512 16.657 76.6385 16.8253C76.1878 17.4983 75.2864 17.7039 74.6103 17.2553C74.1784 16.9748 73.9343 16.5075 73.9343 16.0214C73.9343 15.741 74.0094 15.4792 74.1784 15.2362C74.4977 14.7501 74.4413 14.1519 74.0282 13.4789C73.2958 12.2637 71.6244 11.2729 70.554 11.3289C70.2347 11.3476 69.9906 11.4598 69.8028 11.9272C69.5023 12.675 68.6573 13.0489 67.8873 12.7498C67.3052 12.5254 66.9484 11.9646 66.9484 11.385C66.9484 11.2168 66.9859 11.0298 67.0423 10.8429C67.2113 10.4316 67.1549 10.1138 66.8545 9.79595C66.0657 8.93598 64.1315 8.506 62.8169 8.89859C61.784 9.19771 61.6714 9.81465 61.6526 10.0016C61.5211 10.8055 60.7512 11.3289 59.9437 11.1981C59.23 11.0672 58.723 10.4503 58.723 9.75856C58.723 9.68378 58.723 9.59031 58.7418 9.49683C58.8545 8.89859 58.554 8.35643 57.8967 7.87036C56.6573 6.95431 54.7606 6.78605 53.8967 7.23473C53.615 7.38429 53.4272 7.58994 53.446 8.07601C53.446 8.0947 53.446 8.0947 53.446 8.1134C53.446 8.89859 52.8075 9.55292 52.0188 9.57161C51.1925 9.53422 50.5352 8.95468 50.5164 8.13209C50.4976 7.66472 50.3286 7.38429 49.8967 7.19734C48.8451 6.71127 46.892 7.04778 45.8404 7.90775C44.9953 8.58077 45.1455 9.17902 45.1831 9.40336C45.2019 9.51553 45.2207 9.6277 45.2207 9.72117C45.2207 10.3942 44.7512 10.9924 44.0751 11.142C43.2864 11.3102 42.4977 10.8242 42.3099 10.039C42.1784 9.42205 41.6901 9.02945 40.8638 8.82381C39.4742 8.4873 37.6526 8.93598 36.9577 9.75856C36.7512 10.0016 36.6573 10.2633 36.8638 10.7494C36.9577 10.9363 36.9953 11.142 36.9953 11.3476C36.9953 11.9085 36.6761 12.4506 36.1127 12.6937C35.3615 13.0302 34.4977 12.6937 34.1596 11.9459C33.9531 11.4972 33.6714 11.3102 33.2019 11.2916C32.0188 11.1981 30.4038 12.2637 29.7465 13.4789C29.2207 14.4323 29.5962 14.9745 29.7277 15.1427C29.9155 15.4045 29.9906 15.7036 29.9906 15.984C29.9906 16.4514 29.784 16.9001 29.3709 17.1805C28.7136 17.6479 27.7934 17.4983 27.3239 16.8253C26.9484 16.3018 26.3286 16.0962 25.4836 16.227C24.0939 16.4514 22.5728 17.5357 22.2535 18.5639C22.1596 18.8817 22.1596 19.1808 22.554 19.5547C22.8545 19.8352 23.0047 20.2278 23.0047 20.6204C23.0047 20.9756 22.8732 21.3495 22.5915 21.6299C22.0282 22.2094 21.0892 22.2281 20.507 21.686C20.1315 21.3308 19.8122 21.2747 19.3427 21.4243C18.2535 21.8168 17.1643 23.3685 17.0141 24.7333C16.9014 25.8924 17.4648 26.2663 17.6526 26.3784C18.0845 26.6589 18.3286 27.1262 18.3286 27.6123C18.3286 27.874 18.2535 28.1545 18.1033 28.3975C17.6714 29.0892 16.7512 29.2762 16.0751 28.8462C15.5117 28.491 14.8732 28.5471 14.1221 28.977C12.9202 29.7061 11.9624 31.2765 12.0563 32.3421C12.0751 32.6413 12.1878 32.9591 12.7324 33.1834C13.3146 33.4078 13.6714 33.9686 13.6714 34.5482C13.6714 34.7164 13.6338 34.9034 13.5775 35.0716C13.277 35.8194 12.4319 36.1933 11.662 35.8942C11.1737 35.7072 10.8357 35.7633 10.4789 36.0811C9.6338 36.8476 9.22066 38.6797 9.59624 39.9884C9.91549 41.1101 10.6103 41.2223 10.8357 41.2784C11.5493 41.4092 12.0376 42.0262 12.0376 42.7179C12.0376 42.8114 12.0376 42.8861 12.0188 42.9796C11.8685 43.7835 11.1174 44.307 10.3099 44.1574C9.65258 44.0452 9.07042 44.3256 8.56338 44.9987C7.73709 46.1017 7.43662 47.9338 7.92488 48.9059C8.13145 49.2985 8.37559 49.4855 8.92019 49.4481H8.93897C9.74648 49.4481 10.4038 50.1024 10.4038 50.9063C10.4038 50.9063 10.4038 50.9063 10.4038 50.925C10.4038 51.7289 9.74648 52.3832 8.93897 52.3832C8.41315 52.3832 8.11268 52.5701 7.9061 53.0001C7.41784 54.0097 7.71831 55.8418 8.56338 56.9261C9.29577 57.8795 10.0282 57.73 10.2535 57.6739C11.061 57.5056 11.831 58.0291 12 58.8143C12.0188 58.9078 12.0376 59.0199 12.0376 59.1134C12.0376 59.7864 11.5493 60.4034 10.8545 60.5529C10.6103 60.609 9.87793 60.7586 9.55868 61.955C9.20188 63.2824 9.6338 65.0771 10.4601 65.8062C10.8169 66.1053 11.1361 66.1427 11.6244 65.9558C12.3756 65.638 13.2394 65.9932 13.5399 66.741C13.615 66.9279 13.6526 67.1149 13.6526 67.3018C13.6526 67.8814 13.3146 68.4235 12.7512 68.6479C12.2817 68.8348 12.0751 69.1152 12.0376 69.5639C11.9624 70.6669 12.939 72.2373 14.1408 72.929C15.2113 73.546 15.831 73.1347 16.0376 73.0038C16.7136 72.5551 17.6338 72.7421 18.0845 73.4151C18.2535 73.6581 18.3286 73.9386 18.3286 74.219C18.3286 74.6864 18.1033 75.1537 17.6714 75.4342C17.4648 75.565 16.8638 75.9576 17.0141 77.1728C17.1831 78.5188 18.2723 80.0331 19.3239 80.407C19.7746 80.5566 20.1127 80.4818 20.4883 80.1266C21.0704 79.5658 22.0094 79.5658 22.5728 80.1453C22.8545 80.4257 22.9859 80.7996 22.9859 81.1735C22.9859 81.5474 22.8357 81.94 22.5352 82.2204C22.1784 82.5756 22.0845 82.8935 22.216 83.3048C22.554 84.333 24.0563 85.4173 25.4272 85.6229C26.2723 85.7351 26.8732 85.5295 27.2488 84.9873C27.7183 84.3143 28.6197 84.146 29.2958 84.6134C29.7089 84.8938 29.9343 85.3612 29.9343 85.8286C29.9343 86.109 29.8592 86.4081 29.6714 86.6512C29.5399 86.8381 29.1455 87.4177 29.7089 88.4459C30.3662 89.6424 32 90.6145 33.108 90.5771C33.5962 90.5584 33.8779 90.3528 34.0845 89.8854C34.4038 89.1376 35.2676 88.8011 36.0188 89.1189C36.5634 89.3619 36.9014 89.9041 36.9014 90.4649C36.9014 90.6519 36.8638 90.8575 36.7699 91.0445C36.5258 91.5866 36.6761 91.8858 36.8826 92.1288C37.5775 92.9514 39.3803 93.3814 40.7512 93.0449C41.5775 92.8392 42.0845 92.4092 42.216 91.7736C42.385 90.9884 43.1737 90.4836 43.9812 90.6519C44.6761 90.8015 45.1268 91.4184 45.1268 92.0914C45.1268 92.2036 45.108 92.2971 45.0892 92.4092C45.0329 92.6336 44.9014 93.2879 45.7653 93.9983C46.8357 94.8583 48.6948 95.1761 49.7653 94.69C50.216 94.4844 50.4038 94.2039 50.4038 93.6805C50.4225 92.8766 51.1361 92.2784 51.9061 92.241C52.7136 92.2597 53.3333 92.914 53.3521 93.6992C53.4272 93.7927 53.4272 93.8113 53.4272 93.83Z" fill="#007B35"/>
<path d="M34.4601 67.9185V82.9119H31.23V71.5453C31.061 71.6948 30.8357 71.8444 30.5915 71.994C30.3474 72.1435 30.0845 72.2557 29.8216 72.3679C29.5399 72.48 29.2582 72.5735 28.9765 72.6483C28.6761 72.7231 28.3944 72.7792 28.0939 72.8166V70.1058C28.939 69.8627 29.7277 69.5449 30.4789 69.171C31.23 68.7971 31.9061 68.3671 32.507 67.9185H34.4601Z" fill="#C7DA3C"/>
<path d="M42.723 83.1735C39.2113 83.1735 37.4648 80.7245 37.4648 75.8077C37.4648 73.2652 37.9343 71.3209 38.892 69.9935C39.8498 68.6662 41.2207 67.9932 43.0235 67.9932C46.4413 67.9932 48.169 70.4796 48.169 75.4712C48.169 77.9576 47.6995 79.8645 46.7606 81.1731C45.8216 82.5005 44.4695 83.1735 42.723 83.1735ZM42.8732 70.4609C41.4648 70.4609 40.7699 72.2182 40.7699 75.7329C40.7699 79.0419 41.4648 80.6871 42.8357 80.6871C44.1878 80.6871 44.8451 78.9858 44.8451 75.5646C44.8451 72.1621 44.1878 70.4609 42.8732 70.4609Z" fill="#C7DA3C"/>
<path d="M54.8357 83.1735C51.3239 83.1735 49.5775 80.7245 49.5775 75.8077C49.5775 73.2652 50.047 71.3209 51.0047 69.9935C51.9624 68.6662 53.3333 67.9932 55.1362 67.9932C58.554 67.9932 60.2817 70.4796 60.2817 75.4712C60.2817 77.9576 59.8122 79.8645 58.8732 81.1731C57.9155 82.5005 56.5822 83.1735 54.8357 83.1735ZM54.9859 70.4609C53.5775 70.4609 52.8826 72.2182 52.8826 75.7329C52.8826 79.0419 53.5775 80.6871 54.9484 80.6871C56.3005 80.6871 56.9577 78.9858 56.9577 75.5646C56.9577 72.1621 56.3005 70.4609 54.9859 70.4609Z" fill="#C7DA3C"/>
<path d="M65.3897 75.6769C64.338 75.6769 63.493 75.3404 62.8545 74.686C62.216 74.0317 61.8967 73.1344 61.8967 72.0127C61.8967 70.7975 62.2347 69.8253 62.9108 69.1149C63.5869 68.4045 64.507 68.0493 65.6338 68.0493C66.723 68.0493 67.5681 68.3671 68.1878 69.0215C68.8075 69.6758 69.108 70.5731 69.108 71.7509C69.108 72.9661 68.7699 73.9195 68.0939 74.63C67.4178 75.3217 66.5164 75.6769 65.3897 75.6769ZM76.1502 68.2363L66.554 82.9119H64.0376L73.615 68.2363H76.1502ZM65.5775 69.844C64.5822 69.844 64.0751 70.5358 64.0751 71.9192C64.0751 73.2278 64.5446 73.8822 65.5023 73.8822C66.4789 73.8822 66.9671 73.1904 66.9671 71.8257C66.9671 70.4984 66.5164 69.844 65.5775 69.844ZM74.5728 83.1175C73.5211 83.1175 72.6761 82.781 72.0376 82.1267C71.3991 81.4723 71.0798 80.575 71.0798 79.4533C71.0798 78.2381 71.4178 77.266 72.0939 76.5556C72.77 75.8451 73.6901 75.4899 74.8169 75.4899C75.9061 75.4899 76.77 75.8077 77.3709 76.4434C77.9718 77.079 78.2911 77.9951 78.2911 79.1728C78.2911 80.388 77.9531 81.3415 77.277 82.0519C76.6009 82.7623 75.6995 83.1175 74.5728 83.1175ZM74.7418 77.2847C73.7465 77.2847 73.2582 77.9764 73.2582 79.3598C73.2582 80.6685 73.7465 81.3228 74.7042 81.3228C75.6807 81.3228 76.169 80.6498 76.169 79.285C76.169 78.6494 76.0376 78.1633 75.7746 77.8081C75.5117 77.4529 75.1549 77.2847 74.7418 77.2847Z" fill="#C7DA3C"/>
<path d="M104 48.0273H0V63.9742H104V48.0273Z" fill="#C7DA3C"/>
<path d="M58.3099 17.4236C58.3099 23.6303 52.0939 28.6406 52.0939 28.6406C52.0939 28.6406 45.8779 23.6116 45.8779 17.4236C45.8779 11.2168 52.0939 6.20654 52.0939 6.20654C52.0939 6.20654 58.3099 11.2168 58.3099 17.4236Z" fill="#C7DA3C"/>
<path d="M38.4601 23.3872C45.3897 23.3872 51.0235 30.267 51.0235 30.267C51.0235 30.267 45.4085 37.1467 38.4601 37.1467C31.5305 37.1467 25.8967 30.267 25.8967 30.267C25.8967 30.267 31.5305 23.3872 38.4601 23.3872Z" fill="#75AF43"/>
<path d="M66.4413 36.9223C62.6855 36.9223 59.7559 34.118 57.0141 33.0524C52.6197 31.3138 51.7747 58.8515 51.7747 58.8889C51.5305 53.2991 51.5305 44.6059 51.7747 36.3801C51.9812 29.2947 58.4601 23.144 66.4413 23.144C73.3709 23.144 79.0047 30.0238 79.0047 30.0238C79.0047 30.0238 73.3897 36.9223 66.4413 36.9223Z" fill="#75AF43"/>
<path d="M18.4977 60.3845H16.507V56.8138H12.8638V60.3845H10.892V51.6353H12.8638V55.1312H16.507V51.6353H18.4977V60.3845Z" fill="#006838"/>
<path d="M28.2253 60.3845H26.0657L25.446 58.4402H22.3286L21.7089 60.3845H19.5681L22.7606 51.6353H25.108L28.2253 60.3845ZM24.9953 56.9259L24.0563 53.9908C23.9812 53.7665 23.9437 53.5048 23.9061 53.2056H23.8498C23.831 53.4674 23.7746 53.7104 23.6995 53.9721L22.7418 56.9446H24.9953V56.9259Z" fill="#006838"/>
<path d="M34.7793 53.243H32.2817V60.3845H30.2911V53.243H27.7934V51.6353H34.7793V53.243Z" fill="#006838"/>
<path d="M42.723 51.6353L39.9812 57.6364C39.4742 58.7581 38.9859 59.5246 38.5164 59.9358C38.0657 60.3471 37.4836 60.5528 36.7699 60.5528C36.3005 60.5528 35.9249 60.478 35.6244 60.3471V58.5524C35.9624 58.7767 36.3005 58.8702 36.6573 58.8702C37.1455 58.8702 37.5775 58.4776 37.953 57.6737L35.061 51.6539H37.3146L38.7793 55.1499C38.8732 55.3556 38.9296 55.5986 38.9859 55.8603H39.0047C39.0422 55.636 39.1174 55.4116 39.2113 55.1686L40.6197 51.6353H42.723Z" fill="#006838"/>
<path d="M45.6526 57.3746V60.3845H43.6807V51.6353H46.7793C48.9953 51.6353 50.1033 52.57 50.1033 54.4208C50.1033 55.2995 49.784 56.0099 49.1455 56.552C48.507 57.0942 47.662 57.3746 46.5915 57.3746H45.6526ZM45.6526 53.1495V55.879H46.4225C47.4742 55.879 48 55.4116 48 54.4956C48 53.5982 47.4742 53.1495 46.4225 53.1495H45.6526Z" fill="#006838"/>
<path d="M58.3286 60.3845H56.169L55.5493 58.4402H52.4319L51.8122 60.3845H49.6714L52.8638 51.6353H55.2113L58.3286 60.3845ZM55.0798 56.9259L54.1408 53.9908C54.0657 53.7665 54.0282 53.5048 53.9906 53.2056H53.9343C53.9155 53.4674 53.8592 53.7104 53.784 53.9721L52.8263 56.9446H55.0798V56.9259Z" fill="#006838"/>
<path d="M67.0423 60.3844H65.0704V53.2803H63.3052C62.8357 56.6267 62.385 58.6644 61.9718 59.4122C61.5587 60.1413 60.939 60.5152 60.0939 60.5152C59.7371 60.5152 59.3803 60.4592 59.0235 60.347V58.7766C59.2676 58.8514 59.4554 58.9075 59.6432 58.9075C59.8122 58.9075 59.9624 58.8514 60.0939 58.7392C60.2254 58.627 60.3568 58.3466 60.5258 57.8979C60.6761 57.4493 60.8638 56.6641 61.0892 55.5424C61.3146 54.4207 61.5211 53.1307 61.7089 51.6538H67.0423V60.3844Z" fill="#006838"/>
<path d="M69.0517 60.3845V51.6353H71.0235V54.9069H72.3193C74.4413 54.9069 75.493 55.7669 75.493 57.4868C75.493 58.4028 75.2113 59.1133 74.6291 59.618C74.0657 60.1228 73.2582 60.3845 72.2066 60.3845H69.0517ZM71.0235 56.4025V58.8889H71.9249C72.9202 58.8889 73.4272 58.4589 73.4272 57.6177C73.4272 56.8138 72.939 56.4025 71.9624 56.4025H71.0235Z" fill="#006838"/>
<path d="M84.4695 60.3845H82.4789V56.8138H78.8357V60.3845H76.8639V51.6353H78.8357V55.1312H82.4789V51.6353H84.4695V60.3845Z" fill="#006838"/>
<path d="M90.1784 60.5339C88.9202 60.5339 87.8873 60.1227 87.0986 59.3188C86.3099 58.4962 85.9155 57.4493 85.9155 56.1406C85.9155 54.7572 86.3099 53.6355 87.1174 52.7942C87.9249 51.9342 88.9953 51.5229 90.3099 51.5229C91.5681 51.5229 92.5822 51.9342 93.3521 52.7568C94.1221 53.5794 94.5164 54.645 94.5164 55.9911C94.5164 57.3745 94.1221 58.4775 93.3145 59.3188C92.5258 60.1227 91.4742 60.5339 90.1784 60.5339ZM90.2723 53.1868C89.5775 53.1868 89.0329 53.4485 88.6197 53.972C88.2066 54.4955 88 55.1685 88 56.0284C88 56.8884 88.2066 57.5801 88.6197 58.0849C89.0329 58.5897 89.5587 58.8327 90.216 58.8327C90.892 58.8327 91.4366 58.5897 91.831 58.1036C92.2254 57.6175 92.4319 56.9258 92.4319 56.0658C92.4319 55.1685 92.2441 54.4581 91.8498 53.9533C91.4742 53.4298 90.9484 53.1868 90.2723 53.1868Z" fill="#006838"/>
</g>
<defs>
<clipPath id="clip0">
<rect width="104" height="102" fill="white"/>
</clipPath>
</defs>
</svg>
