<svg width="374" height="280" viewBox="0 0 374 280" fill="none" xmlns="http://www.w3.org/2000/svg">
<g clip-path="url(#clip0)">
<path d="M106.855 54.966C101.207 45.7798 94.4574 38.1453 86.4952 30.7854C80.1724 24.9496 71.9898 19.0452 63.518 16.9169C59.4681 15.9008 57.8012 22.2034 61.8787 23.1783C65.7909 24.112 70.323 26.9132 73.9184 28.6708C78.354 30.8403 82.1973 33.8474 85.8891 37.1978C92.5839 43.2807 98.3696 50.2974 105.243 56.2155C106.07 56.9158 107.503 56.0096 106.855 54.966Z" fill="white"/>
<path d="M62.1267 104.398C59.3028 103.835 56.7681 102.448 53.9442 101.927C51.2167 101.419 48.3652 101.597 45.5963 101.473C38.7224 101.158 31.7383 101.007 24.9333 102.325C18.8997 103.492 12.6871 104.7 6.70858 106.169C3.04435 107.076 -0.192854 108.518 0.013776 112.788C0.110203 114.751 2.34181 116.44 4.20147 115.218C10.2764 111.25 19.8089 110.055 27.3027 108.463C38.8051 106.018 50.1973 106.897 61.7961 106.98C63.2701 107.007 63.6282 104.7 62.1267 104.398Z" fill="white"/>
<path d="M132.684 27.7783C130.204 18.4685 126.223 9.07639 120.383 1.3732C117.917 -1.86736 112.31 1.26335 114.79 4.53137C120.548 12.1247 124.584 20.9264 127.559 29.9478C129.887 37.0194 133.621 44.036 135.522 51.2174C135.935 52.7965 138.607 52.5631 138.442 50.8467C137.684 42.8002 134.723 35.4677 132.684 27.7783Z" fill="white"/>
<path d="M234.236 12.9209C228.147 11.6577 224.772 22.9859 222.664 27.1876C218.711 35.0968 213.256 42.9922 215.239 51.9999C215.57 53.4691 218.022 53.5653 218.27 51.9999C219.4 45.0107 222.912 39.3947 226.067 33.2568C228.877 27.8055 230.709 20.2809 234.979 15.7221C235.82 14.8433 235.544 13.1818 234.236 12.9209Z" fill="white"/>
<path d="M282.491 13.4017C271.057 17.0131 261.676 26.6386 253.177 34.6851C249.113 38.5298 245.008 42.5393 241.564 46.9608C239.002 50.2425 234.966 53.538 234.594 57.7809C234.373 60.28 237.776 60.6645 238.947 58.9206C241.564 55.021 245.614 50.9016 248.837 47.4414C251.785 44.2832 255.078 41.3035 258.232 38.3788C266.484 30.7442 274.873 24.3867 284.791 19.0453C287.835 17.425 285.852 12.3444 282.491 13.4017Z" fill="white"/>
<path d="M293.69 53.0849C291.775 52.0276 290.095 54.4854 288.758 55.529C286.458 57.3141 284.791 59.7445 282.973 61.9827C281.568 63.6991 283.689 65.8274 285.411 64.4131C287.422 62.7791 289.406 61.1176 291.417 59.4836C292.877 58.3027 294.64 56.9296 294.778 54.9386C294.819 54.2108 294.31 53.4419 293.69 53.0849Z" fill="white"/>
<path d="M79.6213 189.532C67.8297 188.557 57.7186 188.021 46.8223 193.486C37.8959 197.962 28.9282 200.75 26.0216 211.048C25.5119 212.847 27.6884 213.726 28.9419 212.724C32.248 210.087 34.8653 206.586 38.5571 204.444C42.1111 202.384 46.2575 200.764 49.9631 198.992C59.2477 194.557 69.524 194.131 79.6213 193.294C82.0458 193.088 82.0458 189.724 79.6213 189.532Z" fill="white"/>
<path d="M88.9197 231.233C77.8995 232.579 70.4746 247.999 67.3889 257.268C66.7552 259.176 69.0419 260.591 70.6399 259.767C74.4556 257.803 76.0536 251.899 78.0786 248.356C79.6214 245.637 81.3571 243.221 83.5336 240.969C85.3795 239.074 87.4458 235.888 89.8427 234.748C91.4957 233.98 90.7932 231.014 88.9197 231.233Z" fill="white"/>
<path d="M336.683 207.052C334.961 205.748 334.3 204.251 332.357 203.194C328.776 201.244 325.525 199.281 322.274 196.74C318.072 193.459 313.623 191.22 308.209 190.959C305.578 190.836 305.716 194.653 308.209 194.955C314.904 195.752 319.16 200.75 324.381 204.375C326.475 205.83 328.872 206.737 330.925 208.165C332.798 209.469 332.936 210.444 335.333 210.32C336.779 210.238 338.101 208.137 336.683 207.052Z" fill="white"/>
<path d="M373.89 167.122C371.107 163.154 365.693 161.287 361.258 159.9C359.729 159.433 358.668 161.877 360.183 162.536C362.718 163.635 364.895 164.829 367.112 166.477C368.903 167.809 371.038 168.44 373.297 168.166C373.752 168.097 374.22 167.603 373.89 167.122Z" fill="white"/>
</g>
<g clip-path="url(#clip1)">
<path d="M116.974 111.984C113.685 126.248 114.508 141.23 111.164 155.485C109.311 163.376 106.221 170.925 103.753 178.659C101.62 185.377 100.135 193.315 104.341 198.973C108.999 205.262 118.545 205.523 125.862 202.745C133.179 199.967 139.466 194.906 146.801 192.187C154.95 189.17 163.863 189.215 172.547 188.791C188.921 187.974 205.183 185.302 220.948 180.824C227.838 178.867 235.054 176.281 239.475 170.634C240.993 174.947 245.918 177.328 250.491 177.272C255.067 177.203 259.388 175.213 263.46 173.127C274.056 167.674 284.179 161.281 295.074 156.461C305.983 151.644 317.949 148.433 329.78 149.862C331.322 150.046 332.921 150.308 334.408 149.899C337.966 148.911 339.474 144.302 338.326 140.788C337.177 137.274 334.176 134.708 331.159 132.57C323.733 127.288 315.425 123.391 307.182 119.518C296.704 114.597 285.947 109.602 274.424 108.502C263.477 107.455 252.29 109.987 241.514 107.813C220.438 103.53 205.807 82.4678 184.709 78.3204C177.793 76.9618 170.656 77.5426 163.63 78.1277C154.161 78.9239 143.54 78.0139 135.317 83.4255C125.487 89.895 119.577 100.71 116.974 111.984Z" fill="#F8D5A5"/>
<path d="M233.513 135.593C231.808 148.518 224.661 160.423 214.847 168.996C213.189 170.449 211.398 171.867 210.369 173.812C209.339 175.758 209.276 178.433 210.875 179.962C211.792 180.822 213.07 181.172 214.317 181.376C221.243 182.5 228.673 179.713 233.151 174.313C234.436 172.757 235.967 170.81 237.956 171.15C239.052 171.344 239.882 172.218 240.755 172.918C244.621 176.072 250.676 176.148 254.617 173.08C255.239 172.598 255.836 172.014 255.99 171.246C256.195 170.25 255.62 169.265 255.017 168.443C252.211 164.601 248.282 161.242 247.309 156.574C246.66 153.49 247.45 150.294 248.31 147.263C250.436 139.737 253.042 132.345 256.102 125.153C258.141 120.368 260.115 114.11 256.296 110.589C253.88 108.355 250.209 108.42 246.917 108.297C238.69 107.975 232.211 104.128 224.524 102.546C231.172 112.654 235.141 123.227 233.513 135.593Z" fill="#F6C17E"/>
<path d="M138.857 155.317C139.76 157.956 140.669 160.638 142.237 162.955C146.027 168.6 153.418 171.303 160.148 170.321C166.88 169.326 172.861 165.021 176.769 159.444C180.677 153.866 182.648 147.121 183.397 140.357C183.484 139.578 183.549 138.754 183.223 138.032C182.628 136.738 180.905 136.302 179.542 136.718C178.179 137.134 177.119 138.171 176.128 139.204C171.536 144.03 167.176 149.728 160.776 151.585C155.472 153.121 149.371 151.465 145.575 147.46C143.618 145.399 136.793 130.865 132.938 134.42C130.476 136.701 137.766 152.132 138.857 155.317Z" fill="#F6C17E"/>
<path d="M146.828 147.457C150.684 150.331 155.769 151.653 160.465 150.602C165.16 149.55 169.308 145.988 170.679 141.371C167.322 141.724 163.955 142.061 160.599 142.414C158.335 142.641 156.028 142.874 153.826 142.303C151.463 141.693 149.439 140.205 147.276 139.057C144.129 137.371 139.384 134.658 140.502 139.544C141.164 142.464 144.535 145.745 146.828 147.457Z" fill="white"/>
<path d="M340.112 142.877C338.057 139.714 336.373 135.987 333.779 133.223C327.417 126.46 318.258 121.56 310.047 117.498C300.791 112.93 291.081 108.761 280.93 106.676C270.213 104.485 259.995 104.42 249.153 104.935C246.363 105.061 243.438 105.416 240.564 105.458C239.403 105.073 238.296 104.613 237.209 104.114C231.916 102.535 227.042 98.9099 221.986 94.6148C214.227 88.0529 205.438 83.0193 196.228 78.7654C190.434 76.0881 184.015 75.006 178.281 72.297C177.861 72.228 177.43 72.1432 177.014 72.0471C175.497 72.0484 173.987 72.0925 172.465 72.1209C167.194 71.1715 161.542 71.5232 156.475 72.0405C147.995 72.9157 139.463 76.398 132.805 81.7744C128.472 85.2786 124.798 89.6007 121.836 94.332C120.263 96.62 118.973 99.1353 117.71 101.572C114.274 108.173 112.405 114.044 111.35 121.398C111.263 122.01 111.218 122.629 111.147 123.229C111.136 123.38 111.111 123.529 111.1 123.681C111.07 124.037 111.012 124.39 110.981 124.746C110.346 128.19 109.957 131.744 110.497 134.81C110.379 137.393 110.206 139.967 109.809 142.559C108.465 151.243 107.485 160.516 104.179 168.697C100.229 178.428 98.2803 187.918 102.305 198.152C106.327 208.399 120.146 207.719 128.753 204.208C134.748 201.769 139.74 197.386 145.819 195.031C152.7 192.363 160.473 190.62 167.851 190.691C174.547 190.761 180.912 192.002 187.632 190.74C190.863 190.13 193.79 188.663 196.887 187.599C201.324 186.088 205.699 185.637 210.348 185.288C217.264 184.782 224.127 183.669 230.416 180.542C233.128 179.193 236.462 176.944 238.588 174.844C239.167 174.285 239.527 173.788 239.788 173.302C240.839 174.782 241.955 176.204 243.418 177.126C246.409 178.995 251.469 179.2 254.909 178.847C264.183 177.879 271.263 172.558 278.622 167.408C293.292 157.142 311.155 149.043 329.314 152.61C333.333 153.395 341.81 156.263 342.849 149.935C343.276 147.25 341.514 145.013 340.112 142.877ZM328.048 148.882C321.216 147.606 314.011 147.925 307.287 149.632C300.898 151.254 294.977 154.595 288.987 157.256C281.69 160.51 275.579 165.684 268.939 170.02C264.654 172.808 258.851 175.264 253.693 175.572C247.551 175.94 243.625 172.819 240.132 168.154C239.333 167.091 237.297 167.369 237.179 168.852C236.751 173.999 229.841 177.011 225.567 178.716C218.537 181.527 211.667 181.414 204.307 182.334C199.091 182.994 194.658 185.076 189.729 186.701C184.52 188.42 178.585 188.21 173.21 187.717C162.855 186.795 152.465 188.372 142.858 192.555C137.492 194.888 132.912 198.796 127.499 200.996C120.88 203.68 108.825 205.053 105.616 196.887C103.672 191.948 103.1 185.94 103.955 180.738C104.731 176.009 106.981 171.885 108.364 167.367C111.282 157.731 112.857 147.637 113.524 137.562C113.859 137.213 114.023 136.725 113.814 136.134C113.737 135.927 113.707 135.685 113.645 135.467C113.764 133.302 113.841 131.144 113.872 129.006C113.877 128.548 113.928 128.069 113.95 127.599C114.282 125.998 114.676 124.449 114.919 123.056C115.672 118.894 116.674 114.912 117.933 110.889C119.02 107.408 120.514 104.411 122.316 101.577C122.566 101.326 122.789 101.07 123.038 100.819C131.619 83.4024 151.205 77.2692 169.536 78.1793C192.035 79.301 209.903 91.3359 226.918 104.664C234.805 108.158 240.976 110.41 250.178 109.793C255.652 109.426 260.904 108.632 266.393 109.186C266.531 109.195 266.653 109.215 266.788 109.237C275.103 109.198 283.261 110.023 290.441 113.415C298.175 115.979 305.721 119.264 313.035 122.942C319.951 126.416 329.322 132.06 333.49 138.714C334.824 140.839 339.03 145.398 339.077 147.994C339.13 152.497 330.492 149.339 328.048 148.882Z" fill="#F7941D"/>
<path d="M145.035 111.695C145.105 111.011 144.973 110.294 144.472 109.613C143.095 107.745 140.43 108.212 138.429 108.62C138.402 108.616 138.374 108.611 138.345 108.621C136.295 108.729 133.306 109.476 132.424 111.544C132.082 112.351 132.401 113.377 133.233 113.736C135.596 114.764 139.195 114.799 141.748 114.676C142.813 114.628 143.738 114.084 144.35 113.322C144.382 113.299 144.427 113.279 144.458 113.256C144.99 112.815 145.153 112.243 145.035 111.695Z" fill="#F7941D"/>
<path d="M180.691 112.015C179.319 111.219 177.644 111.25 175.951 111.305C175.569 111.173 175.203 111.03 174.887 110.922C172.49 110.097 170.682 110.426 168.281 110.978C167.067 111.252 166.292 112.836 167.453 113.736C169.748 115.518 172.55 116.591 175.385 117.209C177.291 117.634 179.987 118.508 181.599 116.908C182.987 115.494 182.33 112.966 180.691 112.015Z" fill="#F7941D"/>
<path d="M141.679 97.1325C139.741 97.3288 137.972 97.6783 136.555 99.1014C134.868 100.814 133.112 102.014 131.885 104.15C131.745 104.406 132.136 104.651 132.314 104.416C133.669 102.607 135.679 101.212 137.684 100.191C138.521 99.7582 139.265 99.463 140.195 99.3096C140.955 99.1702 141.619 99.1122 142.254 98.6322C142.905 98.1409 142.515 97.047 141.679 97.1325Z" fill="#F7941D"/>
<path d="M184.701 104.547C184.299 102.338 181.471 100.914 179.719 99.8051C178.471 99.0157 177.103 98.2762 175.646 97.9952C174.743 97.819 174.031 97.4098 173.134 97.2764C171.488 97.0478 171.085 99.5001 172.716 99.8236C173.107 99.9017 173.638 100.393 174.106 100.511C175.708 100.927 176.968 101.301 178.372 102.242C180.204 103.461 181.566 104.909 183.798 105.387C184.266 105.505 184.788 105.035 184.701 104.547Z" fill="#F7941D"/>
<path d="M188.285 134.495C188.33 133.542 187.689 132.532 186.59 132.7C182.954 133.23 179.316 135.721 175.858 137.031C171.983 138.51 168.463 139.949 164.295 140.586C156.942 141.716 150.469 139.442 143.836 136.446C138.963 134.255 134.822 131.167 130.254 128.65C130.029 128.237 129.657 128.051 129.237 128.065C129.237 128.065 129.223 128.063 129.225 128.049C128.624 127.728 128.018 128.282 127.954 128.842C127.772 129.188 127.773 129.606 128.117 130.052C135.469 139.26 134.9 151.62 138.944 162.247C141.956 170.172 150.793 174.406 158.955 173.771C166.778 173.164 172.72 167.405 177.531 161.67C180.608 158.015 182.37 152.544 184.233 148.23C185.989 144.15 188.094 138.958 188.285 134.495ZM162.338 143.855C165.288 143.685 167.944 143.106 170.572 142.271C166.706 146.576 163.935 150.058 157.352 149.895C150.728 149.726 146.414 146.081 142.571 141.095C141.631 139.869 140.834 138.541 140.02 137.225C146.814 141.277 154.025 144.312 162.338 143.855ZM182.113 145.294C180.556 149.268 178.884 153.683 176.669 157.34C173.089 163.208 165.552 170.374 158.634 170.643C152.988 170.871 146.589 168.484 143.067 163.829C140.551 160.507 139.488 155.546 138.23 151.596C137.193 148.337 135.763 145.347 134.713 142.086C133.578 138.574 131.714 134.928 130.838 131.278C132.692 132.529 134.558 133.795 136.446 135.01C140.064 143.313 146.91 151.45 156.372 152.559C160.276 153.019 164.728 151.928 167.921 149.6C169.913 148.146 171.067 146.123 172.672 144.314C173.965 142.884 175.488 141.91 176.76 140.435C176.965 140.205 177.037 139.938 177.036 139.688C179.578 138.449 182.333 137.01 184.923 136.238C184.352 139.289 183.089 142.825 182.113 145.294Z" fill="#F7941D"/>
<path d="M116.249 140.542C107.623 135.952 100.264 131.112 93.8302 123.766C90.6996 120.204 87.454 115.734 86.8307 110.886C86.3985 107.587 86.8993 103.607 88.8162 100.833C90.7691 98.0088 94.6399 94.7765 96.6493 97.7085C96.1146 97.8294 95.5731 97.9909 95.0612 98.2268C94.1434 98.6465 93.7437 99.5549 94.044 100.523C94.6288 102.469 96.1537 102.928 97.7533 102.509C99.2115 102.443 100.488 101.79 101.693 100.889C102.502 100.284 102.548 99.3313 102.119 98.6348C102.541 97.591 102.613 96.4758 102.109 95.3912C100.809 92.6314 96.5311 92.5826 94.0853 93.1548C90.2653 94.044 86.9446 96.977 85.2032 100.462C80.6735 109.569 85.8435 119.184 91.894 125.98C94.9838 129.451 98.1362 132.71 102.199 135.173C105.744 137.313 111.657 141.471 115.931 141.63C116.55 141.676 116.875 140.881 116.249 140.542Z" fill="#F7941D"/>
<path d="M250.278 122.151C248.231 119.7 243.769 118.48 240.763 119.837C238.089 121.039 237.654 123.347 239.138 125.581C241.279 128.813 244.571 129.019 247.748 127.301C248.068 127.131 248.248 126.882 248.376 126.611C248.808 127.962 248.613 129.489 248.316 131.04C247.616 134.71 246.008 138.063 243.676 140.992C240.221 145.336 235.569 148.746 230.71 151.385C227.362 153.214 223.903 154.789 220.269 155.903C215.933 157.222 209.566 158.792 204.927 158.225C204.218 158.137 204.024 159.232 204.745 159.336C206.951 159.629 208.178 159.023 210.439 158.811C213.252 158.549 216.194 158.851 218.983 158.475C222.924 157.953 226.755 156.064 230.27 154.318C239.182 149.882 248.278 143.39 251.263 133.347C252.372 129.647 252.926 125.341 250.278 122.151ZM245.283 123.585C245.583 123.704 245.809 123.852 246.051 123.989C246.022 123.998 245.995 123.994 245.965 124.003C243.69 125.146 240.79 121.706 245.283 123.585Z" fill="#F7941D"/>
<path d="M149.449 211.309C150.074 204.621 147.678 198.286 147.953 191.611C148.006 190.186 145.892 189.756 145.704 191.241C145.165 195.619 146.43 199.779 146.976 204.084C147.482 208.119 147.086 212.395 146.47 216.399C145.367 223.453 141.608 233.118 135.964 237.659C135.209 238.273 134.411 238.809 133.604 239.317C131.072 234.226 117.66 235.056 114.414 239.059C112.303 241.662 113.496 244.056 116.346 245.512C119.748 247.254 124.442 246.801 128.039 245.833C132.26 244.704 136.803 242.208 139.734 238.933C143.04 235.246 144.257 231.396 145.961 226.779C147.927 221.508 148.932 216.914 149.449 211.309Z" fill="#F7941D"/>
<path d="M209.062 253.521C208.932 245.165 198.016 237.068 190.578 235.666C189.657 232.801 188.95 229.902 188.452 227.093C185.473 210.491 186.673 193.616 188.27 176.945C188.407 175.52 186.401 175.19 186.075 176.584C184.653 182.695 184.244 189.084 184.162 195.346C184.077 201.287 183.565 207.618 183.997 213.547C184.592 221.617 185.914 229.668 188.503 237.287C188.504 237.621 188.574 237.953 188.758 238.275C188.833 238.412 188.921 238.552 189.007 238.705C190.255 242.125 191.739 245.457 193.58 248.654C195.618 252.175 199.541 257.606 203.866 258.302C207.131 258.839 209.124 256.703 209.062 253.521Z" fill="#F7941D"/>
</g>
<defs>
<clipPath id="clip0">
<rect width="374" height="260" fill="white"/>
</clipPath>
<clipPath id="clip1">
<rect width="262.999" height="181.458" fill="white" transform="translate(91.4127 58) rotate(9.32829)"/>
</clipPath>
</defs>
</svg>
