<svg width="27" height="30" viewBox="0 0 27 30" fill="none" xmlns="http://www.w3.org/2000/svg">
<g clip-path="url(#clip0)">
<path d="M21.6809 4.50083C19.835 5.41092 17.8045 5.92388 15.9922 6.88362C12.2334 8.90237 9.63239 12.9233 8.77658 17.0932C8.62555 17.8047 8.42419 22.0574 8.44097 22.0077C7.97111 18.2515 5.42046 16.2493 3.77596 15.0414C2.21536 13.8996 0.671544 10.6067 0.537299 11.2852C0.335932 12.278 0.168126 13.6183 0.0338811 15.4385C-0.100364 17.3083 0.218468 20.1379 1.17496 21.7595C1.96365 23.0833 3.54103 24.4898 5.52114 25.433C8.34028 26.7733 9.14575 29.8676 9.19609 30C9.61561 28.5438 10.9245 26.5582 11.4111 25.9625C14.0121 22.8185 16.4957 22.3552 17.9388 21.4451C19.835 20.2537 21.748 18.6486 23.2918 16.9774C25.9599 14.0651 26.3459 9.82901 26.6144 5.90734C26.7486 3.93822 26.8661 1.96911 27.0003 0C25.6411 1.90292 23.7952 3.45836 21.6809 4.50083Z" fill="#75AF43"/>
</g>
<defs>
<clipPath id="clip0">
<rect width="27" height="30" fill="white"/>
</clipPath>
</defs>
</svg>
