<svg width="36" height="52" viewBox="0 0 36 52" fill="none" xmlns="http://www.w3.org/2000/svg">
<path d="M0 48.0157C0 46.6197 0.296097 45.294 1.98104 43.9682L27.5866 23.6396C30.5194 21.2826 31.4782 19.2203 31.4782 13.6997C31.4782 9.42777 31.1116 7.21813 30.1598 5.89235C29.4266 4.86119 27.8122 3.53541 24.2167 3.53541H6.16873V0H23.8501C26.7124 0 30.1598 0.147309 32.6555 2.72171C35.5178 5.66788 35.5883 10.971 35.5883 13.4753C35.5883 16.5687 35.3698 20.1041 33.3887 22.9732C32.2889 24.5936 30.3784 26.214 29.7932 26.6559L4.99138 46.3953C4.84333 46.4724 4.11013 47.1318 4.11013 47.4264C4.11013 48.0157 4.54723 48.0157 4.77283 48.0157H32.6555V51.5511H3.8211C0.148059 51.5511 0 49.124 0 48.0157Z" fill="#D7DF23"/>
</svg>
