<svg width="33" height="54" viewBox="0 0 33 54" fill="none" xmlns="http://www.w3.org/2000/svg">
<path d="M0.673608 50.0499H18.51C21.0551 50.0499 23.6777 50.0499 25.2992 48.8223C28.0769 46.8232 27.9993 41.1693 27.9993 39.2543C27.9993 36.9535 27.9993 30.6613 25.4543 28.2833C24.2205 27.1329 22.0632 26.3613 19.5887 26.3613H16.3739V22.6785H19.201C22.1337 22.6785 24.5237 21.8368 25.7574 20.532C27.6116 18.5329 27.6891 16.4635 27.6891 13.5454C27.6891 10.9359 27.7667 8.22123 25.9901 5.92041C24.5237 3.99838 22.6766 3.69675 21.1326 3.69675H3.54999V0H20.4347C23.1348 0 26.9136 0.0771618 29.6138 3.68272C31.3128 5.98354 32.0037 8.54391 32.0037 13.5314C32.0037 17.7542 31.4609 19.9077 29.6913 22.0542C28.7678 23.1275 27.0687 24.3551 24.7563 24.5865V24.7409C27.0687 25.0495 28.6902 26.1999 29.6138 27.2732C32.1588 30.1141 32.3139 36.1748 32.3139 38.63C32.3139 42.0041 31.9262 47.7421 29.3036 50.7303C26.9136 53.417 23.8257 53.7256 20.9705 53.7256H0.659515V50.0499H0.673608Z" fill="#EF4955"/>
</svg>
