<svg width="262" height="378" viewBox="0 0 262 378" fill="none" xmlns="http://www.w3.org/2000/svg">
<g clip-path="url(#clip0)">
<path d="M210.411 41.6507C210.058 44.2312 206.231 43.072 205.696 49.4023C205.334 53.7367 204.57 58.2323 203.014 59.0186C199.235 60.9237 195.97 59.7645 191.723 60.6515C187.476 61.5386 182.932 65.4093 182.818 69.9755C182.656 76.2957 190.683 78.1101 195.942 81.1341C204.532 86.0632 208.016 96.1533 214.926 103.451C219.593 108.38 220.519 113.299 227.42 119.176C228.594 120.174 232.173 123.289 233.643 122.936C235.619 122.462 238.978 115.386 239.923 113.491C245.965 101.355 249.019 98.5624 247.941 82.8275C247.845 81.3861 245.679 77.2735 246.194 75.9328C246.557 74.9853 249.21 71.8605 249.955 71.2154C254.412 67.3245 260.95 71.417 261.971 77.4247C262.296 79.36 258.545 90.3271 258.249 92.2725C255.643 109.479 254.87 107.302 250.556 124.125C248.132 133.58 244.61 137.905 240.859 140.284C236.268 143.197 230.465 142.441 225.835 139.598C212.101 131.171 207.405 124.478 193.66 116.051C200.008 141.292 184.24 138.489 179.907 159.032C179.487 161.028 176.814 177.529 177.129 179.545C177.979 184.908 183.352 187.831 188.01 190.139C198.576 195.371 206.641 207.689 216.358 214.523C223.029 219.22 230.054 225.097 231.295 233.463C232.039 238.483 230.522 243.533 229.023 248.361C225.091 261.022 219.507 281.101 215.575 293.762C214.229 298.106 212.864 302.733 213.905 307.168C216.434 317.994 229.844 319.828 239.456 324.445C240.906 325.141 242.395 326.038 243.121 327.53C244.467 330.302 242.414 333.83 239.666 334.989C236.917 336.148 233.834 335.624 230.932 335.09C220.261 333.114 209.6 331.138 198.929 329.152C196.772 328.749 194.51 328.306 192.821 326.834C189.9 324.284 189.719 319.566 190.74 315.726C191.771 311.875 193.746 308.327 194.376 304.386C195.999 294.205 193.508 277.472 196.066 267.503C197.412 262.252 198.958 256.163 201.621 251.516C204.284 246.859 205.925 243.352 202.098 239.703C199.301 237.041 193.479 235.136 189.719 235.005C180.002 234.683 170.381 231.508 162.211 225.933C156.694 222.163 153.401 219.744 147.884 223.524C145.775 224.966 143.752 230.671 142.578 233.009C138.149 241.84 134.35 249.188 129.921 258.018C125.75 266.334 121.704 274.489 113.562 278.339C109.591 280.214 100.992 277.059 96.6489 276.857C85.2813 276.333 74.5626 271.414 63.4622 268.763C52.3618 266.112 44.9838 258.875 34.6184 271.414C28.7484 278.511 19.2611 293.812 13.5438 288.208C10.2796 275.275 18.612 266.888 23.3462 256.304C26.1905 249.954 29.7793 243.462 35.401 239.703C41.0228 235.953 42.1014 240.025 47.4368 244.229C50.2811 246.476 54.4044 247.908 57.7832 249.047C67.8528 252.424 74.4004 247.192 84.594 247.676C96.7253 248.261 96.9352 252.242 101.583 251.335C107.32 250.216 106.384 239.36 106.413 233.201C106.442 227.042 104.59 201.792 108.618 188.547C113.992 170.917 126.848 169.667 130.723 160.726C139.972 139.386 135.83 140.435 134.913 116.989C134.837 115.043 130.389 102.05 127.469 102.635C121.035 103.915 110.345 103.764 101.774 107.413C100.171 108.098 98.2238 108.854 97.5175 110.517C96.7539 112.301 97.2884 114.338 97.4316 116.293C98.5197 130.899 92.5924 144.396 99.5982 152.672C102.089 155.615 103.139 160.575 102.862 164.506C102.395 171.229 94.0528 171.421 89.0132 167.278C83.9736 163.135 87.3811 154.587 87.3811 148.942C87.3811 143.499 84.699 139.074 83.0383 129.175C81.7402 121.424 79.8504 115.487 80.8716 107.695C82.6565 94.0264 94.3105 90.952 106.365 85.6399C120.93 79.2088 113.266 82.3336 133.338 73.2415C138.855 70.7416 154.508 70.913 157.219 65.2581C159.462 60.581 162.154 59.1093 159.023 55.037C155.644 50.6421 141.91 41.6911 154.041 14.4751C144.496 10.0399 133.825 16.4306 126.915 24.6861C123.135 29.2019 122.353 35.6531 119.585 40.925C114.755 50.128 103.302 54.7648 93.881 51.3175C95.1981 50.1683 96.5248 49.0091 97.842 47.86C94.5682 48.8983 91.0939 49.2107 87.7056 48.7874C89.0037 46.4992 90.7885 44.5336 92.8883 43.0619C89.7863 43.7776 86.6843 44.4933 83.5823 45.1989C89.5859 31.9941 96.2767 18.5675 107.11 9.4149C114.507 3.1653 124.471 -0.826384 134.035 0.141296C143.179 1.05858 151.588 11.6426 159.682 6.38082C169.503 0.000176285 183.581 2.85282 191.332 5.31234C202.003 8.7093 207.118 17.2773 205.477 25.4219C204.207 31.9538 210.764 38.6973 210.411 41.6507Z" fill="#FFE85F"/>
<path d="M189.241 289.276C188.048 287.471 186.855 285.667 185.672 283.863C185.519 283.631 185.347 283.379 185.099 283.268C184.813 283.137 184.488 283.208 184.192 283.288C182.331 283.782 180.575 284.669 179.048 285.889C177.721 286.947 176.566 288.248 175.173 289.215C173.779 290.183 172.042 290.808 170.448 290.294C168.854 289.78 167.661 287.784 168.358 286.191C168.93 284.871 170.4 284.357 171.67 283.812C173.502 283.016 175.211 281.897 176.7 280.506C177.845 279.438 178.924 277.865 178.437 276.343C178.103 275.315 177.148 274.65 176.661 273.692C175.946 272.271 176.232 270.174 174.924 269.337C173.951 268.713 172.71 269.227 171.689 269.751C170.658 270.275 169.513 270.96 169.322 272.15C169.217 272.795 169.436 273.44 169.551 274.085C170.267 277.936 167.289 281.706 163.776 282.976C160.264 284.246 156.532 282.25 152.876 282.945C147.016 284.054 141.308 287.764 139.046 293.58C136.794 299.396 139.094 307.188 144.658 309.416C149.278 311.26 154.967 309.194 159.109 312.046C160.531 313.024 161.6 314.496 162.994 315.534C165.284 317.238 168.405 317.611 170.992 316.472C173.579 315.333 175.535 312.732 175.993 309.819C176.327 307.682 175.697 304.92 174.571 303.126C173.445 301.321 172.013 299.406 172.309 297.269C172.605 295.092 174.667 293.59 176.719 293.197C178.771 292.804 180.871 293.247 182.951 293.429C185.032 293.61 187.285 293.479 188.945 292.138C189.375 291.796 189.776 291.322 189.804 290.747C189.833 290.203 189.537 289.719 189.241 289.276ZM146.071 303.781C145.326 303.771 144.563 303.609 143.923 303.196C142.644 302.37 142.081 300.666 142.158 299.094C142.224 297.521 142.826 296.029 143.408 294.578L143.093 294.679C144.334 292.441 147.398 291.675 149.536 292.955C151.674 294.235 152.628 297.269 151.798 299.708C150.967 302.158 148.524 303.821 146.071 303.781ZM166.993 302.974C165.971 305.051 163.872 306.432 161.667 306.734C159.462 307.037 157.2 306.341 155.348 305.051C154.947 304.769 154.547 304.456 154.289 304.023C154.003 303.559 153.907 302.985 153.859 302.44C153.659 300.333 154.05 298.176 154.976 296.301L154.986 296.634C156.828 293.59 160.894 292.239 163.977 293.802C167.06 295.364 168.568 299.769 166.993 302.974Z" fill="#9AAA80"/>
<path d="M155.272 297.935C154.9 298.418 154.575 298.973 154.47 299.588C154.375 300.203 154.547 300.898 155.024 301.271C155.52 301.664 156.198 301.644 156.818 301.594C157.859 301.513 159.033 301.352 159.643 300.465C160.35 299.437 159.825 297.824 158.756 297.249C157.687 296.675 156.312 297.027 155.415 297.864" fill="#9AAA80"/>
<path d="M147.77 297.37C148.438 296.543 149.755 296.432 150.538 297.128C151.321 297.823 151.445 299.214 150.796 300.051C150.147 300.888 148.829 301.029 148.028 300.343C147.226 299.658 147.083 298.277 147.722 297.43" fill="#9AAA80"/>
<path d="M121.169 334.686C119.05 332.559 115.652 334.485 113.228 336.208C109.983 338.506 106.47 340.371 102.786 341.752C101.373 342.286 99.6841 342.71 98.4528 341.813C96.7634 340.573 97.1452 337.771 98.2047 335.906C99.77 333.164 102.299 331.168 103.998 328.517C105.697 325.866 106.318 321.874 104.075 319.717C101.507 317.258 97.0688 319.193 95.3985 322.409C93.7282 325.624 93.9 329.495 93.7187 333.154C93.671 334.091 93.5946 335.049 93.1746 335.876C91.9625 338.275 88.4787 338.224 86.3979 336.622C84.3172 335.019 83.1719 332.428 81.7211 330.18C75.3357 320.272 59.7303 326.783 51.7796 331.118C46.1005 334.212 40.3642 340.039 41.7482 346.621C43.3708 354.372 53.3544 356.782 56.6378 363.928C57.6304 366.095 57.9359 368.575 59.024 370.702C61.3242 375.208 66.5165 377.052 71.327 377.718C75.8034 378.333 80.7189 378.161 84.3363 375.309C86.4361 373.655 87.8869 371.277 89.29 368.948C92.5638 363.525 95.8376 358.102 99.1114 352.669C100.142 350.955 101.183 349.232 102.49 347.75C104.437 345.542 106.995 343.899 109.801 343.305C112.703 342.7 115.814 343.214 118.573 342.065C121.331 340.916 123.317 336.843 121.169 334.686ZM62.3359 349.353C61.2097 350.955 59.5012 351.983 57.745 352.729C55.941 353.495 53.9367 354.01 52.0564 353.475C50.6533 353.072 49.4412 352.125 48.3817 351.076C47.5227 350.219 46.7018 349.222 46.4728 348.002C45.1556 340.936 53.6408 339.646 58.0218 340.573C59.9975 340.986 62.0973 341.853 63.0232 343.738C63.9013 345.492 63.4622 347.76 62.3359 349.353ZM79.8408 369.513C77.1015 371.045 73.7418 371.045 70.8211 369.946C68.874 369.21 67.0701 367.98 65.8197 366.257C64.5694 364.523 63.9108 362.265 64.2735 360.118C65.8388 350.734 75.9084 349.877 81.492 355.501C83.0669 357.094 84.2122 359.241 84.3459 361.539C84.5367 364.805 82.5801 367.98 79.8408 369.513Z" fill="#9AAA80"/>
<path d="M78.1418 359.442C76.6338 359.755 75.7366 361.761 76.3761 363.233C77.0251 364.704 78.9531 365.299 80.2989 364.523C81.6352 363.747 82.2078 361.791 81.5206 360.36C80.8334 358.928 78.9913 358.263 77.6169 358.949" fill="#9AAA80"/>
<path d="M47.0645 346.57C46.8832 347.76 47.4749 349.111 48.5439 349.534C49.6129 349.957 51.016 349.161 51.1019 347.961C51.1305 347.488 50.9874 347.024 50.7583 346.621C50.3479 345.905 49.6607 345.341 48.878 345.24C48.0953 345.139 47.2363 345.562 46.9118 346.318" fill="#9AAA80"/>
<path d="M31.4018 319.445C30.8578 316.351 29.092 313.659 27.164 311.26C20.4637 302.924 11.4727 307.813 4.82006 314.314C2.9684 316.129 1.30763 318.256 0.486796 320.786C-0.324498 323.316 -0.181328 326.289 1.32672 328.436C2.72024 330.422 5.07776 331.45 7.40665 331.702C9.73554 331.954 12.074 331.511 14.3838 331.077C17.648 330.463 20.9123 329.848 24.1766 329.223C25.6751 328.94 27.2213 328.638 28.5098 327.771C31.0201 326.098 31.9554 322.54 31.4018 319.445ZM23.8998 326.078C22.344 328.225 19.6906 329.203 17.1326 329.354C14.546 329.505 11.8354 328.86 9.86916 327.076C7.90297 325.291 6.87215 322.257 7.77889 319.697C8.8288 316.754 12.0358 315.232 15.0137 315.131C20.0724 314.97 28.548 319.687 23.8998 326.078Z" fill="#9AAA80"/>
<path d="M17.6958 320C16.035 319.546 14.2501 319.607 12.618 320.161C12.3889 323.094 15.6437 325.634 18.2303 324.556C19.3183 324.102 20.2537 322.963 20.0724 321.744C19.891 320.524 18.173 319.808 17.4762 320.796" fill="#9AAA80"/>
</g>
<defs>
<clipPath id="clip0">
<rect width="262" height="378" fill="white"/>
</clipPath>
</defs>
</svg>
