<svg width="275" height="419" viewBox="0 0 275 419" fill="none" xmlns="http://www.w3.org/2000/svg">
<g clip-path="url(#clip0)">
<path d="M203.534 378.542C201.681 377.286 199.909 376.018 197.939 374.961C194.478 373.129 191.428 370.64 187.92 368.891C182.09 365.991 175.779 366.531 169.514 367.541C166.053 368.104 163.003 370.077 159.508 370.57C154.639 371.251 150.111 368.95 145.946 366.625C140.093 363.361 134.673 360.649 127.916 359.933C117.569 358.841 93.3208 360.567 101.826 376.417C101.908 377.861 102.143 379.258 102.365 380.761C102.401 380.984 102.471 381.172 102.553 381.36C102.131 382.498 101.615 383.59 100.876 384.565C98.2009 388.063 94.2241 389.543 89.9657 389.883C86.7865 390.142 84.1001 390.846 81.0148 391.562C76.9324 392.513 72.7679 392.267 68.6972 393.135C63.3361 394.274 58.0923 397.069 57.7169 403.021C56.9309 415.548 71.2077 420.843 81.6483 418.413C87.7602 416.981 90.822 411.427 96.5351 409.467C103.198 407.177 111.199 409.021 118.062 409.901C124.666 410.746 131.118 411.427 137.394 408.833C139.694 407.882 141.829 406.79 143.647 405.087C147.706 401.319 151.964 399.064 157.877 400.192C165.373 401.612 170.898 407.048 178.84 407.377C185.492 407.659 192.014 406.156 197.739 402.833C202.748 399.922 209.001 397.28 210.444 390.975C211.793 384.964 208.004 381.583 203.534 378.542Z" fill="#A4DCE9"/>
<path d="M107.515 118.933C106.448 121.504 105.38 124.052 104.371 126.67C102.448 131.624 95.972 142.027 102.178 145.913C102.999 146.429 104.078 146.359 104.899 145.913C107.21 144.668 108.172 141.991 108.818 139.385C109.815 128.595 111.879 118.005 115.856 107.861C112.947 111.477 110.014 115.082 107.515 118.933Z" fill="#A4DCE9"/>
<path d="M147.941 126.189C147.835 125.038 146.04 124.181 145.477 125.531C141.864 134.196 140.644 144.152 138.697 153.309C137.653 158.205 137.723 163.676 137.746 168.678C137.758 171.32 138.04 176.439 140.644 178.035C147.683 182.344 146.509 164.299 146.521 162.115C146.545 156.691 147.19 151.255 147.413 145.842C147.565 142.027 147.389 138.364 147.202 134.665C147.812 131.824 148.199 128.983 147.941 126.189Z" fill="#A4DCE9"/>
<path d="M81.6249 225.221C81.5662 224.998 81.2729 225.056 81.2495 225.268C81.1673 226.019 81.0735 226.759 80.9914 227.51C80.921 225.138 80.6746 222.696 79.7831 220.642C79.9473 218.341 80.0998 216.039 80.1585 213.738C80.1702 213.233 79.3373 213.104 79.2669 213.621C78.9267 216.169 77.4017 218.294 76.8972 220.806C76.2872 223.777 75.947 226.876 75.7124 229.893C75.6537 230.621 75.5833 231.525 75.5247 232.512C75.161 233.216 74.9029 233.768 75.032 235.012C75.1845 236.421 75.3957 238.006 75.9822 239.356C76.4163 240.977 77.1553 242.374 78.434 243.172C80.9327 244.745 83.0795 242.82 83.6426 240.331C84.7805 235.341 82.9622 229.893 81.6249 225.221Z" fill="#A4DCE9"/>
<path d="M63.1132 109.082C62.9021 108.683 62.4915 108.495 61.9988 108.613C60.8139 108.894 59.6995 109.705 58.6671 110.738C54.702 113.133 51.6402 117.113 48.2851 120.224C45.8803 122.455 40.918 127.186 42.1029 131.037C43.1586 134.501 47.3466 134.043 49.4817 132.024C53.1183 128.572 54.7724 123.018 57.5996 118.733C58.7962 115.223 61.0016 112.182 63.1132 109.082Z" fill="#A4DCE9"/>
<path d="M191.956 261.194C196.812 263.084 201.129 266.606 204.168 270.927C204.168 270.892 204.179 270.868 204.179 270.845C204.215 268.497 202.748 266.477 201.423 264.517C201.047 263.296 199.827 261.934 198.912 260.971C197.622 259.374 196.179 257.801 194.935 256.369C193.176 254.349 187.862 247.692 184.53 249.348C179.884 251.661 184.272 256.58 186.618 258.365C188.061 259.456 189.633 260.278 191.205 261.124C191.428 261.077 191.674 261.088 191.956 261.194Z" fill="#A4DCE9"/>
<path d="M239.619 250.581C235.76 247.681 229.237 253.797 226.914 256.38C224.721 258.811 223.735 261.793 222.363 264.669C221.823 266.618 221.366 268.591 221.002 270.587C221.248 270.939 221.694 271.162 222.116 271.08C223.02 269.624 224.075 268.356 225.284 267.24C225.6 266.736 225.941 266.243 226.351 265.796C228.58 263.378 232.17 262.122 235.067 260.654C237.871 259.233 243.995 253.856 239.619 250.581Z" fill="#A4DCE9"/>
<path d="M257.615 260.361C257.345 260.279 257.087 260.208 256.875 260.196C255.738 260.138 254.764 260.42 253.673 260.69C252.711 260.924 252.336 262.545 253.38 262.967C254.787 263.554 255.82 264.728 257.298 265.163C258.412 265.48 259.75 265.75 260.911 265.891C262.894 266.126 265.193 265.585 264.97 263.073C264.688 259.856 260.7 259.821 257.615 260.361Z" fill="#A4DCE9"/>
<path d="M231.267 230.434C228.392 227.053 222.644 231.197 220.638 233.639C220.333 234.003 220.063 234.402 219.794 234.801C218.222 236.785 216.966 239.404 216.016 241.388C214.737 244.029 213.717 247.376 213.459 250.475C213.4 251.203 214.092 252.166 214.561 251.637C215.852 250.193 216.438 249.16 217.459 247.728C219.359 245.016 221.823 242.938 224.603 240.883C227.161 238.969 234.715 234.496 231.267 230.434Z" fill="#A4DCE9"/>
<path d="M149.548 273.898C152.093 274.156 153.701 271.033 155.155 269.448C156.258 268.239 157.548 267.335 158.98 266.548C160.868 265.515 163.074 264.529 165.232 264.493C162.651 262.58 157.677 262.145 154.85 263.413C151.718 264.822 146.181 266.067 146.404 270.645C146.498 272.477 147.73 273.381 149.231 273.745C149.325 273.804 149.442 273.851 149.548 273.898Z" fill="#A4DCE9"/>
<path d="M209.153 164.11C209.013 163.242 208.884 162.373 208.755 161.504C208.555 156.596 208.109 151.701 207.535 146.805C206.854 141.005 206.291 135.193 204.707 129.605C205.083 129.358 205.646 129.37 205.939 129.851C206.033 130.004 206.127 130.18 206.221 130.333C206.643 130.438 207.042 130.697 207.347 131.166C210.303 135.651 211.84 141.58 213.201 147.286C215.125 153.544 216.802 159.919 219.137 165.707C221.072 170.509 223.336 175.652 222.198 180.911C222.292 181.768 221.964 182.649 221.412 183.295C220.462 185.326 218.796 187.099 216.368 186.418C213.4 185.584 212.555 181.475 211.899 178.951C210.667 174.043 209.975 169.088 209.153 164.11Z" fill="#A4DCE9"/>
<path d="M188.249 185.115C188.953 181.182 189.914 177.272 190.712 173.339C190.783 172.975 190.935 172.388 191.123 171.672C191.181 168.971 191.346 166.271 191.932 163.618C192.179 162.831 193.563 162.479 193.868 163.594C195.158 168.349 195.123 173.891 195.287 178.763C195.44 183.26 194.795 188.05 193.129 192.23C192.906 192.781 192.542 193.169 192.108 193.404C191.569 194.108 190.912 194.589 190.114 194.636C185.996 194.859 187.967 186.688 188.249 185.115Z" fill="#A4DCE9"/>
<path d="M221.33 132.188C219.899 127.844 218.62 123.429 217.26 119.038C217.506 118.71 217.635 118.31 217.494 117.853C216.427 114.401 215.559 111.019 213.752 107.943C214.116 107.673 214.62 107.603 214.984 108.049C218.069 111.7 220.873 115.857 223.301 120.165C228.24 126.916 234.61 136.966 231.478 140.418C231.431 140.547 231.396 140.688 231.349 140.817C230.692 142.261 228.615 142.344 227.583 141.31C224.416 140.148 222.386 134.736 221.342 132.282C221.354 132.235 221.342 132.211 221.33 132.188Z" fill="#A4DCE9"/>
<path d="M121.98 155.834C122.648 154.366 120.842 152.617 119.61 154.014C119.364 154.296 119.117 154.601 118.871 154.906C114.155 157.536 111.785 165.285 109.721 170.028C107.551 174.983 102.025 186.453 106.823 191.678C111.164 196.409 114.765 190.199 115.739 186.289C116.947 181.475 117.018 176.415 117.897 171.543C118.32 169.183 118.777 166.823 119.434 164.522C119.903 162.866 120.161 160.272 120.807 158.229C121.206 157.43 121.616 156.632 122.027 155.857C122.003 155.845 121.992 155.845 121.98 155.834Z" fill="#A4DCE9"/>
<path d="M43.1587 175.804C46.068 170.732 49.4113 166.024 52.0625 160.741C53.1535 158.569 54.1976 156.338 55.2182 154.108C56.145 152.088 56.2975 148.813 57.6231 147.098C57.9164 146.828 58.2096 146.523 58.5029 146.288C59.0308 145.995 58.5616 144.656 57.8225 144.457C55.6171 143.846 54.9836 144.727 53.6462 146.054C51.0771 148.613 48.3673 151.137 45.9506 153.861C43.4167 156.702 41.3286 159.849 39.393 163.113C38.5953 163.993 37.821 164.886 37.082 165.825C36.5892 166.447 35.815 167.375 35.0173 168.502C34.9821 168.549 34.9469 168.596 34.9117 168.643C32.718 171.754 30.3366 176.344 32.6007 180.43C37.0702 188.484 42.0207 177.8 43.1587 175.804Z" fill="#A4DCE9"/>
<path d="M177.245 103.822C176.224 100.253 174.476 96.966 173.444 93.3733C173.01 91.8705 172.869 90.4029 171.637 89.5224C171.579 89.1349 171.52 88.7592 171.438 88.3718C171.274 87.5147 169.901 87.5147 169.737 88.3718C168.423 95.2283 168.54 101.744 170.664 108.46C170.922 109.282 171.356 110.515 171.978 111.618C172.013 111.865 172.036 112.123 172.071 112.37C172.259 114.154 174.207 114.753 175.344 114.049C175.591 114.013 175.849 113.955 176.107 113.837C179.04 112.522 177.937 106.253 177.245 103.822Z" fill="#A4DCE9"/>
<path d="M106.178 32.0753C106.542 26.0994 110.366 21.1448 108.466 14.9927C106.847 9.76812 101.157 10.543 98.2361 14.2061C96.3122 16.6247 94.5994 20.1468 94.0715 23.1994C93.4381 26.8625 94.7871 30.1147 94.576 33.6486C94.5525 34.0243 94.2123 37.6052 94.0246 37.7343C94.0481 37.7226 93.6258 37.6404 93.0275 37.5465C92.1594 36.5485 90.7516 35.9028 89.168 35.8676C86.986 35.8206 85.414 37.0769 83.6661 38.0044C82.5164 38.3448 81.3902 38.7323 80.2758 39.1315C80.0529 37.9104 79.83 36.7012 79.5954 35.4919C79.6306 33.8951 80.1467 32.1693 80.2641 30.6078C80.3462 29.5394 80.44 28.3418 80.4987 27.0973C81.097 22.8472 81.4606 18.5266 80.9679 14.57C80.5339 11.0948 78.1173 7.57262 74.0935 9.22805C69.9759 10.9187 72.0875 16.0611 72.8383 19.2076C73.3427 21.3209 73.8472 23.5164 74.3047 25.7354C74.3868 30.643 73.2489 35.5623 72.5098 40.3995C71.4775 47.1973 69.3072 54.7583 72.2869 61.3917C73.7064 64.5734 77.4369 67.7317 80.1585 63.9747C82.6924 60.4877 81.7422 52.7154 81.5193 48.8292C81.4489 47.5378 81.3199 46.2698 81.1674 45.0018C81.4606 44.8609 81.7774 44.6496 82.0941 44.4148C83.9711 44.6496 86.2469 45.2601 87.7133 45.0018C89.6137 44.673 92.0303 43.9334 93.1448 42.2075C93.2034 42.1253 93.2386 42.0431 93.2856 41.9492C94.1185 42.0784 94.9396 42.1136 95.7374 41.8553C96.0893 41.7379 96.3943 41.5853 96.6758 41.4091C96.6993 47.7843 97.368 56.0849 101.638 61.0747C104.747 64.7026 110.53 63.5755 111.269 58.5505C112.595 49.6628 105.638 41.0217 106.178 32.0753Z" fill="#A4DCE9"/>
<path d="M135.752 69.2934C133.992 69.4342 132.174 69.7395 130.45 70.1035C128.842 70.4439 127.024 71.4419 125.288 71.6063C125.968 67.4501 132.831 65.3133 133.676 61.1453C134.426 57.3883 133.359 52.9739 129.628 51.4006C126.461 50.0622 122.332 50.8605 120.666 54.1127C119.141 57.0948 120.877 60.1709 124.303 59.9361C126.039 59.8186 126.825 57.5057 125.194 56.5665C123.669 55.6859 125.605 55.0754 126.649 54.9698C128.842 54.7584 129.687 56.6135 129.875 58.5037C130.192 61.7206 127.822 62.6599 125.745 64.3975C122.648 66.9687 120.396 69.9156 121.194 74.0835C121.382 75.0932 122.343 75.5511 123.247 75.6685C127.435 76.1968 131.564 73.6844 135.764 73.3439C138.321 73.1325 138.345 69.0938 135.752 69.2934Z" fill="#A4DCE9"/>
<path d="M179.931 23.2229C178.371 17.8809 175.227 13.6191 171.802 9.32199C166.499 2.67678 156.235 -3.45183 148.046 2.2776C144.55 4.71966 141.852 7.65482 139.87 10.9422C140.421 9.50984 141.055 8.1127 141.782 6.78601C142.767 5.00143 140.304 2.9703 138.861 4.55529C134.708 9.11066 133.371 12.1045 132.761 18.2918C132.104 25.031 132.737 30.5725 135.201 36.8773C138.931 46.4694 146.65 53.7603 157.337 54.3943C167.156 54.9813 177.175 48.1131 179.192 38.1687C180.189 33.2259 181.374 28.154 179.931 23.2229ZM145.911 11.9519C149.36 8.13618 153.173 4.89576 158.147 6.03461C161.103 7.59611 164.024 13.0085 165.373 15.1453C167.074 17.8457 168.974 21.3444 169.913 24.3617C171.297 28.8114 171.379 34.2004 170.359 38.744C169.127 44.2152 165.526 46.9155 159.988 47.9017C154.475 48.8879 149.184 45.6828 145.524 41.6322C139.119 34.5761 139.623 18.9023 145.911 11.9519Z" fill="#A4DCE9"/>
<path d="M138.978 279.521C137.723 278.359 135.916 277.619 134.262 278.077C132.796 278.488 131.728 279.733 130.766 280.907C128.749 283.372 126.731 285.826 124.701 288.291C123.845 289.336 122.977 290.393 121.851 291.121C117.698 293.833 109.474 292.87 104.536 292.542C103.902 292.495 103.116 292.518 102.236 292.6C105.31 290.463 107.68 287.364 109.955 284.335C113.627 279.439 117.311 274.555 120.983 269.659C123.716 266.019 126.59 261.875 126.015 257.367C125.523 253.492 122.437 250.299 118.824 248.808C115.223 247.317 111.175 247.27 107.292 247.704C101.826 248.315 96.4764 249.829 91.4907 252.142C87.4552 254.009 82.0003 259.773 77.5659 258.799C73.3896 257.883 69.014 251.003 65.0254 248.761C60.0162 245.943 54.3032 244.381 48.5432 244.734C37.3635 245.426 26.7234 254.208 25.4564 265.339C24.4241 274.367 29.3629 283.278 36.2842 289.16C38.302 290.874 40.484 292.354 42.7598 293.692C39.4868 294.678 36.2021 296.205 33.7151 296.827C28.5886 298.107 23.1923 295.148 19.9076 291.004C17.3033 287.716 15.1214 283.302 10.9803 282.586C7.63693 282.01 4.50474 284.194 1.90044 286.366C1.2435 286.918 0.574824 287.505 0.246354 288.291C-0.457511 289.947 0.551362 291.837 1.79486 293.129C5.24379 296.745 10.4172 298.142 14.3354 301.265C17.1274 303.484 19.3328 306.619 22.6879 307.84C25.8201 308.978 29.3277 308.18 32.3661 306.818C35.4044 305.456 38.1729 303.543 41.2582 302.31C45.6104 300.572 50.3615 300.232 55.0422 299.926C55.007 299.715 54.9601 299.516 54.9132 299.316C56.7667 300.009 58.6319 300.654 60.4972 301.277C64.8142 302.721 69.3424 304.083 73.8472 303.425C77.5307 302.885 80.8389 301.054 84.194 299.386C84.0767 299.539 83.9359 299.692 83.842 299.856C88.7222 304.118 112.079 299.445 118.531 299.328C122.625 299.257 126.79 299.163 130.719 298.013C134.649 296.862 138.415 294.514 140.362 290.898C142.286 287.27 141.993 282.315 138.978 279.521ZM86.939 267.839C88.3585 266.419 89.9774 265.209 91.7253 264.235C91.7136 265.609 92.3236 266.994 93.5319 267.651C95.7022 268.826 98.8226 267.17 99.069 264.716C99.1746 263.671 98.7288 262.662 98.0132 261.899C98.7757 261.746 99.5499 261.617 100.324 261.546L99.0573 262.45C102.166 261.769 104.888 265.374 104.477 268.532C104.066 271.69 101.615 274.179 99.1042 276.116C96.711 277.96 93.9894 279.603 90.9863 279.78C87.9714 279.944 84.6867 278.206 83.9711 275.271C83.3259 272.571 84.9799 269.823 86.939 267.839ZM44.0619 267.593C44.8597 263.19 50.3615 260.278 55.359 260.783C53.001 261.922 51.5229 265.209 53.1653 267.252C54.7959 269.283 57.975 268.708 60.4033 267.781C61.9284 267.194 63.5473 266.395 64.2629 264.963C65.3773 265.984 66.3745 267.111 67.1956 268.309C69.4949 271.69 70.715 275.529 71.7942 279.369C72.3221 278.558 72.6389 277.654 72.6858 276.692L72.2048 280.883C72.064 280.378 71.9233 279.873 71.7825 279.369C70.1988 281.822 66.785 283.431 63.4886 283.454C59.1012 283.49 55.0422 281.435 51.5229 279.099C47.3349 276.293 43.229 272.195 44.0619 267.593ZM79.4898 293.904C76.9794 293.352 74.6918 292.048 72.2869 291.156C66.7264 289.102 61.3184 289.959 55.8048 291.086C63.0546 283.771 81.3081 283.266 91.1153 283.666C93.4029 283.76 96.1362 284.264 96.9808 286.389C97.6378 288.033 96.7345 289.982 95.3268 291.062C93.9308 292.154 92.1359 292.589 90.4114 292.988C86.8335 293.833 83.103 294.69 79.4898 293.904Z" fill="#9AAA80"/>
<path d="M77.2257 363.995C70.4451 364.347 62.644 367.118 60.896 373.517C59.676 377.978 62.0222 382.804 65.6002 385.833C69.1782 388.862 73.7768 390.435 78.3167 391.762C89.0976 394.908 101.779 396.728 110.741 390.094C112.63 388.686 114.331 386.831 114.765 384.541C117.569 369.419 87.2558 363.467 77.2257 363.995ZM90.3645 370.535C90.5288 372.519 89.0154 374.233 87.4669 375.489C85.0034 377.485 82.1645 379.035 79.1379 380.021C77.3665 380.596 75.466 380.995 73.6243 380.655C71.7825 380.314 70.0111 379.129 69.4128 377.356C68.6855 375.219 69.7999 372.859 71.3132 371.192C75.0672 367.059 84.323 362.797 88.9568 367.705C89.6959 368.492 90.2824 369.466 90.3645 370.535Z" fill="#9AAA80"/>
<path d="M74.422 370.546C73.026 370.781 72.4746 372.8 73.3896 373.881C74.3047 374.961 76.123 374.926 77.1905 373.998C78.1642 373.164 78.5278 371.603 77.824 370.546C77.1201 369.478 75.2901 369.325 74.5745 370.394" fill="#9AAA80"/>
<path d="M197 371.897C196.707 369.772 196.132 367.611 194.771 365.956C193.047 363.854 190.36 362.868 187.803 361.964C181.961 359.898 174.007 356.986 168.552 359.945C165.643 361.53 164.599 363.678 161.596 362.281C160.728 361.882 159.449 360.802 158.616 360.309C156.997 359.346 151.155 357.972 149.266 358.078C151.683 360.403 153.278 362.293 152.023 365.416C151.437 366.05 150.662 367.4 148.469 368.527C145.782 369.901 146.111 374.585 143.283 375.666C143.424 375.666 147.002 381.101 147.6 381.653C149.196 383.156 150.498 383.825 152.481 384.494C157.736 386.279 163.179 387.758 168.47 389.496C170.218 390.071 172.036 390.658 173.866 390.47C175.38 390.318 176.823 389.66 178.336 389.625C179.861 389.59 181.316 390.2 182.805 390.459C187.275 391.234 191.92 388.733 194.443 384.964C196.988 381.207 197.61 376.393 197 371.897ZM183.31 388.369C178.688 388.381 175.837 383.708 173.385 383.86C171.626 383.966 171.966 384.142 170.253 384.577C167.966 385.152 166.405 383.931 164.153 383.273C163.437 383.062 162.71 382.851 162.135 382.393C160.376 380.996 160.939 377.967 162.663 376.546C165.467 374.245 173.761 376.358 177.151 376.851C179.356 377.168 183.345 374.257 185.046 375.701C186.63 377.051 189.48 379.857 190.067 381.865C191.322 386.22 185.527 388.369 183.31 388.369Z" fill="#9AAA80"/>
<path d="M179.908 379.693C178.101 380.127 176.823 382.135 177.221 383.943C177.62 385.751 179.697 387.019 181.48 386.502C183.263 385.986 184.319 383.743 183.556 382.052C182.934 380.702 181.339 379.34 179.908 379.693Z" fill="#9AAA80"/>
<path d="M119.915 392.748C119.657 394.556 119.739 396.775 121.299 397.714C122.167 398.231 123.235 398.196 124.244 398.125C126.578 397.984 128.983 397.832 131.107 396.845C133.23 395.859 135.06 393.851 135.107 391.515C135.13 390.705 134.943 389.907 134.661 389.144C133.594 386.208 129.582 381.747 126.015 382.663C122.261 383.637 120.384 389.472 119.915 392.748Z" fill="#9AAA80"/>
<path d="M217.928 395.648C218.902 396.47 220.005 397.444 221.26 397.233C221.94 397.116 222.515 396.658 223.055 396.212C225.155 394.462 227.266 392.725 229.366 390.975C230.035 390.424 230.739 389.813 230.997 388.991C231.208 388.287 231.067 387.524 230.786 386.843C229.929 384.8 227.724 383.414 225.518 383.543C223.313 383.673 221.272 385.305 220.662 387.43C220.392 388.381 220.286 389.531 219.43 390.013C218.444 390.576 217.26 389.813 216.321 389.179C212.802 386.807 208.391 385.809 204.191 386.443C201.974 386.772 193.751 389.238 195.229 392.314C203.112 390.013 211.288 390.024 217.928 395.648Z" fill="#9AAA80"/>
<path d="M56.9192 390.33C55.793 390.059 54.6317 389.801 53.482 389.966C51.2883 390.294 49.6694 392.126 48.2499 393.828C47.6751 394.521 47.0651 395.308 47.1003 396.212C47.112 396.669 47.2997 397.092 47.5461 397.48C49.1063 399.91 52.6374 399.957 55.4528 399.276C58.2683 398.595 61.248 397.491 63.9344 398.548C68.8615 400.485 69.4128 408.304 74.422 410.007C73.5656 407.236 72.7093 404.454 71.8529 401.683C71.5948 400.861 71.3367 400.016 70.7971 399.335C70.234 398.607 69.4128 398.137 68.7324 397.515C67.1839 396.071 66.5035 393.664 64.7556 392.455C62.7261 391.034 59.3124 390.893 56.9192 390.33Z" fill="#9AAA80"/>
<path d="M272.654 292.6C267.398 280.766 254.541 272.77 241.613 273.299C232.663 273.663 224.404 277.572 215.652 279.052C206.573 280.578 200.343 275.929 191.58 275.905C189.14 275.893 186.63 276.116 184.413 277.15C182.383 278.101 180.694 279.674 179.274 281.411C170.875 291.626 171.684 308.204 181.046 317.537C182.313 318.805 187.439 323.689 187.228 325.474C187.005 327.364 181.574 329.513 180.037 330.64C175.626 333.88 173.89 335.888 176.353 340.772C178.148 344.329 181.703 346.772 185.527 347.887C189.34 349.002 193.422 348.932 197.364 348.439C198.748 348.263 200.285 347.934 201.036 346.76C202.42 344.541 199.804 341.993 197.458 340.831C195.111 339.668 188.12 338.6 188.788 336.076C189.058 335.054 191.557 331.274 192.507 330.816C194.924 329.642 200.308 332.448 202.748 333.575C205.188 334.702 207.406 336.311 209.951 337.203C212.509 338.095 215.254 338.213 217.964 338.295C223.653 338.471 229.554 338.471 234.727 336.099C237.461 334.843 240.018 332.929 243.009 332.718C246.001 332.507 249.438 335.242 248.382 338.06C247.186 341.242 241.989 340.972 240.452 344.001C239.326 346.22 241.015 349.037 243.291 350.024C245.578 351.01 248.183 350.693 250.646 350.364C254.916 349.789 260.055 348.474 261.169 344.306C262.19 340.467 259.034 336.933 256.559 333.822C255.96 333.07 255.362 332.166 255.55 331.227C255.632 330.851 255.831 330.499 256.031 330.182C260.547 323.055 269.334 319.251 273.111 311.714C276.044 305.82 275.328 298.611 272.654 292.6ZM231.478 292.236C232.369 291.344 233.261 290.44 234.34 289.782C238.024 287.528 240.135 288.186 243.138 290.041C240.839 291.309 238.54 292.565 236.241 293.833C234.927 294.549 233.531 295.359 232.885 296.709C232.158 298.212 232.557 299.997 232.522 301.664C232.487 303.331 231.595 305.327 229.917 305.398C228.932 305.444 228.076 304.775 227.313 304.153C225.988 303.061 224.533 301.652 224.768 299.962C224.92 298.893 225.718 298.048 226.48 297.285C228.146 295.594 229.812 293.915 231.478 292.236ZM220.72 294.819C220.779 292.001 221.729 289.207 223.395 286.941C223.817 286.366 224.416 285.767 225.119 285.849C225.812 285.932 226.281 286.683 226.269 287.387C226.269 288.092 225.929 288.738 225.577 289.348C224.216 291.72 222.609 293.95 220.779 295.993C220.744 295.477 220.697 294.972 220.662 294.455L220.72 294.819ZM207.722 285.767C208.86 284.957 210.35 286.061 211.3 287.094C212.45 288.338 213.623 289.618 214.362 291.156C215.101 292.694 215.347 294.549 214.62 296.087C212.356 294.385 210.409 292.26 208.907 289.853C208.309 289.442 207.734 288.984 207.382 288.35C206.901 287.517 206.936 286.307 207.722 285.767ZM202.596 298.036C200.93 296.991 194.466 295.712 196.765 292.671C199.651 288.831 211.582 299.128 213.494 300.995C213.834 301.324 214.174 301.688 214.256 302.145C214.386 302.85 213.799 303.543 213.119 303.754C212.438 303.965 211.687 303.813 211.007 303.589C207.711 302.498 205.47 299.832 202.596 298.036ZM225.882 322.68C225.178 323.29 224.134 323.349 223.219 323.161C222.304 322.973 221.448 322.574 220.533 322.374C216.227 321.423 213.224 324.828 209.928 326.566C210.937 321.682 215.488 319.357 220.192 319.439C221.741 319.475 223.289 319.674 224.826 319.897C225.225 319.956 225.636 320.015 225.964 320.249C226.727 320.79 226.586 322.069 225.882 322.68ZM248.112 323.008C247.186 325.533 243.643 326.049 241.226 324.875C238.81 323.701 237.156 321.447 235.208 319.592C230.844 315.436 224.685 313.229 218.679 313.675C212.591 314.133 209.013 317.573 204.191 320.332C204.097 317.091 206.749 313.968 209.341 312.242C212.544 310.106 216.45 309.284 220.298 309.096C228.909 308.673 237.625 311.256 244.617 316.305C246.799 317.89 249.039 320.461 248.112 323.008Z" fill="#9AAA80"/>
</g>
<defs>
<clipPath id="clip0">
<rect width="275" height="419" fill="white"/>
</clipPath>
</defs>
</svg>
