<svg width="355" height="447" viewBox="0 0 355 447" fill="none" xmlns="http://www.w3.org/2000/svg">
<g clip-path="url(#clip0)">
<path d="M136.979 29.2093C129.868 29.5811 123.194 34.4536 120.678 41.1084C119.061 45.3783 116.75 51.674 112.45 50.1225C111.09 49.6353 110.166 48.3787 109.331 47.199C105.943 42.4035 101.425 37.0694 95.572 37.5951C92.5043 37.8644 89.5779 39.8005 86.5616 39.2107C84.2127 38.7491 82.4543 36.877 80.5675 35.4025C69.9655 27.1064 51.7136 32.9149 47.8887 45.8142C37.6974 43.0831 26.0943 43.4164 17.4304 49.4429C8.76654 55.4694 4.45386 68.1636 9.94739 77.1649C0.872801 84.1146 0.62893 99.745 9.47248 106.977C3.78642 118.222 8.99758 133.647 20.344 139.148C9.53666 147.829 11.6545 167.716 24.0534 173.935C18.4059 185.398 18.7909 199.631 25.0418 210.774C14.2472 218.108 10.6918 234.239 17.3919 245.42C10.7945 249.92 9.11309 259.396 11.6032 266.974C14.106 274.565 19.8819 280.579 25.8632 285.874C21.5634 297.543 21.2425 310.634 24.9647 322.495C26.1841 326.38 27.8784 330.227 30.7535 333.112C37.7231 340.113 49.2107 339.433 58.773 336.933C66.9235 334.817 75.5232 331.124 79.2711 323.598C82.865 316.391 80.8627 307.365 76.1778 300.812C71.4929 294.26 64.5361 289.734 57.5409 285.708C57.7206 281.72 57.8874 277.719 58.0671 273.732C65.4731 278.809 76.2291 282.053 81.928 275.116C81.774 282.028 86.8953 283.951 93.4156 286.246C99.936 288.541 107.817 286.208 112.04 280.733C108.356 288.567 115.351 298.043 123.733 300.261C132.114 302.479 140.906 299.684 149.121 296.914C140.624 305.082 137.004 317.956 139.995 329.355C143.422 342.421 154.717 353.397 154.165 366.899C153.909 373.22 151.008 379.106 149.737 385.299C145.386 406.635 160.557 426.548 174.766 443.063C173.008 434.908 178.424 426.984 184.316 421.086C190.207 415.175 197.151 409.648 199.769 401.737C200.899 398.339 204.544 384.478 202.298 377.323C198.986 366.758 188.949 362.129 188.949 356.846C188.949 342.344 191.247 328.804 168.952 318.7C178.925 319.418 193.839 317.815 203.479 315.148C203.479 319.841 210.846 326.47 215.544 326.278C230.343 325.662 229.714 339.92 238.25 335.907C251.329 329.752 262.303 338.651 272.238 333.843C282.801 328.739 285.124 319.187 283.045 316.827C289.039 318.405 302.606 309.249 304.814 299.492C307.599 296.825 313.234 297.427 315.223 294.132C319.651 286.823 321.346 274.129 316.173 267.32C338.25 253.793 330.51 236.406 319.716 225.058C325.248 216.89 323.553 204.645 315.993 198.298C324.991 196.644 331.794 187.193 330.51 178.141C330.048 174.858 328.675 171.768 328.251 168.486C327.84 165.331 328.315 162.126 328.854 158.997C331.717 142.302 336.402 125.915 342.781 110.221C344.013 107.195 345.309 104.156 346.002 100.963C347.466 94.1801 345.874 86.6662 341.253 81.486C349.904 73.7028 348.184 57.521 338.109 51.7125C341.138 46.7374 340.56 39.839 336.722 35.4409C334.695 33.1201 331.922 31.4916 330.099 29.0041C326.724 24.3881 327.378 18.041 325.581 12.6171C322.758 4.10311 313.041 -1.47462 304.262 0.35898C295.482 2.19258 288.795 11.1939 289.617 20.1182C285.497 16.2972 278.039 18.0666 275.177 22.9007C272.315 27.7347 273.65 34.2869 277.372 38.5055C267.745 35.1717 256.091 43.6472 256.309 53.8154C243.268 50.9432 232.808 36.3129 219.869 39.6082C209.755 42.1855 205.699 54.0718 203.286 64.2015C200.193 60.5471 195.457 58.3417 190.669 58.2904C192.646 48.7505 187.601 38.1977 178.95 33.7227C170.607 29.4144 165.063 32.9021 156.989 34.4408C149.519 35.8512 145.065 28.7733 136.979 29.2093Z" fill="#F8D5A5"/>
<path d="M49.0567 84.9867C54.7299 92.6801 55.6797 103.592 51.4056 112.144C57.3483 112.516 61.2888 118.607 62.6365 124.403C63.9842 130.198 63.7788 136.404 66.2304 141.815C68.7076 147.278 73.7134 151.432 75.5103 157.151C79.4893 169.807 66.3844 181.68 65.6913 194.926C65.4089 200.272 67.1674 205.863 65.2677 210.864C63.997 214.21 61.2246 216.8 59.8769 220.109C56.3985 228.623 62.9317 239.65 57.4253 247.023C55.3717 249.78 51.7778 251.703 51.29 255.101C51.0333 256.922 51.7521 258.717 52.4837 260.396C56.0135 268.59 62.2258 278.117 71.0693 276.848C75.4975 276.206 80.0669 272.821 84.0073 274.95C85.8941 275.976 86.9595 278.002 88.3714 279.617C92.3118 284.105 99.705 285.054 104.647 281.707C105.609 281.053 106.585 280.233 107.753 280.194C109.871 280.13 111.077 282.515 111.834 284.49C115.056 292.888 121.91 301.941 130.831 300.659C135.246 300.018 138.93 296.876 143.268 295.812C145.347 295.299 147.568 295.273 149.557 294.491C152.574 293.311 154.666 290.593 157.04 288.388C163.509 282.412 173.11 280.027 181.633 282.297C184.033 282.938 186.421 283.913 188.898 283.682C191.195 283.464 193.236 282.207 195.354 281.297C204.133 277.527 215.236 280.156 221.41 287.452C231.023 286.157 241.176 291.362 245.72 299.928C253.601 299.017 261.482 298.094 269.363 297.184C266.873 286.028 273.085 273.539 283.481 268.769C278.168 259.127 281.235 245.715 290.233 239.342C280.234 233.713 279.592 217.006 289.116 210.633C284.495 206.876 280.003 202.721 277.333 197.4C274.664 192.092 274.086 185.373 277.231 180.334C279.079 177.372 282.108 175.038 282.968 171.666C283.918 167.934 281.954 164.152 281.145 160.382C279.528 152.778 283.199 144.329 289.886 140.341C291.144 139.584 292.556 138.917 293.288 137.648C295.097 134.468 291.35 130.801 291.427 127.147C291.568 120.351 303.158 119.915 305.443 113.516C306.534 110.49 305.096 107.208 304.429 104.054C302.478 94.7573 309.383 83.9352 318.894 83.6275C311.552 76.6778 307.779 66.125 309.075 56.0979C303.466 56.521 296.971 57.4827 294.173 62.3552C293.249 63.9708 292.864 65.8172 292.261 67.5739C290.31 73.1645 285.83 77.819 280.311 79.9603C277.192 81.1784 273.765 81.6272 270.877 83.3198C265.743 86.3202 263.33 92.539 258.517 96.0139C255.09 98.4758 250.79 99.3221 246.978 101.13C241.022 103.938 236.466 108.939 231.37 113.106C226.274 117.273 219.895 120.787 213.413 119.697C208.331 118.838 203.864 115.247 198.717 115.222C191.914 115.196 185.83 121.428 179.169 120.005C173.572 118.812 169.722 112.465 163.997 112.516C158.914 112.555 154.704 117.799 149.673 117.055C143.987 116.209 141.792 108.49 136.363 106.605C132.525 105.272 128.418 107.246 124.375 107.669C116.314 108.503 108.202 101.989 107.303 93.9495C100.899 96.5652 92.9151 98.963 87.6141 94.5265C85.7658 92.9878 84.5464 90.7824 82.634 89.3206C79.4251 86.8587 75.0354 86.9485 71.0308 86.4099C67.0005 85.8714 64.4334 82.0247 61.0577 81.4477C57.8617 80.8835 52.7661 84.7687 49.0567 84.9867Z" fill="#A5B19D"/>
<path d="M241.767 74.9338C241.15 69.4458 238.583 64.9323 234.245 60.7907C230.626 57.3287 224.644 55.9439 220.678 59.1238H220.665C219.561 59.5982 218.676 60.3035 217.931 61.1497C217.2 61.4318 216.519 61.9319 216.006 62.7525C214.273 65.4965 213.323 68.4072 212.951 71.382C214.145 74.2927 215.018 77.2803 215.698 80.3576C215.942 81.05 216.199 81.7553 216.455 82.4477C218.162 85.0378 220.229 87.3715 222.283 89.6923C223.309 90.2949 224.323 90.9361 225.325 91.59C229.098 91.1028 233.629 90.8335 236.632 91.6926C238.904 89.3205 240.496 86.102 241.292 82.9093C242.28 82.2425 242.986 81.1013 243.14 79.678C243.332 77.8188 242.845 76.3058 241.767 74.9338Z" fill="white"/>
<path d="M162.175 59.3931C160.622 56.8671 157.695 54.2898 154.319 52.3921C148.685 56.9697 141.856 60.1368 136.363 64.8041C134.553 70.3306 132.64 75.8185 130.818 81.3321C131.485 84.807 132.525 88.1793 134.322 91.1284C135.516 93.0774 136.966 94.6033 138.609 95.6547C139.379 95.4239 140.239 95.1803 140.74 95.0777C142.626 94.7187 144.526 94.5135 146.438 94.2955C149.224 93.5262 152.009 92.821 154.846 92.2824C155.218 91.8978 155.577 91.5003 155.911 91.0771C156.206 90.9233 156.514 90.7437 156.797 90.5001C159.21 88.4998 160.917 85.7302 161.571 82.7298C162.303 81.0757 162.855 79.396 163.24 77.6649C164.126 75.7672 164.819 73.4207 164.562 71.4718C165.217 67.4584 164.588 63.2911 162.175 59.3931Z" fill="white"/>
<path d="M76.7682 326.393C71.5057 333.689 59.171 336.381 51.0718 335.984C44.9109 335.689 33.8982 332.842 30.6508 326.265C29.5085 324.957 28.5073 323.521 27.519 321.982C24.6054 317.468 22.4619 311.634 21.7174 305.71C21.1398 297.619 23.7069 289.759 30.7535 285.272C31.6905 284.682 31.6776 282.925 30.4198 282.707C30.2914 282.681 30.1631 282.694 30.0347 282.681C29.9962 282.322 29.8679 281.976 29.4828 281.733C29.3544 281.656 29.2389 281.566 29.1106 281.489C28.8282 280.873 28.3404 280.322 27.5832 280.002C26.582 279.578 25.6194 279.053 24.6824 278.489C22.372 276.783 20.2413 274.873 18.2904 272.757C16.2367 270.103 14.735 267.051 14.0932 263.781C13.2076 259.319 13.5413 254.357 15.9415 250.382C17.9438 247.061 21.1655 246.048 24.2075 243.919C26.9799 241.983 25.3113 237.726 21.8971 238.444C21.6789 238.496 21.512 238.598 21.2938 238.649C19.1375 234.444 16.7886 230.751 15.7746 225.878C15.4024 224.109 15.4024 222.634 15.6078 221.314C16.9812 216.839 20.1387 213.556 24.477 211.979C25.2728 212.684 26.0943 213.325 26.9286 213.761C30.2016 215.48 32.7173 210.966 29.7908 208.876C25.8504 206.055 22.5902 197.708 22.2565 192.399C22.0255 188.847 22.0768 184.655 23.4887 181.334C24.2845 179.474 25.645 178.013 26.736 176.371C28.5073 174.756 30.638 173.397 33.2564 172.435C33.8596 172.217 33.7826 171.332 33.1024 171.307C32.0755 171.268 31.1129 171.383 30.1887 171.589C30.792 171.127 30.6893 170.037 30.0475 169.627C29.9192 169.537 29.7908 169.499 29.6625 169.422C29.4186 168.537 28.7768 167.806 27.5447 167.626C21.7944 166.793 15.2356 163.126 14.0419 157.061C12.6685 150.086 15.1971 147.021 18.3032 141.995C19.2787 141.187 20.3055 140.43 21.4479 139.815C21.8458 139.764 22.2308 139.738 22.6416 139.622C23.1678 139.481 23.5144 139.148 23.7326 138.763C25.183 138.212 26.6847 137.815 28.2249 137.635C28.5972 137.597 28.9437 137.096 28.5715 136.802C26.428 135.045 24.169 134.865 21.9998 135.648C16.917 133.737 13.0022 129.377 9.89605 124.992C5.22399 118.389 9.56234 110.439 16.1597 107.374C17.2507 106.861 17.0197 105.336 16.1597 104.771C14.7735 103.848 13.49 103.579 12.2963 103.733C5.10847 100.296 2.34887 92.5516 4.62073 84.73C5.49353 81.7424 7.64987 78.9727 10.3966 77.4084C12.5786 76.1647 15.1842 76.5237 17.1609 74.9209C17.3791 74.7414 17.4047 74.4336 17.3534 74.1772C17.2892 73.8695 17.225 73.5745 17.1609 73.2668C17.0197 72.6 16.3394 71.882 15.6591 71.7666C14.5553 71.5743 13.5028 71.5614 12.4888 71.6897C10.1399 69.356 9.47249 64.6887 9.3698 62.0729C9.06176 54.6103 13.721 48.9556 20.421 46.0706C26.4793 43.4677 32.5633 42.506 39.1606 43.6985C43.6273 44.5063 47.3496 47.2503 51.7265 47.917C52.7404 48.0709 53.395 47.0323 52.7148 46.2245C43.4605 35.1203 20.6136 37.5437 11.0256 47.0964C6.86691 51.2508 4.77475 66.7018 9.93456 72.3949C4.15865 74.7542 0.487743 82.1912 0.0513415 88.2561C-0.295213 93.103 1.02683 98.6294 4.19716 102.399C5.26249 103.656 6.71289 105.053 8.34298 106.105C4.80042 110.272 3.06765 118.594 3.65807 122.21C4.54371 127.544 7.80389 130.07 11.1668 134.032C12.8353 135.994 14.735 137.891 16.917 138.981C10.7817 144.508 6.63587 149.893 8.24029 158.741C9.71636 166.87 17.5588 171.845 24.4898 173.397C22.0255 175.705 19.33 177.666 17.6101 180.705C15.4923 184.449 15.672 190.271 16.0057 194.348C16.3522 198.644 18.2134 203.452 20.7291 207.363C13.9007 207.735 9.06176 217.275 9.26712 223.16C9.44682 228.097 11.7187 236.726 15.826 241.201C9.08743 245.984 6.23798 255.447 7.95792 263.55C9.72919 271.898 14.812 278.86 21.9998 283.207C11.2438 289.9 15.5051 311.57 19.4712 321.046C22.4619 328.188 29.3801 336.189 37.5306 337.535C43.3963 339.908 49.8397 340.574 56.3343 340.036C63.0729 339.472 75.305 335.112 77.9876 328.393C78.3598 327.47 77.6153 326.624 76.7682 326.393Z" fill="#F7941D"/>
<path d="M80.7472 31.3249C77.7437 27.9655 72.8791 26.4909 68.5408 26.9525C61.892 27.6449 59.0811 30.235 54.4732 34.6972C52.3682 36.736 49.2364 38.7619 49.2621 41.9418C49.2621 42.4291 49.968 42.4932 50.1605 42.0957C53.5747 35.1716 61.6353 32.0814 69.0413 32.2353C74.3808 32.3379 75.3948 35.2357 78.7192 38.2875C80.0156 39.4671 82.4799 40.1339 83.4683 41.4546C83.7891 41.8777 84.5079 41.7367 84.5978 41.1981C85.1369 37.9925 82.8393 33.6714 80.7472 31.3249Z" fill="#F7941D"/>
<path d="M118.38 49.6866C119.099 47.5197 120.1 45.5194 121.397 43.7371C119.202 44.968 117.084 46.4298 114.992 48.0069C114.941 41.5316 109.46 37.967 102.888 35.8385C96.6502 33.8126 88.8719 35.582 85.7786 41.724C85.4192 42.4292 86.3819 43.3139 87.0237 42.7497C91.4647 38.762 96.4833 36.9027 102.311 39.3005C104.826 40.3391 106.957 41.5829 108.882 43.4934C111 45.5963 111.693 48.648 112.925 51.4305C113.054 51.7254 113.298 51.8536 113.554 51.9177C113.824 52.1998 114.17 52.4178 114.62 52.4819C114.889 52.5204 115.172 52.5717 115.441 52.6101C116.057 52.7127 116.545 52.3024 116.699 51.7254C116.879 51.0586 117.533 50.3662 118.38 49.6866Z" fill="#F7941D"/>
<path d="M208.818 60.419C208.151 60.0984 207.573 59.5214 207.073 58.8034C206.996 59.047 206.88 59.265 206.816 59.5086C203.658 57.0082 199.654 55.0849 195.688 55.1746C193.467 55.2259 190.72 55.4952 188.68 56.5082C187.64 57.0211 186.754 57.7519 185.92 58.5597C186.151 59.1496 186.382 59.7266 186.575 60.2779C190.22 58.1494 193.827 57.1749 198.601 59.265C201.027 60.3292 203.453 62.7783 205.982 63.8682C205.969 64.0221 205.93 64.1759 205.917 64.3298C205.738 66.048 208.343 67.1379 208.998 65.2915C209.383 64.1888 209.755 63.1117 210.14 62.0603C209.691 61.4961 209.267 60.9575 208.818 60.419Z" fill="#F7941D"/>
<path d="M323.772 4.7828C311.296 -4.37236 289.758 0.820691 288.667 16.5922C288.616 16.5794 288.577 16.5537 288.539 16.5409C286.896 16.1049 284.983 15.81 283.263 15.7074C280.042 15.5023 276.576 16.2844 274.189 18.5797C268.169 24.3882 272.815 31.5302 276.281 37.3003C270.98 33.1458 260.647 35.3513 256.437 40.4674C252.754 44.9296 253.614 55.0849 258.632 58.1751C260.018 59.0342 262.021 57.2519 260.968 55.8414C258.286 52.2255 256.694 45.0835 260.558 41.8009C262.74 39.9545 265.717 39.0569 268.49 38.6082C271.198 38.1722 273.457 39.198 276.127 38.3902C276.448 38.2876 276.576 37.9158 276.461 37.5952C276.512 37.685 276.576 37.7875 276.627 37.8773C277.256 38.9415 279.323 38.5953 279.156 37.1977C278.899 35.1333 278.822 33.6844 277.847 31.7995C276.127 28.44 273.239 24.6831 276.14 21.0544C279.387 16.9897 284.483 18.336 288.731 19.926C288.782 20.362 288.77 20.7723 288.847 21.2339C289.206 23.3752 291.966 22.6443 292.376 20.939C293.313 20.5286 293.634 18.9387 292.684 18.3104C292.967 14.9253 293.172 12.0787 296.137 9.11676C298.255 7.00107 301.181 5.97528 304.005 5.28287C309.961 3.82112 315.762 4.23144 321.025 7.48832C326.878 11.117 330.099 16.8871 328.328 23.9009C326.441 31.3764 322.026 33.1971 315.364 35.3256C315.249 35.082 315.133 34.864 315.031 34.6076C314.736 33.8511 313.516 34.1588 313.786 34.9538C313.914 35.3256 314.107 35.6462 314.286 35.9796C313.221 37.1977 314.158 39.557 316.058 39.0441C316.443 39.7878 316.764 40.5828 316.802 41.5317C316.969 45.7374 313.324 48.5327 310.436 50.9561C307.535 53.3923 304.069 55.1618 300.386 56.085C297.613 56.7774 295.072 56.2902 292.466 57.5852C291.722 57.9571 291.722 59.1752 292.466 59.5471C292.659 59.6368 292.864 59.6625 293.057 59.7394C292.364 67.561 288.5 74.6133 280.414 77.1906C277.436 78.1395 274.202 77.3701 271.326 78.4216C266.462 80.1911 265.589 83.6146 262.752 87.8204C260.84 90.6541 259.094 92.6544 256.258 94.5008C253.216 96.8216 249.814 97.95 246.028 97.8987C244.488 97.6423 242.935 97.4884 241.369 97.4243C238.776 98.168 238.211 100.527 237.03 102.771C231.935 112.388 225.722 118.171 214.312 116.171C209.588 115.337 205.404 110.259 200.783 110.195C196.535 110.131 192.723 115.44 188.757 116.876C178.321 120.646 174.971 115.132 169.837 108.246C170.056 107.836 170.158 107.349 170.03 106.785C169.991 106.644 169.953 106.49 169.927 106.349C169.568 104.848 167.386 104.182 166.333 105.4C154.923 118.594 146.644 113.324 137.621 103.143C137.454 102.951 137.107 102.861 136.863 102.951C132.64 104.489 130.625 106.99 125.388 106.797C114.389 106.387 110.191 99.8734 110.756 89.3847C110.846 87.7434 108.651 87.7562 108.125 89.0257C103.414 100.22 86.4589 91.7696 83.6993 84.307C83.2372 83.0504 82.0307 82.5632 80.8113 83.1274C73.7776 86.4227 65.6528 81.6528 63.4836 74.6262C63.3039 74.0491 62.8034 73.408 62.1616 73.3055C61.9947 73.2798 61.8279 73.2542 61.661 73.2285C59.325 72.8695 58.2468 76.3443 60.6598 76.8572C60.2619 76.7675 60.339 77.3445 60.5957 78.1523C59.71 80.3577 55.9621 80.7168 53.87 80.986C52.4709 81.1656 51.1104 81.3451 49.6985 81.3964C47.8887 81.4605 47.4523 81.0886 46.1559 79.9603C45.0521 78.9986 43.6787 79.5243 43.0883 80.4731C41.8304 80.4603 40.6624 81.8708 41.8304 82.935C42.0229 83.1017 42.2026 83.2812 42.3951 83.4479C42.9599 83.9608 43.6402 83.9224 44.1664 83.6274C55.8081 86.0765 50.9948 105.772 46.4383 111.952C45.5013 113.221 47.0415 114.773 48.3636 114.452C57.3227 112.298 63.5606 121.864 61.9049 129.48C61.5455 131.147 60.0694 132.763 59.556 134.289C57.9002 139.148 58.3367 142.777 62.4183 146.252C67.2701 150.381 72.0191 151.496 73.4053 158.536C74.5092 164.165 72.4042 169.204 70.0297 174.179C67.3342 179.834 61.5968 186.45 61.7894 193.002C61.8792 196.323 63.9457 198.9 64.78 202.016C66.6411 208.915 62.829 210.851 58.3495 215.121C54.8583 218.454 53.5106 220.314 55.0636 225.225C57.6564 233.405 62.0846 236.367 55.4102 245.407C53.0742 248.561 48.3893 251.331 47.1699 255.152C45.3601 260.82 51.0205 263.32 54.5117 266.974C54.7171 267.179 54.9353 267.295 55.1792 267.359C56.4499 269.782 57.8104 272.334 58.1826 274.86C58.7602 278.784 55.5899 282.092 56.0905 285.349C56.5782 288.554 57.1686 287.323 59.4405 288.811C61.7509 289.016 63.92 289.695 65.9737 290.862C68.3611 292.439 70.5944 294.209 72.6609 296.171C75.0611 298.44 77.7437 301.146 79.3738 303.992C84.9957 313.853 81.2092 322.008 73.6492 329.586C72.6481 330.586 73.9444 332.355 75.1895 331.586C91.5545 321.328 84.7133 304.287 73.3668 293.388C69.8243 289.978 67.3471 289.503 63.2911 287.182C60.1593 285.387 60.0181 287.246 60.416 283.233C60.5187 282.22 61.9049 280.374 62.0846 279.374C62.8419 275.219 60.9037 268.321 57.1301 265.423C57.0916 265.307 57.066 265.205 56.9889 265.089C56.9504 265.038 54.8968 262.602 54.9353 262.679C52.2399 261.384 51.5211 259.512 52.7661 257.088C52.7661 254.69 53.8058 252.818 55.9108 251.472C58.465 247.818 61.2503 245.689 62.7135 241.342C65.3062 233.636 56.7964 224.058 60.724 218.493C63.8559 214.056 68.7846 211.864 69.5162 205.812C69.9398 202.35 68.8231 200.324 67.7963 196.977C65.9352 190.925 69.1825 187.335 71.8009 182.27C76.1136 173.91 79.1427 167.306 77.4356 157.766C76.6912 153.586 75.4462 150.727 72.1732 147.816C66.5256 142.815 64.3949 143.444 64.5746 133.34C64.7543 123.325 62.7648 111.221 50.8665 110.978C54.4347 103.566 55.7952 91.1798 50.6483 84.6532C52.6121 84.5122 54.6272 84.0634 56.5782 83.7172C59.2095 83.2428 60.6213 82.1785 61.507 80.5629C62.1231 81.8708 62.7777 83.0761 62.9189 83.23C64.6131 85.1918 67.5139 86.7176 69.8756 87.5254C72.7507 88.5128 74.8172 88.3076 77.7565 88.4487C82.4286 88.6795 79.1042 87.128 82.7366 91.9235C88.012 98.9117 101.322 99.5913 107.843 93.6674C107.817 100.899 109.845 105.72 118.149 108.811C121.628 110.106 126.171 110.695 129.83 109.682C131.049 109.349 135.952 105.4 136.376 105.464C136.889 105.541 142.883 112.683 143.692 113.286C145.553 114.683 147.491 116.068 149.776 116.837C157.297 119.389 163.06 115.222 167.899 110.067C169.85 121.312 182.775 124.505 192.505 120.069C195.636 118.645 197.613 115.927 200.95 115.388C204.737 114.773 208.331 118.645 211.924 119.979C218.368 122.377 225.876 121.441 231.588 117.568C234.54 115.568 236.466 113.157 238.198 110.093C241.523 104.22 242.588 103.643 248.852 102.361C254.615 101.181 259.608 98.6681 263.381 93.9751C265.05 91.8979 265.897 88.1153 267.668 86.333C270.582 83.3967 274.689 82.8709 278.206 81.7041C281.441 80.627 283.905 79.9731 286.78 77.8702C292.992 73.3311 295.162 67.6764 295.303 60.5216C301.81 61.5986 309.871 57.0467 313.773 52.4563C315.647 50.2637 317.79 47.4171 318.278 44.4936C318.753 41.6727 318.15 40.2238 317.251 38.762C325.094 36.3386 329.997 34.3896 332.038 25.0293C333.976 16.246 330.664 9.84763 323.772 4.7828Z" fill="#F7941D"/>
<path d="M321.448 81.6912C314.235 79.8961 311.758 72.1898 311.283 65.6889C311.231 64.9452 310.68 54.3796 312.81 53.8539C313.888 53.5846 313.413 52.0331 312.361 52.2254C312.194 52.2511 312.027 52.2767 311.86 52.3152C311.552 52.3665 311.347 52.6486 311.257 52.9179C309.139 58.8674 307.727 63.7784 309.114 70.1383C310.436 76.2161 313.683 78.9472 317.508 82.7555C309.807 85.7431 305.481 89.3205 302.786 98.1551C301.746 101.566 301.156 105.413 302.106 108.939C302.542 110.554 303.646 111.683 304.095 113.234C304.262 113.837 304.506 114.145 304.75 114.337C304.467 114.439 304.134 114.581 303.71 114.811C297.742 117.953 290.99 119.607 289.565 127.57C288.885 131.365 289.707 136.25 291.901 139.802C283.392 142.828 278.617 152.56 280.003 161.677C280.439 164.536 281.607 167.088 282.262 169.845C283.494 175.012 283.802 171.101 280.799 174.666C276.127 180.218 274.279 183.321 275.28 191.104C276.101 197.541 278.822 204.055 284.072 208.107C284.945 208.774 288.77 210.53 288.654 211.325C288.616 211.646 283.392 214.98 282.994 215.441C275.562 224.071 282.121 234.829 290.656 239.522C285.086 242.15 281.518 247.1 280.183 253.344C278.874 259.473 280.465 263.73 283.443 268.064C278.026 269.526 273.38 272.629 270.069 277.578C266.231 283.31 267.412 287.913 267.245 293.683C264.151 292.952 261.649 292.029 257.849 292.555C252.497 293.298 249.789 295.76 245.887 298.453C242.575 291.696 237.249 285.002 228.854 286.054C227.404 286.233 225.106 287.811 223.874 287.541C223.348 287.426 223.027 287.362 222.783 287.31C223.143 287.336 223.463 287.285 222.655 286.785C222.077 286.426 220.845 284.169 220.306 283.515C217.225 279.771 212.913 277.412 208.176 276.758C201.964 275.899 199.282 276.873 194.725 280.438C191.414 283.028 191.131 283.707 187.82 283.553C185.676 283.451 183.096 282.335 180.889 282.028C170.813 280.617 160.224 286.259 152.574 292.529C143.499 299.966 134.514 311.493 135.362 323.88C136.273 337.382 148.813 345.87 151.046 358.449C153.639 373.053 143.679 386.722 145.296 401.519C147.029 417.342 161.135 422.958 166.141 436.96C167.309 440.217 174.779 453.257 177.731 443.358C177.924 442.717 177.834 441.974 177.693 441.217C178.617 439.576 178.655 437.447 178.963 435.588C179.759 430.844 181.44 426.42 184.945 423.086C189.835 418.432 196.522 415.944 197.485 408.533C197.562 408.443 197.613 408.341 197.69 408.251C198.191 407.661 197.408 406.84 196.83 407.392C195.29 408.841 193.904 410.341 192.517 411.815C188.218 414.636 183.597 416.893 180.696 421.676C180.324 422.291 179.952 422.92 179.579 423.548C179.104 424.048 178.617 424.535 178.193 425.048C176.383 427.241 175.19 427.933 174.676 430.946C174.548 431.703 174.843 433.472 175.074 435.306C174.92 436.781 174.92 438.268 175.202 439.794C174.882 441.166 173.893 441.499 171.506 439.358C169.824 437.858 168.9 431.177 167.796 428.972C165.64 424.663 162.573 421.855 159.235 418.547C148.428 407.892 148.698 394.98 152.753 381.119C155.423 372.015 157.772 362.898 154.948 353.499C152.304 344.729 144.333 338.523 141.279 329.804C135.695 313.84 149.634 295.53 166.089 288.888C168.785 286.49 172.712 285.349 176.281 284.823C181.967 284.002 187.062 285.605 191.683 288.477C196.111 285.4 198.588 281.194 204.467 280.579C211.758 279.822 219.112 282.335 220.075 290.029C220.19 290.965 220.871 292.093 222.013 291.965C226.351 291.452 229.303 288.823 234.04 290.452C239.2 292.234 241.536 297.402 242.896 302.223C243.268 303.569 244.911 304.287 246.131 303.544C254.499 298.389 258.26 295.76 268.644 298.158C269.671 298.389 271.006 297.85 271.211 296.709C271.917 292.786 270.479 289.195 271.519 285.259C273.367 278.232 280.825 272.821 287.473 271.27C289.103 270.885 289.309 268.962 288.372 267.846C282.262 260.448 282.634 246.753 292.992 242.625C293.878 242.266 294.263 241.483 294.276 240.714C295.059 240.291 295.149 238.791 294.032 238.329C290.502 236.867 286.549 234.175 285.368 230.443C281.941 219.673 288.872 215.518 292.607 211.774C293.082 211.3 293.121 210.428 292.607 209.966C287.422 205.145 282.57 202.798 280.35 194.99C279.092 190.566 279.271 187.527 280.825 183.219C282.544 178.41 284.213 178.09 287.884 175.384C288.782 174.717 289.257 173.589 288.628 172.538C282.942 162.908 280.632 146.072 295.38 143.123C295.598 143.149 295.791 143.123 295.983 143.021C296.445 142.944 296.856 142.828 297.344 142.777C299.847 142.52 299.975 138.751 297.344 138.776C296.574 138.789 295.829 138.84 295.097 138.943C292.98 134.878 292.492 130.75 294.648 126.185C297.587 119.927 302.247 118.491 308.652 117.632C309.64 117.504 309.845 116.273 309.499 115.555C303.389 102.81 307.907 90.5002 321.461 85.3328C323.091 84.7429 323.425 82.1785 321.448 81.6912Z" fill="#F7941D"/>
<path d="M225.748 321.982C225.774 322.008 225.812 321.995 225.838 322.021C225.145 321.174 225.325 321.431 225.748 321.982Z" fill="#F7941D"/>
<path d="M315.685 269.731C314.864 268.462 313.876 267.538 312.656 267.32C312.438 267.282 312.207 267.461 312.284 267.692C312.695 269.116 313.324 270.526 313.965 271.949C314.8 276.668 315.762 281.31 315.249 286.951C315.185 287.605 315.108 288.246 315.031 288.888C313.285 294.337 309.794 299.184 303.915 297.35C302.029 296.761 301.271 299.287 302.657 300.325C303.184 300.71 303.376 301.274 303.389 301.915C303.158 301.838 302.889 301.787 302.593 301.787C299.936 301.813 299.577 306.057 298.845 307.762C295.906 314.596 288.012 316.289 281.312 315.199C280.26 315.032 278.899 315.891 279.374 317.135C279.977 318.712 281.081 319.713 282.416 320.341C281.877 322.251 281.133 324.021 280.144 325.56C280.157 325.213 280.196 324.854 280.247 324.47C280.26 324.418 280.183 324.38 280.157 324.431C277.667 328.663 272.032 332.214 267.065 333.612C266.154 333.868 265.268 334.022 264.421 334.112C258.53 334.292 252.484 332.009 248.3 326.919C248.3 326.893 248.287 326.867 248.287 326.855C248.287 325.547 246.477 325.047 245.823 326.188C246.233 326.034 246.272 326.034 245.938 326.162C245.707 326.239 245.502 326.367 245.335 326.547C245.014 326.867 244.95 327.278 244.744 327.662C244.667 327.803 244.578 327.932 244.488 328.073C244.141 328.201 243.795 328.38 243.512 328.727C242.37 330.086 241.163 331.689 239.687 332.702C238.211 333.715 236.504 333.689 234.9 333.15C231.293 331.163 228.764 328.188 227.455 324.085C227.352 324.008 226.313 322.7 225.748 321.956C225.389 321.623 224.811 321.7 224.477 321.995C224.144 322.482 223.592 323.059 222.937 323.636C222.321 323.482 221.641 323.521 220.948 323.816C217.97 325.124 214.877 326.008 212.181 324.508C210.846 323.098 209.73 320.815 209.036 317.263C208.805 317.084 208.844 316.571 208.536 316.404C207.984 316.122 207.65 315.891 207.381 315.686C207.252 315.558 207.111 315.443 206.957 315.353C206.341 314.789 206.546 314.673 204.377 314.609C203.261 314.584 202.195 315.52 201.284 315.891C195.328 318.264 191.811 318.328 184.816 317.648C180.003 317.174 175.241 316.494 170.402 316.648C169.196 316.686 168.721 317.802 168.977 318.687C168.259 319.661 168.361 321.405 169.876 321.931C178.899 325.072 186.895 329.419 187.743 340.139C188.038 343.947 187.229 346.473 187.229 349.268C186.754 351.627 186.472 353.935 186.754 356.064C187.396 360.924 191.041 364.052 194.083 367.617C198.897 373.259 200.706 379.336 201.476 386.658C201.9 390.723 202.028 393.467 200.719 397.006C199.641 399.904 198.319 400.66 198.473 403.66C198.499 404.212 199.153 404.725 199.667 404.353C202.696 402.199 202.721 398.903 203.427 395.518C204.968 388.171 205.815 381.144 203.517 373.823C201.951 368.822 198.871 366.04 195.867 362.539C194.045 359.846 192.299 357.103 191.105 354.025C189.783 348.845 190.233 342.959 189.822 337.818C189.809 337.702 189.655 337.702 189.655 337.818C189.655 337.869 189.642 337.92 189.629 337.984C189.424 335.433 188.872 332.894 187.358 330.394C184.649 325.957 180.337 322.662 175.677 320.277C181.671 321.161 187.704 322.918 193.583 322.559C196.291 322.392 199.846 320.277 202.811 319.828C202.991 323.149 205.314 326.944 207.368 328.727C211.719 332.509 219.176 332.753 223.579 328.842C224.413 332.471 227.93 336.305 230.369 337.741C237.03 341.677 242.473 339.1 246.785 334.074C250.392 339.369 260.635 340.998 265.859 340.357C270.826 339.741 276.037 336.907 278.797 332.625C279.04 332.253 279.22 331.907 279.387 331.573C281.723 328.598 283.045 324.841 283.379 320.713C287.011 321.854 291.953 320.687 294.918 319.43C300.514 317.033 304.493 312.994 305.186 306.672C305.314 305.454 305.186 303.505 304.211 302.492C304.339 302.274 304.403 302.005 304.608 301.851C304.852 301.659 305.173 301.595 305.468 301.492C313.118 303.505 318.74 297.786 320.165 290.567C321.59 283.22 320.588 275.488 315.685 269.731Z" fill="#F7941D"/>
<path d="M346.31 82.8451C346.156 82.6271 345.99 82.4092 345.836 82.1912C352.548 79.0497 357.105 68.3559 354.012 61.3549C352.869 58.7776 346.696 49.3147 342.152 49.2377C344.128 45.0577 345.014 41.4546 342.999 36.2231C340.778 30.453 337.056 26.3755 330.895 24.5932C328.02 23.7597 326.762 28.3373 329.663 29.0682C336.325 30.7479 349.673 43.9806 337.133 50.0584C335.708 50.7508 335.644 53.2383 337.133 53.9179C343.179 56.6234 351.008 59.7649 348.826 68.7405C348.146 71.5358 346.49 74.3439 344.565 76.8314C344.013 77.4213 343.461 77.9726 342.948 78.4599C342.704 78.6907 342.524 78.9343 342.396 79.1779C342.165 79.0241 341.934 78.8574 341.677 78.7292C339.315 77.5239 337.274 81.191 339.623 82.2425C343.782 84.0889 346.285 88.5767 347.145 93.2569C347.363 95.1418 347.478 96.8728 347.427 98.0011C347.389 98.9885 347.196 99.9886 346.939 100.989C346.811 101.489 346.67 101.976 346.49 102.438C346.426 102.617 346.349 102.797 346.272 102.989C344.616 106.515 340.265 108.387 338.519 111.118C338.314 111.439 337.236 111.657 337.082 112.195C336.607 113.773 336.722 114.478 336.812 115.863C337.12 120.389 337.929 124.223 337.788 127.762C336.414 131.442 334.81 135.712 331.601 138.161C330.716 136.443 327.943 138.02 328.919 139.802C329.779 141.366 331.383 146.111 331.717 148.265C332.577 153.676 331.37 155.907 328.623 159.164C328.174 159.523 327.751 159.895 327.224 160.241C326.518 160.69 326.198 161.305 326.12 161.933C325.222 162.754 324.529 163.216 323.977 164.908C323.784 165.485 323.99 166.19 324.426 166.601C330.176 172.114 331.871 176.525 329.252 184.219C328.238 187.206 325.954 191.168 323.014 193.874C322.527 194.182 322.077 194.425 321.692 194.515C321.025 194.656 320.332 195.272 320.075 195.951C319.305 196.336 318.522 196.656 317.713 196.797C317.701 196.772 317.675 196.759 317.649 196.733C315.621 194.72 312.759 198.182 315.21 199.9C320.319 203.478 331.768 220.07 318.471 222.288C317.046 222.532 316.52 224.673 317.598 225.584C320.986 228.443 324.336 230.751 326.518 234.021C327.07 234.97 327.558 235.931 327.982 236.931C328.521 238.393 328.893 240.022 328.944 241.958C329.227 250.985 322.719 262.563 313.426 265.141C311.719 265.615 312.451 268.051 314.145 267.756C314.171 267.756 314.196 267.743 314.222 267.731C314.633 269.154 316.006 270.372 317.906 270.077C326.98 268.692 334.194 257.806 335.657 249.177C337.326 239.252 333.398 229.994 324.49 226.096C323.9 225.596 323.271 225.109 322.604 224.583C331.036 219.147 325.838 206.901 320.242 199.708C320.627 199.567 320.986 199.387 321.346 199.221C321.525 199.272 321.679 199.349 321.898 199.362C326.891 199.58 333.308 191.091 334.81 186.95C336.183 183.167 336.543 178.038 335.606 174.115C335.092 171.922 334.053 169.293 332.808 167.409C332.23 166.537 330.022 163.446 330.022 164.677C330.022 164.536 329.958 164.459 329.945 164.331C333.899 162.921 337.493 157.215 338.122 153.407C338.763 149.534 337.878 145.11 335.375 142.046C338.609 139.969 340.522 135.032 341.638 131.801C343.615 126.095 343.012 121.633 342.319 116.299C353.601 110.234 354.076 97.8088 349.198 87.7433C348.48 85.961 347.491 84.3197 346.31 82.8451Z" fill="#F7941D"/>
<path d="M145.309 141.392C147.709 140.584 150.02 140.751 152.099 141.572C150.815 139.661 150.084 137.443 150.109 135.186C144.09 138.648 136.003 137.828 129.265 135.532C120.793 132.66 114.273 126.711 108.472 120.081C105.917 117.812 103.594 115.299 101.592 112.542C99.9873 111.721 99.1916 110.259 99.076 108.695C98.8578 108.31 98.5626 107.977 98.3444 107.58C97.6898 106.387 97.6 105.143 97.8824 103.989C97.0095 101.81 96.3934 99.5913 96.2009 97.373C96.0982 96.1421 94.2884 96.1036 94.2499 97.373C94.2499 97.4756 94.2499 97.591 94.2371 97.6936C94.1986 98.963 96.2394 98.963 96.2009 97.6936C96.2779 100.309 95.0842 99.6041 95.5848 103.066C95.8287 104.746 96.4191 106.579 97.0352 108.323C88.9233 103.938 80.6958 99.9375 71.9164 97.1935C64.8955 95.0009 60.9165 92.7698 54.0881 96.6421C52.7148 97.4115 53.9341 99.4759 55.3203 98.745C62.2514 95.0778 72.4042 99.8349 79.0016 103.002C85.1497 105.964 91.2593 109.875 97.2277 113.221C98.1776 113.76 99.0375 114.375 99.936 114.952C101.066 116.927 102.362 118.812 103.812 120.594C108.972 126.929 115.723 131.993 122.963 135.725C124.323 136.43 126.364 137.353 128.713 138.251C131.999 141.161 134.912 144.316 136.157 147.585C136.504 148.496 137.364 149.073 138.262 149.137C139.225 145.624 141.702 142.61 145.309 141.392ZM141.805 141.11C140.868 141.738 139.931 142.495 138.943 143.392C138.365 142.444 137.698 141.52 136.979 140.623C138.622 140.931 140.252 141.11 141.805 141.11Z" fill="#F7941D"/>
<path d="M156.976 116.606C158.054 116.735 159.068 116.953 160.07 117.209C160.339 117.222 160.622 117.273 160.891 117.299C161.096 115.876 162.11 114.606 163.509 114.234C162.97 114.068 162.444 113.875 161.892 113.76C152.381 111.721 134.168 117.978 129.072 106.143C128.687 105.246 127.173 105.887 127.493 106.81C131.408 118.004 147.902 115.529 156.976 116.606Z" fill="#F7941D"/>
<path d="M176.229 129.801C179.092 136.353 179.079 144.649 175.677 150.727C173.059 155.394 169.157 157.292 163.997 158.074C161.327 158.484 158.362 158.164 155.744 158.831C151.829 159.831 149.647 162.857 146.297 164.677C135.824 170.371 128.546 164.447 121.32 157.625C120.55 157.125 119.767 156.625 118.971 156.151C106.88 148.944 84.8802 147.598 81.1194 131.66C81.1066 131.634 81.0809 131.634 81.0681 131.621C81.7483 131.083 82.3388 130.493 82.6981 129.852C83.2244 128.89 82.9677 128.339 82.9677 127.352C82.9549 126.21 83.3271 125.031 83.3528 123.825C83.3656 123.223 82.3773 123.248 82.4414 123.825C82.5826 125.146 82.082 127.185 81.1322 128.224C80.5033 128.903 79.5021 129.172 78.732 129.66C78.0004 130.121 77.41 130.698 76.4858 130.775C74.6504 130.929 74.6375 133.814 76.4858 133.66C77.8079 133.545 79.3866 132.852 80.6958 131.916C79.3224 140.033 83.956 142.238 90.5662 145.572C93.7622 147.188 96.4576 149.073 99.3456 151.176C103.081 153.894 106.906 154.394 110.974 155.856C113.952 160.267 117.495 163.857 118.637 169.537C118.765 170.178 119.42 170.563 120.023 170.601C124.554 170.819 128.982 174.012 131.691 177.936C142.909 188.078 134.181 204.837 133 217.929C132.923 218.813 132.653 219.57 132.281 220.224C132.332 221.16 132.345 222.083 132.23 223.032C132.332 224.442 131.922 226.122 130.574 228.34C130.523 228.417 130.458 228.482 130.42 228.558C128.546 231.918 125.491 234.572 122 236.47C116.673 239.355 111.026 239.624 105.93 236.226C102.644 234.034 100.064 230.52 100.385 226.622C99.1274 216.467 110.538 203.324 118.149 198.99C118.611 198.734 118.778 198.259 118.753 197.785C118.817 197.772 118.894 197.785 118.958 197.772C119.908 197.657 120.293 196.233 119.202 195.977C112.887 194.515 105.622 192.964 100.976 188.117C96.1367 183.078 96.6373 179.051 96.9197 173.14C96.9325 172.768 96.7015 172.32 96.355 172.166C89.334 168.845 82.4029 168.883 77.4228 161.562C77.1148 161.1 76.242 161.369 76.4602 161.972C77.9876 166.024 81.8125 168.729 85.5989 170.589C87.6783 171.614 91.8369 172.025 93.3258 173.73C94.5837 175.153 93.7237 176.91 93.8906 179.18C94.5708 188.745 105.199 196.669 114.774 197.772C104.595 203.606 92.3503 220.557 97.1636 231.905C103.799 247.523 126.595 243.112 134.194 231.546C139.815 222.994 133.475 217.352 135.605 208.543C137.467 200.824 141.831 193.451 138.853 185.206C135.708 176.487 130.202 173.256 123.784 167.96C121.345 165.947 119.574 162.331 117.392 159.254C122.911 163.152 127.352 168.46 134.54 169.165C138.314 169.537 141.112 169.204 144.577 167.639C150.148 165.126 153.986 163.421 160.185 162.934C176.204 161.651 183.417 145.341 179.169 130.711C178.078 130.532 177.089 130.249 176.229 129.801Z" fill="#F7941D"/>
<path d="M131.293 244.24C130.6 244.817 129.932 245.407 129.265 245.984C129.162 247.048 128.636 248.125 127.481 249.036C122.847 252.703 118.958 257.216 113.413 259.576C109.858 261.089 106.135 261.756 102.388 261.781C83.8405 263.833 75.3948 242.804 78.8732 225.314C80.8627 215.3 86.998 204.786 82.8265 194.592C80.7343 189.489 75.3178 183.219 69.7344 181.872C68.836 181.654 68.4894 182.962 69.3622 183.244C72.3529 184.232 76.2676 188.232 77.8207 190.668C82.5955 198.169 82.1077 202.144 79.3224 210.543C77.1533 217.108 74.7531 223.776 74.0985 230.725C73.0845 241.509 75.5104 252.126 83.9817 259.46C91.8112 266.243 101.374 267.718 110.833 263.897C115.942 261.82 120.922 259.076 125.44 255.934C129.098 253.395 130.985 249.933 134.271 247.215C136.35 245.484 133.359 242.509 131.293 244.24Z" fill="#F7941D"/>
<path d="M150.058 209.94C147.106 209.876 144.616 208.671 142.293 206.85C141.291 206.055 140.483 204.786 139.546 203.875C138.506 202.862 137.248 201.426 136.44 200.17C136.26 201.131 136.068 202.093 135.862 203.055C136.106 203.593 136.401 204.119 136.825 204.632C137.954 205.991 139.276 207.748 140.714 208.799C143.871 211.12 146.053 212.338 150.058 212.402C151.65 212.441 151.65 209.979 150.058 209.94Z" fill="#F7941D"/>
<path d="M172.148 207.427C170.158 202.875 166.577 198.631 162.2 196.22C161.7 195.938 156.219 194.207 156.001 194.028C151.431 190.066 154.178 188.194 155.86 184.462C159.338 176.743 159.287 165.729 150.058 162.049C149.455 162.523 148.839 162.985 148.21 163.434C148.3 163.575 148.338 163.729 148.492 163.818C154.73 167.755 156.142 174.038 154.076 180.603C152.959 184.155 149.634 187.155 148.954 190.745C148.274 194.348 148.89 194.695 151.906 196.31C154.384 197.644 158.26 197.118 160.878 198.528C164.678 200.58 167.681 204.709 169.196 208.697C169.696 210.03 169.979 211.338 170.12 212.62C174.702 228.751 153.074 244.227 138.866 235.79C138.378 235.495 137.993 235.162 137.646 234.803C135.349 234.123 133.026 233.303 130.741 232.379C128.944 231.661 128.225 234.29 129.522 235.252C137.056 240.906 153.549 244.907 161.661 238.534C167.45 233.995 172.34 225.917 173.406 217.967C172.404 216.146 172.623 214.402 173.521 213.043C173.354 211.094 172.918 209.197 172.148 207.427Z" fill="#F7941D"/>
<path d="M73.3026 243.727C72.7764 243.381 72.4042 242.932 71.8394 242.65C70.9024 242.201 69.8499 242.073 68.913 241.573C66.9877 240.547 65.0624 239.265 63.9328 237.355C63.3167 236.329 61.6867 237.278 62.3284 238.291C63.6248 240.368 65.6271 241.753 67.7578 242.894C68.6948 243.394 69.6574 243.727 70.6457 244.073C71.5185 244.381 72.0705 244.958 73.0074 244.83C73.5722 244.753 73.8417 244.073 73.3026 243.727Z" fill="#F7941D"/>
<path d="M152.189 291.375C149.801 292.183 147.132 292.529 144.834 293.529C141.343 295.055 138.673 298.03 135.22 299.722C123.194 305.634 110.987 294.376 112.527 281.81C114.414 279.168 115.659 274.873 118.008 272.911C119.279 271.847 117.572 269.59 116.224 270.603C114.196 272.103 113.67 274.142 112.463 276.322C109.665 281.335 103.812 288.17 97.3946 288.362C91.1181 288.554 86.6899 282.105 85.4706 276.629C84.3154 271.411 87.7039 265.461 90.6432 261.307C91.7342 259.755 89.4752 258.447 88.2174 259.435C83.4169 263.243 81.4403 269.269 81.9409 275.129C81.7868 275.001 81.6071 274.911 81.4018 274.911C78.6293 274.898 76.3446 276.899 73.3412 276.822C69.6189 276.719 64.4078 274.591 61.6995 272.321C60.2491 271.103 58.1441 273.206 59.6074 274.398C65.5758 279.296 75.5745 281.81 82.0435 276.476C82.0949 276.437 82.082 276.386 82.1206 276.335C82.8393 281.271 85.2652 285.977 89.4624 288.952C94.7505 292.696 100.603 291.414 105.635 288.144C106.777 287.4 107.804 286.631 108.78 285.81C108.998 292.914 116.956 302.107 122 303.826C127.635 305.736 132.897 304.569 138.057 301.838C141.458 300.043 143.974 297.299 147.619 295.85C149.789 294.991 151.675 295.222 153.408 293.491C154.294 292.632 153.421 290.965 152.189 291.375Z" fill="#F7941D"/>
<path d="M194.918 229.815C193.891 229.546 192.877 229.392 191.876 229.225C191.375 229.238 190.874 229.264 190.348 229.123C190.207 229.084 190.079 229.007 189.937 228.956C180.696 228.058 172.109 231.225 163.779 235.316C162.406 235.995 163.612 238.021 164.973 237.367C173.033 233.521 179.759 230.918 188.692 232.008C188.975 231.944 189.257 231.879 189.565 231.867C195.238 231.482 202.426 235.123 205.057 240.381C207.779 245.83 204.249 251.228 200.937 255.46C192.235 266.602 178.283 271.052 164.575 268.41C164.01 268.295 163.522 268.103 163.086 267.885C159.287 267.487 156.809 266.769 153.151 268.077C151.919 268.526 142.485 275.488 142.832 275.591C143.165 275.693 145.54 267.09 145.309 264.717C145.078 262.384 144.231 260.345 142.806 258.652C148.608 260.486 154.987 260.653 159.248 258.422C162.264 256.845 163.779 253.485 166.705 251.741C169.747 249.933 173.649 250.574 176.55 248.959C180.324 246.856 180.401 243.407 179.361 239.496C179.027 238.226 176.987 238.457 177.025 239.816C177.218 245.086 176.178 245.651 170.98 247.497C167.822 248.613 165.242 249.356 162.662 251.613C156.643 256.87 155.885 259.306 146.105 257.101C141.356 256.037 134.052 252.844 131.639 248.215C131.062 247.1 129.444 248.074 129.971 249.19C131.691 252.78 135.528 255.703 140.021 257.627C140.021 257.832 140.098 258.024 140.329 258.191C146.695 262.461 142.729 272.244 141.009 278.386C140.727 279.412 142.177 280.425 142.922 279.502C149.532 271.231 155.436 269.744 165.422 271.577C170.094 272.437 174.561 273.014 179.13 271.59C179.425 271.5 179.746 271.385 180.054 271.282C179.952 271.59 179.862 271.911 179.759 272.219C178.95 274.886 177.744 278.745 178.27 281.515C178.437 282.374 178.796 283.553 179.31 284.72C180.991 284.733 182.621 284.938 184.2 285.323C184.097 285.092 183.995 284.887 183.931 284.772C183.417 283.771 182.326 282.015 182.236 280.861C182.121 279.284 182.891 276.835 183.263 275.334C183.635 273.808 184.251 271.206 185.509 270.18C186.023 269.769 186.228 269.269 186.228 268.782C195.508 264.423 206.161 256.845 208.549 248.369C211.27 238.65 203.774 232.11 194.918 229.815Z" fill="#F7941D"/>
<path d="M229.021 162.318C228.777 162.164 228.521 162.023 228.277 161.831C227.044 160.856 226.069 159.613 225.35 158.228C217.264 152.573 201.605 154.843 194.853 164.524C194.789 164.613 194.776 164.729 194.751 164.831C193.929 164.395 193.082 163.998 192.184 163.664C189.052 162.523 186.254 163.126 183.109 162.51C180.555 159.587 176.935 157.676 172.276 157.664C171.313 157.664 171.365 159.023 172.276 159.125C176.216 159.574 179.233 161.356 181.363 163.895C181.389 164.421 181.671 164.921 182.185 165.101C185.086 169.396 185.843 175.307 184.239 180.705C183.725 182.462 186.523 183.231 186.985 181.462C188.436 175.961 187.653 169.614 184.778 164.844C188.718 164.524 193.095 166.255 195.842 168.883C197.061 170.05 198.293 171.435 199.153 172.884C199.962 174.243 200.142 175.846 200.963 177.192C201.374 177.872 202.478 177.936 202.863 177.192C204.749 173.615 200.231 169.088 197.818 166.909C197.639 166.742 197.433 166.652 197.241 166.498C198.139 165.857 198.088 164.011 196.471 163.87C201.13 164.293 205.93 158.536 210.782 157.279C214.132 156.407 217.687 157.215 220.627 159.113C221.525 159.292 222.424 159.728 223.245 160.549C233.205 170.46 222.963 187.604 210.076 185.514C209.999 185.565 209.922 185.629 209.845 185.693C210.05 194.592 206.033 204.491 196.804 206.401C195.893 207.376 195.059 208.389 194.404 209.504C194.764 209.838 195.11 210.21 195.405 210.697C198.049 214.992 198.434 220.698 196.856 225.443C196.573 226.314 196.047 227.02 195.444 227.648C195.508 229.225 195.328 230.789 194.622 232.315C194.597 232.379 194.597 232.431 194.584 232.495C195.919 232.867 197.241 233.38 198.486 234.046C199.91 230.392 199.487 227.289 198.948 223.224C197.985 216.044 196.265 213.582 201.181 207.568C202.413 206.055 203.838 204.914 204.98 203.337C207.419 199.952 208.048 195.4 210.487 192.117C212.656 189.194 214.132 189.155 216.84 187.258C221.589 183.924 226.595 181.295 228.829 175.512C230.998 169.935 230.741 165.575 229.021 162.318Z" fill="#F7941D"/>
<path d="M174.15 219.147C173.637 218.647 173.239 218.134 173.072 217.595C172.738 216.518 171.647 216.159 170.749 216.403C170.8 217.8 170.697 219.172 170.415 220.519C171.865 222.493 174.702 223.942 176.448 225.083C178.938 226.738 183.353 230.943 186.369 228.34C181.094 227.494 177.141 223.647 174.15 219.147Z" fill="#F7941D"/>
<path d="M186.305 194.925C185.458 196.182 185.047 197.169 183.314 197.516C182.416 197.695 181.235 197.631 180.311 197.644C177.795 197.695 175.523 196.772 173.56 195.272C173.521 193.464 173.341 191.681 173.174 190.091C172.61 184.847 169.26 181.859 165.768 178.218C164.639 177.051 162.919 178.795 163.997 179.987C167.463 183.821 170.325 187.04 170.325 192.489C170.325 194.233 170.453 196.092 170.261 197.823C169.889 201.196 169.054 201.054 169.375 203.773C169.465 204.517 170.389 205.106 170.992 204.44C172.892 202.362 173.483 199.465 173.56 196.503C176.139 198.349 179.015 198.977 182.339 199.272C184.778 199.503 188.166 198.452 188.051 195.374C187.999 194.438 186.818 194.156 186.305 194.925Z" fill="#F7941D"/>
<path d="M169.991 171.64C167.989 172.589 167.758 175.538 167.155 177.436C166.924 178.192 168.092 178.718 168.451 177.987C169.285 176.295 170.672 174.243 170.928 172.371C171.018 171.807 170.53 171.384 169.991 171.64Z" fill="#F7941D"/>
<path d="M217.931 118.838C213.003 120.466 208.022 123.325 203.902 126.428C203.453 126.775 202.94 127.069 202.452 127.39C201.926 127.749 201.399 128.147 200.86 128.454C200.591 128.621 200.347 128.8 200.09 128.967C200.077 128.916 200.039 128.89 200.026 128.852C199.513 129.108 199.012 129.365 198.486 129.583C198.601 129.634 198.704 129.698 198.819 129.762C195.084 132.07 191.426 134.519 189.848 138.776C186.96 146.559 191.131 162.421 201.746 160.561C202.927 160.356 202.888 158.446 201.746 158.215C196.676 157.151 193.39 152.522 192.427 147.649C190.964 140.251 195.405 136.148 201.322 132.788C207.394 129.339 212.566 124.031 218.778 120.863C219.882 120.286 219.125 118.44 217.931 118.838Z" fill="#F7941D"/>
<path d="M295.816 104.105C291.747 89.1794 278.912 87.2432 265.64 88.0511C263.843 88.1665 264.151 90.7694 265.974 90.5129C277.539 88.8717 290.04 91.6028 293.031 104.874C294.443 111.144 289.322 124.402 283.802 128.416C283.289 128.429 282.763 128.621 282.262 129.095C279.451 131.839 275.203 131.711 271.686 132.891C269.298 133.699 267.091 134.814 264.819 135.866C259.492 138.327 251.932 140.174 248.223 144.944C247.555 145.803 248.595 146.931 249.442 146.162C254.243 141.841 262.47 140.943 268.438 138.469C274.035 136.148 281.312 137.52 285.484 132.468C294.263 128.236 298.165 112.696 295.816 104.105Z" fill="#F7941D"/>
<path d="M267.116 163.664C264.01 161.472 259.621 154.42 263.715 151.022C264.382 150.457 263.522 149.38 262.791 149.829C257.028 153.291 260.07 158.535 263.189 162.549C255.205 160.459 244.103 158.446 235.939 161.344C235.028 162.357 233.719 163.036 232.294 163.139C230.189 164.511 228.443 166.408 227.198 168.934C227.263 169.717 227.25 170.486 227.186 171.268C227.827 171.717 228.867 171.73 229.342 170.935C232.833 165.024 239.623 162.613 246.143 162.549C249.763 162.51 253.293 162.408 256.874 163.023C260.185 163.6 262.971 165.19 266.179 165.883C267.566 166.19 268.233 164.459 267.116 163.664Z" fill="#F7941D"/>
<path d="M254.191 115.735C248.813 117.863 243.641 124.069 245.527 129.814C238.943 130.916 232.653 133.224 227.34 137.392C221.037 142.328 215.518 153.458 223.925 159.125C224.644 159.613 225.299 159.305 225.684 158.754C224.837 157.317 224.246 155.715 224.041 154.061C224.002 153.894 223.99 153.714 223.951 153.548C222.424 150.855 221.384 148.457 223.399 144.559C226.903 137.776 236.158 133.583 243.307 132.057C251.881 130.224 262.829 131.57 265.961 121.094C268.387 112.926 259.736 113.529 254.191 115.735ZM255.346 127.877C252.664 128.89 250.353 129.083 247.594 129.429C247.478 129.442 247.363 129.48 247.234 129.493C247.671 126.518 248.749 123.992 250.79 121.723C252.407 119.927 258.119 115.773 260.866 117.055C261.405 119.03 261.944 121.017 262.496 122.992C260.827 125.787 258.44 127.416 255.346 127.877Z" fill="#F7941D"/>
<path d="M274.484 227.712C278.527 219.596 279.823 216.275 275.498 208.684C277.102 200.696 273.791 193.579 268.028 187.822C272.905 185.373 277.243 181.449 278.886 176.397C279.182 175.487 277.975 174.858 277.333 175.487C275.113 177.654 273.098 179.936 270.929 182.013C269.132 184.809 266.192 186.719 262.958 187.399C262.932 187.412 262.906 187.424 262.881 187.437C259.069 188.848 255.026 188.796 251.059 189.489C243.872 190.733 237.492 193.335 233.077 199.413C224.079 211.8 226.557 238.509 206.675 241.548C205.725 241.689 206.11 243.253 207.085 243.022C224.323 238.957 226.236 220.057 231.691 206.645C237.865 191.463 249.25 193.259 262.213 190.04C263.445 189.732 264.703 189.296 265.936 188.784C270.094 193.323 273.881 200.208 273.329 206.594C272.61 206.773 272.007 207.53 272.52 208.35C272.661 208.568 272.777 208.786 272.905 209.004C272.494 210.492 271.827 211.928 270.8 213.274C266.667 218.737 260.07 220.788 253.845 222.558C253.472 222.16 252.805 222.237 252.574 222.827C252.561 222.865 252.574 222.891 252.561 222.917C246.824 224.545 241.048 226.276 236.915 230.79C232.499 235.611 231.28 240.983 231.165 247.318C231.036 254.319 229.727 265.115 224.516 271.565C222.475 275.104 218.856 277.707 214.761 278.13C214.671 278.373 214.62 278.617 214.594 278.861C214.581 279.002 214.569 279.13 214.556 279.271C214.286 281.771 218.329 282.246 218.92 279.861C218.201 282.784 221.589 279.297 223.348 277.758C225.119 276.206 226.595 274.591 227.917 272.885C231.331 278.155 242.216 278.976 247.106 278.066C254.743 276.629 262.29 270.321 263.754 262.563C272.405 262.602 280.196 257.947 278.809 247.202C277.641 238.47 269.966 236.778 274.484 227.712ZM234.951 247.318C235.285 237.137 240.47 231.084 249.596 227.738C250.443 227.43 251.316 227.148 252.176 226.879C251.868 229.661 251.059 232.482 250.379 235.175C249.327 239.316 247.966 242.56 244.077 244.804C241.869 246.074 237.8 247.754 234.964 247.459C234.951 247.407 234.951 247.356 234.951 247.318ZM264.639 260.268C264.408 260.473 264.177 260.666 263.946 260.871C263.959 260.691 263.92 260.512 263.933 260.345C262.573 260.486 261.212 260.46 259.877 260.23C259.826 260.422 259.787 260.614 259.723 260.807C257.657 260.589 255.616 260.114 253.614 259.319C251.868 258.537 250.225 257.242 248.582 256.229C248.184 255.985 247.709 256.562 248.069 256.896C251.059 259.589 255.103 261.371 259.274 262.153C257.182 268.295 253.562 273.591 246.49 274.988C241.664 275.95 233.013 275.065 229.637 270.423C230.728 268.705 231.704 266.897 232.512 264.833C234.63 259.473 234.759 254.485 234.925 248.946C240.83 247.587 247.299 246.561 250.533 240.714C252.433 237.265 253.113 233.085 253.922 229.277C254.127 228.302 254.332 227.238 254.409 226.174C262.855 223.583 271.083 221.493 274.561 212.082C276.191 215.698 276.384 219.16 273.791 224.673C273.547 225.199 270.697 228.482 270.248 229.495C269.44 231.328 268.913 232.238 269.286 234.341C269.722 236.829 271.442 238.906 273.098 241.009C274.561 241.471 275.832 242.548 276.409 244.445C278.861 252.575 272.109 259.101 264.639 260.268Z" fill="#F7941D"/>
<path d="M177.102 27.7604C172.404 25.8114 168.028 25.4524 163.304 27.9527C159.967 29.7222 158.452 32.8765 156.347 35.4923C150.867 27.8117 141.137 22.1698 132.23 27.286C127.108 30.2223 123.489 35.1845 120.254 39.9673C119.33 41.3264 112.81 48.2249 113.798 51.0842C114.389 52.8024 117.11 52.0844 116.545 50.3277C115.736 47.8145 130.535 35.0307 132.679 33.5433C140.059 28.4271 149.262 33.7356 153.819 40.6469C154.692 41.9676 156.489 42.2881 157.669 41.1469C159.389 39.4672 159.8 37.2618 161.636 35.4923C167.257 30.0556 175.498 31.1711 181.068 36.1206C185.753 40.2622 188.654 47.5068 189.45 53.6231C189.732 55.8029 193.3 56.88 193.75 54.2001C195.469 43.8781 186.138 31.4917 177.102 27.7604Z" fill="#F7941D"/>
<path d="M259.505 55.2002C253.267 44.75 234.476 33.1329 222.129 37.1591C209.807 41.1725 204.185 55.1233 205.853 67.343C206.033 68.7021 207.907 68.1636 208.048 67.048C209.434 56.1619 214.235 43.0574 226.711 41.5957C237.621 40.3263 248.634 51.0714 256.591 57.4441C258.132 58.7007 260.673 57.1492 259.505 55.2002Z" fill="#F7941D"/>
<path d="M194.61 118.196C196.74 117.286 199.59 115.837 202.375 115.183C201.707 114.234 200.462 113.709 199.089 114.388C197.78 115.029 196.317 115.965 194.828 117.068C194.224 116.837 193.519 116.824 192.787 117.196C189.758 118.735 188.179 119.145 184.688 119.197C184.046 119.209 183.353 119.53 182.865 120.03C186.626 120.633 190.31 120.03 194.61 118.196Z" fill="#F7941D"/>
<path d="M173.957 116.658C172.879 115.773 171.57 114.991 170.21 114.542C170.261 114.132 170.274 113.696 170.222 113.26C170.171 112.811 170.004 112.337 169.735 111.952C169.683 110.9 168.823 109.849 167.476 110.195C165.499 110.695 164.215 112.272 163.664 114.119C167.809 113.26 170.389 114.67 173.957 116.658Z" fill="#F7941D"/>
<path d="M146.015 89.141C145.899 89 145.797 88.8333 145.694 88.6794C145.745 88.9102 145.81 89.1282 145.899 89.3206C145.912 89.3462 145.912 89.359 145.925 89.3847C145.976 89.3334 146.028 89.2693 146.092 89.218C146.053 89.1923 146.028 89.1667 146.015 89.141Z" fill="#006838"/>
<path d="M147.979 78.2162C146.58 79.6138 145.822 81.9732 145.707 83.9222C145.681 84.3325 145.63 84.871 145.591 85.4352C145.797 85.0121 145.964 84.7428 145.822 85.2429C146.297 83.499 148.531 83.1015 149.673 84.2042C149.699 83.4734 149.814 82.7297 150.058 82.0373C150.007 81.627 149.955 81.2295 149.994 80.9345C150.148 79.8575 150.597 79.1907 151.252 78.3701C151.367 78.2162 151.508 78.088 151.662 77.9854C150.494 77.2545 149.07 77.1263 147.979 78.2162Z" fill="white"/>
<path d="M155.051 89.3975C155 89.4616 154.935 89.5257 154.871 89.5898C154.974 89.5513 155.077 89.5 155.179 89.4616C155.141 89.4359 155.102 89.4103 155.051 89.3975Z" fill="#006838"/>
<path d="M158.478 54.0719C158.106 54.0206 157.811 53.8796 157.592 53.7129C148.723 56.7261 142.126 62.3039 137.595 70.7153C135.233 75.1134 133.154 79.9859 133.719 85.102C134.463 91.8337 139.199 93.3468 144.834 92.3979C144.808 92.2056 144.796 92.0133 144.796 91.8337C144.282 92.0004 143.705 91.8979 143.217 91.3721C141.407 89.3718 141.959 84.9866 142.421 82.5247C142.922 79.832 144.539 75.6263 147.221 74.3697C149.865 73.1259 153.703 74.2543 155.718 76.1776C158.85 79.1653 158.44 83.2556 158.799 87.2433C158.812 87.3587 158.799 87.4741 158.799 87.5895C160.699 86.3458 162.341 84.7943 163.509 82.7555C165.768 78.8191 165.345 74.6903 165.768 70.3563C166.397 63.8938 166.667 55.2516 158.478 54.0719Z" fill="white"/>
<path d="M158.979 50.174C158.401 50.2253 157.926 50.533 157.58 50.9561C151.919 50.8664 146.426 55.585 142.331 58.9701C137.903 62.6373 133.321 69.3434 131.408 74.7929C128.033 84.461 130.227 96.4242 142.472 95.7318C147.196 95.4625 153.549 93.6931 157.618 91.2312C162.316 88.3846 164.665 82.1145 166.718 77.3574C169.901 69.9973 171.532 48.9815 158.979 50.174ZM145.912 89.3847C145.899 89.3591 145.899 89.3463 145.887 89.3206C145.797 89.1411 145.733 88.9231 145.681 88.6795C145.784 88.8462 145.887 89.0001 146.002 89.1411C146.028 89.1668 146.053 89.1796 146.066 89.2052C146.028 89.2693 145.976 89.3206 145.912 89.3847ZM155.051 89.3976C155.089 89.4232 155.128 89.436 155.179 89.4489C155.077 89.4873 154.974 89.5386 154.871 89.5771C154.935 89.513 155 89.4617 155.051 89.3976ZM151.252 78.3703C150.61 79.2038 150.148 79.8577 149.994 80.9348C149.955 81.2169 150.007 81.6144 150.058 82.0375C149.814 82.7299 149.699 83.4736 149.673 84.2045C148.531 83.1146 146.31 83.4993 145.822 85.2431C145.964 84.743 145.797 85.0123 145.591 85.4354C145.63 84.8584 145.681 84.3327 145.707 83.9224C145.822 81.9734 146.592 79.6141 147.979 78.2165C149.07 77.1137 150.494 77.242 151.65 77.9857C151.508 78.0882 151.367 78.2165 151.252 78.3703ZM165.756 70.3307C165.319 74.6519 165.743 78.7935 163.497 82.7299C162.329 84.7687 160.686 86.3202 158.786 87.564C158.786 87.4486 158.799 87.346 158.786 87.2178C158.44 83.23 158.837 79.1397 155.706 76.1521C153.69 74.2287 149.853 73.1003 147.209 74.3441C144.539 75.6007 142.922 79.8064 142.408 82.4991C141.946 84.961 141.394 89.3463 143.204 91.3466C143.679 91.8851 144.269 91.9749 144.783 91.8082C144.783 92.0005 144.796 92.1928 144.821 92.3723C139.199 93.334 134.45 91.8082 133.706 85.0764C133.141 79.9603 135.22 75.0878 137.582 70.6897C142.113 62.2783 148.71 56.6877 157.58 53.6873C157.798 53.8668 158.093 53.995 158.465 54.0463C166.667 55.2516 166.397 63.8939 165.756 70.3307Z" fill="#5A8955"/>
<path d="M243.371 69.446C241.548 64.7017 238.827 60.5601 234.579 57.5853C225.941 51.5331 213.246 51.4434 213.375 64.6761C213.426 69.5998 213.169 75.5494 215.685 79.9603C217.469 83.0889 219.792 88.2692 223.168 90.5259C223.142 90.9875 223.258 91.4619 223.617 91.8979C225.504 94.1675 232.615 95.5266 235.464 95.424C240.534 95.2317 244.616 93.116 246.259 88.1538C248.274 82.076 245.54 75.1006 243.371 69.446ZM232.384 82.0632C232.474 82.4735 232.538 83.3198 232.525 84.2173C232.461 84.2814 232.397 84.3455 232.345 84.4225C231.896 85.0123 231.421 85.6406 230.998 86.2945C229.894 86.1278 228.803 85.7688 227.596 85.9355C227.558 85.9355 227.532 85.9612 227.494 85.9612C227.481 85.8458 227.468 85.7304 227.455 85.6278C227.712 83.5377 229.124 81.4862 228.995 79.3833C228.983 79.2038 228.944 79.0371 228.893 78.8704C228.906 78.8704 228.918 78.8576 228.918 78.8576C229.907 78.4088 231.562 78.0113 232.448 78.7037C232.756 78.9473 233.026 79.3064 233.27 79.7167C232.602 80.1911 232.166 81.0117 232.384 82.0632ZM238.686 90.3336C240.688 86.9356 238.75 81.2169 237.364 78.1652C235.272 73.5363 230.587 72.4977 226.133 74.8955C222.09 77.0624 222.295 81.3708 222.706 85.3585C222.603 86.115 222.591 86.8715 222.719 87.6409C217.675 82.4863 216.365 75.6392 215.916 68.3176C215.634 63.6118 214.607 60.4062 219.318 57.316C224.734 53.7642 230.459 57.0724 234.656 61.2397C239.431 65.9711 241.369 72.6516 242.691 79.0499C243.73 84.0506 242.447 88.4102 238.686 90.3336Z" fill="#5A8955"/>
<path d="M174.278 19.0796C174.24 18.977 174.201 18.8744 174.163 18.7847C174.586 16.8998 173.611 14.7328 171.224 15.0149C170.941 15.0534 170.697 15.1175 170.428 15.1688C170.428 15.156 170.428 15.1431 170.428 15.1175C170.338 15.1431 170.261 15.1816 170.171 15.2201C164.793 16.233 161.161 19.6053 156.668 22.7211C152.125 25.8754 147.44 29.7093 143.563 33.6586C142.537 34.71 141.099 36.1974 139.841 37.8772C136.786 41.3392 134.694 45.0961 136.542 47.9427C137.351 49.1865 138.699 49.7891 140.149 49.4686C141.009 49.2762 141.792 48.9429 142.537 48.5325C143.037 48.5325 143.538 48.5069 144.038 48.4684C146.207 48.8787 148.3 47.853 150.058 46.2758C150.443 46.0194 150.777 45.686 151.034 45.3141C152.009 44.2755 152.856 43.0959 153.536 41.9803C153.613 41.8393 153.69 41.711 153.767 41.57C155.449 40.5699 157.31 39.6851 158.44 38.8901C161.417 36.8129 164.113 34.8254 166.68 32.261C169.619 29.3503 175.844 23.8495 174.278 19.0796Z" fill="#5A8955"/>
<path d="M232.795 37.3899C232.422 36.8898 231.986 36.3769 231.511 35.8512C228.264 28.7476 219.715 22.0159 211.668 23.3623C210.333 23.5802 209.37 25.0676 209.37 26.337C209.357 28.9015 210.5 31.2352 212.13 33.3252C213.657 36.2744 216.879 38.6721 219.215 40.4673C220.768 41.6597 222.706 43.3908 224.773 44.4678C225.299 44.7884 225.851 45.0833 226.428 45.3398C227.904 45.9681 229.791 47.1349 231.37 47.3401C237.877 48.1863 234.848 40.0954 232.795 37.3899Z" fill="#5A8955"/>
<path d="M20.1001 145.277C23.5657 143.957 28.0966 143.508 30.4454 146.38C32.0627 148.367 32.0242 151.317 33.5773 153.355C35.387 155.74 38.7242 156.163 41.548 157.138C47.6833 159.254 52.4196 164.947 53.395 171.358C53.5491 172.345 53.6132 173.384 53.241 174.32C52.7918 175.448 51.7778 176.243 50.7125 176.82C47.9143 178.346 44.4745 178.615 41.4582 177.577C37.8386 176.32 35.1047 173.358 31.729 171.537C25.0803 167.947 18.3289 167.729 14.4654 160.331C10.9614 153.573 12.9124 148.008 20.1001 145.277Z" fill="#9AAA80"/>
<path d="M160.185 304.416C159.697 304.851 159.12 305.3 159.056 305.941C158.966 306.8 159.916 307.48 160.788 307.467C161.661 307.442 162.431 306.954 163.176 306.493C167.014 304.133 171.429 302.3 175.908 302.749C180.388 303.197 184.816 306.493 185.304 310.968C185.496 312.647 184.983 314.584 183.494 315.379C182.763 315.776 181.903 315.84 181.068 315.815C179.002 315.738 176.999 315.122 174.933 314.994C172.879 314.866 170.595 315.34 169.324 316.969C167.424 319.43 168.798 323.072 170.787 325.457C171.416 326.201 172.109 326.957 172.34 327.906C172.687 329.419 171.724 330.894 170.813 332.15C169.658 333.74 168.066 335.51 166.141 335.163C165.422 335.035 164.806 334.612 164.215 334.189C159.8 330.894 156.655 325.957 155.526 320.559C155.205 319.033 154.897 317.263 153.536 316.52C152.484 315.943 151.2 316.212 150.007 316.045C147.337 315.661 145.476 312.942 145.206 310.25C144.95 307.557 145.925 304.916 147.003 302.441C148.479 299.03 150.828 295.273 154.55 295.03C158.067 294.799 157.349 287.157 161.674 293.619C163.805 296.825 162.996 301.915 160.185 304.416Z" fill="#9AAA80"/>
<path d="M213.606 206.171C212.22 208.543 211.77 211.376 210.423 213.774C208.921 216.441 206.238 218.839 206.521 221.878C206.675 223.596 207.804 225.084 209.088 226.25C210.692 227.699 213.041 228.815 214.954 227.828C216.725 226.917 217.264 224.699 217.893 222.814C219.638 217.582 226.672 210.402 224.901 204.529C223.04 198.349 216.019 202.029 213.606 206.171Z" fill="#93A37B"/>
<path d="M83.3399 251.305C87.0493 257.883 94.6094 261.922 102.157 261.922C109.704 261.922 117.046 258.114 121.859 252.305C122.757 251.216 123.63 249.818 123.181 248.472C122.732 247.112 121.089 246.471 119.664 246.612C118.239 246.741 116.93 247.446 115.582 247.946C110.795 249.728 105.378 249.023 100.655 247.1C96.7657 245.51 91.1181 239.304 87.2162 239.098C80.5932 238.727 81.1579 247.433 83.3399 251.305Z" fill="#93A37B"/>
<path d="M121.05 148.008C120.126 148.88 119.33 150.047 119.369 151.317C119.407 152.663 120.357 153.778 121.243 154.791C123.823 157.702 126.454 160.638 129.714 162.767C132.974 164.883 137.004 166.126 140.791 165.267C145.27 164.241 148.685 160.536 153.036 159.048C157.939 157.356 163.561 158.638 168.31 156.548C170.197 155.715 171.852 154.368 173.059 152.689C174.535 150.611 175.292 147.855 174.368 145.482C173.444 143.11 170.505 141.52 168.207 142.61C166.718 143.315 165.846 144.854 164.652 145.982C161.084 149.355 155.41 148.585 150.61 147.572C144.95 146.393 139.713 148.444 134.707 147.521C129.598 146.572 126.017 143.303 121.05 148.008Z" fill="#93A37B"/>
<path d="M44.4873 182.667C40.9319 182.911 37.1712 183.962 34.8736 186.693C32.5761 189.425 32.5376 194.182 35.5282 196.144C36.5166 196.797 37.7103 197.067 38.9039 197.118C42.3566 197.233 45.8864 195.118 47.003 191.861C48.1069 188.591 46.3099 184.501 43.0112 183.488" fill="#9AAA80"/>
<path d="M41.3555 205.427C39.7896 208.607 39.8538 212.312 40.0078 215.851C40.0976 217.698 40.2388 219.685 41.3812 221.134C42.9471 223.134 45.9891 223.468 48.3508 222.519C50.7125 221.57 52.4966 219.621 54.0625 217.608C55.6156 215.595 57.0531 213.454 59.0298 211.851C60.1721 210.928 61.4942 210.184 62.3156 208.966C63.92 206.594 63.0344 203.401 62.0846 200.695C59.9411 194.618 57.0403 192.245 51.6751 195.772C47.9657 198.195 43.345 201.388 41.3555 205.427Z" fill="#9AAA80"/>
<path d="M289.848 156.01C290.143 162.036 296.753 166.562 296.381 172.589C296.06 177.897 290.528 181.334 288.628 186.296C286.203 192.592 290.348 199.772 295.945 203.555C297.421 204.555 299.038 205.427 300.206 206.773C302.799 209.748 302.747 214.479 305.648 217.159C307.573 218.929 310.615 219.365 312.951 218.172C315.287 216.993 316.751 214.287 316.455 211.684C316.083 208.389 313.324 205.965 311.257 203.363C309.191 200.76 307.792 196.759 310.051 194.31C311.283 192.976 313.208 192.605 314.864 191.848C319.703 189.668 322.283 183.488 320.447 178.513C318.92 174.371 314.761 170.768 315.737 166.46C316.327 163.844 318.663 162.062 320.293 159.92C323.245 156.022 323.707 150.227 320.884 146.239C318.06 142.251 311.886 140.866 307.933 143.751C303.389 147.06 301.99 145.431 297.1 146.688C293.236 147.675 289.655 151.983 289.848 156.01Z" fill="#9AAA80"/>
<path d="M31.4979 54.9182C28.2763 57.1749 25.3883 60.2395 24.4257 64.0605C23.4502 67.8688 24.8749 72.4592 28.379 74.2415C31.9215 76.0366 36.247 74.6133 40.1233 75.4596C42.8829 76.0623 45.2574 77.7805 47.9272 78.7165C50.5969 79.6525 54.0497 79.5243 55.6541 77.1906C57.5024 74.4851 56.0006 70.0486 58.619 68.0739C60.5957 66.5865 63.535 67.779 65.2036 69.6126C66.8722 71.4462 67.8862 73.8312 69.7216 75.4981C74.1498 79.5243 81.9537 77.3958 85.201 72.3694C88.4484 67.3431 87.9863 60.6883 85.8556 55.0849C83.8405 49.7893 80.2081 44.8398 74.9969 42.6088C69.7858 40.3777 62.9189 41.6086 59.7742 46.3272C55.4102 52.9051 55.6797 50.9176 48.3508 50.2124C42.4465 49.6354 36.3112 51.5459 31.4979 54.9182Z" fill="#9AAA80"/>
<path d="M204.762 288.9C200.783 289.849 197.241 292.542 195.277 296.132C194.584 297.402 194.07 298.799 194.096 300.248C194.135 302.595 195.624 304.749 197.536 306.121C199.461 307.48 201.772 308.172 204.069 308.673C205.289 308.942 206.546 309.185 207.612 309.827C210.179 311.365 211.27 314.955 214.132 315.815C216.815 316.622 219.651 314.391 220.524 311.737C221.397 309.083 220.858 306.185 220.319 303.441C218.56 294.658 215.544 286.336 204.762 288.9Z" fill="#9AAA80"/>
<path d="M103.466 226.353C103.928 230.905 107.188 235.047 111.513 236.56C115.826 238.073 120.973 236.88 124.182 233.611C125.183 232.598 126.005 231.379 126.415 230.007C126.775 228.815 126.8 227.533 126.723 226.289C126.467 222.263 124.798 217.929 121.14 216.211C119.882 215.621 118.496 215.39 117.123 215.262C109.434 214.492 102.516 216.877 103.466 226.353Z" fill="#93A37B"/>
<path d="M168.323 370.758C166.192 372.271 163.997 373.746 162.162 375.605C154.833 383.016 154.679 395.287 158.786 404.879C160.147 408.071 162.033 411.187 164.947 413.059C170.453 416.585 177.77 414.611 183.661 411.751C186.831 410.213 190.002 408.353 192.03 405.468C195.174 400.981 194.93 395.005 194.237 389.569C193.146 381.029 191.17 372.348 186.356 365.219C180.709 356.846 173.778 366.873 168.323 370.758Z" fill="#9AAA80"/>
</g>
<defs>
<clipPath id="clip0">
<rect width="355" height="447" fill="white"/>
</clipPath>
</defs>
</svg>
