<svg width="417" height="39" viewBox="0 0 417 39" fill="none" xmlns="http://www.w3.org/2000/svg">
<path d="M48.6752 38.5962C47.5836 38.5962 45.7552 38.5962 44.2816 37.1334C42.7534 35.6259 42.7534 33.5619 42.7534 32.3235V6.47008C42.7534 4.26253 43.4811 2.93441 44.0996 2.20754C45.5096 0.538415 47.3198 0.403809 48.9026 0.403809H71.4982V5.53681H49.3028C48.9571 5.53681 48.4386 5.67141 48.2931 5.75218C48.3204 5.75218 48.2476 5.93165 48.2476 6.47008V16.5297H70.9706V21.6627H48.2567V32.9427C48.2567 33.0952 48.284 33.2209 48.3113 33.3106C48.566 33.3734 49.2482 33.4721 49.7212 33.4721H71.6983V38.6051C71.6892 38.5962 48.6752 38.5962 48.6752 38.5962Z" fill="white"/>
<path d="M89.1453 38.5962V5.53681H74.0907V0.403809H109.722V5.53681H94.6578V38.5962H89.1453Z" fill="white"/>
<path d="M127.314 39C123.885 39 117.499 39 113.187 34.7554C108.521 30.1519 108.521 22.9549 108.521 19.5C108.521 16.0451 108.521 8.84814 113.187 4.24459C117.499 0 123.885 0 127.314 0C130.743 0 137.129 0 141.441 4.25357C146.107 8.85711 146.107 16.0541 146.107 19.509C146.107 22.9639 146.107 30.1608 141.441 34.7644C137.129 39 130.743 39 127.314 39ZM127.314 5.133C124.076 5.133 119.646 5.133 116.971 8.08537C114.443 10.8762 114.233 15.0849 114.233 19.509C114.233 23.933 114.443 28.1417 116.971 30.9326C119.646 33.876 124.076 33.876 127.314 33.876C130.552 33.876 134.982 33.876 137.657 30.9236C140.186 28.1328 140.395 23.9241 140.395 19.5C140.395 15.0759 140.186 10.8672 137.657 8.07639C134.982 5.133 130.552 5.133 127.314 5.133Z" fill="white"/>
<path d="M176.399 38.5964L157.987 24.5704C157.105 23.8883 155.841 22.7756 155.049 21.4206V38.5964H149.537V0.403993H155.049V16.6286C155.768 15.444 156.832 14.5197 157.414 14.071L174.634 0.39502H182.984L161.58 17.499L161.253 17.7413C160.926 17.9836 159.916 18.7105 159.825 19.0784C159.889 19.4822 161.235 20.5052 161.808 20.936L185.049 38.5874H176.399V38.5964Z" fill="white"/>
<path d="M198.503 38.596C192.508 38.596 188.824 36.2 186.796 34.1988C183.667 31.1119 182.384 27.0019 182.384 20.0113C182.384 14.6181 182.893 9.07228 186.605 5.15075C188.333 3.37394 192.181 0.412598 198.658 0.412598H213.803V5.54559H199.84C197.029 5.54559 193.009 5.91352 190.489 9.12613C188.288 11.9349 188.106 16.2423 188.106 20.0652C188.106 23.5021 188.269 27.0737 190.207 29.7209C191.226 31.1208 193.736 33.472 199.067 33.472H214.367V38.605H198.503V38.596Z" fill="white"/>
<path d="M34.8576 4.91743C31.9104 1.96506 27.9989 0.412598 23.5507 0.412598H13.4082H11.316H0V5.54559H5.38511C5.33053 6.0212 5.33053 6.46092 5.33053 6.82884V33.3463C5.33053 34.6116 5.53975 36.2269 7.13163 37.4384C8.487 38.5062 10.2153 38.596 11.7344 38.596H24.4786C30.3913 38.596 33.6933 36.0026 35.4216 33.8219C38.8692 29.5145 39.3149 23.5739 39.3149 18.8896C39.3149 15.327 39.3149 9.36842 34.8576 4.91743ZM31.8103 29.4607C30.3458 32.1528 27.917 33.463 24.3785 33.463H11.4706C11.1796 33.463 10.9976 33.445 10.8794 33.4271C10.8612 33.2745 10.8339 33.0143 10.8339 32.5836V6.11094C10.8339 5.79686 10.9703 5.60841 10.9794 5.59944C11.0704 5.52765 11.3797 5.52765 11.5798 5.52765H13.4082H23.7054C26.7709 5.52765 29.3998 6.69424 31.119 8.82999C33.4022 11.6388 33.5932 15.2373 33.5932 18.6832C33.5932 23.8252 33.0474 27.1544 31.8103 29.4607Z" fill="white"/>
<path d="M228.667 4.54072C228.667 2.53957 230.059 1.06787 232.187 1.06787C234.316 1.06787 235.28 2.44086 236.244 4.70225L248.897 34.7285C249.061 35.1502 249.27 35.8861 249.807 35.8861C250.344 35.8861 250.553 35.1502 250.717 34.7285L263.37 4.70225C264.334 2.44086 265.289 1.06787 267.427 1.06787C269.565 1.06787 270.947 2.53957 270.947 4.54072V38.3629H268.064V4.54072C268.064 3.80487 267.582 3.5895 267.318 3.5895C266.999 3.5895 266.463 4.21766 266.299 4.63943L253.609 34.7823C252.645 37.0437 251.745 38.7846 249.816 38.7846C247.888 38.7846 246.987 37.0437 246.023 34.7823L233.315 4.6484C233.151 4.22664 232.624 3.5895 232.296 3.5895C232.033 3.5895 231.55 3.7959 231.55 4.54072V38.3629H228.667V4.54072Z" fill="#F7941D"/>
<path d="M288.476 4.96249C289.331 2.96134 290.395 1.06787 292.642 1.06787C294.88 1.06787 295.953 3.01518 296.808 4.96249L311.117 38.3629H308.015L303.476 27.6213H281.799L277.26 38.3629H274.167L288.476 4.96249ZM282.918 25.0817H302.357L294.189 5.80602C293.87 5.07017 293.388 3.69719 292.642 3.69719C291.896 3.69719 291.414 5.07017 291.096 5.80602L282.918 25.0817Z" fill="#F7941D"/>
<path d="M327.509 38.363C321.424 38.363 318.003 35.8324 316.348 34.1991C313.146 31.0404 312.182 26.6701 312.182 20.4513C312.182 15.444 312.554 9.80843 316.184 5.96766C317.467 4.64851 321.041 1.48975 327.664 1.48975H341.972V4.02035H328.892C326.117 4.02035 321.151 4.33443 318.049 8.28289C315.484 11.5493 315.274 16.3952 315.274 20.5052C315.274 24.3011 315.484 28.3034 317.73 31.3544C318.958 33.0415 321.897 35.8324 328.091 35.8324H342.564V38.363H327.509Z" fill="#F7941D"/>
<path d="M357.618 4.28048C358.792 1.48964 359.865 1.06787 361.412 1.06787C362.958 1.06787 364.031 1.48964 365.205 4.28048L379.732 38.3629H376.63L362.53 4.80993C362.321 4.33432 362.212 3.5895 361.412 3.5895C360.611 3.5895 360.502 4.32535 360.293 4.80096L346.193 38.3539H343.1L357.618 4.28048Z" fill="#F7941D"/>
<path d="M412.57 5.07017C416.791 9.234 417 15.6592 417 19.9218C417 24.1843 416.782 30.6185 412.57 34.7733C408.722 38.5693 403.064 38.7756 398.898 38.7756C394.732 38.7756 389.074 38.5603 385.226 34.7733C381.005 30.6095 380.796 24.1843 380.796 19.9218C380.796 15.6592 381.014 9.22503 385.226 5.07017C389.074 1.27427 394.732 1.06787 398.898 1.06787C403.064 1.06787 408.722 1.27427 412.57 5.07017ZM387.091 32.7273C390.293 36.254 395.314 36.254 398.889 36.254C402.464 36.254 407.485 36.254 410.687 32.7273C413.78 29.2993 413.889 24.1933 413.889 19.9307C413.889 15.6682 413.78 10.5531 410.687 7.13414C407.494 3.5895 402.473 3.5895 398.898 3.5895C395.323 3.5895 390.302 3.5895 387.1 7.11619C384.007 10.5442 383.898 15.6502 383.898 19.9128C383.898 24.1753 383.998 29.2993 387.091 32.7273Z" fill="#F7941D"/>
</svg>
