<svg width="363" height="72" viewBox="0 0 363 72" fill="none" xmlns="http://www.w3.org/2000/svg">
<path d="M21.7876 23.0606H17.9203V12.7182C17.9203 11.5981 17.9657 10.3696 18.0656 9.01473H17.9657C17.766 10.0716 17.5844 10.8393 17.421 11.309L13.354 23.0606H10.1585L6.00976 11.4265C5.89174 11.1103 5.71018 10.3064 5.46507 9.01473H5.35613C5.46507 10.7219 5.51046 12.2123 5.51046 13.495V23.0516H1.98813V5.77197H7.71646L11.266 16.0151C11.5474 16.8371 11.7562 17.6591 11.8833 18.4901H11.956C12.1738 17.5326 12.4008 16.7016 12.6459 15.997L16.1955 5.77197H21.7876V23.0606Z" fill="#D7DF23"/>
<path d="M41.0152 23.0606H36.7485L35.5138 19.2127H29.3316L28.1061 23.0606H23.8665L30.194 5.77197H34.833L41.0152 23.0606ZM34.6151 16.2229L32.7541 10.4148C32.6179 9.98123 32.518 9.46636 32.4636 8.86117H32.3637C32.3274 9.367 32.2185 9.87284 32.0641 10.3696L30.1759 16.2319H34.6151V16.2229Z" fill="#D7DF23"/>
<path d="M57.6283 23.0606H52.6807L47.6151 15.5454C47.5152 15.4009 47.3609 15.0847 47.1521 14.597H47.0885V23.0606H43.1758V5.77197H47.0885V13.9466H47.1521C47.2519 13.7208 47.4153 13.3956 47.6332 12.9801L52.4356 5.77197H57.1018L51.0466 14.0189L57.6283 23.0606Z" fill="#D7DF23"/>
<path d="M63.2023 17.1081V23.0606H59.2896V5.77197H65.4174C69.793 5.77197 71.9809 7.60562 71.9809 11.2819C71.9809 13.0162 71.3545 14.4253 70.0926 15.5002C68.8398 16.5751 67.1604 17.1081 65.0633 17.1081H63.2023ZM63.2023 8.76181V14.1544H64.7456C66.8336 14.1544 67.8685 13.2421 67.8685 11.4265C67.8685 9.64702 66.8245 8.76181 64.7456 8.76181H63.2023Z" fill="#D7DF23"/>
<path d="M81.7762 23.3675C79.2888 23.3675 77.2644 22.5636 75.6939 20.9467C74.1233 19.3389 73.3426 17.2343 73.3426 14.6509C73.3426 11.914 74.1415 9.70999 75.7302 8.02087C77.3188 6.33174 79.4341 5.4917 82.0577 5.4917C84.536 5.4917 86.5423 6.29561 88.0765 7.91247C89.6107 9.52934 90.3733 11.6611 90.3733 14.2986C90.3733 17.0175 89.5835 19.2034 87.9948 20.8654C86.397 22.5365 84.3272 23.3675 81.7762 23.3675ZM81.9396 8.83381C80.5688 8.83381 79.4795 9.34868 78.6715 10.3694C77.8635 11.3901 77.4641 12.754 77.4641 14.4341C77.4641 16.1413 77.8726 17.4962 78.6715 18.4989C79.4704 19.5015 80.5325 19.9893 81.8489 19.9893C83.2015 19.9893 84.2727 19.5015 85.0625 18.535C85.8523 17.5685 86.2518 16.2226 86.2518 14.5064C86.2518 12.7179 85.8705 11.3178 85.0988 10.3242C84.3272 9.33965 83.2741 8.83381 81.9396 8.83381Z" fill="#D7DF23"/>
<path d="M107.694 23.0606H102.747L97.6812 15.5454C97.5813 15.4009 97.427 15.0847 97.2182 14.597H97.1547V23.0606H93.242V5.77197H97.1547V13.9466H97.2182C97.3181 13.7208 97.4724 13.3956 97.6994 12.9801L102.502 5.77197H107.168L101.113 14.0189L107.694 23.0606Z" fill="#D7DF23"/>
<path d="M115.792 23.3675C113.305 23.3675 111.28 22.5636 109.71 20.9467C108.139 19.3389 107.359 17.2343 107.359 14.6509C107.359 11.914 108.157 9.70999 109.746 8.02087C111.335 6.33174 113.441 5.4917 116.074 5.4917C118.552 5.4917 120.558 6.29561 122.092 7.91247C123.627 9.52934 124.389 11.6611 124.389 14.2986C124.389 17.0175 123.59 19.2034 122.011 20.8654C120.431 22.5275 118.352 23.3675 115.792 23.3675ZM115.965 8.83381C114.594 8.83381 113.504 9.34868 112.697 10.3694C111.889 11.3901 111.489 12.754 111.489 14.4341C111.489 16.1413 111.898 17.4962 112.697 18.4989C113.495 19.5015 114.567 19.9893 115.874 19.9893C117.227 19.9893 118.289 19.5015 119.088 18.535C119.877 17.5685 120.277 16.2226 120.277 14.5064C120.277 12.7179 119.896 11.3178 119.124 10.3242C118.352 9.33965 117.299 8.83381 115.965 8.83381Z" fill="#D7DF23"/>
<path d="M141.71 23.0606H136.763L131.697 15.5454C131.597 15.4009 131.443 15.0847 131.234 14.597H131.171V23.0606H127.258V5.77197H131.171V13.9466H131.234C131.334 13.7208 131.497 13.3956 131.724 12.9801L136.527 5.77197H141.193L135.138 14.0189L141.71 23.0606Z" fill="#D7DF23"/>
<path d="M155.573 8.94247H150.616V23.0606H146.694V8.94247H141.765V5.77197H155.573V8.94247Z" fill="#D7DF23"/>
<path d="M168.337 23.0606H157.915V5.77197H167.937V8.94247H161.828V12.7904H167.511V15.9519H161.828V19.9082H168.337V23.0606Z" fill="#D7DF23"/>
<path d="M186.747 23.0606H183.052V13.5672C183.052 12.4742 183.089 11.5438 183.17 10.767H183.098C182.925 11.1012 182.635 11.5709 182.226 12.2032L175.055 23.0696H171.115V5.77192H174.809V15.3286C174.809 16.5119 174.773 17.2977 174.71 17.7042H174.755C174.791 17.6048 175.1 17.1351 175.654 16.2951L182.544 5.77192H186.738V23.0606H186.747ZM184.287 0C184.142 1.28265 183.588 2.29432 182.626 3.05307C181.663 3.81182 180.474 4.18216 179.049 4.18216C177.605 4.18216 176.398 3.80279 175.436 3.05307C174.473 2.29432 173.956 1.28265 173.883 0H176.67C176.707 0.623259 176.961 1.12909 177.433 1.52653C177.905 1.92397 178.459 2.12269 179.094 2.12269C179.721 2.12269 180.265 1.92397 180.728 1.5175C181.191 1.12006 181.446 0.614227 181.491 0H184.287V0Z" fill="#D7DF23"/>
<path d="M204.876 23.0604H200.964V9.01448H197.487C196.552 15.6355 195.671 19.6731 194.854 21.1274C194.037 22.5817 192.802 23.3043 191.132 23.3043C190.433 23.3043 189.725 23.1869 189.026 22.9701V19.8628C189.498 20.0254 189.897 20.1067 190.233 20.1067C190.56 20.1067 190.86 19.9983 191.114 19.7905C191.368 19.5828 191.649 19.0228 191.958 18.1285C192.267 17.2343 192.639 15.6716 193.066 13.4676C193.501 11.2636 193.91 8.69834 194.309 5.78076H204.876V23.0604Z" fill="#D7DF23"/>
<path d="M224.476 23.0606H220.781V13.5672C220.781 12.4743 220.818 11.5439 220.899 10.7671H220.827C220.654 11.1013 220.364 11.571 219.955 12.2033L212.783 23.0697H208.843V5.77197H212.538V15.3286C212.538 16.5119 212.502 17.2978 212.438 17.7042H212.484C212.52 17.6049 212.82 17.1352 213.383 16.2951L220.273 5.77197H224.467V23.0606H224.476Z" fill="#D7DF23"/>
<path d="M48.5773 70.1299C47.488 70.1299 45.6632 70.1299 44.1926 68.6575C42.6675 67.14 42.6674 65.0625 42.6674 63.816V37.7927C42.6674 35.5706 43.3937 34.2338 44.011 33.5021C45.4181 31.822 47.2247 31.6865 48.8043 31.6865H71.3545V36.8533H49.2037C48.8588 36.8533 48.3413 36.9887 48.1961 37.07C48.2233 37.07 48.1507 37.2507 48.1507 37.7927V47.9184H70.828V53.0851H48.1597V64.4392C48.1597 64.5928 48.187 64.7193 48.2142 64.8096C48.4684 64.8728 49.1493 64.9722 49.6213 64.9722H71.5542V70.1389C71.5451 70.1299 48.5773 70.1299 48.5773 70.1299Z" fill="white"/>
<path d="M88.9661 70.1299V36.8533H73.9418V31.6865H109.501V36.8533H94.4675V70.1299H88.9661Z" fill="white"/>
<path d="M127.058 70.5456C123.636 70.5456 117.263 70.5456 112.96 66.2731C108.303 61.6393 108.303 54.3951 108.303 50.9175C108.303 47.4398 108.303 40.1956 112.96 35.5618C117.263 31.2803 123.636 31.2803 127.058 31.2803C130.481 31.2803 136.854 31.2803 141.157 35.5618C145.814 40.1956 145.814 47.4398 145.814 50.9175C145.814 54.3951 145.814 61.6393 141.157 66.2731C136.854 70.5456 130.481 70.5456 127.058 70.5456ZM127.058 36.447C123.826 36.447 119.405 36.447 116.736 39.4188C114.213 42.228 114.004 46.4643 114.004 50.9175C114.004 55.3706 114.213 59.607 116.736 62.4161C119.405 65.3789 123.826 65.3789 127.058 65.3789C130.29 65.3789 134.711 65.3789 137.38 62.4071C139.904 59.5979 140.113 55.3616 140.113 50.9084C140.113 46.4553 139.904 42.2189 137.38 39.4097C134.711 36.447 130.29 36.447 127.058 36.447Z" fill="white"/>
<path d="M176.044 70.1301L157.67 56.0119C156.789 55.3255 155.527 54.2054 154.738 52.8415V70.1301H149.236V31.6868H154.738V48.018C155.455 46.8256 156.517 45.8953 157.098 45.4436L174.283 31.6777H182.617L161.256 48.8941L160.929 49.138C160.602 49.3819 159.594 50.1136 159.504 50.4839C159.567 50.8904 160.911 51.9201 161.483 52.3537L184.677 70.1211H176.044V70.1301Z" fill="white"/>
<path d="M198.104 70.1301C192.121 70.1301 188.445 67.7184 186.42 65.7041C183.297 62.5968 182.017 58.4598 182.017 51.4233C182.017 45.9946 182.526 40.4124 186.23 36.4651C187.955 34.6766 191.795 31.6958 198.258 31.6958H213.373V36.8625H199.438C196.633 36.8625 192.621 37.2329 190.106 40.4666C187.909 43.2938 187.728 47.6296 187.728 51.4775C187.728 54.937 187.891 58.5321 189.825 61.1967C190.841 62.6058 193.347 64.9724 198.667 64.9724H213.936V70.1392H198.104V70.1301Z" fill="white"/>
<path d="M34.7876 36.2302C31.8462 33.2585 27.9426 31.6958 23.5034 31.6958H13.3812H11.2933H0V36.8625H5.37428C5.31981 37.3503 5.31981 37.7929 5.31981 38.1632V64.855C5.31981 66.1286 5.52861 67.7545 7.11729 68.9739C8.46994 70.0488 10.1948 70.1392 11.7108 70.1392H24.4294C30.3302 70.1392 33.6256 67.5287 35.3504 65.3337C38.7911 60.998 39.2359 55.0183 39.2359 50.3032C39.2359 46.7082 39.2359 40.7105 34.7876 36.2302ZM31.7464 60.9348C30.2848 63.6446 27.8609 64.9634 24.3295 64.9634H11.4476C11.1571 64.9634 10.9755 64.9453 10.8575 64.9273C10.8393 64.7737 10.8121 64.5118 10.8121 64.0782V37.4316C10.8121 37.1154 10.9483 36.9258 10.9574 36.9167C11.0481 36.8445 11.3568 36.8445 11.5565 36.8445H13.3812H23.6577C26.7171 36.8445 29.3407 38.0187 31.0564 40.1685C33.3351 42.9958 33.5257 46.6179 33.5257 50.0865C33.5257 55.2622 32.981 58.6134 31.7464 60.9348Z" fill="white"/>
<path d="M239.355 31.687H227.808V36.8537H239.355V31.687Z" fill="#B479B4"/>
<path d="M283.53 31.687H271.982V36.8537H283.53V31.687Z" fill="#D7DF23"/>
<path d="M331.59 31.687H320.042V36.8537H331.59V31.687Z" fill="#EF4955"/>
<path d="M253.998 12.4022C253.998 11.7337 253.898 10.1169 253.617 9.54781C253.136 8.6897 252.183 8.59938 251.702 8.59938H244.911V4.02881H252.945C254.479 4.02881 256.386 4.40818 257.439 5.26629C259.064 6.59411 259.164 8.78907 259.164 10.4059V70.6363H253.998V12.4022Z" fill="#B479B4"/>
<path d="M322.248 67.2577H345.216C348.493 67.2577 351.87 67.2577 353.958 65.677C357.535 63.1026 357.435 55.8223 357.435 53.3563C357.435 50.3936 357.435 42.2912 354.158 39.2291C352.569 37.7477 349.791 36.7541 346.605 36.7541H342.465V32.0119H346.106C349.882 32.0119 352.96 30.928 354.548 29.2479C356.936 26.6736 357.036 24.0089 357.036 20.2513C357.036 16.8911 357.135 13.3955 354.848 10.4327C352.96 7.95775 350.581 7.56934 348.593 7.56934H325.952V2.80908H347.694C351.171 2.80908 356.037 2.90844 359.514 7.55127C361.702 10.514 362.591 13.811 362.591 20.2332C362.591 25.671 361.892 28.444 359.614 31.208C358.425 32.59 356.237 34.1708 353.259 34.4688V34.6676C356.237 35.065 358.325 36.5464 359.514 37.9284C362.791 41.5867 362.991 49.3909 362.991 52.5524C362.991 56.8972 362.492 64.2859 359.115 68.1339C356.037 71.5934 352.061 71.9909 348.384 71.9909H322.23V67.2577H322.248Z" fill="#EF4955"/>
<path d="M269.876 66.0474C269.876 64.2499 270.257 62.5427 272.427 60.8355L305.399 34.6586C309.175 31.6236 310.41 28.968 310.41 21.8592C310.41 16.3583 309.938 13.513 308.712 11.8058C307.768 10.478 305.689 8.77076 301.06 8.77076H277.819V4.21826H300.588C304.273 4.21826 308.713 4.40795 311.926 7.72297C315.612 11.5167 315.703 18.3455 315.703 21.5702C315.703 25.5536 315.421 30.1061 312.87 33.8005C311.454 35.8871 308.994 37.9736 308.24 38.5427L276.303 63.9608C276.113 64.0602 275.169 64.9093 275.169 65.2887C275.169 66.0474 275.732 66.0474 276.022 66.0474H311.926V70.5999H274.796C270.067 70.5999 269.876 67.4746 269.876 66.0474Z" fill="#D7DF23"/>
</svg>
