<svg width="330" height="56" viewBox="0 0 330 56" fill="none" xmlns="http://www.w3.org/2000/svg">
<g clip-path="url(#clip0)">
<path d="M48.5105 55.5913C47.4226 55.5913 45.6004 55.5913 44.1317 54.1112C42.6087 52.5857 42.6087 50.4971 42.6087 49.244V23.0828C42.6087 20.849 43.334 19.5051 43.9504 18.7695C45.3556 17.0805 47.1597 16.9443 48.7371 16.9443H71.2563V22.1384H49.136C48.7915 22.1384 48.2748 22.2746 48.1297 22.3564C48.1569 22.3564 48.0844 22.538 48.0844 23.0828V33.2622H70.7305V38.4563H48.0934V49.8706C48.0934 50.0249 48.1206 50.1521 48.1478 50.2429C48.4017 50.3064 49.0816 50.4063 49.553 50.4063H71.4557V55.6004C71.4466 55.5913 48.5105 55.5913 48.5105 55.5913Z" fill="white"/>
<path d="M88.8437 55.5913V22.1384H73.84V16.9443H109.35V22.1384H94.3375V55.5913H88.8437Z" fill="white"/>
<path d="M126.883 56.0002C123.466 56.0002 117.101 56.0002 112.804 51.7051C108.154 47.0467 108.154 39.7641 108.154 36.2681C108.154 32.772 108.154 25.4894 112.804 20.8311C117.101 16.5269 123.466 16.5269 126.883 16.5269C130.301 16.5269 136.665 16.5269 140.962 20.8311C145.613 25.4894 145.613 32.772 145.613 36.2681C145.613 39.7641 145.613 47.0467 140.962 51.7051C136.665 56.0002 130.301 56.0002 126.883 56.0002ZM126.883 21.73C123.656 21.73 119.241 21.73 116.576 24.7175C114.055 27.5416 113.847 31.8004 113.847 36.2771C113.847 40.7539 114.055 45.0127 116.576 47.8367C119.241 50.8152 123.656 50.8152 126.883 50.8152C130.111 50.8152 134.526 50.8152 137.191 47.8276C139.711 45.0036 139.92 40.7448 139.92 36.2681C139.92 31.7913 139.711 27.5325 137.191 24.7085C134.526 21.73 130.111 21.73 126.883 21.73Z" fill="white"/>
<path d="M175.802 55.5916L157.453 41.4077C156.573 40.7176 155.313 39.5916 154.525 38.2205V55.6007H149.031V16.9446H154.525V33.3623C155.241 32.1637 156.301 31.2284 156.882 30.7744L174.043 16.9355H182.365L161.034 34.2432L160.707 34.4883C160.381 34.7335 159.375 35.469 159.284 35.8413C159.348 36.25 160.689 37.2852 161.26 37.721L184.423 55.5825H175.802V55.5916Z" fill="white"/>
<path d="M197.831 55.5915C191.857 55.5915 188.185 53.167 186.164 51.142C183.045 48.0183 181.767 43.8594 181.767 36.7856C181.767 31.3282 182.275 25.7164 185.973 21.7482C187.696 19.9502 191.531 16.9536 197.985 16.9536H213.08V22.1477H199.164C196.363 22.1477 192.356 22.52 189.844 25.7709C187.651 28.6131 187.469 32.9718 187.469 36.8401C187.469 40.318 187.632 43.932 189.563 46.6108C190.579 48.0274 193.081 50.4065 198.393 50.4065H213.642V55.6006H197.831V55.5915Z" fill="white"/>
<path d="M34.7397 21.5121C31.8024 18.5246 27.9042 16.9536 23.4711 16.9536H13.3628H11.2777H0V22.1477H5.36689C5.31249 22.6381 5.31249 23.083 5.31249 23.4553V50.2885C5.31249 51.5688 5.521 53.2033 7.1075 54.4292C8.45828 55.5098 10.1808 55.6006 11.6947 55.6006H24.3958C30.2885 55.6006 33.5793 52.9763 35.3018 50.7697C38.7377 46.411 39.1819 40.3997 39.1819 35.6596C39.1819 32.0456 39.1819 26.016 34.7397 21.5121ZM31.7027 46.3475C30.2431 49.0717 27.8226 50.3974 24.296 50.3974H11.4318C11.1417 50.3974 10.9604 50.3793 10.8426 50.3611C10.8244 50.2067 10.7972 49.9434 10.7972 49.5075V22.7198C10.7972 22.402 10.9332 22.2113 10.9423 22.2022C11.0329 22.1295 11.3412 22.1296 11.5406 22.1296H13.3628H23.6252C26.6803 22.1296 29.3003 23.31 31.0137 25.4712C33.2892 28.3134 33.4796 31.9547 33.4796 35.4417C33.4796 40.6449 32.9356 44.0138 31.7027 46.3475Z" fill="white"/>
<path d="M319.302 2.60613C318.251 3.1328 317.09 3.42338 316.066 3.98638C313.927 5.15777 312.44 7.48241 311.959 9.88876C311.878 10.3065 311.76 12.7582 311.769 12.731C311.506 10.5607 310.055 9.39841 309.113 8.69921C308.215 8.03632 307.336 6.1294 307.263 6.52894C307.145 7.10102 307.055 7.87287 306.973 8.9353C306.901 10.0159 307.082 11.6595 307.626 12.5948C308.07 13.3666 308.977 14.1748 310.101 14.7196C311.705 15.4915 312.168 17.2804 312.195 17.3621C312.44 16.5176 313.183 15.3644 313.464 15.0284C314.942 13.2032 316.356 12.9398 317.181 12.4132C318.26 11.723 319.348 10.7968 320.227 9.8252C321.75 8.14529 321.968 5.69353 322.113 3.42338C322.185 2.27923 322.258 1.14415 322.33 0C321.551 1.09875 320.499 2.00681 319.302 2.60613Z" fill="#75AF43"/>
<path d="M248.998 55.2734V37.7024H230.948C228.718 37.7024 226.044 36.9215 224.376 34.7967C223.152 33.1803 222.816 31.228 222.816 28.8307V16.2178H225.826V28.9397C225.826 30.2745 225.826 32.0634 226.996 33.4073C228.392 34.9692 230.731 35.0237 231.565 35.0237H248.998V16.2178H252.008V55.2734H248.998Z" fill="#8DC63F"/>
<path d="M270.275 19.9046C271.164 17.7798 272.279 15.7729 274.618 15.7729C276.957 15.7729 278.072 17.8342 278.96 19.9046L293.891 55.2826H290.664L285.932 43.8955H263.313L258.581 55.2826H255.353L270.275 19.9046ZM264.482 41.2168H284.762L276.24 20.7945C275.905 20.0136 275.406 18.5607 274.627 18.5607C273.847 18.5607 273.349 20.0136 273.013 20.7945L264.482 41.2168Z" fill="#8DC63F"/>
<path d="M326.99 55.2733V20.0679C326.99 19.7864 326.99 18.951 326.437 18.951C325.939 18.951 325.431 19.8953 325.041 20.5673L304.933 52.313C303.818 54.0384 302.93 55.7183 300.537 55.7183C297.418 55.7183 297.246 52.7035 297.246 51.1961V16.2177H300.256V50.8692C300.256 51.6502 300.092 52.5401 300.926 52.5401C301.425 52.5401 301.706 51.8136 301.987 51.4232L321.759 19.8953C323.319 17.4436 324.153 15.7637 326.664 15.7637C330.009 15.7637 330.009 19.6138 330.009 20.6218V55.2733H326.99Z" fill="#8DC63F"/>
</g>
<defs>
<clipPath id="clip0">
<rect width="330" height="56" fill="white"/>
</clipPath>
</defs>
</svg>
