<svg width="60" height="60" viewBox="0 0 60 60" fill="none" xmlns="http://www.w3.org/2000/svg">
<path d="M60 30C60 13.434 46.566 0 30 0C13.434 0 0 13.434 0 30C0 46.566 13.434 60 30 60C30.1762 60 30.3516 59.9963 30.5273 59.9931V36.6394H24.082V29.128H30.5273V23.6005C30.5273 17.1899 34.4408 13.7009 40.1591 13.7009C42.8975 13.7009 45.2513 13.905 45.9375 13.9961V20.696H41.9943C38.8834 20.696 38.2809 22.1745 38.2809 24.3439V29.128H45.7196L44.7501 36.6394H38.2809V58.8409C50.8205 55.2461 60 43.6935 60 30Z" fill="white"/>
</svg>
