<svg width="165" height="181" viewBox="0 0 165 181" fill="none" xmlns="http://www.w3.org/2000/svg">
<path d="M146.713 135.104C145.863 134.273 144.565 134.887 144.685 136.088C145.148 140.642 147.864 144.583 149.719 148.717C151.304 152.263 152.568 156.099 153.731 159.82C151.597 157.019 149.427 154.267 147.286 151.604C140.431 143.064 133.559 134.366 126.632 125.8C113.163 109.156 98.2638 93.1601 83.3765 77.7427C69.2618 63.1192 55.7267 48.2147 41.0853 33.9814C35.3643 28.4261 29.3333 23.2158 23.502 17.8638C20.146 14.7871 16.3448 12.3607 12.8974 9.40318C9.42037 6.41513 4.25435 4.09617 1.41359 0.5749C0.921404 -0.0403504 -0.0285343 0.614978 0.2946 1.31219C1.96845 4.97979 6.46398 6.5003 9.2903 9.09978C12.8958 12.445 16.8716 15.4159 20.4109 18.7783C25.7583 23.8706 30.892 29.2912 36.5893 34.2438C52.2462 47.8649 66.3626 64.0605 79.4294 80.0909C92.668 96.3526 107.383 111.599 120.344 128.025C127.274 136.814 134.152 146.138 141.465 154.547C142.373 155.589 143.257 156.704 144.116 157.861C138.383 154.004 131.614 149.855 125.177 149.037C124.109 148.895 123.306 150.408 124.103 151.19C126.559 153.61 129.082 154.723 132.148 156.278C136.797 158.638 141.619 161.632 145.822 164.763C148.761 166.949 151.412 169.618 154.265 171.935C155.416 173.324 156.634 174.636 157.919 175.841C158.475 177.204 159.123 178.478 159.947 179.562C161.529 181.656 164.33 179.713 164.113 177.542C164.102 177.427 164.079 177.318 164.068 177.204C164.325 176.78 164.468 176.306 164.401 175.799C164.519 175.427 164.463 175.005 164.149 174.633C163.971 174.42 163.775 174.23 163.585 174.023C162.52 168.352 160.425 162.462 158.406 157.283C155.668 150.312 152.048 140.293 146.713 135.104Z" fill="#8DC63F"/>
</svg>
